  0
SECTION
  2
HEADER
  9
$ACADVER
  1
AC1032
  9
$ACADMAINTVER
 90
      174
  9
$DWGCODEPAGE
  3
ANSI_1252
  9
$LASTSAVEDBY
  1
ano
  9
$REQUIREDVERSIONS
160
                 0
  9
$INSBASE
 10
0.0
 20
0.0
 30
0.0
  9
$EXTMIN
 10
0.0
 20
-207.751637157714
 30
0.0
  9
$EXTMAX
 10
180.0
 20
180.0
 30
0.0
  9
$LIMMIN
 10
0.0
 20
0.0
  9
$LIMMAX
 10
12.0
 20
9.0
  9
$ORTHOMODE
 70
     0
  9
$REGENMODE
 70
     1
  9
$FILLMODE
 70
     1
  9
$QTEXTMODE
 70
     0
  9
$MIRRTEXT
 70
     1
  9
$LTSCALE
 40
1.0
  9
$ATTMODE
 70
     1
  9
$TEXTSIZE
 40
0.2
  9
$TRACEWID
 40
0.05
  9
$TEXTSTYLE
  7
Standard
  9
$CLAYER
  8
0
  9
$CELTYPE
  6
ByLayer
  9
$CECOLOR
 62
   256
  9
$CELTSCALE
 40
1.0
  9
$DISPSILH
 70
     0
  9
$DIMSCALE
 40
1.0
  9
$DIMASZ
 40
0.18
  9
$DIMEXO
 40
0.0625
  9
$DIMDLI
 40
0.38
  9
$DIMRND
 40
0.0
  9
$DIMDLE
 40
0.0
  9
$DIMEXE
 40
0.18
  9
$DIMTP
 40
0.0
  9
$DIMTM
 40
0.0
  9
$DIMTXT
 40
0.18
  9
$DIMCEN
 40
0.09
  9
$DIMTSZ
 40
0.0
  9
$DIMTOL
 70
     0
  9
$DIMLIM
 70
     0
  9
$DIMTIH
 70
     1
  9
$DIMTOH
 70
     1
  9
$DIMSE1
 70
     0
  9
$DIMSE2
 70
     0
  9
$DIMTAD
 70
     0
  9
$DIMZIN
 70
     0
  9
$DIMBLK
  1

  9
$DIMASO
 70
     1
  9
$DIMSHO
 70
     1
  9
$DIMPOST
  1

  9
$DIMAPOST
  1

  9
$DIMALT
 70
     0
  9
$DIMALTD
 70
     2
  9
$DIMALTF
 40
25.4
  9
$DIMLFAC
 40
1.0
  9
$DIMTOFL
 70
     0
  9
$DIMTVP
 40
0.0
  9
$DIMTIX
 70
     0
  9
$DIMSOXD
 70
     0
  9
$DIMSAH
 70
     0
  9
$DIMBLK1
  1

  9
$DIMBLK2
  1

  9
$DIMSTYLE
  2
Standard
  9
$DIMCLRD
 70
     0
  9
$DIMCLRE
 70
     0
  9
$DIMCLRT
 70
     0
  9
$DIMTFAC
 40
1.0
  9
$DIMGAP
 40
0.09
  9
$DIMJUST
 70
     0
  9
$DIMSD1
 70
     0
  9
$DIMSD2
 70
     0
  9
$DIMTOLJ
 70
     1
  9
$DIMTZIN
 70
     0
  9
$DIMALTZ
 70
     0
  9
$DIMALTTZ
 70
     0
  9
$DIMUPT
 70
     0
  9
$DIMDEC
 70
     4
  9
$DIMTDEC
 70
     4
  9
$DIMALTU
 70
     2
  9
$DIMALTTD
 70
     2
  9
$DIMTXSTY
  7
Standard
  9
$DIMAUNIT
 70
     0
  9
$DIMADEC
 70
     0
  9
$DIMALTRND
 40
0.0
  9
$DIMAZIN
 70
     0
  9
$DIMDSEP
 70
    46
  9
$DIMATFIT
 70
     3
  9
$DIMFRAC
 70
     0
  9
$DIMLDRBLK
  1

  9
$DIMLUNIT
 70
     2
  9
$DIMLWD
 70
    -2
  9
$DIMLWE
 70
    -2
  9
$DIMTMOVE
 70
     0
  9
$DIMFXL
 40
1.0
  9
$DIMFXLON
 70
     0
  9
$DIMJOGANG
 40
0.7853981633974483
  9
$DIMTFILL
 70
     0
  9
$DIMTFILLCLR
 70
     0
  9
$DIMARCSYM
 70
     0
  9
$DIMLTYPE
  6

  9
$DIMLTEX1
  6

  9
$DIMLTEX2
  6

  9
$DIMTXTDIRECTION
 70
     0
  9
$LUNITS
 70
     2
  9
$LUPREC
 70
     4
  9
$SKETCHINC
 40
0.1
  9
$FILLETRAD
 40
0.5
  9
$AUNITS
 70
     0
  9
$AUPREC
 70
     0
  9
$MENU
  1
.
  9
$ELEVATION
 40
0.0
  9
$PELEVATION
 40
0.0
  9
$THICKNESS
 40
0.0
  9
$LIMCHECK
 70
     0
  9
$CHAMFERA
 40
0.5
  9
$CHAMFERB
 40
0.5
  9
$CHAMFERC
 40
1.0
  9
$CHAMFERD
 40
0.0
  9
$SKPOLY
 70
     0
  9
$TDCREATE
 40
2459166.462118056
  9
$TDUCREATE
 40
2459166.420452454
  9
$TDUPDATE
 40
2459166.523854167
  9
$TDUUPDATE
 40
2459166.482187500
  9
$TDINDWG
 40
0.0617014005
  9
$TDUSRTIMER
 40
0.0617014005
  9
$USRTIMER
 70
     1
  9
$ANGBASE
 50
0.0
  9
$ANGDIR
 70
     0
  9
$PDMODE
 70
     0
  9
$PDSIZE
 40
0.0
  9
$PLINEWID
 40
0.0
  9
$SPLFRAME
 70
     0
  9
$SPLINETYPE
 70
     6
  9
$SPLINESEGS
 70
     8
  9
$HANDSEED
  5
DD
  9
$SURFTAB1
 70
     6
  9
$SURFTAB2
 70
     6
  9
$SURFTYPE
 70
     6
  9
$SURFU
 70
     6
  9
$SURFV
 70
     6
  9
$UCSBASE
  2

  9
$UCSNAME
  2

  9
$UCSORG
 10
0.0
 20
0.0
 30
0.0
  9
$UCSXDIR
 10
1.0
 20
0.0
 30
0.0
  9
$UCSYDIR
 10
0.0
 20
1.0
 30
0.0
  9
$UCSORTHOREF
  2

  9
$UCSORTHOVIEW
 70
     0
  9
$UCSORGTOP
 10
0.0
 20
0.0
 30
0.0
  9
$UCSORGBOTTOM
 10
0.0
 20
0.0
 30
0.0
  9
$UCSORGLEFT
 10
0.0
 20
0.0
 30
0.0
  9
$UCSORGRIGHT
 10
0.0
 20
0.0
 30
0.0
  9
$UCSORGFRONT
 10
0.0
 20
0.0
 30
0.0
  9
$UCSORGBACK
 10
0.0
 20
0.0
 30
0.0
  9
$PUCSBASE
  2

  9
$PUCSNAME
  2

  9
$PUCSORG
 10
0.0
 20
0.0
 30
0.0
  9
$PUCSXDIR
 10
1.0
 20
0.0
 30
0.0
  9
$PUCSYDIR
 10
0.0
 20
1.0
 30
0.0
  9
$PUCSORTHOREF
  2

  9
$PUCSORTHOVIEW
 70
     0
  9
$PUCSORGTOP
 10
0.0
 20
0.0
 30
0.0
  9
$PUCSORGBOTTOM
 10
0.0
 20
0.0
 30
0.0
  9
$PUCSORGLEFT
 10
0.0
 20
0.0
 30
0.0
  9
$PUCSORGRIGHT
 10
0.0
 20
0.0
 30
0.0
  9
$PUCSORGFRONT
 10
0.0
 20
0.0
 30
0.0
  9
$PUCSORGBACK
 10
0.0
 20
0.0
 30
0.0
  9
$USERI1
 70
     0
  9
$USERI2
 70
     0
  9
$USERI3
 70
     0
  9
$USERI4
 70
     0
  9
$USERI5
 70
     0
  9
$USERR1
 40
0.0
  9
$USERR2
 40
0.0
  9
$USERR3
 40
0.0
  9
$USERR4
 40
0.0
  9
$USERR5
 40
0.0
  9
$WORLDVIEW
 70
     1
  9
$SHADEDGE
 70
     3
  9
$SHADEDIF
 70
    70
  9
$TILEMODE
 70
     1
  9
$MAXACTVP
 70
    64
  9
$PINSBASE
 10
0.0
 20
0.0
 30
0.0
  9
$PLIMCHECK
 70
     0
  9
$PEXTMIN
 10
1.000000000000000E+20
 20
1.000000000000000E+20
 30
1.000000000000000E+20
  9
$PEXTMAX
 10
-1.000000000000000E+20
 20
-1.000000000000000E+20
 30
-1.000000000000000E+20
  9
$PLIMMIN
 10
0.0
 20
0.0
  9
$PLIMMAX
 10
12.0
 20
9.0
  9
$UNITMODE
 70
     0
  9
$VISRETAIN
 70
     1
  9
$PLINEGEN
 70
     0
  9
$PSLTSCALE
 70
     1
  9
$TREEDEPTH
 70
  3020
  9
$CMLSTYLE
  2
Standard
  9
$CMLJUST
 70
     0
  9
$CMLSCALE
 40
1.0
  9
$PROXYGRAPHICS
 70
     1
  9
$MEASUREMENT
 70
     0
  9
$CELWEIGHT
370
    -1
  9
$ENDCAPS
280
     0
  9
$JOINSTYLE
280
     0
  9
$LWDISPLAY
290
     1
  9
$INSUNITS
 70
     1
  9
$HYPERLINKBASE
  1

  9
$STYLESHEET
  1

  9
$XEDIT
290
     1
  9
$CEPSNTYPE
380
     0
  9
$PSTYLEMODE
290
     1
  9
$FINGERPRINTGUID
  2
{92BB2C44-509D-44F3-8B48-185AA92D4745}
  9
$VERSIONGUID
  2
{3D4D0935-9D91-194F-8346-85EC9B67F2DE}
  9
$EXTNAMES
290
     1
  9
$PSVPSCALE
 40
0.0
  9
$OLESTARTUP
290
     0
  9
$SORTENTS
280
   127
  9
$INDEXCTL
280
     0
  9
$HIDETEXT
280
     1
  9
$XCLIPFRAME
280
     2
  9
$HALOGAP
280
     0
  9
$OBSCOLOR
 70
   257
  9
$OBSLTYPE
280
     0
  9
$INTERSECTIONDISPLAY
280
     0
  9
$INTERSECTIONCOLOR
 70
   257
  9
$DIMASSOC
280
     2
  9
$PROJECTNAME
  1

  9
$CAMERADISPLAY
290
     0
  9
$LENSLENGTH
 40
50.0
  9
$CAMERAHEIGHT
 40
0.0
  9
$STEPSPERSEC
 40
2.0
  9
$STEPSIZE
 40
6.0
  9
$3DDWFPREC
 40
2.0
  9
$PSOLWIDTH
 40
0.25
  9
$PSOLHEIGHT
 40
4.0
  9
$LOFTANG1
 40
1.570796326794897
  9
$LOFTANG2
 40
1.570796326794897
  9
$LOFTMAG1
 40
0.0
  9
$LOFTMAG2
 40
0.0
  9
$LOFTPARAM
 70
     7
  9
$LOFTNORMALS
280
     1
  9
$LATITUDE
 40
37.795
  9
$LONGITUDE
 40
-122.394
  9
$NORTHDIRECTION
 40
0.0
  9
$TIMEZONE
 70
 -8000
  9
$LIGHTGLYPHDISPLAY
280
     1
  9
$TILEMODELIGHTSYNCH
280
     1
  9
$CMATERIAL
347
3C
  9
$SOLIDHIST
280
     1
  9
$SHOWHIST
280
     1
  9
$DWFFRAME
280
     2
  9
$DGNFRAME
280
     2
  9
$REALWORLDSCALE
290
     1
  9
$INTERFERECOLOR
 62
   256
  9
$INTERFEREOBJVS
345
33
  9
$INTERFEREVPVS
346
69
  9
$CSHADOW
280
     0
  9
$SHADOWPLANELOCATION
 40
0.0
  0
ENDSEC
  0
SECTION
  2
CLASSES
  0
CLASS
  1
ACDBDICTIONARYWDFLT
  2
AcDbDictionaryWithDefault
  3
ObjectDBX Classes
 90
        0
 91
        1
280
     0
281
     0
  0
CLASS
  1
VISUALSTYLE
  2
AcDbVisualStyle
  3
ObjectDBX Classes
 90
     4095
 91
       26
280
     0
281
     0
  0
CLASS
  1
MATERIAL
  2
AcDbMaterial
  3
ObjectDBX Classes
 90
     1153
 91
        3
280
     0
281
     0
  0
CLASS
  1
SUN
  2
AcDbSun
  3
SCENEOE
 90
     1153
 91
        1
280
     0
281
     0
  0
CLASS
  1
TABLESTYLE
  2
AcDbTableStyle
  3
ObjectDBX Classes
 90
     4095
 91
        1
280
     0
281
     0
  0
CLASS
  1
SCALE
  2
AcDbScale
  3
ObjectDBX Classes
 90
     1153
 91
       17
280
     0
281
     0
  0
CLASS
  1
MLEADERSTYLE
  2
AcDbMLeaderStyle
  3
ACDB_MLEADERSTYLE_CLASS
 90
     4095
 91
        1
280
     0
281
     0
  0
CLASS
  1
ACDBSECTIONVIEWSTYLE
  2
AcDbSectionViewStyle
  3
ObjectDBX Classes
 90
     1025
 91
        1
280
     0
281
     0
  0
CLASS
  1
ACDBDETAILVIEWSTYLE
  2
AcDbDetailViewStyle
  3
ObjectDBX Classes
 90
     1025
 91
        1
280
     0
281
     0
  0
CLASS
  1
DICTIONARYVAR
  2
AcDbDictionaryVar
  3
ObjectDBX Classes
 90
        0
 91
        5
280
     0
281
     0
  0
CLASS
  1
CELLSTYLEMAP
  2
AcDbCellStyleMap
  3
ObjectDBX Classes
 90
     1152
 91
        3
280
     0
281
     0
  0
ENDSEC
  0
SECTION
  2
TABLES
  0
TABLE
  2
VPORT
  5
8
330
0
100
AcDbSymbolTable
 70
     1
  0
VPORT
  5
29
330
8
100
AcDbSymbolTableRecord
100
AcDbViewportTableRecord
  2
*Active
 70
     0
 10
0.0
 20
0.0
 11
1.0
 21
1.0
 12
64.74681297418874
 22
190.2171438562913
 13
0.0
 23
0.0
 14
0.5
 24
0.5
 15
0.5
 25
0.5
 16
0.0
 26
0.0
 36
1.0
 17
104.9999999737534
 27
-148.4999999628701
 37
0.0
 40
306.9015176717865
 41
2.204624277456647
 42
50.0
 43
0.0
 44
0.0
 50
0.0
 51
0.0
 71
     0
 72
   100
 73
     1
 74
     3
 75
     0
 76
     0
 77
     0
 78
     0
281
     0
 65
     1
110
0.0
120
0.0
130
0.0
111
1.0
121
0.0
131
0.0
112
0.0
122
1.0
132
0.0
 79
     0
146
0.0
348
2F
 60
     3
 61
     5
292
     1
282
     1
141
0.0
142
0.0
361
3F
1001
ACAD_NAV_VCDISPLAY
1070
     3
  0
ENDTAB
  0
TABLE
  2
LTYPE
  5
5
330
0
100
AcDbSymbolTable
 70
     2
  0
LTYPE
  5
14
330
5
100
AcDbSymbolTableRecord
100
AcDbLinetypeTableRecord
  2
ByBlock
 70
     0
  3

 72
    65
 73
     0
 40
0.0
  0
LTYPE
  5
15
330
5
100
AcDbSymbolTableRecord
100
AcDbLinetypeTableRecord
  2
ByLayer
 70
     0
  3

 72
    65
 73
     0
 40
0.0
  0
LTYPE
  5
16
330
5
100
AcDbSymbolTableRecord
100
AcDbLinetypeTableRecord
  2
Continuous
 70
     0
  3
Solid line
 72
    65
 73
     0
 40
0.0
  0
ENDTAB
  0
TABLE
  2
LAYER
  5
2
102
{ACAD_XDICTIONARY
360
C9
102
}
330
0
100
AcDbSymbolTable
 70
     2
  0
LAYER
  5
10
330
2
100
AcDbSymbolTableRecord
100
AcDbLayerTableRecord
  2
0
 70
     0
 62
     7
  6
Continuous
370
    -3
390
F
347
3E
348
0
  0
LAYER
  5
40
330
2
100
AcDbSymbolTableRecord
100
AcDbLayerTableRecord
  2
Calque 1
 70
     0
 62
     7
  6
Continuous
370
    -3
390
F
347
3E
348
0
  0
ENDTAB
  0
TABLE
  2
STYLE
  5
3
330
0
100
AcDbSymbolTable
 70
     1
  0
STYLE
  5
11
330
3
100
AcDbSymbolTableRecord
100
AcDbTextStyleTableRecord
  2
Standard
 70
     0
 40
0.0
 41
1.0
 50
0.0
 71
     0
 42
0.2
  3
txt
  4

  0
ENDTAB
  0
TABLE
  2
VIEW
  5
6
330
0
100
AcDbSymbolTable
 70
     2
  0
ENDTAB
  0
TABLE
  2
UCS
  5
7
330
0
100
AcDbSymbolTable
 70
     0
  0
ENDTAB
  0
TABLE
  2
APPID
  5
9
330
0
100
AcDbSymbolTable
 70
     3
  0
APPID
  5
12
330
9
100
AcDbSymbolTableRecord
100
AcDbRegAppTableRecord
  2
ACAD
 70
     0
  0
APPID
  5
B3
330
9
100
AcDbSymbolTableRecord
100
AcDbRegAppTableRecord
  2
ACAD_EXEMPT_FROM_CAD_STANDARDS
 70
     0
  0
APPID
  5
C2
330
9
100
AcDbSymbolTableRecord
100
AcDbRegAppTableRecord
  2
ACAD_NAV_VCDISPLAY
 70
     0
  0
ENDTAB
  0
TABLE
  2
DIMSTYLE
  5
A
330
0
100
AcDbSymbolTable
 70
     2
100
AcDbDimStyleTable
 71
     1
340
27
  0
DIMSTYLE
105
27
330
A
100
AcDbSymbolTableRecord
100
AcDbDimStyleTableRecord
  2
Standard
 70
     0
340
11
  0
ENDTAB
  0
TABLE
  2
BLOCK_RECORD
  5
1
330
0
100
AcDbSymbolTable
 70
     2
  0
BLOCK_RECORD
  5
1F
330
1
100
AcDbSymbolTableRecord
100
AcDbBlockTableRecord
  2
*Model_Space
340
22
 70
     0
280
     1
281
     0
  0
BLOCK_RECORD
  5
1B
330
1
100
AcDbSymbolTableRecord
100
AcDbBlockTableRecord
  2
*Paper_Space
340
1E
 70
     0
280
     1
281
     0
  0
BLOCK_RECORD
  5
23
330
1
100
AcDbSymbolTableRecord
100
AcDbBlockTableRecord
  2
*Paper_Space0
340
26
 70
     0
280
     1
281
     0
  0
ENDTAB
  0
ENDSEC
  0
SECTION
  2
BLOCKS
  0
BLOCK
  5
20
330
1F
100
AcDbEntity
  8
0
100
AcDbBlockBegin
  2
*Model_Space
 70
     0
 10
0.0
 20
0.0
 30
0.0
  3
*Model_Space
  1

  0
ENDBLK
  5
21
330
1F
100
AcDbEntity
  8
0
100
AcDbBlockEnd
  0
BLOCK
  5
1C
330
1B
100
AcDbEntity
 67
     1
  8
0
100
AcDbBlockBegin
  2
*Paper_Space
 70
     0
 10
0.0
 20
0.0
 30
0.0
  3
*Paper_Space
  1

  0
ENDBLK
  5
1D
330
1B
100
AcDbEntity
 67
     1
  8
0
100
AcDbBlockEnd
  0
BLOCK
  5
24
330
23
100
AcDbEntity
 67
     1
  8
0
100
AcDbBlockBegin
  2
*Paper_Space0
 70
     0
 10
0.0
 20
0.0
 30
0.0
  3
*Paper_Space0
  1

  0
ENDBLK
  5
25
330
23
100
AcDbEntity
 67
     1
  8
0
100
AcDbBlockEnd
  0
ENDSEC
  0
SECTION
  2
ENTITIES
  0
LWPOLYLINE
  5
8F
330
1F
100
AcDbEntity
  8
Calque 1
 62
     7
420
 16777215
370
    70
100
AcDbPolyline
 90
       14
 70
     0
 43
0.0
 10
18.57448907851824
 20
21.30537584018064
 10
18.90459315948609
 20
20.92050868409607
 10
19.27652748831803
 20
20.5832423334928
 10
20.09927738509407
 20
20.01709336351888
 10
20.82635422822876
 20
19.60832980031744
 10
21.5741693810341
 20
19.23939540151516
 10
23.12423850925478
 20
18.61062478631531
 10
24.54556667854276
 20
18.12318981268789
 10
25.22513836913518
 20
17.81316703986589
 10
25.84809947920604
 20
17.39182930141939
 10
26.56574550485198
 20
16.85123254530642
 10
26.87337747101768
 20
16.52759120854698
 10
26.98978050836874
 20
16.33094696828276
 10
27.07186436892052
 20
16.10290117258741
  0
LWPOLYLINE
  5
90
330
1F
100
AcDbEntity
  8
Calque 1
 62
     7
420
 16777215
370
    70
100
AcDbPolyline
 90
       16
 70
     0
 43
0.0
 10
67.43439699833139
 20
21.78226935137669
 10
67.31000962286419
 20
21.3964278356317
 10
67.23102505346045
 20
21.2133364986891
 10
67.1092253799297
 20
20.90624876792599
 10
67.14959969450186
 20
20.61437136099719
 10
67.33245938005804
 20
20.36028501781139
 10
67.59653961678729
 20
20.10432148052894
 10
67.7374552779752
 20
19.83616852714228
 10
67.72707412000875
 20
19.53026656619329
 10
67.66861093339769
 20
19.34948387857669
 10
67.62574336402377
 20
19.24263905324889
 10
67.48083789564258
 20
18.91029827084065
 10
67.35216057010145
 20
18.73451408610678
 10
67.22290107331997
 20
18.45912608715747
 10
67.22456769967863
 20
18.17278913950179
 10
67.34768908720486
 20
17.88041335068179
  0
LWPOLYLINE
  5
91
330
1F
100
AcDbEntity
  8
Calque 1
 62
     7
420
 16777215
370
    70
100
AcDbPolyline
 90
       10
 70
     0
 43
0.0
 10
73.02705726599412
 20
21.30537584018064
 10
71.10144688483448
 20
20.51642378377794
 10
70.64978907565552
 20
20.24797333750229
 10
70.46868265348215
 20
20.1191663962337
 10
70.36242578664175
 20
20.03809649146253
 10
69.94801880340147
 20
19.70187353725836
 10
69.53093262826616
 20
19.36995068604567
 10
69.19455504169023
 20
19.10485829206737
 10
68.99028014868282
 20
18.81034216924883
 10
68.90843148748281
 20
18.44401477300438
  0
LWPOLYLINE
  5
92
330
1F
100
AcDbEntity
  8
Calque 1
 62
     7
420
 16777215
370
    70
100
AcDbPolyline
 90
       11
 70
     0
 43
0.0
 10
35.09234614812676
 20
67.86752411514012
 10
35.10999997197539
 20
67.12026242400805
 10
35.16136064951753
 20
66.3743333589554
 10
35.21098242699824
 20
65.75233081379915
 10
35.09309662880677
 20
65.26313671849604
 10
34.78765653830687
 20
64.83403323782034
 10
34.42747517783926
 20
64.50021561248483
 10
34.06184646059566
 20
64.1722837946712
 10
33.73816764888767
 20
63.87170137941105
 10
33.53933120938732
 20
63.55553397920719
 10
33.44489583672223
 20
63.18529691430621
  0
LWPOLYLINE
  5
93
330
1F
100
AcDbEntity
  8
Calque 1
 62
     7
420
 16777215
370
    70
100
AcDbPolyline
 90
       15
 70
     0
 43
0.0
 10
58.33006633004323
 20
59.06667113579485
 10
58.68114065890289
 20
58.51250220028778
 10
58.96363046607524
 20
57.92268857019501
 10
59.08477358125383
 20
57.61481608854375
 10
59.15167626303373
 20
57.43223602199981
 10
59.24903016299715
 20
57.20405080941961
 10
59.75639003453989
 20
56.35899182336061
 10
60.34488030198325
 20
55.56039225742093
 10
60.48787004964079
 20
55.35834046865787
 10
60.54346792898108
 20
55.27674194672671
 10
60.57174081496679
 20
55.23614240455096
 10
60.68934328037727
 20
55.07198080517348
 10
60.87426752386801
 20
54.71859334761695
 10
60.89732277248673
 20
54.51915223309074
 10
60.84459575271329
 20
54.29773602383441
  0
LWPOLYLINE
  5
94
330
1F
100
AcDbEntity
  8
Calque 1
 62
     7
420
 16777215
370
    70
100
AcDbPolyline
 90
       11
 70
     0
 43
0.0
 10
56.24907646300588
 20
62.36157175860393
 10
55.99902401041823
 20
62.20563733270134
 10
55.73067069260109
 20
62.12393537586307
 10
55.16555569224005
 20
62.10604432776415
 10
54.10513087866685
 20
62.20103127261072
 10
53.04088375132341
 20
62.23148343075958
 10
52.59247443260004
 20
62.1720289790017
 10
52.18555140807755
 20
62.03187007323977
 10
51.82490199675506
 20
61.79788040970152
 10
51.51531351763161
 20
61.45693368461468
 10
51.3934334399189
 20
61.19101495839547
  0
LWPOLYLINE
  5
95
330
1F
100
AcDbEntity
  8
Calque 1
 62
     7
420
 16777215
370
    70
100
AcDbPolyline
 90
       19
 70
     0
 43
0.0
 10
27.41869601342673
 20
22.95282615158521
 10
27.45558215219896
 20
22.7786959530989
 10
27.55033643269304
 20
22.62868041974053
 10
27.63248471220197
 20
22.46950865505345
 10
27.66307960174402
 20
22.29903181318476
 10
27.68154222749639
 20
22.08155617228166
 10
27.63090291335348
 20
21.67418364277292
 10
27.4263785806811
 20
21.30684762820044
 10
26.7989989281113
 20
20.73225898669315
 10
26.50622544674434
 20
20.44232692037821
 10
26.3674315303678
 20
20.29092902911016
 10
26.15920750563232
 20
20.02596046538892
 10
25.81925650875104
 20
19.38783912291441
 10
25.58445264982999
 20
18.70140763254661
 10
25.48445878739221
 20
18.35072438369084
 10
25.43496000372933
 20
18.17537942365789
 10
25.41888955568858
 20
18.11888828585891
 10
25.39055270520364
 20
18.01086004111488
 10
25.337703500274
 20
17.79370543955518
  0
LWPOLYLINE
  5
96
330
1F
100
AcDbEntity
  8
Calque 1
 62
     7
420
 16777215
370
    70
100
AcDbPolyline
 90
       17
 70
     0
 43
0.0
 10
48.83555006168556
 20
67.52069247063388
 10
48.71586517447714
 20
67.20704330511718
 10
48.55529922995909
 20
66.95234941614933
 10
48.35886870486316
 20
66.74953392300015
 10
48.13159007592108
 20
66.59151994493943
 10
47.87847981986463
 20
66.47123060123705
 10
47.60455441342554
 20
66.38158901116281
 10
47.01432405632647
 20
66.26594156897813
 10
46.40435078376773
 20
66.20951563770045
 10
45.80413373888002
 20
66.12045417226169
 10
45.52573733793866
 20
66.03682040643412
 10
45.25903858649887
 20
65.92176579747451
 10
45.01232759888916
 20
65.75941427285505
 10
44.79389448943797
 20
65.53388976004782
 10
44.27549070361972
 20
64.84324370417938
 10
44.06902647050393
 20
64.46974190337943
 10
43.93655308303524
 20
64.05237602557171
  0
LWPOLYLINE
  5
97
330
1F
100
AcDbEntity
  8
Calque 1
 62
     7
420
 16777215
370
    70
100
AcDbPolyline
 90
       26
 70
     0
 43
0.0
 10
22.47634507921317
 20
62.92517318092652
 10
22.57898850727624
 20
62.60651442804252
 10
22.72001641276023
 20
62.32217218613858
 10
22.89856380953043
 20
62.07084079976784
 10
23.11376571145212
 20
61.85121461348342
 10
23.36475713239057
 20
61.66198797183843
 10
23.65067308621105
 20
61.50185521938599
 10
23.78679613080899
 20
61.44041761563705
 10
23.84716603138423
 20
61.41303738246228
 10
23.96572658318428
 20
61.35301089057829
 10
24.42282956434712
 20
61.07372120860779
 10
24.47937998515972
 20
61.03789270091536
 10
24.57082374587482
 20
60.97959093201032
 10
24.82016041518841
 20
60.77946716491922
 10
25.00476118786179
 20
60.55612528519632
 10
25.12253197619054
 20
60.31191520616097
 10
25.17137869247027
 20
60.04918684113257
 10
25.14920724899659
 20
59.77029010343049
 10
25.05392355806509
 20
59.47757490637409
 10
24.9637056716953
 20
59.26924659216251
 10
24.91173060544934
 20
58.92476165152704
 10
25.00061787108698
 20
58.61081027326794
 10
25.09513387481189
 20
58.46250777503742
 10
25.23293078506609
 20
58.30336818074446
 10
25.56738657990518
 20
57.94728465261657
 10
26.24813921321826
 20
57.24580500213725
  0
LWPOLYLINE
  5
98
330
1F
100
AcDbEntity
  8
Calque 1
 62
     7
420
 16777215
370
    70
100
AcDbPolyline
 90
       28
 70
     0
 43
0.0
 10
14.15238428800627
 20
36.82608663960289
 10
14.06061097026897
 20
36.84819963725996
 10
14.02929680221923
 20
36.86618387436126
 10
14.02716112351269
 20
36.86927752246451
 10
14.02627619123282
 20
36.87091130927818
 10
14.00916862518852
 20
36.90641759428571
 10
13.91966149039641
 20
37.07920799161086
 10
13.72070220205681
 20
37.41193668333584
 10
12.83991198775185
 20
38.68628516049277
 10
12.65739367139835
 20
39.00492483627979
 10
12.55181107370611
 20
39.26800739461774
 10
12.48880605881639
 20
39.53873007835289
 10
12.46307094171337
 20
39.81354900016645
 10
12.50217966080426
 20
40.36130000875358
 10
12.55640812696658
 20
40.62714432088954
 10
12.57516359231588
 20
40.7023981005657
 10
12.60072129382434
 20
40.81683291454121
 10
12.63473228864211
 20
41.03861522568647
 10
12.63860459794873
 20
41.45614380317482
 10
12.56507343342192
 20
41.84336379220474
 10
12.42389411498784
 20
42.2055625583096
 10
12.2248219625726
 20
42.54802746702274
 10
11.97761229610235
 20
42.87604588387753
 10
11.83900443257352
 20
43.03628995958721
 10
11.79833955241558
 20
43.08063654159663
 10
11.77825872800061
 20
43.09932477550633
 10
11.60842243325682
 20
43.16823146950219
 10
11.24767058832443
 20
43.11241548850897
  0
LWPOLYLINE
  5
99
330
1F
100
AcDbEntity
  8
Calque 1
 62
     7
420
 16777215
370
    70
100
AcDbPolyline
 90
       21
 70
     0
 43
0.0
 10
51.30672552879236
 20
55.85847842411238
 10
51.89478719271903
 20
55.50246141710461
 10
52.40951295558209
 20
55.06918536508539
 10
52.80194322127933
 20
54.51224069129267
 10
52.86780953895741
 20
54.36663197380051
 10
52.89882623705199
 20
54.28981169878981
 10
52.95610088918809
 20
54.13432251798933
 10
53.08792374571114
 20
53.4815349320373
 10
53.08965267465135
 20
53.39577248584319
 10
53.08608721335172
 20
53.255588030467
 10
53.07734141578382
 20
52.81455026482078
 10
53.10907943874877
 20
51.93730247297456
 10
53.26077951917933
 20
51.07600114446178
 10
53.40198629344346
 20
50.65489645798235
 10
53.46149349114575
 20
50.51348103340049
 10
53.50329573418032
 20
50.41668873395212
 10
53.81323523705669
 20
49.63520179303099
 10
53.91716740490537
 20
49.26154861194553
 10
53.96245172365561
 20
49.01123688526528
 10
53.94759570408553
 20
48.76526450367542
 10
53.82125495146243
 20
48.53165993391854
  0
LWPOLYLINE
  5
9A
330
1F
100
AcDbEntity
  8
Calque 1
 62
     7
420
 16777215
370
    70
100
AcDbPolyline
 90
       43
 70
     0
 43
0.0
 10
43.19953583845957
 20
60.93089122501578
 10
43.09009221201367
 20
61.09861745918562
 10
43.01954287401849
 20
61.28393608879024
 10
42.87988976392244
 20
61.66041256717678
 10
42.82427084657941
 20
61.74719179051114
 10
42.79369630895886
 20
61.78616584148883
 10
42.74288464836858
 20
61.84681181427446
 10
42.63815574042292
 20
61.95828565882925
 10
42.4171244980648
 20
62.14428022954334
 10
42.18227901202418
 20
62.28542166272132
 10
41.93555967222898
 20
62.38701118275261
 10
41.67890686860715
 20
62.45435001402663
 10
41.14356242959526
 20
62.50748050786052
 10
40.59176881441193
 20
62.48722293933836
 10
40.43371655087425
 20
62.47365237986526
 10
40.25066739855883
 20
62.45316703031338
 10
39.88761897810059
 20
62.39761761617894
 10
39.17163255451055
 20
62.23886263179518
 10
38.4651474123771
 20
62.03686839927332
 10
37.76338842172577
 20
61.8159976706314
 10
37.4127890050889
 20
61.70609698027105
 10
37.2451262726113
 20
61.65498029703589
 10
37.12449273379544
 20
61.61981152327718
 10
36.64363608966786
 20
61.50317627580948
 10
36.16302234372489
 20
61.43509694761266
 10
35.67939666978933
 20
61.429029756238
 10
35.18950424168398
 20
61.49843091923681
 10
34.96229299497205
 20
61.55534208915278
 10
34.76418786677305
 20
61.58685296704339
 10
34.37851766083956
 20
61.57846874918437
 10
34.01342269512792
 20
61.48529347824819
 10
33.67672917716103
 20
61.31982744836659
 10
33.5214786509328
 20
61.21389174073745
 10
33.3598535633757
 20
61.08259577617665
 10
32.95291028873762
 20
60.80691720172406
 10
32.5281275419951
 20
60.62245628531282
 10
32.08309856324524
 20
60.52042275270285
 10
31.61541659258514
 20
60.49202632965417
 10
31.39043334281272
 20
60.50123064056267
 10
31.2705922328924
 20
60.50281223354139
 10
30.78750897119816
 20
60.48457875833469
 10
30.55100888435918
 20
60.51916561489071
 10
30.32341103616629
 20
60.62741353607282
  0
LWPOLYLINE
  5
9B
330
1F
100
AcDbEntity
  8
Calque 1
 62
     7
420
 16777215
370
    70
100
AcDbPolyline
 90
       38
 70
     0
 43
0.0
 10
62.1018604640483
 20
60.75747540276269
 10
63.08599685954219
 20
60.35714608449069
 10
63.32657820985905
 20
60.24149932450762
 10
63.38565170442996
 20
60.20968402104966
 10
63.4259395913226
 20
60.18703379149759
 10
63.4864205369281
 20
60.15143516470274
 10
63.70362614000509
 20
60.00358155943121
 10
63.88114806205874
 20
59.84717015127242
 10
64.01880684432729
 20
59.68243661230633
 10
64.11642302804891
 20
59.50961661461301
 10
64.17381715446182
 20
59.32894583027246
 10
64.19080976480422
 20
59.1406599313647
 10
64.16722140031435
 20
58.94499458996975
 10
64.10287260223036
 20
58.74218547816764
 10
63.99758391179048
 20
58.5324682680384
 10
63.85117587023291
 20
58.31607863166204
 10
63.80812793090773
 20
58.26096627378873
 10
63.78559383055284
 20
58.23315275789167
 10
63.76286581323866
 20
58.20500455355236
 10
63.67320097016651
 20
58.09137967061772
 10
63.31469160471574
 20
57.63690351203761
 10
63.17251482289525
 20
57.44730541232647
 10
63.06258393828871
 20
57.2549278385328
 10
62.93109690973543
 20
56.86299935087647
 10
62.90350461709202
 20
56.46344821342571
 10
62.96308115839453
 20
56.05860459053765
 10
63.09310063167903
 20
55.65079864656945
 10
63.13465214148597
 20
55.54865736404423
 10
63.16486212134333
 20
55.47929981770781
 10
63.21548767177744
 20
55.37487781648419
 10
63.45046312702182
 20
54.97083502661272
 10
63.6772558836868
 20
54.56463995258558
 10
63.76843007979864
 20
54.34043981410179
 10
63.85898589371716
 20
54.08813581314373
 10
63.92808668312392
 20
53.83084600351853
 10
63.95433303069322
 20
53.56971134421214
 10
63.9163255190992
 20
53.30587279421044
 10
63.79266473101615
 20
53.04047131249935
  0
LWPOLYLINE
  5
9C
330
1F
100
AcDbEntity
  8
Calque 1
 62
     7
420
 16777215
370
    70
100
AcDbPolyline
 90
       28
 70
     0
 43
0.0
 10
55.42535130730366
 20
19.65792552877612
 10
55.47222476180013
 20
19.35663584654745
 10
55.47536685851699
 20
19.05097412006345
 10
55.48464331238014
 20
18.74480632399927
 10
55.54991983831545
 20
18.44199843303007
 10
55.66322319431976
 20
18.18849676895089
 10
55.81278494730323
 20
17.97276674912487
 10
56.00637673834791
 20
17.81176170448764
 10
56.25177020853594
 20
17.72243496597482
 10
56.73481593815754
 20
17.64162193854614
 10
57.24956742312333
 20
17.62980504846699
 10
57.87021371966604
 20
17.68201836394533
 10
58.49230032992562
 20
17.67538174100985
 10
58.79903066326026
 20
17.63051443480865
 10
59.10029736769736
 20
17.54755832261007
 10
59.39415920746128
 20
17.4187212972828
 10
59.67867494677647
 20
17.23621125169549
 10
59.86459829524166
 20
17.07372917848947
 10
60.00323688363984
 20
16.89430270498746
 10
60.0859418836166
 20
16.68926911072892
 10
60.10406446681752
 20
16.44996567525337
 10
60.14187216439367
 20
16.22142862202259
 10
60.23810609114692
 20
16.01642082738973
 10
60.53136778985912
 20
15.37482978282558
 10
60.62183260608955
 20
15.03607697686721
 10
60.63722497698188
 20
14.67144268105641
 10
60.67561217384204
 20
14.39184684559538
 10
60.75788254935583
 20
14.10861921667668
  0
LWPOLYLINE
  5
9D
330
1F
100
AcDbEntity
  8
Calque 1
 62
     7
420
 16777215
370
    70
100
AcDbPolyline
 90
       66
 70
     0
 43
0.0
 10
40.72836037135276
 20
40.14266953242451
 10
40.82876642594868
 20
39.83173669776966
 10
40.8701802081233
 20
39.52661309109938
 10
40.85859690395027
 20
39.22763327223782
 10
40.80001169950326
 20
38.9351318010091
 10
40.7004197808559
 20
38.64944323723737
 10
40.56581633408188
 20
38.37090214074672
 10
40.23662905717929
 20
37.84094534509505
 10
39.52430534649576
 20
36.81593779455172
 10
39.43808577569119
 20
36.68600384680662
 10
39.3956881414946
 20
36.62059593410865
 10
39.35917227004483
 20
36.56305584129714
 10
39.31373513640478
 20
36.48885078118416
 10
39.14913279637992
 20
36.18990421127442
 10
39.01119041222823
 20
35.88764380632031
 10
38.89887604343862
 20
35.58218728910572
 10
38.81115774949996
 20
35.2736523824145
 10
38.74700358990113
 20
34.96215680903055
 10
38.70538162413104
 20
34.64781829173774
 10
38.68560651203255
 20
34.01108331656108
 10
38.74357688911558
 20
33.36438923915556
 10
38.87103723129121
 20
32.70867784179221
 10
38.91068310535228
 20
32.55144626185731
 10
38.94433971369042
 20
32.42633053798667
 10
39.0160592019953
 20
32.17765718611482
 10
39.3461329075475
 20
31.19843284011188
 10
39.70459521335963
 20
30.23006809765734
 10
39.87750350658296
 20
29.74417020491625
 10
39.95940743593741
 20
29.49977950041946
 10
39.98195189651334
 20
29.43013969460082
 10
40.01481522168186
 20
29.32704949684323
 10
40.07883209805505
 20
29.1206498272653
 10
40.30664276271571
 20
28.29211226211147
 10
40.47494758987818
 20
27.45883259610506
 10
40.56468672332
 20
26.62075765337249
 10
40.57413794982613
 20
26.19990533577342
 10
40.55680030681865
 20
25.77783425804023
 10
40.51029131226978
 20
25.3545377731887
 10
40.43222848415167
 20
24.93000923423467
 10
40.32022934043653
 20
24.50424199419392
 10
40.17191139909654
 20
24.07722940608228
 10
39.95578612417322
 20
23.61547309264815
 10
39.71407722181236
 20
23.16789126254918
 10
39.4957176396146
 20
22.70663477810066
 10
39.40562901842337
 20
22.4465489435739
 10
39.34048261574839
 20
22.17636169283753
 10
39.3030619924218
 20
21.90787161248778
 10
39.29065439154957
 20
21.63911749393938
 10
39.33002722959216
 20
21.09297230790566
 10
39.41699471392053
 20
20.5084151964944
 10
39.43463888908968
 20
20.20694472630895
 10
39.42367363271166
 20
19.90572630249646
 10
39.37853491935512
 20
19.60618392407662
 10
39.29365872358868
 20
19.30974159006915
 10
39.16348101998098
 20
19.01782329949377
 10
38.99648862514084
 20
18.71999177683891
 10
38.69953885844197
 20
18.10303570794209
 10
38.59074403603805
 20
17.78124522073216
 10
38.52097462385643
 20
17.44750307437992
 10
38.49965964909109
 20
17.09950175090938
 10
38.51011914673764
 20
16.91943279838726
 10
38.51416326025521
 20
16.88191314657663
 10
38.51466209365528
 20
16.87698866589029
 10
38.51536360451932
 20
16.86710534119915
 10
38.50945226916713
 20
16.78670172778191
 10
38.47395468206237
 20
16.62314863934673
  0
LWPOLYLINE
  5
9E
330
1F
100
AcDbEntity
  8
Calque 1
 62
     7
420
 16777215
370
    70
100
AcDbPolyline
 90
       56
 70
     0
 43
0.0
 10
61.23478135278279
 20
36.54429122067252
 10
61.091101634902
 20
36.35749875103269
 10
60.98946370662606
 20
36.133099767729
 10
60.93180185489147
 20
35.88412008836403
 10
60.92005036663483
 20
35.62358553054041
 10
60.95614352879266
 20
35.36452191186071
 10
61.04201562830155
 20
35.11995504992751
 10
61.17960095209804
 20
34.90291076234342
 10
61.41357293429493
 20
34.59585915838864
 10
61.49629872616191
 20
34.44665495719054
 10
61.55366343660367
 20
34.30443288844472
 10
61.58750687890985
 20
34.16832182764006
 10
61.59966886637004
 20
34.03745065026552
 10
61.56630772991089
 20
33.78794344776252
 10
61.46829853354318
 20
33.54894228484715
 10
61.32035978358377
 20
33.31347816543089
 10
61.13720998634956
 20
33.07458209342516
 10
60.79994536596079
 20
32.62392944618278
 10
60.52577977835373
 20
32.15466077900261
 10
60.31557084450175
 20
31.65987296600637
 10
60.23604709051513
 20
31.40264137887527
 10
60.20662177320459
 20
31.28630741067262
 10
60.18944104997679
 20
31.19813013170734
 10
60.17134599930108
 20
31.01917020642245
 10
60.17674756293003
 20
30.83925376842276
 10
60.20781544478139
 20
30.66140159021743
 10
60.26671934877287
 20
30.48863444431554
 10
60.35562897882222
 20
30.32397310322628
 10
60.47671403884719
 20
30.17043833945873
 10
60.61346818340368
 20
30.04568652514065
 10
60.74302676994524
 20
29.96172211415382
 10
60.87316884602049
 20
29.9099840646067
 10
61.00475916725457
 20
29.88964691590658
 10
61.13866248927275
 20
29.89988520746076
 10
61.27574356770015
 20
29.93987347867658
 10
61.41686715816195
 20
30.00878626896133
 10
61.56856807190326
 20
30.1094386751454
 10
62.15515397346873
 20
30.62436062395393
 10
62.46308127738647
 20
30.86600456776588
 10
62.64844041025049
 20
30.97565912854835
 10
62.84039360459761
 20
31.07264458166573
 10
63.00202951871414
 20
31.13191743924875
 10
63.14459783473393
 20
31.15185618515883
 10
63.27934823479091
 20
31.13083930325737
 10
63.41753040101901
 20
31.06724527740576
 10
63.57039401555208
 20
30.95945259146542
 10
63.65584689159984
 20
30.88847502716866
 10
63.7014438138107
 20
30.84862726302481
 10
63.72745861736672
 20
30.82593516405654
 10
63.92458710757954
 20
30.69016329919608
 10
64.1400276127549
 20
30.59871693741564
 10
64.37484613206644
 20
30.54557237099259
 10
64.51087360133911
 20
30.53043631239357
 10
64.73712644185929
 20
30.50769181722069
 10
65.18866946818974
 20
30.45120654619026
 10
66.0904243758698
 20
30.32299859734225
  0
LWPOLYLINE
  5
9F
330
1F
100
AcDbEntity
  8
Calque 1
 62
     7
420
 16777215
370
    70
100
AcDbPolyline
 90
       30
 70
     0
 43
0.0
 10
12.89512089972896
 20
48.1414743338491
 10
13.23855561419662
 20
46.8681219020956
 10
13.67150126161989
 20
45.62510387635339
 10
14.59862784392341
 20
43.16018581076137
 10
14.88859033281376
 20
42.21117771422089
 10
15.09187997160729
 20
41.25352699115912
 10
15.19525708702284
 20
40.28360705765813
 10
15.18548200577924
 20
39.29779132980005
 10
15.09140644097807
 20
38.71312335545412
 10
14.91152901151929
 20
38.15313867680757
 10
14.67176072798083
 20
37.61458157956133
 10
14.39801260094063
 20
37.0941963494163
 10
14.18561554958123
 20
36.59806640579631
 10
14.08898154257532
 20
36.10139367774425
 10
14.09826516989207
 20
35.60113480172605
 10
14.20362102150063
 20
35.09424641420765
 10
14.44805974015718
 20
34.34156681227237
 10
14.76982092919696
 20
33.62365716737456
 10
14.9642004409034
 20
33.21759704523549
 10
15.10040654115871
 20
32.81429562249163
 10
15.1797422661043
 20
32.41290113938639
 10
15.20351065188162
 20
32.01256183616313
 10
15.17301473463211
 20
31.61242595306524
 10
15.0895575504972
 20
31.21164173033607
 10
14.95444213561831
 20
30.80935740821904
 10
14.76897152613691
 20
30.40472122695751
 10
14.53806487651896
 20
29.86500165811681
 10
14.41077746188041
 20
29.28267301521252
 10
14.2943435859143
 20
28.93226448414426
 10
14.10903165550071
 20
28.61051735259284
  0
LWPOLYLINE
  5
A0
330
1F
100
AcDbEntity
  8
Calque 1
 62
     7
420
 16777215
370
    70
100
AcDbPolyline
 90
       59
 70
     0
 43
0.0
 10
54.51491824047484
 20
45.41017513336261
 10
53.91024249105075
 20
46.38058029828461
 10
53.72628973370444
 20
46.60606816407246
 10
53.61243211713121
 20
46.72515011609337
 10
53.46960868955513
 20
46.85833383317988
 10
53.16905995453828
 20
47.09031084360438
 10
52.84947632858425
 20
47.27732414162431
 10
52.51185895035192
 20
47.42044195035195
 10
52.15720895850017
 20
47.52073249289945
 10
51.76418661284214
 20
47.58759324415042
 10
51.33857806085299
 20
47.68797913988168
 10
50.93601697805816
 20
47.83147672173472
 10
50.55286029141605
 20
48.0145231877689
 10
49.8301878144235
 20
48.48501156461775
 10
49.4173135522131
 20
48.77541866292233
 10
48.97529638016478
 20
49.01608544736612
 10
48.74093327841519
 20
49.10798821803276
 10
48.68078715228259
 20
49.12734033527628
 10
48.57665111717898
 20
49.15722244551678
 10
48.32724834876061
 20
49.21359030567192
 10
47.83967132085424
 20
49.25907182074957
 10
47.36768432918129
 20
49.21505827956437
 10
46.91202980293332
 20
49.08176234297296
 10
46.47345017130185
 20
48.85939667183195
 10
46.26079545008965
 20
48.71487914232307
 10
46.17126133269545
 20
48.64646837449845
 10
46.11216888104674
 20
48.60088258159327
 10
45.8728748568529
 20
48.4250298330105
 10
45.36835139367403
 20
48.12193052824079
 10
44.80483882294683
 20
47.91943878628347
 10
44.4219347931706
 20
47.85048884677626
 10
44.0430324225491
 20
47.8218305694948
 10
43.66829319518759
 20
47.83668118248768
 10
43.29787859519129
 20
47.89825791380354
 10
42.93195010666543
 20
48.00977799149096
 10
42.61359207986042
 20
48.1453313778846
 10
42.02744131440909
 20
48.41958834465708
 10
41.44372303193249
 20
48.69966585582147
 10
41.2971683492428
 20
48.76828938510087
 10
41.26045396160376
 20
48.78527397918034
 10
41.19647357330398
 20
48.81428040755674
 10
41.04135735145568
 20
48.8788493815565
 10
40.42203740542467
 20
49.05818026542988
 10
39.80408147505896
 20
49.12148958153736
 10
39.18686570633956
 20
49.08249793205941
 10
38.56976624524747
 20
48.95492591917648
 10
37.95215923776371
 20
48.752494145069
 10
37.13539689040832
 20
48.38266361239437
 10
36.35096178409108
 20
47.95334999616572
 10
35.9611417937107
 20
47.73425232282948
 10
35.51782782740753
 20
47.4923365008297
 10
34.56787085040423
 20
47.01195316130363
 10
33.57531695493021
 20
46.62748377528891
 10
33.31673783071928
 20
46.55411770206503
 10
33.20513207534365
 20
46.52625674047047
 10
33.13225912497969
 20
46.50982587130481
 10
32.84048680746658
 20
46.45894376702483
 10
32.25531236558952
 20
46.41252820937001
 10
31.66738365862789
 20
46.40731611131799
  0
LWPOLYLINE
  5
A1
330
1F
100
AcDbEntity
  8
Calque 1
 62
     7
420
 16777215
370
    70
100
AcDbPolyline
 90
       36
 70
     0
 43
0.0
 10
5.178116809465659
 20
55.9885402908022
 10
5.34363906730196
 20
55.91948494379309
 10
5.437762749909401
 20
55.79539469903753
 10
5.552455952052353
 20
55.49130748037195
 10
5.591443253466403
 20
55.42354431933468
 10
5.597134668322448
 20
55.41571609081731
 10
5.633184290649808
 20
55.3679120361734
 10
5.715336503836725
 20
55.25892876382203
 10
5.879465219203984
 20
55.04083789727214
 10
6.530940564884589
 20
54.16488298533892
 10
7.779106266330051
 20
52.37379414250388
 10
8.356968736475565
 20
51.4451586242501
 10
8.976475541819702
 20
50.32620924909434
 10
9.536735885668569
 20
49.15180138332054
 10
10.01681011030868
 20
47.94633184679489
 10
10.41172569389464
 20
46.70716719680083
 10
10.57569508221564
 20
46.07412625340421
 10
10.64357582095007
 20
45.77901726494576
 10
10.67664619133004
 20
45.63244038002923
 10
10.94887817755345
 20
44.45971692420896
 10
11.16625957045883
 20
43.28010124723879
 10
11.20597780420687
 20
42.95032062672161
 10
11.25348654856843
 20
42.57710344446532
 10
11.35658167951347
 20
41.83156043568824
 10
11.53443733754879
 20
40.33533291099359
 10
11.56036379859987
 20
39.95839093873187
 10
11.56905735552602
 20
39.76927340270809
 10
11.57380523374787
 20
39.6167805373469
 10
11.57813125402219
 20
39.11994731602936
 10
11.53557750353991
 20
38.13452687621585
 10
11.48815495707256
 20
37.64368546000388
 10
11.4598661763206
 20
37.41441355441673
 10
11.43803570773757
 20
37.28409082463669
 10
11.26273382761168
 20
36.80822543911783
 10
11.10892926070653
 20
36.60655048197016
 10
10.90083894381822
 20
36.43590633176436
  0
LWPOLYLINE
  5
A2
330
1F
100
AcDbEntity
  8
Calque 1
 62
     7
420
 16777215
370
    70
100
AcDbPolyline
 90
       45
 70
     0
 43
0.0
 10
61.32148926390934
 20
49.31203113405757
 10
61.15580181304145
 20
49.03274868069498
 10
61.04166671817859
 20
48.75177876039195
 10
60.97353847677827
 20
48.46928839384332
 10
60.94587158629804
 20
48.18544460174393
 10
60.95312054419546
 20
47.90041440478857
 10
60.98973984792805
 20
47.61436482367207
 10
61.12890748272896
 20
47.03987559173497
 10
61.22036480871236
 20
46.75176998230401
 10
61.29078514450124
 20
46.54405108395325
 10
61.42202232332562
 20
46.15658998396487
 10
61.54020676956079
 20
45.76589886755426
 10
61.63080585467013
 20
45.36607650302744
 10
61.67928695011681
 20
44.95122165869044
 10
61.68166187287667
 20
44.89801392291127
 10
61.68324745392886
 20
44.81582644459768
 10
61.67714074216269
 20
44.64746166150779
 10
61.62825770621626
 20
44.33392049161766
 10
61.53420883188804
 20
44.05060162742535
 10
61.39946649298257
 20
43.79667040170482
 10
61.22850306330436
 20
43.57129214723007
 10
61.02579091665792
 20
43.37363219677508
 10
60.79580242684777
 20
43.20285588311379
 10
60.54300996767835
 20
43.05812853902019
 10
60.27188591295423
 20
42.93861549726826
 10
60.1394916060445
 20
42.89094584254296
 10
60.05738288670046
 20
42.86422345987363
 10
59.39038199135405
 20
42.69018708413958
 10
58.72280370534685
 20
42.50808699199402
 10
58.54153831028575
 20
42.44084779000914
 10
58.35101986044172
 20
42.35100140977375
 10
58.02263962388002
 20
42.1290358716979
 10
57.75949199652305
 20
41.85271337133271
 10
57.55560544841422
 20
41.52444199809905
 10
57.47401897596646
 20
41.34157801210055
 10
57.43798837209975
 20
41.2455956366461
 10
57.39726169450071
 20
41.12421217467249
 10
57.23106388198847
 20
40.56339858162592
 10
56.919767659645
 20
39.43512589493169
 10
56.73005660961398
 20
38.88176235078851
 10
56.67530481491649
 20
38.74573661404192
 10
56.64659069406631
 20
38.67814672657985
 10
56.63153740677395
 20
38.64353231198945
 10
56.61783940179606
 20
38.60377009165444
 10
56.59590810751211
 20
38.30012642098519
  0
LWPOLYLINE
  5
A3
330
1F
100
AcDbEntity
  8
Calque 1
 62
     7
420
 16777215
370
    70
100
AcDbPolyline
 90
       61
 70
     0
 43
0.0
 10
52.65069815125392
 20
60.54070562494628
 10
52.42360075521784
 20
60.78086685041138
 10
52.15099960956341
 20
60.93314093157097
 10
51.55321720924762
 20
61.08877370354218
 10
51.40811736716038
 20
61.11757510422236
 10
51.07746538171523
 20
61.19732253645458
 10
50.38432776282113
 20
61.43022471647424
 10
49.72792520023095
 20
61.73120742815321
 10
49.09967066976415
 20
62.08609435377038
 10
48.49097714724019
 20
62.48070917560468
 10
47.81871038475638
 20
62.91148426882113
 10
47.11076637533095
 20
63.27639658747965
 10
46.37243575790232
 20
63.56140330928547
 10
45.59872818677479
 20
63.76070607399745
 10
45.19704856054407
 20
63.8264064848679
 10
45.00471769737827
 20
63.84918769073135
 10
44.88619531894729
 20
63.8619150942976
 10
43.93931397374485
 20
63.95852889495608
 10
42.9891673324112
 20
64.01123061641868
 10
41.84466744801037
 20
64.01943130935831
 10
40.66869138978998
 20
64.04124658284965
 10
40.37474517704443
 20
64.04846776981869
 10
40.22778276858012
 20
64.05229376747171
 10
40.13974674213004
 20
64.05462777701043
 10
39.96455496978787
 20
64.05809328085608
 10
38.57558345938421
 20
64.01510706056331
 10
37.21089616447286
 20
63.84362216886801
 10
35.87324684914656
 20
63.53969758213133
 10
34.56538927749805
 20
63.09939227671447
 10
33.95180400323291
 20
62.83981880402415
 10
33.51362756408615
 20
62.63882275332825
 10
31.80202910828554
 20
61.7520058418233
 10
30.97639418586167
 20
61.24811079989361
 10
30.17505921947321
 20
60.69567273026906
 10
28.50867739393681
 20
59.51740806966357
 10
28.31094046173465
 20
59.35384138190253
 10
28.06702243090579
 20
59.13262981362624
 10
27.60084470920901
 20
58.64240887644093
 10
26.77702161622587
 20
57.5754717918539
 10
26.00639862659658
 20
56.49446365306501
 10
25.19271701527986
 20
55.48764187658755
 10
24.36422846802583
 20
54.51999959600613
 10
23.65421905017491
 20
53.62163235696054
 10
23.03711178963168
 20
52.66084614859433
 10
22.96889981133384
 20
52.53508914396761
 10
22.8344751948283
 20
52.27705214424213
 10
22.55360304334524
 20
51.71301580260704
 10
22.03854400115893
 20
50.56679535931806
 10
21.5909197247614
 20
49.39487970210969
 10
21.21695551585149
 20
48.19547099030867
 10
21.0595413434853
 20
47.58489491372555
 10
20.98856668651104
 20
47.27679062585152
 10
20.95800596090829
 20
47.13593139019356
 10
20.9457101476396
 20
47.07832219973352
 10
20.84828362061717
 20
46.61723501353843
 10
20.68149041129399
 20
45.69026597200791
 10
20.6268735675281
 20
45.22204482980651
 10
20.61128264112368
 20
45.01071183659028
 10
20.60252538444776
 20
44.94797237451325
 10
20.50640473999012
 20
44.72976355112565
 10
20.3520012566126
 20
44.54309602209708
  0
LWPOLYLINE
  5
A4
330
1F
100
AcDbEntity
  8
Calque 1
 62
     7
420
 16777215
370
    70
100
AcDbPolyline
 90
       38
 70
     0
 43
0.0
 10
34.96228428143693
 20
59.15337904692146
 10
33.55801777360411
 20
59.15993749575083
 10
33.38399431029045
 20
59.14623658852903
 10
33.07609018854019
 20
59.10170550330246
 10
32.46708315132129
 20
58.91519387043063
 10
31.92611215439255
 20
58.61417322905111
 10
31.44805140741525
 20
58.21016019618853
 10
31.02777512005069
 20
57.71467138886755
 10
30.95039005877608
 20
57.60619315223053
 10
30.89936635827991
 20
57.5342676015673
 10
30.79642552751889
 20
57.39104642058681
 10
30.37791605817635
 20
56.82290484104851
 10
30.16855877256103
 20
56.53888824100729
 10
30.06484077622612
 20
56.39619556419308
 10
30.00112262484148
 20
56.30772023481729
 10
29.86123559509963
 20
56.12321170094559
 10
29.56589454580914
 20
55.78199279436256
 10
29.24964555036049
 20
55.47806273580022
 10
28.91230625705479
 20
55.21169108502672
 10
28.55369431419313
 20
54.98314740181022
 10
28.17362737007663
 20
54.79270124591891
 10
27.77192307300636
 20
54.64062217712091
 10
27.34839907128345
 20
54.5271797551844
 10
26.902873013209
 20
54.45264353987755
 10
26.67180222813403
 20
54.43004949713778
 10
26.51677717799406
 20
54.4169735121765
 10
26.24331941647906
 20
54.3754155666959
 10
25.74019301003883
 20
54.2203066338487
 10
25.29742614958564
 20
53.96567378448497
 10
24.91738770376028
 20
53.60727718580239
 10
24.60810648274807
 20
53.15498193186863
 10
24.32640956709659
 20
52.77777787025154
 10
23.99544660338915
 20
52.4538031497552
 10
23.63175662896708
 20
52.16478819921221
 10
23.25187868117164
 20
51.89246344745528
 10
23.08131715784476
 20
51.77153231115376
 10
23.03411465430306
 20
51.74567958821743
 10
22.69311485702956
 20
51.73985264560108
  0
LWPOLYLINE
  5
A5
330
1F
100
AcDbEntity
  8
Calque 1
 62
     7
420
 16777215
370
    70
100
AcDbPolyline
 90
       50
 70
     0
 43
0.0
 10
11.55114827726737
 20
27.28822170791285
 10
11.9375578469668
 20
27.04733364481
 10
12.3055316438821
 20
26.7823122190215
 10
13.00439196598333
 20
26.20351209742553
 10
13.17470189423066
 20
26.0529641911441
 10
13.38350104519566
 20
25.85029178346994
 10
13.56778507823605
 20
25.62632311657593
 10
13.72122861978675
 20
25.38978683683229
 10
13.84650847770121
 20
25.14186014930544
 10
13.94630145983286
 20
24.88372025906186
 10
14.08013402816148
 20
24.34150969069021
 10
14.14414078760012
 20
23.77257277224881
 10
14.1626592277911
 20
23.51624013472731
 10
14.19887855209121
 20
23.28484393735789
 10
14.25581385558668
 20
23.06733408034405
 10
14.33461749797693
 20
22.86436319081866
 10
14.43644183896135
 20
22.67658389591466
 10
14.56243923823935
 20
22.50464882276491
 10
14.71376205551031
 20
22.34921059850236
 10
14.89156265047364
 20
22.21092185025987
 10
15.31240786453104
 20
21.98828464929967
 10
15.68602174093401
 20
21.7587366294426
 10
15.99822710541401
 20
21.47582536701222
 10
16.25333309189743
 20
21.13711385557187
 10
16.4556488343107
 20
20.74016508868486
 10
16.49848427091005
 20
20.63154273910776
 10
16.57165997061147
 20
20.44793705005914
 10
16.75700118824308
 20
20.09133785961728
 10
16.97931332697575
 20
19.78071800636429
 10
17.23530946523757
 20
19.51255509863178
 10
17.52170268145663
 20
19.2833267447513
 10
17.83520605406099
 20
19.08951055305447
 10
18.17253266147875
 20
18.92758413187288
 10
18.53039558213799
 20
18.7940250895381
 10
18.90550789446679
 20
18.68531103438175
 10
19.09850540951605
 20
18.63917012959909
 10
19.1918824846458
 20
18.61886270255223
 10
19.25978454722146
 20
18.6045982398005
 10
19.80447370394788
 20
18.50117128022009
 10
20.35201505657951
 20
18.42628755197926
 10
20.90273915652133
 20
18.39341673399874
 10
21.4569765551783
 20
18.41602850519923
 10
21.59612359425956
 20
18.43192908055743
 10
21.66578881805791
 20
18.44156120693676
 10
21.70808868100927
 20
18.44792600707061
 10
21.7957818085371
 20
18.46059337884829
 10
21.96932999906565
 20
18.49192627239632
 10
22.12848421078851
 20
18.54980209001716
 10
22.25891257238222
 20
18.65647530060995
 10
22.34628321252334
 20
18.83420037307384
  0
LWPOLYLINE
  5
A6
330
1F
100
AcDbEntity
  8
Calque 1
 62
     7
420
 16777215
370
    70
100
AcDbPolyline
 90
      110
 70
     0
 43
0.0
 10
21.82603574576402
 20
36.8260919318338
 10
21.53226545054771
 20
37.69144212045784
 10
21.21454333677391
 20
38.54869751276528
 10
20.92085137652376
 20
39.41405437320507
 10
20.79801107024538
 20
39.85483218661491
 10
20.71837541467854
 20
40.18782880025479
 10
20.58583941970484
 20
40.82871557240549
 10
20.48915352402874
 20
41.47509175757482
 10
20.43999356220396
 20
42.12879971881434
 10
20.43784869226472
 20
42.20738687348368
 10
20.4366206146623
 20
42.25617148705882
 10
20.43360268697535
 20
42.35374831474408
 10
20.42591532356607
 20
42.54892024156886
 10
20.39810348021704
 20
43.32934323476643
 10
20.39869157215892
 20
43.52424416813366
 10
20.39968214962628
 20
43.57294901886372
 10
20.40066756887966
 20
43.65006301544715
 10
20.38988513103006
 20
43.82432103680097
 10
20.31713320489651
 20
44.13833800757078
 10
20.18623942149968
 20
44.41282367036038
 10
20.00933283281862
 20
44.65553897069407
 10
19.79854249083234
 20
44.87424485409621
 10
19.32382675486026
 20
45.27067215220305
 10
19.20957113157107
 20
45.36152439475241
 10
19.14731003865771
 20
45.40827047323079
 10
19.01570422139565
 20
45.49690179235605
 10
18.75274514207944
 20
45.67393562166645
 10
18.63772735485343
 20
45.77331787035777
 10
18.5445743858009
 20
45.88726350074394
 10
18.48145397233592
 20
46.02126238207808
 10
18.46370839189065
 20
46.09749737599222
 10
18.45038554835411
 20
46.19863549487147
 10
18.42826811392343
 20
46.61685646664786
 10
18.4707420780249
 20
47.03494843690431
 10
18.52148717537824
 20
47.24173437633316
 10
18.59472373138828
 20
47.44583406122676
 10
18.64043709899618
 20
47.54660009945665
 10
18.69911193569523
 20
47.66387789373794
 10
18.81611463825574
 20
47.91823879941307
 10
19.00326886312119
 20
48.44028814651618
 10
19.11588597446377
 20
48.9829930034885
 10
19.1397172851207
 20
49.26317329650013
 10
19.14272160939301
 20
49.40565976759412
 10
19.14011766579988
 20
49.53286251263381
 10
19.09149911637273
 20
49.95009015133966
 10
18.9906756102139
 20
50.352693719356
 10
18.85121709074673
 20
50.74215212275973
 10
18.69870512895197
 20
51.11785320331686
 10
18.58134929724037
 20
51.49461211067897
 10
18.39786087210657
 20
52.25932480053298
 10
18.18232973925354
 20
53.06505002268202
 10
18.07391196359107
 20
53.4677239587316
 10
18.02376907405744
 20
53.67002083670089
 10
18.01699962845834
 20
53.69854713141291
 10
18.01426170960343
 20
53.70919614950007
 10
18.00824767022215
 20
53.72994604365667
 10
17.93583305534023
 20
53.86228010500687
 10
17.88482126346259
 20
53.89929457787514
 10
17.87175921192728
 20
53.90468265358807
 10
17.81175799640614
 20
53.93068397421831
 10
17.69978371549944
 20
53.98961362649925
 10
17.5045004181365
 20
54.13205091056504
 10
17.34087111891349
 20
54.30129680620227
 10
17.20101619247763
 20
54.49019688009043
 10
16.96111095655619
 20
54.89834182933734
 10
16.84530139636503
 20
55.103277838055
 10
16.81544678408507
 20
55.15339075481237
 10
16.79351881661473
 20
55.18930924651548
 10
16.75801077330668
 20
55.24741070631591
 10
16.61632769680704
 20
55.48009887125052
 10
16.04434923108845
 20
56.40720950450661
 10
15.43426708369439
 20
57.30611327059307
 10
15.10255803515097
 20
57.73566273478185
 10
14.74646815312695
 20
58.14697066977924
 10
14.55979413378205
 20
58.34250481657597
 10
14.39272703716395
 20
58.50287391483854
 10
14.23612212704892
 20
58.6360930228688
 10
14.08809168276962
 20
58.74369902899233
 10
13.94674798365867
 20
58.82722882153482
 10
13.81020330904872
 20
58.88821928882188
 10
13.54396015066239
 20
58.94872980093227
 10
13.27426044227175
 20
58.93752567192864
 10
12.98600241853792
 20
58.86690200841608
 10
12.66408431412203
 20
58.74915391699968
 10
12.48578342998992
 20
58.67645043164166
 10
12.34797450300464
 20
58.61886961157289
 10
11.82414722929013
 20
58.38650397660204
 10
11.30974320852382
 20
58.13261447531862
 10
10.809956979091
 20
57.85403878479306
 10
10.68790318659567
 20
57.78016706037426
 10
10.54793599620226
 20
57.69588642218421
 10
10.25087877147247
 20
57.55208014611799
 10
9.955152274735089
 20
57.45776459477376
 10
9.659269575337795
 20
57.41104181808204
 10
9.36174374262829
 20
57.41001386597343
 10
9.06108784595426
 20
57.45278278837849
 10
8.755814954663408
 20
57.53745063522778
 10
8.60098247020783
 20
57.59490354592232
 10
8.427138469473131
 20
57.66783440656014
 10
8.068313750553032
 20
57.79468127038152
 10
7.754894648946773
 20
57.85600365770881
 10
7.475020235044496
 20
57.84874207497274
 10
7.216829579236362
 20
57.7698370286041
 10
6.96846175191253
 20
57.61622902503361
 10
6.718055823463142
 20
57.38485857069207
 10
6.468319217702898
 20
57.09136525691217
 10
6.326809033265153
 20
56.90998271138415
 10
6.042182078891675
 20
56.5500855690105
 10
5.738361762694523
 20
56.20831457266167
 10
5.394886587282041
 20
55.90183237967565
  0
LWPOLYLINE
  5
A7
330
1F
100
AcDbEntity
  8
Calque 1
 62
     7
420
 16777215
370
    70
100
AcDbPolyline
 90
       47
 70
     0
 43
0.0
 10
52.56399024012736
 20
35.61218117606206
 10
52.53913072872826
 20
35.17245868692061
 10
52.48651411690673
 20
34.74233089567912
 10
52.4050910410585
 20
34.32262679833848
 10
52.29381213757933
 20
33.91417539089968
 10
52.15162804286494
 20
33.51780566936361
 10
51.97748939331109
 20
33.13434662973126
 10
51.77034682531353
 20
32.76462726800354
 10
51.52915097526795
 20
32.4094765801814
 10
51.25285247957014
 20
32.06972356226577
 10
50.98634202803726
 20
31.79322157182681
 10
50.71590243793575
 20
31.56389152748646
 10
50.43211547863128
 20
31.37847303409599
 10
50.13111503651311
 20
31.23993104136797
 10
49.80903499797046
 20
31.15123049901499
 10
49.46200924939258
 20
31.11533635674962
 10
49.08617167716869
 20
31.13521356428447
 10
48.67765616768804
 20
31.21382707133208
 10
48.23259660733985
 20
31.35414182760506
 10
48.11516864911599
 20
31.39920879190923
 10
48.0629888709242
 20
31.4201672023534
 10
47.98104564325161
 20
31.45385269290911
 10
47.81769272079639
 20
31.52299855750931
 10
47.16230159239257
 20
31.79478761979583
 10
46.82647445887995
 20
31.90607279707923
 10
46.65479202325573
 20
31.95012986820816
 10
46.5633983112277
 20
31.96943274798684
 10
46.44583895143905
 20
31.98922680993322
 10
46.21364625607786
 20
32.01091929478075
 10
45.9854306119183
 20
32.00984864546381
 10
45.54129376798903
 20
31.94468699023634
 10
45.11415500122113
 20
31.80427993605047
 10
44.70474089318453
 20
31.59916557470589
 10
44.52144783225334
 20
31.48552556846397
 10
44.36110575614417
 20
31.37788485515283
 10
44.04722959061587
 20
31.15185727903945
 10
43.42573207180875
 20
30.68959779150597
 10
43.10979928636927
 20
30.47451906719528
 10
42.8021013704919
 20
30.29657862299537
 10
42.47955311876608
 20
30.15370478501417
 10
42.14302337118435
 20
30.05850603690819
 10
41.79338096773928
 20
30.02359086233389
 10
41.40506795722838
 20
30.03942453402713
 10
41.02386891852794
 20
29.99713218305729
 10
40.67762060431042
 20
29.87939937384993
 10
40.36334173672069
 20
29.68496439385275
 10
40.0780510379036
 20
29.41256553051342
  0
LWPOLYLINE
  5
A8
330
1F
100
AcDbEntity
  8
Calque 1
 62
     7
420
 16777215
370
    70
100
AcDbPolyline
 90
      428
 70
     0
 43
0.0
 10
61.10471948609294
 20
36.52261424289084
 10
61.0444623660557
 20
36.62027289408615
 10
60.97543504325642
 20
36.69961031658531
 10
60.89875351885344
 20
36.76256508420666
 10
60.8155337940051
 20
36.81107577076855
 10
60.63394374760592
 20
36.87251919598737
 10
60.43959291332578
 20
36.8994491827886
 10
60.24140930043158
 20
36.90737432171907
 10
59.93013621796162
 20
36.90898389713574
 10
59.79666029808472
 20
36.90797842845564
 10
59.67952509253226
 20
36.90741940652841
 10
59.48876356966933
 20
36.91279162838811
 10
59.34682513991027
 20
36.93540241362596
 10
59.24268329379256
 20
36.98555361315307
 10
59.16531152185362
 20
37.07354707788056
 10
59.10368331463089
 20
37.20968465871953
 10
59.07532726358105
 20
37.29902682109055
 10
59.04677216266181
 20
37.40426820658111
 10
59.01663969819034
 20
37.52669654655511
 10
58.98355155648383
 20
37.66759957237642
 10
58.94612942385944
 20
37.82826501540894
 10
58.90299498663438
 20
38.00998060701657
 10
58.89713288908177
 20
38.03423927959737
 10
58.89465829559004
 20
38.04443811800243
 10
58.89206241330251
 20
38.05502945351346
 10
58.88681104833878
 20
38.07605937649558
 10
58.87604303534449
 20
38.1175394247306
 10
58.85323082498951
 20
38.19842988572976
 10
58.80078125002317
 20
38.35392870941166
 10
58.73595448501803
 20
38.50485415165663
 10
58.65481814873764
 20
38.65576951204668
 10
58.55343985994566
 20
38.81123809016385
 10
58.52767062136389
 20
38.82021433191012
 10
58.49178159685624
 20
38.81888267229429
 10
58.42065250614918
 20
38.81410289695701
 10
58.28076983357089
 20
38.7967297078874
 10
58.00874392858154
 20
38.73594626438761
 10
57.74367995300345
 20
38.65038480653995
 10
57.21832263418496
 20
38.45263059723853
 10
56.66880868661603
 20
38.23821673201069
 10
56.38931852114934
 20
38.13943476241404
 10
56.1017803525431
 20
38.06757915297711
 10
55.80231452254239
 20
38.03858379296435
 10
55.63932498556031
 20
38.04550900140247
 10
55.48926237512761
 20
38.06880651620396
 10
55.35577626883193
 20
38.10864613721218
 10
55.23859545714575
 20
38.1652145602707
 10
55.13744873054142
 20
38.238698481223
 10
55.05206487949141
 20
38.3292845959126
 10
54.98217269446806
 20
38.43715960018297
 10
54.92750096594384
 20
38.56251018987769
 10
54.88777848439115
 20
38.70552306084024
 10
54.86273404028239
 20
38.86638490891411
 10
54.8567722465696
 20
38.9366454650653
 10
54.85418967735086
 20
38.99281425226475
 10
54.8541312862579
 20
39.10478823977131
 10
54.8676004669179
 20
39.32793101892505
 10
54.89415446736471
 20
39.77618900747529
 10
54.87596602300476
 20
40.00427176754626
 10
54.87107226360673
 20
40.03307612027824
 10
54.85403598605828
 20
40.11964711673901
 10
54.81139627294446
 20
40.29425041475118
 10
54.76066264360746
 20
40.45386560074568
 10
54.70206450185954
 20
40.59885386637445
 10
54.63583125151298
 20
40.72957640328926
 10
54.56219229637997
 20
40.84639440314204
 10
54.4813770402728
 20
40.94966905758464
 10
54.39361488700374
 20
41.03976155826888
 10
54.19816750422885
 20
41.18184486496986
 10
53.97768537855333
 20
41.27553385645988
 10
53.7340037404752
 20
41.32371806595385
 10
53.46895782049248
 20
41.32928702666665
 10
53.18438284910318
 20
41.2951302718132
 10
52.88211405680529
 20
41.22413733460843
 10
52.80399726528785
 20
41.20097206398845
 10
52.77852531487112
 20
41.1930236704766
 10
52.76752202029932
 20
41.18945833888194
 10
52.72380152869211
 20
41.17418546583158
 10
52.63767603117162
 20
41.13914314836463
 10
52.46991667417834
 20
41.05416388163459
 10
52.14620207455846
 20
40.84936005034013
 10
51.98672543888956
 20
40.74366875969015
 10
51.804841420293
 20
40.63922777184918
 10
51.61384589080426
 20
40.56243497903408
 10
51.41704415313423
 20
40.51466689642952
 10
51.21333027997993
 20
40.49407847074397
 10
51.00159834403838
 20
40.49882464868574
 10
50.95370291924089
 20
40.50309439816231
 10
50.92912967504794
 20
40.50560833000111
 10
50.88110494770461
 20
40.51127565920238
 10
50.79052395352141
 20
40.52764440239839
 10
50.70910360445365
 20
40.55544187331718
 10
50.63908713783438
 20
40.6003280095565
 10
50.5827177909966
 20
40.66796274871411
 10
50.57674290948588
 20
40.67829849367481
 10
50.57384994545515
 20
40.68363627699902
 10
50.56509112810858
 20
40.70029737355048
 10
50.50821465743737
 20
40.79911299281778
 10
50.38233715270182
 20
40.97263826795207
 10
50.24161561312573
 20
41.11616392045896
 10
50.08763649832937
 20
41.23225994462602
 10
49.92198626793307
 20
41.32349633474084
 10
49.74625138155713
 20
41.39244308509101
 10
49.56201829882184
 20
41.44167018996409
 10
49.3708734793475
 20
41.47374764364769
 10
48.97419446866294
 20
41.49673357459671
 10
48.87430501421486
 20
41.49581421855916
 10
48.79316779420034
 20
41.498222873927
 10
48.63724889314576
 20
41.52345328810697
 10
48.49125084008093
 20
41.57410796451958
 10
48.35690979023442
 20
41.64803505233309
 10
48.23596189883478
 20
41.74308270071585
 10
48.13014332111059
 20
41.85709905883606
 10
48.0411902122904
 20
41.98793227586206
 10
47.97083872760278
 20
42.13343050096212
 10
47.92082502227631
 20
42.29144188330451
 10
47.89288525153954
 20
42.45981457205753
 10
47.88773564015122
 20
42.54721395295312
 10
47.88184693619488
 20
42.65690991231195
 10
47.85009650706361
 20
42.85040204010929
 10
47.79360210707454
 20
43.01024832651686
 10
47.71459890819984
 20
43.13917164677729
 10
47.61532208241166
 20
43.23989487613324
 10
47.49800680168218
 20
43.31514088982735
 10
47.36488823798356
 20
43.36763256310227
 10
47.21820156328795
 20
43.40009277120064
 10
47.06018194956753
 20
43.4152443893651
 10
46.89306456879446
 20
43.41581029283831
 10
46.80679270700448
 20
43.41147450007899
 10
46.77850970987729
 20
43.40906084441551
 10
46.73498161046542
 20
43.40181689680272
 10
46.64867096924333
 20
43.37752928260679
 10
46.47668750196054
 20
43.3162664902358
 10
46.38967501004542
 20
43.29444063314775
 10
46.33430478823881
 20
43.28760657313107
 10
46.26432362858111
 20
43.28272210956117
 10
46.13120747518088
 20
43.28779128654185
 10
46.0066192960406
 20
43.31938268307613
 10
45.88983879480787
 20
43.38558199603558
 10
45.78014567513032
 20
43.49447492229181
 10
45.75374538885013
 20
43.5293165735356
 10
45.73343775735855
 20
43.55799035282151
 10
45.70561561078609
 20
43.59588002984509
 10
45.59415264306561
 20
43.7284251722182
 10
45.48180011410045
 20
43.83068920797758
 10
45.36774395594965
 20
43.90285960184361
 10
45.25117010067223
 20
43.94512381853656
 10
45.1312644803273
 20
43.9576693227768
 10
45.00721302697391
 20
43.9406835792846
 10
44.87820167267107
 20
43.89435405278038
 10
44.74341634947786
 20
43.81886820798437
 10
44.60204298945334
 20
43.71441350961693
 10
44.3300317977064
 20
43.46567385863319
 10
43.80871809942807
 20
42.97993278851953
 10
43.53092929772681
 20
42.75722618359198
 10
43.22934670061146
 20
42.56116855243746
 10
43.14914584459454
 20
42.51747876148038
 10
43.05525099972794
 20
42.47177527390159
 10
42.84752477492428
 20
42.40208840995404
 10
42.6388946322013
 20
42.37250863431801
 10
42.43408563340781
 20
42.38107898289707
 10
42.23782284039265
 20
42.42584249159477
 10
42.05483131500465
 20
42.50484219631472
 10
41.88983611909261
 20
42.61612113296044
 10
41.74756231450539
 20
42.75772233743553
 10
41.6327349630918
 20
42.92768884564355
 10
41.55007912670067
 20
43.12406369348805
 10
41.5222921084663
 20
43.23154269349386
 10
41.51214975957791
 20
43.28682134045223
 10
41.50856298387142
 20
43.30893128909202
 10
41.49297327177428
 20
43.39648393611709
 10
41.45203290750712
 20
43.566463311207
 10
41.39029043735561
 20
43.72782841322956
 10
41.29840083837517
 20
43.87844358484023
 10
41.16701908762118
 20
44.01617316869448
 10
41.12690788134175
 20
44.04834191922605
 10
41.10566202692473
 20
44.06406380604541
 10
41.10501897919442
 20
44.06620890755485
 10
41.11377168718711
 20
44.06638399056166
 10
41.12221651942101
 20
44.06716817507593
 10
41.11335879771374
 20
44.06800210706449
 10
41.1020533573903
 20
44.06664013394293
 10
41.09901825515783
 20
44.06599485294382
 10
41.09750160377832
 20
44.06561891180278
 10
41.07850743868113
 20
44.06035598677649
 10
40.97412567426316
 20
44.02586490918843
 10
40.56127339377339
 20
43.8552126118127
 10
40.35135304161993
 20
43.79732959096008
 10
40.2439445430116
 20
43.78701284250491
 10
40.13430391717099
 20
43.79359411822569
 10
40.02057559289268
 20
43.82089464003352
 10
39.90788543203456
 20
43.87093204043503
 10
39.81271817559972
 20
43.9370154279715
 10
39.73214350851943
 20
44.01647579585137
 10
39.6030506821474
 20
44.20485144547492
 10
39.49716443236831
 20
44.41470693497306
 10
39.39104223863202
 20
44.62469021001316
 10
39.3250387514183
 20
44.73131270713074
 10
39.20413543086628
 20
44.89311075767917
 10
39.08167591348843
 20
45.02289897793814
 10
38.95682483816348
 20
45.12079348399797
 10
38.82874684377015
 20
45.18691039194891
 10
38.69660656918716
 20
45.22136581788121
 10
38.55956865329321
 20
45.22427587788516
 10
38.41679773496705
 20
45.19575668805101
 10
38.26745845308737
 20
45.13592436446904
 10
38.11071544653291
 20
45.04489502322953
 10
38.02930649615224
 20
44.98771775726638
 10
37.93845970029809
 20
44.91693633688522
 10
37.65309555238718
 20
44.67452599579483
 10
37.38211830497626
 20
44.42030084867336
 10
37.12611958523658
 20
44.15434542489625
 10
36.88569102033943
 20
43.87674425383895
 10
36.66142423745608
 20
43.5875818648769
 10
36.45391086375776
 20
43.28694278738551
 10
36.26374252641578
 20
42.97491155074026
 10
36.0915108526014
 20
42.6515726843166
 10
35.93780746948587
 20
42.31701071748992
 10
35.80367019627745
 20
41.97258718564516
 10
35.69292513762615
 20
41.69828299259918
 10
35.56544134459912
 20
41.44653658318378
 10
35.42106692479721
 20
41.21676019030307
 10
35.25964998582126
 20
41.00836604686126
 10
35.08103863527211
 20
40.82076638576252
 10
34.88508098075059
 20
40.65337343991094
 10
34.67162512985755
 20
40.50559944221077
 10
34.44051919019383
 20
40.37685662556611
 10
34.19161126936028
 20
40.26655722288118
 10
33.92474947495774
 20
40.17411346706011
 10
33.80233023675276
 20
40.13480383956253
 10
33.56703207888963
 20
40.04896690932462
 10
33.09374130867222
 20
39.87958843319802
 10
32.84637304383168
 20
39.81809714455443
 10
32.7179572674971
 20
39.79797448135995
 10
32.62279694919205
 20
39.78968341616001
 10
32.45368974615481
 20
39.79531175529701
 10
32.30348780067295
 20
39.82915117236974
 10
32.16738993209308
 20
39.89029382784865
 10
32.04059495976177
 20
39.97783188220424
 10
31.97918569073515
 20
40.0312154841078
 10
31.93181396604792
 20
40.07703497339714
 10
31.84417157494761
 20
40.17071730997536
 10
31.67520098267096
 20
40.36480182987831
 10
31.58762586136922
 20
40.45846099492769
 10
31.54169933065006
 20
40.50296976847912
 10
31.5192142979274
 20
40.52353782264336
 10
31.48399052619202
 20
40.55487081117325
 10
31.41483537332403
 20
40.61311993415677
 10
31.2807979823347
 20
40.71209137216618
 10
31.15074991069428
 20
40.78796155832218
 10
31.02264167802686
 20
40.84105188313305
 10
30.89442380395651
 20
40.87168373710698
 10
30.76404680810732
 20
40.88017851075222
 10
30.62946121010338
 20
40.86685759457695
 10
30.48861752956875
 20
40.83204237908941
 10
30.33946628612752
 20
40.77605425479783
 10
30.17995799940376
 20
40.69921461221039
 10
30.15918916022783
 20
40.68815954126062
 10
30.14795358082873
 20
40.68208456446096
 10
30.13905980894823
 20
40.67714084984859
 10
30.12142836794843
 20
40.66689863915362
 10
30.05248802240143
 20
40.62241358101989
 10
29.91659054243996
 20
40.53034133017585
 10
29.84617076344832
 20
40.49123149077129
 10
29.80958566069852
 20
40.47526256360899
 10
29.77725836186144
 20
40.46395137659348
 10
29.7339233408174
 20
40.45263238548506
 10
29.64542446973078
 20
40.44186731734148
 10
29.55554050813833
 20
40.44626094941285
 10
29.37667338459884
 20
40.49729942516377
 10
29.20743411252472
 20
40.5992980346645
 10
29.05793483424181
 20
40.74580699984163
 10
28.99374773724886
 20
40.83373731016091
 10
28.94645081977186
 20
40.91106694250363
 10
28.85999098610277
 20
41.05372943408383
 10
28.76659986733242
 20
41.18986240838855
 10
28.65716417057306
 20
41.31290260740317
 10
28.52257060293704
 20
41.41628677311323
 10
28.44299171351286
 20
41.45855682534947
 10
28.42162477832098
 20
41.46800400586658
 10
28.38275673855411
 20
41.48364957146451
 10
28.29831725606681
 20
41.51207529397306
 10
28.13279141952816
 20
41.54525649221918
 10
27.97296634920753
 20
41.5474664936817
 10
27.82031795906902
 20
41.51941225705402
 10
27.67632216307673
 20
41.46180074102948
 10
27.54245487519474
 20
41.37533890430144
 10
27.42019200938716
 20
41.26073370556325
 10
27.31100947961809
 20
41.11869210350826
 10
27.21638319985161
 20
40.94992105682985
 10
27.13778908405184
 20
40.75512752422135
 10
27.12081853938936
 20
40.70244597436452
 10
27.10952327197658
 20
40.66455653994899
 10
27.09236750347795
 20
40.60452719174531
 10
27.02687848706227
 20
40.36437804699482
 10
26.95457744483107
 20
40.12780544027632
 10
26.85969568619533
 20
39.8996458264284
 10
26.72646452056604
 20
39.68473566028979
 10
26.64054019431974
 20
39.58376051224855
 10
26.59663758368635
 20
39.53965318190713
 10
26.56505747284292
 20
39.51005992569159
 10
26.43704919756382
 20
39.40496086829406
 10
26.30443925701117
 20
39.31909442598573
 10
26.16469280555175
 20
39.24978628829412
 10
26.0152749975523
 20
39.19436214474678
 10
25.93614719558969
 20
39.17102084875457
 10
25.91585130879882
 20
39.16558422855516
 10
25.90562287123497
 20
39.16292213303217
 10
25.87526676182988
 20
39.15510949708381
 10
25.72657877441028
 20
39.11557315163907
 10
25.45951475552091
 20
39.03570195633373
 10
25.22986488082253
 20
38.9494715608896
 10
25.03402699382467
 20
38.85052853220551
 10
24.86839893803681
 20
38.73251943718032
 10
24.72937855696846
 20
38.58909084271284
 10
24.61336369412912
 20
38.41388931570188
 10
24.51675219302828
 20
38.2005614230463
 10
24.43594189717544
 20
37.94275373164493
 10
24.36733065008011
 20
37.63411280839657
 10
24.33847088014535
 20
37.47090893683699
 10
24.32854051045967
 20
37.41306750422488
 10
24.28129839461516
 20
37.18497684825497
 10
24.21531209460048
 20
36.96501684891295
 10
24.12163339067245
 20
36.7570415561484
 10
23.99131406308793
 20
36.56490501991085
 10
23.81525090016748
 20
36.39279102850525
 10
23.71396677535977
 20
36.32374042064546
 10
23.60899243043724
 20
36.27137699210962
 10
23.50156075152533
 20
36.23595186747995
 10
23.39290462474947
 20
36.21771617133868
 10
23.28425693623511
 20
36.2169210282681
 10
23.17685057210771
 20
36.23381756285042
 10
23.07191841849269
 20
36.26865689966788
 10
22.97069336151551
 20
36.32169016330275
 10
22.8744082873016
 20
36.39316847833724
 10
22.82850352064508
 20
36.43590300656131
 10
22.79976359536463
 20
36.46445815520664
 10
22.68755968428072
 20
36.56519515740809
 10
22.56983516752321
 20
36.65011319266103
 10
22.44204293899731
 20
36.71822734545816
 10
22.29963589260819
 20
36.76855270029225
 10
22.22153084206029
 20
36.78673679237713
 10
22.18050426508345
 20
36.79403032951973
 10
22.11399840628198
 20
36.80204203285218
 10
21.98522644867881
 20
36.79982381877973
 10
21.87129530303321
 20
36.7747401146682
 10
21.76966392562331
 20
36.73080009528725
 10
21.6777912727273
 20
36.67201293540645
 10
21.5131579655896
 20
36.52593389322375
 10
21.35706703184544
 20
36.368576386277
 10
21.27587234569134
 20
36.29569114544114
 10
21.2333759911655
 20
36.26245091714428
 10
21.17711426454558
 20
36.22324840339738
 10
21.05958374661752
 20
36.15342848685223
 10
20.94477800427928
 20
36.1021195198955
 10
20.83246252225696
 20
36.06955100441048
 10
20.72240278527663
 20
36.05595244228043
 10
20.61436427806435
 20
36.06155333538861
 10
20.50811248534619
 20
36.08658318561833
 10
20.40341289184824
 20
36.13127149485282
 10
20.30003098229655
 20
36.1958477649754
 10
20.19773224141721
 20
36.28054149786929
 10
20.14691577320656
 20
36.33050413219403
 10
20.11149760136121
 20
36.36842384151854
 10
20.00339499990742
 20
36.49908714128724
 10
19.8165632579185
 20
36.77734588140935
 10
19.64187102745684
 20
37.06813941358184
 10
19.44380000130869
 20
37.39829837061783
 10
19.33591914107088
 20
37.556998102541
 10
19.21414037737188
 20
37.70535759263226
 10
19.14616404609504
 20
37.77423308821703
 10
19.11007597686465
 20
37.80709510835874
 10
19.09277113942423
 20
37.82199830013305
 10
19.08726420122602
 20
37.82658434492794
 10
19.04116908484365
 20
37.8609114752072
 10
18.94146162561809
 20
37.9215732271332
 10
18.89000012935936
 20
37.95085230176728
 10
18.86433793725885
 20
37.96587298784304
 10
18.8515827924271
 20
37.97355913045698
 10
18.84523155934227
 20
37.97745621570627
 10
18.82195094568047
 20
37.96262713788141
 10
18.73747831141677
 20
37.89411461991952
 10
18.67178245259303
 20
37.81909169060945
 10
18.58553173821463
 20
37.65375942561221
 10
18.54082015644378
 20
37.47511999822452
 10
18.51526906117898
 20
37.29166306378116
 10
18.50268536907964
 20
37.20078104870573
 10
18.49521765470456
 20
37.1560159322307
 10
18.49103685140957
 20
37.13386038151211
 10
18.48545922203004
 20
37.10599625961986
 10
18.47738706110349
 20
37.0653542578697
 10
18.36193302524039
 20
36.41419131478099
 10
18.27690354643656
 20
35.76091086710164
 10
18.22904088978192
 20
35.10487220507523
 10
18.22508732036641
 20
34.44543461894528
 10
18.24168340121393
 20
34.11424100754259
 10
18.25499337564861
 20
33.94824045844201
 10
18.26294743607145
 20
33.86513486819006
 10
18.26658054791051
 20
33.82993549373135
 10
18.26836263290869
 20
33.81337966011065
 10
18.30537853298949
 20
33.54927385471698
 10
18.35952645455131
 20
33.28935276737672
 10
18.43244601955419
 20
33.03754702189353
 10
18.52577684995811
 20
32.79778724207107
 10
18.58060887154797
 20
32.6836529092213
 10
18.61015620076581
 20
32.62823708805104
 10
18.6254739033337
 20
32.60096888327821
 10
18.63327016515154
 20
32.58744806603222
 10
18.66131088722206
 20
32.53898598317732
 10
18.88456405470812
 20
32.12958459719039
 10
19.0896623213363
 20
31.71332433282242
 10
19.45578898995053
 20
30.86409000605651
 10
19.78048056892774
 20
29.99900867710589
 10
20.08452673413099
 20
29.12580602019682
 10
20.23530456027456
 20
28.6885734669536
 10
20.31151909463059
 20
28.47022188194407
 10
20.34997488405452
 20
28.36116507456847
 10
20.36930767394357
 20
28.30667301869124
 10
20.38365783254588
 20
28.26643958509985
 10
20.58159843328676
 20
27.76759269717474
 10
20.81482862759047
 20
27.2897954965448
 10
21.08949390660838
 20
26.83682671461455
 10
21.24428516886998
 20
26.62083383422571
 10
21.41173976149193
 20
26.4124650827885
 10
21.59262587086813
 20
26.21219280172845
 10
21.78504231091547
 20
26.02295029251472
 10
22.05018452424754
 20
25.77033575862811
 10
23.08330045709904
 20
24.73033832967951
  0
LWPOLYLINE
  5
A9
330
1F
100
AcDbEntity
  8
Calque 1
 62
     7
420
 16777215
370
    70
100
AcDbPolyline
 90
       58
 70
     0
 43
0.0
 10
25.59782987976911
 20
34.65839415366997
 10
25.86445900238894
 20
34.20849186492115
 10
26.16935261149496
 20
33.80396235664232
 10
26.51498053866355
 20
33.44921607697118
 10
26.9038126154711
 20
33.14866347404544
 10
27.33831867349399
 20
32.90671499600283
 10
27.82096854430862
 20
32.72778109098105
 10
27.94944291614885
 20
32.69341049115126
 10
28.05316434192888
 20
32.66928416173445
 10
28.17920333030185
 20
32.6438183145164
 10
28.43358618288544
 20
32.60302075148435
 10
29.46665185268594
 20
32.5098077686386
 10
29.59582295603444
 20
32.49869983426533
 10
29.66028861831458
 20
32.49266372622527
 10
29.76708866141212
 20
32.48137408815836
 10
30.19454133751503
 20
32.40796567409941
 10
30.55389284729707
 20
32.2893929919822
 10
30.84804642387367
 20
32.11685186140958
 10
31.07990530036021
 20
31.88153810198438
 10
31.25237270987208
 20
31.57464753330943
 10
31.36835188552468
 20
31.18737597498757
 10
31.47976352997475
 20
30.67030919908166
 10
31.64717501457424
 20
30.1685823015267
 10
31.86710953290454
 20
29.70331774920108
 10
32.1375229026369
 20
29.27219772811682
 10
32.45637094144257
 20
28.87290442428602
 10
32.82160946699278
 20
28.5031200237207
 10
33.02098635531936
 20
28.32856934529136
 10
33.18220092993734
 20
28.19400200580359
 10
33.74654683257856
 20
27.66380442010602
 10
34.25057351277628
 20
27.08594380903666
 10
34.69341513648887
 20
26.45897146314711
 10
34.90666677993686
 20
26.17352677757884
 10
35.14483140494176
 20
25.94885605902023
 10
35.40754913560296
 20
25.77962948602977
 10
35.69446009601987
 20
25.66051723716595
 10
36.00520441029186
 20
25.58618949098721
 10
36.33942220251832
 20
25.55131642605206
 10
36.5046550051584
 20
25.54702798620121
 10
36.6300073783848
 20
25.54786457442081
 10
36.88103485636091
 20
25.55540134481603
 10
37.38354046270044
 20
25.56649396286206
 10
37.88504641106872
 20
25.52002097235668
 10
38.14343660798222
 20
25.45294638723046
 10
38.4054860035109
 20
25.3453483163266
 10
38.61879550771977
 20
25.20890895979908
 10
38.7860841762396
 20
25.04065688859436
 10
38.91007106470111
 20
24.83762067365906
 10
38.99347522873506
 20
24.59682888593964
 10
39.03901572397219
 20
24.31531009638262
 10
39.05468640979602
 20
24.08977045320224
 10
39.09974645152702
 20
23.68068142426046
 10
39.21226509152851
 20
23.28782511201063
 10
39.31018765396087
 20
23.10319518022385
 10
39.37242884269898
 20
23.01482918764124
 10
39.39212412609194
 20
22.99044803836581
 10
39.42887826272298
 20
22.96023559527843
 10
39.51444696946558
 20
22.90947219602193
  0
LWPOLYLINE
  5
AA
330
1F
100
AcDbEntity
  8
Calque 1
 62
     7
420
 16777215
370
    70
100
AcDbPolyline
 90
       44
 70
     0
 43
0.0
 10
14.84604890007642
 20
52.17339220123387
 10
15.1730970152723
 20
51.09442102932849
 10
15.56631152884702
 20
50.03902569953989
 10
15.97706656000726
 20
48.98988460833122
 10
16.17382618193404
 20
48.46224640108909
 10
16.33668815388693
 20
47.9855584462592
 10
16.59424078181504
 20
47.03726443386819
 10
16.74399152552741
 20
46.07318062759153
 10
16.75792470462174
 20
45.087950540528
 10
16.74946874534317
 20
44.97200873246796
 10
16.74578835717442
 20
44.92758987707892
 10
16.7381243308289
 20
44.83868779125063
 10
16.72130397293323
 20
44.66076133404164
 10
16.62242092187003
 20
43.95309116881739
 10
16.58660769511985
 20
43.77872785368088
 10
16.5612467768959
 20
43.6669172027235
 10
16.53039618016383
 20
43.50564318671247
 10
16.48822467389021
 20
42.87181811291381
 10
16.56432161978059
 20
42.25235549613516
 10
16.74308574199035
 20
41.64236049987946
 10
16.97075075950798
 20
41.04935146330774
 10
17.13961709805435
 20
40.45096381301868
 10
17.18624698088589
 20
39.83584921420636
 10
17.1440582952318
 20
39.51987154859203
 10
17.10314667830634
 20
39.35940176614323
 10
17.07872170916614
 20
39.28103040815198
 10
16.88514407703561
 20
38.74412530610645
 10
16.78608733418861
 20
38.47628004730121
 10
16.76244931326324
 20
38.40895031714153
 10
16.72682663936023
 20
38.29767721151326
 10
16.67056573470735
 20
38.03152428820855
 10
16.66038640259947
 20
37.50208212228178
 10
16.74458255343767
 20
36.98046481885538
 10
16.87600440613559
 20
36.45475216595698
 10
16.92835099804808
 20
36.13905260113726
 10
16.93326836309745
 20
35.8406427917456
 10
16.89176258657073
 20
35.55947099196401
 10
16.80483975375488
 20
35.29548545597437
 10
16.49876726040381
 20
34.81886619209864
 10
16.28730911922776
 20
34.61078959910789
 10
16.10495697504141
 20
34.44680793998213
 10
15.75570484007262
 20
34.11001045086758
 10
15.43432162518253
 20
33.75112375717021
 10
15.14952658901935
 20
33.35777548677163
  0
LWPOLYLINE
  5
AB
330
1F
100
AcDbEntity
  8
Calque 1
 62
     7
420
 16777215
370
    70
100
AcDbPolyline
 90
      131
 70
     0
 43
0.0
 10
47.4482234836607
 20
58.97996322466831
 10
47.60646958850093
 20
58.76392871796323
 10
47.79919517153671
 20
58.59849476509494
 10
48.24583391407259
 20
58.35820005227885
 10
48.47862164451151
 20
58.25272505803607
 10
48.59276141191657
 20
58.19695878770398
 10
48.64869012271462
 20
58.16748135126625
 10
48.74788117829821
 20
58.11435290427372
 10
49.21962008338386
 20
57.91693765697498
 10
49.70442076883061
 20
57.79134692940605
 10
50.19887481001101
 20
57.72159549865415
 10
50.69957378229762
 20
57.69169814180658
 10
51.70902775482627
 20
57.68420225917636
 10
52.20317297584908
 20
57.63880717533385
 10
52.67386116915854
 20
57.53664969524371
 10
53.12142268157185
 20
57.37613975278383
 10
53.54618785990612
 20
57.15568728183209
 10
53.94848705097854
 20
56.87370221626633
 10
54.12953740148712
 20
56.71979240975241
 10
54.19003496322068
 20
56.66489292461278
 10
54.42858079972407
 20
56.44146228163831
 10
54.66597731833338
 20
56.21675052794043
 10
54.78606197459247
 20
56.10593557337947
 10
54.81635060753344
 20
56.07852920895944
 10
54.88658209495751
 20
56.01596779941933
 10
55.03600575586264
 20
55.88779397747899
 10
55.6611300202552
 20
55.43771976786043
 10
56.00083262998642
 20
55.25617307655667
 10
56.36676809527166
 20
55.10812876882406
 10
56.76504081900908
 20
54.99696842558822
 10
57.08641959621708
 20
54.92420453296521
 10
57.71382904068107
 20
54.76285035209651
 10
58.34640326321059
 20
54.61889094864282
 10
58.67017766948462
 20
54.56938931615417
 10
59.05250954206306
 20
54.52422981661314
 10
59.81760502892067
 20
54.43035690341069
 10
60.57075555946086
 20
54.29806210071373
 10
60.7554160816203
 20
54.25424826049336
 10
60.85247564203418
 20
54.22883474536199
 10
61.00321835394284
 20
54.18699755128048
 10
61.5951983870721
 20
53.99496813969535
 10
62.16120687852117
 20
53.75355297086688
 10
62.69006217699462
 20
53.44955639035668
 10
63.17058263119712
 20
53.06978274372637
 10
63.59158658983321
 20
52.60103637653757
 10
63.77627561728404
 20
52.32917478072175
 10
63.88327725999161
 20
52.15715479332549
 10
64.09726842477493
 20
51.85074526639209
 10
64.33190768000004
 20
51.56564267679369
 10
64.58975928439172
 20
51.30310013367449
 10
64.87338749667469
 20
51.06437074617858
 10
65.18535657557366
 20
50.85070762345019
 10
65.26807760477646
 20
50.80135529536583
 10
65.3766769689879
 20
50.73888026119224
 10
65.62405942493022
 20
50.58124758284517
 10
66.07039320001561
 20
50.22587201401147
 10
66.45496131002753
 20
49.81980008797918
 10
66.78113477575656
 20
49.36637251553332
 10
67.05228461799336
 20
48.86893000745886
 10
67.27178185752862
 20
48.33081327454074
 10
67.66753801982616
 20
47.09364890920258
 10
68.07581975308599
 20
45.84859802052679
 10
68.55757774748974
 20
44.62799663637005
 10
68.6875902889312
 20
44.3016566807687
 10
68.78624983915566
 20
43.97439903588227
 10
68.8979816931512
 20
43.31801732653191
 10
68.9097167638717
 20
42.66062480487434
 10
68.83839850571241
 20
42.00399476746492
 10
68.70097037306869
 20
41.34990051085901
 10
68.51442267518485
 20
40.69632393672537
 10
68.33518299962364
 20
40.02752375894103
 10
68.19775027544313
 20
39.35664573353367
 10
68.10606689928548
 20
38.68168166140392
 10
68.06407526779311
 20
38.00062334345247
 10
68.07571777760826
 20
37.31146258057993
 10
68.10288383445689
 20
36.96321622007971
 10
68.11198218213352
 20
36.87573026594361
 10
68.11744754389834
 20
36.8257210099306
 10
68.12723128443846
 20
36.73304020956886
 10
68.17373033830891
 20
35.9857521521729
 10
68.16111878282717
 20
35.61088439363752
 10
68.11255429886923
 20
35.23739216413142
 10
68.01900273128635
 20
34.86691897534523
 10
67.95506544090535
 20
34.68962497545489
 10
67.90820391808617
 20
34.57685997951214
 10
67.69074881429492
 20
34.1435491386009
 10
67.43254885513907
 20
33.73847924974634
 10
67.29119854007392
 20
33.54646896379079
 10
67.25478997223901
 20
33.4995582625534
 10
67.16926830011271
 20
33.38775404107857
 10
67.00131055896055
 20
33.14727299205742
 10
66.71638330506581
 20
32.65064276828461
 10
66.49542656396388
 20
32.13350380974399
 10
66.33362378555097
 20
31.59631463588316
 10
66.22615841972329
 20
31.03953376614963
 10
66.16821391637699
 20
30.46361971999095
 10
66.16511905930074
 20
30.40801044628167
 10
66.16479042848658
 20
30.3996421904584
 10
66.16458471184647
 20
30.38354706204672
 10
66.16589906596485
 20
30.35374649377819
 10
66.19079815024747
 20
30.25903801769762
 10
66.23830369137336
 20
30.18422697574814
 10
66.25233417746608
 20
30.16561871417835
 10
66.25954620447767
 20
30.15605243134094
 10
66.28334449738821
 20
30.12356081490831
 10
66.44154079062722
 20
29.83642670310891
 10
66.51248536484368
 20
29.55213018238232
 10
66.50911204761843
 20
29.26958702513191
 10
66.44435466653227
 20
28.98771300376115
 10
66.33114704916612
 20
28.70542389067338
 10
66.26041622299706
 20
28.5637848536117
 10
66.22384314289
 20
28.49572913102063
 10
66.20246745823994
 20
28.45718185259194
 10
66.1148177525073
 20
28.30403959424047
 10
65.94862149982072
 20
27.99218675721564
 10
65.83437530707222
 20
27.65117979860149
 10
65.81233744098918
 20
27.47848319483638
 10
65.81498658007692
 20
27.33718468401413
 10
65.89369082597896
 20
27.10639163921941
 10
66.0826559545727
 20
26.92240345761621
 10
66.66089238509885
 20
26.5986674537508
 10
66.94020128499968
 20
26.4061275157246
 10
66.95680751327407
 20
26.39211312984411
 10
66.99130777172733
 20
26.36192897494941
 10
67.08519154165768
 20
26.27395027458554
 10
67.24961553288888
 20
26.09332397808373
 10
67.49071880987582
 20
25.71420336009039
 10
67.6255519825003
 20
25.31279691469487
 10
67.66698245428824
 20
24.89095048899803
 10
67.6278776287655
 20
24.45050993010073
 10
67.52110490945795
 20
23.99332108510386
  0
LWPOLYLINE
  5
AC
330
1F
100
AcDbEntity
  8
Calque 1
 62
     7
420
 16777215
370
    70
100
AcDbPolyline
 90
       73
 70
     0
 43
0.0
 10
59.80410081919464
 20
27.0714519300965
 10
59.59662045969704
 20
26.83531773346246
 10
59.38137604110052
 20
26.64472300064745
 10
59.15897287806157
 20
26.4962286062544
 10
58.9300162852366
 20
26.38639542488625
 10
58.69511157728212
 20
26.31178433114597
 10
58.45486406885456
 20
26.2689561996365
 10
58.20987907461036
 20
26.2544719049608
 10
57.960761909206
 20
26.26489232172181
 10
57.7081178872979
 20
26.29677832452249
 10
57.45255232354256
 20
26.34669078796581
 10
56.9350778291159
 20
26.48683859519208
 10
56.80482904600541
 20
26.52776845146742
 10
56.73962464975288
 20
26.54882176543658
 10
56.69449260231018
 20
26.56357397552628
 10
56.53417275930832
 20
26.61683892726171
 10
56.21363596377476
 20
26.72489920269711
 10
55.56905957253307
 20
26.92736169396703
 10
55.24278319850764
 20
27.01046131125362
 10
54.91235685333427
 20
27.07393811060932
 10
54.74523794495505
 20
27.09655192253996
 10
54.66114089491018
 20
27.10526862613944
 10
54.55289040727294
 20
27.11361026946658
 10
54.10655853159988
 20
27.11060271473537
 10
53.67730422702191
 20
27.0489815385641
 10
53.26433033995373
 20
26.93311830650414
 10
52.86683971681002
 20
26.76738458410683
 10
52.48403520400554
 20
26.55615193692349
 10
52.11511964795494
 20
26.3037919305055
 10
51.79206868613673
 20
26.0454617714547
 10
50.59756410696057
 20
24.96088700949151
 10
50.28905609214037
 20
24.70013738533979
 10
50.1296984394175
 20
24.57532037415044
 10
49.94745890943168
 20
24.4440093991852
 10
49.56195101193042
 20
24.21447889918359
 10
49.16212128910629
 20
24.03428189798701
 10
48.74938768350137
 20
23.89779483498897
 10
48.32516813765776
 20
23.79939414958304
 10
47.89088059411754
 20
23.73345628116279
 10
47.44794299542281
 20
23.69435766912176
 10
46.63480525773509
 20
23.6732332436593
 10
46.22892847470266
 20
23.68983089300696
 10
46.17838231996115
 20
23.693449910691
 10
46.15312988623633
 20
23.69539669993704
 10
46.10709741785743
 20
23.69886180680958
 10
45.90355971698516
 20
23.70807189859568
 10
45.50354155614626
 20
23.69639964333951
 10
45.11325232716047
 20
23.64559033275246
 10
44.73307516280249
 20
23.55682740256288
 10
44.36339319584702
 20
23.43129428849911
 10
44.00458955906877
 20
23.27017442628956
 10
43.64938007368998
 20
23.07152297405107
 10
43.26250612231683
 20
22.86161221851985
 10
42.86759507977684
 20
22.67276608598347
 10
42.46639581454969
 20
22.50022927246809
 10
41.65212808995242
 20
22.18506238660525
 10
41.2425573675416
 20
22.03292170631016
 10
41.14809510658035
 20
21.99760351298623
 10
41.08538109353585
 20
21.97389539999734
 10
40.96101227365244
 20
21.92551658396262
 10
40.71829383843547
 20
21.82191601036357
 10
40.48699601828948
 20
21.703491359865
 10
40.27119282402001
 20
21.56340244663469
 10
40.0749582664326
 20
21.39480908484042
 10
39.90236635633273
 20
21.19087108864995
 10
39.82620952246736
 20
21.0735102945836
 10
39.8110109739192
 20
21.0472130724805
 10
39.80673309287374
 20
21.03977366023127
 10
39.79786991348902
 20
21.02483395384314
 10
39.71066855480469
 20
20.91073403698079
 10
39.58959782277053
 20
20.83279778409709
 10
39.51420018770599
 20
20.81909638595741
 10
39.42774170445447
 20
20.82848232898459
  0
LWPOLYLINE
  5
AD
330
1F
100
AcDbEntity
  8
Calque 1
 62
     7
420
 16777215
370
    70
100
AcDbPolyline
 90
       75
 70
     0
 43
0.0
 10
74.24096802176584
 20
46.88420962251405
 10
74.11657878171107
 20
46.64486026125316
 10
73.97077613822786
 20
46.42090105162973
 10
73.64163873827584
 20
45.99995962517625
 10
73.30697201650927
 20
45.58299841891576
 10
73.21904700898321
 20
45.46086879645825
 10
73.10466277108147
 20
45.28012295332237
 10
72.92774598966146
 20
44.91116299117781
 10
72.81590988804005
 20
44.53294737456783
 10
72.76428857096196
 20
44.1463185595304
 10
72.7680161431719
 20
43.75211900210345
 10
72.82222670941457
 20
43.35119115832492
 10
72.8667425230309
 20
43.14846739656569
 10
72.89308695881605
 20
43.04658662753315
 10
72.91006068753681
 20
42.98530277958934
 10
72.96949211353581
 20
42.78162565728983
 10
73.09512792446435
 20
42.37610045682129
 10
73.21793414904542
 20
41.96992638956569
 10
73.27382859211009
 20
41.76543818378235
 10
73.28042687859356
 20
41.73977755681258
 10
73.28368951909273
 20
41.72693786904923
 10
73.29542124815045
 20
41.67989545076393
 10
73.34590899115564
 20
41.45869408459897
 10
73.42231783641778
 20
41.02211094364391
 10
73.46607337635994
 20
40.59325291258015
 10
73.47729826979524
 20
40.1720787770774
 10
73.45611517553684
 20
39.75854732280544
 10
73.40264675239786
 20
39.35261733543399
 10
73.31701565919146
 20
38.9542476006328
 10
73.19934455473081
 20
38.56339690407164
 10
73.04975609782903
 20
38.18002403142023
 10
72.86837294729926
 20
37.80408776834831
 10
72.65531776195468
 20
37.43554690052565
 10
72.41071320060841
 20
37.074360213622
 10
72.13468192207358
 20
36.72048649330709
 10
72.06928684933024
 20
36.64306757623803
 10
72.03704878822931
 20
36.60555837331749
 10
71.97213434662865
 20
36.53091107587183
 10
71.4437102590864
 20
35.94144823696324
 10
70.93704840385801
 20
35.33357835744265
 10
70.70862326270533
 20
35.00856861980508
 10
70.50573261884368
 20
34.66195053283725
 10
70.33484406037151
 20
34.26551566195302
 10
70.22652521452546
 20
33.8640278233326
 10
70.16976492046106
 20
33.45828392830214
 10
70.15355201733374
 20
33.04908088818784
 10
70.19872374051217
 20
32.22348501801248
 10
70.21652648944715
 20
32.0339467633662
 10
70.23039353749886
 20
31.91559498420457
 10
70.26521825478444
 20
31.67945939629669
 10
70.33109280798007
 20
31.20745649821389
 10
70.3437784346879
 20
30.97044427150833
 10
70.33072015533426
 20
30.73199491533956
 10
70.31166764319654
 20
30.61205242049858
 10
70.27858956423405
 20
30.47621221107406
 10
70.16564583218086
 20
30.18177755660092
 10
70.01039833067867
 20
29.92406012816159
 10
69.81891879967837
 20
29.69952815139244
 10
69.59727897913082
 20
29.50464985193001
 10
69.35155060898686
 20
29.33589345541071
 10
69.08780542919742
 20
29.18972718747099
 10
69.0100457801832
 20
29.15146046303559
 10
68.89556312497425
 20
29.09247008891626
 10
68.67849186902581
 20
28.96554459549119
 10
68.2896033700727
 20
28.67740100863464
 10
67.95663030755078
 20
28.34636515651102
 10
67.67426478446752
 20
27.97583448081012
 10
67.43719890383044
 20
27.56920642322171
 10
67.240124768647
 20
27.12987842543557
 10
67.15492588779023
 20
26.89901364949639
 10
67.13849269499796
 20
26.85089047441052
 10
67.13658292053004
 20
26.84540674942022
 10
67.1326072274153
 20
26.83472500870886
 10
67.094474681698
 20
26.76053817092356
 10
67.00085744269862
 20
26.63791237446373
  0
LWPOLYLINE
  5
AE
330
1F
100
AcDbEntity
  8
Calque 1
 62
     7
420
 16777215
370
    70
100
AcDbPolyline
 90
       89
 70
     0
 43
0.0
 10
36.00277921495559
 20
55.85847842411238
 10
36.14167060209388
 20
55.73181869762169
 10
36.28634346250715
 20
55.62844462932603
 10
36.59081915898071
 20
55.48312744696581
 10
36.91177741602054
 20
55.40567483632375
 10
37.24478934527096
 20
55.37923475669185
 10
37.58542605837624
 20
55.38695516736212
 10
37.75721968126329
 20
55.39835929383933
 10
37.84324310445847
 20
55.40502574138726
 10
37.90207332449287
 20
55.40987198836102
 10
38.29008581484501
 20
55.45484796311393
 10
38.67721374549575
 20
55.51109761842993
 10
38.8708982326667
 20
55.53835662494664
 10
38.96784974726695
 20
55.55087831893299
 10
38.99210283579652
 20
55.55385023699265
 10
39.03971769147905
 20
55.55915536054786
 10
39.13876839825165
 20
55.56703469069879
 10
39.52341543834928
 20
55.55685331733588
 10
39.88994377116958
 20
55.48621865231247
 10
40.23884746592741
 20
55.36348352054329
 10
40.57062059183758
 20
55.19700074694311
 10
40.88575721811494
 20
54.99512315642671
 10
41.04625457398912
 20
54.8768131465958
 10
41.29827603943186
 20
54.70157928361573
 10
41.55595966822787
 20
54.54904502065399
 10
41.81899289852009
 20
54.41776454625643
 10
42.35985791616495
 20
54.21318171733715
 10
42.91837059751009
 20
54.07626430522446
 10
43.49203044769909
 20
53.99544581828497
 10
44.07833697187554
 20
53.9591597648853
 10
44.63233710954567
 20
53.95190541720731
 10
45.71036319121266
 20
53.93940693242804
 10
46.24737474570434
 20
53.90966970742566
 10
46.78186107219912
 20
53.8485285317764
 10
47.31292899287018
 20
53.74417443380148
 10
47.39233885114264
 20
53.72409292236708
 10
47.50676749022301
 20
53.69391520835947
 10
47.73341235155053
 20
53.63024380182666
 10
48.17719150037295
 20
53.4888370241801
 10
48.6070310145621
 20
53.32715438802432
 10
49.02142025069023
 20
53.1433672064777
 10
49.4188485653296
 20
52.93564679265873
 10
49.79780531505247
 20
52.70216445968578
 10
50.15677985643106
 20
52.44109152067735
 10
50.49426154603766
 20
52.1505992887518
 10
50.8087397404445
 20
51.82885907702761
 10
51.09870379622384
 20
51.47404219862319
 10
51.36264306994793
 20
51.08431996665697
 10
51.48438133746807
 20
50.87579787843769
 10
51.54261001558023
 20
50.76802158495518
 10
51.58136352680234
 20
50.69431912777399
 10
51.86944516027363
 20
50.24424134214857
 10
52.20640815614529
 20
49.84266583865916
 10
52.57539999003903
 20
49.47293904264554
 10
53.3420600743796
 20
48.76241727440487
 10
53.52741104988748
 20
48.57867106411054
 10
53.61960953752459
 20
48.48241362606888
 10
53.72840491258746
 20
48.36445303951555
 10
54.12688490792588
 20
47.88121842099459
 10
54.45331435560778
 20
47.37443410059884
 10
54.583956732496
 20
47.10999327462189
 10
54.68992240257228
 20
46.83700399008499
 10
54.76899000920401
 20
46.55457923595774
 10
54.81893819575857
 20
46.26183200120971
 10
54.83754560560337
 20
45.95787527481049
 10
54.82259088210579
 20
45.64182204572967
 10
54.77185266863324
 20
45.31278530293683
 10
54.76527668014043
 20
45.2816751128619
 10
54.76488196449048
 20
45.27976959021041
 10
54.76417073958842
 20
45.27601978626557
 10
54.76304773351568
 20
45.26875598910416
 10
54.76198752865496
 20
45.24246131779826
 10
54.77839825862942
 20
45.15801486699271
 10
54.77870110986273
 20
45.15259332398551
 10
54.77880420486428
 20
45.14376220124769
 10
54.77907515520629
 20
45.07427688883339
 10
54.77468690467735
 20
44.79714494016771
 10
54.74115524328581
 20
44.2465371029949
 10
54.67771555021218
 20
43.70033512121167
 10
54.58808644397171
 20
43.15797632503188
 10
54.34513446605148
 20
42.08253761033773
 10
54.32764464867146
 20
42.0156556310025
 10
54.31944152809196
 20
41.9845943937307
 10
54.31752284822482
 20
41.9772041064815
 10
54.31044064330604
 20
41.94751414187144
 10
54.29874504631696
 20
41.88759771167285
 10
54.28199612043126
 20
41.76632370614068
 10
54.24920347461877
 20
41.52364998476744
 10
54.16808659596862
 20
41.29154935485133
  0
LWPOLYLINE
  5
AF
330
1F
100
AcDbEntity
  8
Calque 1
 62
     7
420
 16777215
370
    70
100
AcDbPolyline
 90
      209
 70
     0
 43
0.0
 10
56.89938579645509
 20
55.0347532684101
 10
56.91482140248203
 20
55.2009584674731
 10
56.90721394625001
 20
55.36395955191228
 10
56.87785092419021
 20
55.52277439986344
 10
56.82801983273376
 20
55.67642088946231
 10
56.75384807176216
 20
55.83398005160145
 10
56.6283884480679
 20
56.11261192618236
 10
56.53582624765288
 20
56.39772285930547
 10
56.47243017918567
 20
56.68943247264206
 10
56.43446895133503
 20
56.98786038786345
 10
56.42386037409985
 20
57.13963109045325
 10
56.42044503966012
 20
57.21616216980307
 10
56.41886158372249
 20
57.26369354775409
 10
56.4155175156111
 20
57.3411154493756
 10
56.38876814802685
 20
57.64265119927359
 10
56.33948303556478
 20
57.93091154218034
 10
56.26614378801715
 20
58.20558656282865
 10
56.16723201517626
 20
58.46636634595135
 10
56.04122932683439
 20
58.71294097628128
 10
55.88661733278385
 20
58.94500053855124
 10
55.70187764281689
 20
59.16223511749407
 10
55.48549186672582
 20
59.36433479784262
 10
55.23594161430288
 20
59.55098966432967
 10
55.09825531252707
 20
59.63842844385415
 10
54.98645869820705
 20
59.70347127669235
 10
54.5415260063277
 20
59.9266216120331
 10
54.08559241957566
 20
60.10952584148829
 10
53.62125022871897
 20
60.26420467894688
 10
53.15109172452565
 20
60.40267883829776
 10
52.91464144579276
 20
60.4695956367731
 10
52.85544091073725
 20
60.48633748496575
 10
52.82583092926284
 20
60.49472644744346
 10
52.82165983076342
 20
60.49590420985891
 10
52.81319124563418
 20
60.49816703794591
 10
52.73694258098196
 20
60.51061670000546
 10
52.66848366482638
 20
60.5025125196209
 10
52.65637482432765
 20
60.49553712083744
 10
52.65142686060213
 20
60.49135491589818
 10
52.61786859315435
 20
60.46353740505604
 10
52.54947711508386
 20
60.41444429233758
 10
52.4080848546388
 20
60.33989042751489
 10
52.26148108063725
 20
60.29201728113217
 10
51.95712327443946
 20
60.25313348426719
 10
51.64537226144002
 20
60.25143358290377
 10
51.33519660658851
 20
60.24055825820312
 10
51.18350221501496
 20
60.2171925249642
 10
51.0043454241191
 20
60.17764066666014
 10
50.28520985835216
 20
60.01033742811247
 10
49.93501180853539
 20
59.90045938944278
 10
49.59487110912755
 20
59.75613802696297
 10
49.42785813053307
 20
59.66626573723489
 10
49.24023067284299
 20
59.56927299428113
 10
48.8514739206294
 20
59.41517631782748
 10
48.04527015066512
 20
59.19153887440559
 10
47.6422900367982
 20
59.07914134839151
 10
47.54278210526071
 20
59.04735447511424
 10
47.49329140712839
 20
59.03067772703889
 10
47.48339283409829
 20
59.02740048529761
 10
47.45581575739346
 20
59.02130013738289
 10
47.33300370034368
 20
59.0283306781454
 10
47.20703273864033
 20
59.06299790892396
 10
47.19218301039378
 20
59.06777012366463
 10
47.18566656589276
 20
59.06986881678648
 10
47.14497052436011
 20
59.08262498018718
 10
47.06405168180861
 20
59.10611801669777
 10
46.74650502750004
 20
59.17392729999375
 10
46.43829001504144
 20
59.2018684596746
 10
46.13877423965162
 20
59.19259810477907
 10
45.84732529654936
 20
59.14877284434588
 10
45.56331078095342
 20
59.0730492874138
 10
45.28609828808257
 20
58.96808404302156
 10
45.01505541315562
 20
58.8365337202079
 10
44.74954975139131
 20
58.68105492801159
 10
44.48894889800844
 20
58.50430427547137
 10
44.36659100745547
 20
58.41358250518273
 10
44.32039929148912
 20
58.37828755259017
 10
44.22841390458274
 20
58.30711094421539
 10
43.8618399150563
 20
58.02041635186547
 10
43.48713914422815
 20
57.74581661898394
 10
43.46313656596152
 20
57.72952066354022
 10
43.41319239871245
 20
57.69663776472181
 10
43.29699120798801
 20
57.62723436011827
 10
43.06189275793229
 20
57.51587878725853
 10
42.82454995066488
 20
57.44088719684437
 10
42.58658326730259
 20
57.40197438965468
 10
42.34961318896233
 20
57.3988551664684
 10
42.11526019676091
 20
57.43124432806447
 10
41.88514477181518
 20
57.49885667522182
 10
41.66088739524202
 20
57.60140700871935
 10
41.44410854815826
 20
57.738610129336
 10
41.23642871168075
 20
57.9101808378507
 10
41.21118921385994
 20
57.93402944318104
 10
41.20366531449224
 20
57.94127111635297
 10
41.19918049560889
 20
57.94559135973596
 10
41.19019758158756
 20
57.95422331547662
 10
41.17220027506681
 20
57.97147098186391
 10
41.03234611446249
 20
58.11333130691416
 10
40.80908365260268
 20
58.34907385898088
 10
40.58999525600476
 20
58.54263755718404
 10
40.37185025801549
 20
58.69470468747731
 10
40.1514179919816
 20
58.80595753581436
 10
39.92546779124985
 20
58.87707838814884
 10
39.69076898916695
 20
58.90874953043446
 10
39.44409091907966
 20
58.90165324862485
 10
39.18220291433473
 20
58.8564718286737
 10
38.90187430827886
 20
58.7738875565347
 10
38.60720627879749
 20
58.6577918050222
 10
38.10357767857959
 20
58.40186782786428
 10
37.64658501016083
 20
58.09227706740701
 10
37.23632221447549
 20
57.72746084928138
 10
36.87288323245794
 20
57.30586049911843
 10
36.70875202811654
 20
57.07327918878263
 10
36.63108863500753
 20
56.95145800979662
 10
36.59718495691741
 20
56.89557843569854
 10
36.57641189735054
 20
56.86066721961765
 10
36.24225330032888
 20
56.29959055038337
 10
36.05122842900311
 20
56.03456971153821
 10
35.82488428429673
 20
55.79463966922318
 10
35.69393102547955
 20
55.68753974348684
 10
35.62321521913938
 20
55.63781086265036
 10
35.58070354485785
 20
55.60981380064433
 10
35.41913280655628
 20
55.50778746156518
 10
35.08540353772902
 20
55.3386111792231
 10
34.91150137830361
 20
55.28337310610364
 10
34.82240949851616
 20
55.26569730815071
 10
34.7998950819667
 20
55.26244013344565
 10
34.7886004860523
 20
55.260993809782
 10
34.74521336060761
 20
55.2554462742608
 10
34.56554998879675
 20
55.22624815573058
 10
34.22780423361622
 20
55.14127625190233
 10
33.91731155156766
 20
55.022554190498
 10
33.6322460489034
 20
54.87210284925481
 10
33.37078183187577
 20
54.69194310590992
 10
33.13109300673718
 20
54.48409583820051
 10
32.91135367973993
 20
54.25058192386378
 10
32.70973795713639
 20
53.99342224063691
 10
32.52441994517893
 20
53.7146376662571
 10
32.35357375011988
 20
53.4162490784615
 10
32.28023503909732
 20
53.27688148936638
 10
32.2117435876127
 20
53.1529721831286
 10
31.90815806716364
 20
52.69064807143443
 10
31.73636236441025
 20
52.48244248276452
 10
31.54953147039193
 20
52.29180299543016
 10
31.3463904629244
 20
52.12042595184454
 10
31.1256644198234
 20
51.97000769442077
 10
30.88607841890466
 20
51.84224456557203
 10
30.62635753798392
 20
51.73883290771136
 10
30.3452268548769
 20
51.66146906325195
 10
30.3180886635709
 20
51.65568302649372
 10
30.30614901738245
 20
51.65317546917085
 10
30.28223930744057
 20
51.64814266967399
 10
30.23430504108143
 20
51.63803958153573
 10
29.84709636272536
 20
51.56407946524478
 10
29.45890508143903
 20
51.52988594460943
 10
29.41070981117654
 20
51.53034585844217
 10
29.38665808440489
 20
51.53106057472366
 10
29.37464455108205
 20
51.53154327898817
 10
29.34055309953429
 20
51.53297261232822
 10
28.98170766211082
 20
51.52159448294685
 10
28.66588891774514
 20
51.4628698028154
 10
28.39004694626654
 20
51.36151379808306
 10
28.15113182750425
 20
51.22224169489893
 10
27.94609364128748
 20
51.0497687194122
 10
27.77188246744547
 20
50.84881009777202
 10
27.62544838580749
 20
50.6240810561275
 10
27.50374147620274
 20
50.38029682062783
 10
27.40371181846049
 20
50.12217261742216
 10
27.36087285898443
 20
49.98920653610118
 10
27.34108055408583
 20
49.92200536444117
 10
27.33329014631488
 20
49.89435570886745
 10
27.30761711024245
 20
49.79610191815694
 10
27.23344701191528
 20
49.39260697520607
 10
27.20854953752518
 20
48.98426477011671
 10
27.20914337739678
 20
48.9336727594966
 10
27.20951073669625
 20
48.91743042669132
 10
27.21062542967744
 20
48.85781377517806
 10
27.2111607649998
 20
48.73923901186028
 10
27.19102569401812
 20
48.27353194060577
 10
27.1360624336177
 20
47.82107838911812
 10
27.0473564107518
 20
47.38122015545093
 10
26.92599305237371
 20
46.95329903765773
 10
26.77305778543671
 20
46.53665683379212
 10
26.5896360368941
 20
46.13063534190762
 10
26.37681323369915
 20
45.73457636005786
 10
26.13567480280515
 20
45.34782168629632
 10
25.86730617116538
 20
44.96971311867665
 10
25.72608292899428
 20
44.7872381347082
 10
25.61608887886897
 20
44.64795972467813
 10
25.39783430497175
 20
44.36788677660403
 10
24.97352327311637
 20
43.79868596799441
 10
24.57550308256146
 20
43.21171594199685
 10
24.2158057573651
 20
42.60014149768418
 10
23.90646332158535
 20
41.95712743412927
 10
23.83198129697609
 20
41.77508463306128
 10
23.7507371698579
 20
41.56684770418606
 10
23.59848874294325
 20
41.1480792546087
 10
23.33771310844085
 20
40.30098780859393
 10
23.14049321406956
 20
39.4404404342853
 10
23.01314199706367
 20
38.56557729270607
 10
22.96197239465748
 20
37.67553854487964
 10
22.96144786853468
 20
37.61938761791736
 10
22.96130773708597
 20
37.59569352496287
 10
22.96103969393681
 20
37.56791680315564
 10
22.96000667191954
 20
37.51286441662692
 10
22.95539127897607
 20
37.40481587166256
 10
22.93147024918883
 20
37.19735969210681
 10
22.87940442131612
 20
37.00221710352588
 10
22.78892442789596
 20
36.82033895849282
 10
22.64976090146627
 20
36.65267610958073
  0
LWPOLYLINE
  5
B0
330
1F
100
AcDbEntity
  8
Calque 1
 62
     7
420
 16777215
370
    70
100
AcDbPolyline
 90
      183
 70
     0
 43
0.0
 10
77.70928446682801
 20
29.58598135276656
 10
77.50572636531902
 20
29.28395821109569
 10
77.349224954024
 20
28.96068575793005
 10
77.10218135756329
 20
28.28418824118278
 10
76.97403375014129
 20
27.94786083963535
 10
76.90057730801381
 20
27.78387384163816
 10
76.84845550343588
 20
27.67356054976301
 10
76.67943525372315
 20
27.25121534273003
 10
76.51316777484082
 20
26.82808146941725
 10
76.41575924301649
 20
26.62420530653483
 10
76.4024655959938
 20
26.59931527137964
 10
76.37107659285497
 20
26.54300416827738
 10
76.30358175937601
 20
26.43194358475954
 10
76.15656873250002
 20
26.22713577812469
 10
75.99448148193546
 20
26.04417061691391
 10
75.81846831512506
 20
25.88155789899462
 10
75.62967753951149
 20
25.73780742223436
 10
75.42925746253748
 20
25.61142898450059
 10
74.99812263427894
 20
25.4048274175825
 10
74.5342502898911
 20
25.24983158118032
 10
74.29290831775545
 20
25.18796030659141
 10
74.17610699751328
 20
25.16144405153895
 10
74.08008047897725
 20
25.138837972554
 10
73.70650886394333
 20
25.03001612700239
 10
73.35086207380233
 20
24.88923184716421
 10
73.01456636230975
 20
24.71311661716251
 10
72.69904798322108
 20
24.49830192112039
 10
72.40573319029178
 20
24.2414192431609
 10
72.33604094150884
 20
24.1702307035421
 10
72.28620288085626
 20
24.11778901189127
 10
72.18752066969461
 20
24.01551849220247
 10
71.98596459851017
 20
23.81574409642503
 10
71.55652957366666
 20
23.44840249931452
 10
71.32318988456198
 20
23.28834422372078
 10
71.20066995996016
 20
23.21586079416976
 10
71.13779816066205
 20
23.1817108286439
 10
71.09540489658678
 20
23.15980067623938
 10
71.03657026650188
 20
23.13059022534242
 10
70.80174777883887
 20
23.02771109241044
 10
70.56780377513435
 20
22.94756037868157
 10
70.33480869762283
 20
22.89065561236078
 10
70.10283298853886
 20
22.85751432165298
 10
69.87194709011696
 20
22.84865403476311
 10
69.64222144459167
 20
22.86459227989612
 10
69.41372649419753
 20
22.90584658525694
 10
69.18653268116907
 20
22.97293447905049
 10
68.96071044774078
 20
23.06637348948172
 10
68.73633023614726
 20
23.18668114475558
 10
68.62470290173679
 20
23.25707244177253
 10
68.56903377968786
 20
23.29485575994973
 10
68.55831311212027
 20
23.30233837447912
 10
68.54239595218861
 20
23.31355155476394
 10
68.47931579452041
 20
23.35930974150939
 10
68.41746349054523
 20
23.40670126457856
 10
68.40223699831586
 20
23.41883319654551
 10
68.3946633401648
 20
23.42494441409551
 10
68.39088673424825
 20
23.42801154607132
 10
68.38900102785075
 20
23.42954801914805
 10
68.36576182685454
 20
23.44837968050799
 10
68.11676009703207
 20
23.63082549155568
 10
67.88636047260645
 20
23.76311450228124
 10
67.67048105751655
 20
23.84915355092738
 10
67.46503995570113
 20
23.89284947573664
 10
67.26595527109906
 20
23.89810911495169
 10
67.06914510764915
 20
23.86883930681514
 10
66.87052756929024
 20
23.80894688956963
 10
66.66602075996117
 20
23.72233870145778
 10
66.45154278360076
 20
23.61292158072221
 10
66.22301174414784
 20
23.48460236560557
 10
65.97634574554125
 20
23.34128789435046
 10
65.83707725663616
 20
23.2524830597912
 10
65.59593241478016
 20
23.05125564250718
 10
65.38281630346107
 20
22.81988482395178
 10
65.18803363946471
 20
22.56963565074018
 10
64.81468752058366
 20
22.05756242680895
 10
64.78607188433437
 20
22.02065485133632
 10
64.74643637475757
 20
21.97089580738565
 10
64.66572781157798
 20
21.87444057391964
 10
64.49847516641331
 20
21.69397167443342
 10
64.32327927198136
 20
21.53045372145516
 10
64.13994505925021
 20
21.38432134288112
 10
63.94827745918786
 20
21.25600916660749
 10
63.74808140276242
 20
21.14595182053053
 10
63.5391618209419
 20
21.05458393254648
 10
63.32132364469437
 20
20.98234013055155
 10
63.09437180498789
 20
20.92965504244199
 10
62.85811123279049
 20
20.89696329611403
 10
62.61234685907024
 20
20.8846995194639
 10
62.54939793700007
 20
20.88487637852014
 10
62.51495838056155
 20
20.88552826562187
 10
62.46191819723716
 20
20.88734771900712
 10
62.03251207925479
 20
20.93730666632
 10
61.61190316581863
 20
21.04849176077495
 10
61.41276674233028
 20
21.1262883386997
 10
61.35760611515532
 20
21.15121792791449
 10
61.25543916826341
 20
21.1960190193659
 10
61.05013019514148
 20
21.27548687168579
 10
60.63567028415139
 20
21.39707199943013
 10
60.21619890132098
 20
21.47492634928747
 10
59.79184942403577
 20
21.51633391082615
 10
59.36275522968138
 20
21.5285786736146
 10
59.14647054403619
 20
21.52604125221759
 10
59.03790109817238
 20
21.5230059340008
 10
58.95134116690792
 20
21.52072939479057
 10
58.62249379741406
 20
21.53015717618473
 10
58.30108669458256
 20
21.57039891421686
 10
57.98809347648345
 20
21.64375905324591
 10
57.68448776118668
 20
21.7525420376309
 10
57.39124316676226
 20
21.89905231173083
 10
57.31966503916002
 20
21.94184482134711
 10
57.28868842931611
 20
21.9612918452179
 10
57.27418033159521
 20
21.97062509495034
 10
57.2168588826643
 20
22.00907747112998
 10
57.10510709201879
 20
22.09053423338434
 10
56.88867575608738
 20
22.26458255891214
 10
56.78142924879823
 20
22.35313227157907
 10
56.72748676238458
 20
22.39690436056813
 10
56.70036552061823
 20
22.41855419387403
 10
56.68675862629925
 20
22.42930624281077
 10
56.65558220843376
 20
22.45347904092552
 10
56.50014800550295
 20
22.56125169869306
 10
56.3445166990785
 20
22.64778642874008
 10
56.18846383657462
 20
22.71308207967343
 10
56.03176496540546
 20
22.7571375000999
 10
55.87419563298526
 20
22.77995153862635
 10
55.7155313867282
 20
22.7815230438596
 10
55.55554777404843
 20
22.76185086440644
 10
55.39402034236018
 20
22.72093384887373
 10
55.23072463907762
 20
22.65877084586827
 10
55.06543621161494
 20
22.5753607039969
 10
54.90254194900146
 20
22.47384781405003
 10
54.84019635081093
 20
22.4309925206298
 10
54.34341569406648
 20
22.08517303095002
 10
54.21509057266561
 20
22.00578504941081
 10
54.03617797509928
 20
21.90955345839112
 10
53.65720409502058
 20
21.7653889195974
 10
53.45900368775648
 20
21.72149944725664
 10
53.25483537938037
 20
21.69827466702589
 10
53.15047601470606
 20
21.69484969912508
 10
53.02394615815245
 20
21.69533191958807
 10
52.75907898829783
 20
21.69552687536706
 10
51.69962544719652
 20
21.6960229952043
 10
51.66652140322306
 20
21.69638737719844
 10
51.60421170131892
 20
21.69673838597343
 10
51.44556386607848
 20
21.69182630753418
 10
51.14405339255803
 20
21.65722148750399
 10
50.86274994537576
 20
21.59120143529733
 10
50.60064564100075
 20
21.49571693334518
 10
50.35673259590213
 20
21.37271876407841
 10
50.13000292654896
 20
21.22415770992803
 10
49.91944874941033
 20
21.05198455332496
 10
49.72406218095535
 20
20.8581500767001
 10
49.5428353376531
 20
20.64460506248444
 10
49.37476033597269
 20
20.4133002931089
 10
49.07514530550077
 20
19.91573836666392
 10
48.76920992866573
 20
19.46499727057436
 10
48.59987693586249
 20
19.26349308413378
 10
48.41881397889763
 20
19.07929305258044
 10
48.22540623684279
 20
18.9134421112777
 10
48.01903888876965
 20
18.76698519558882
 10
47.79909711374988
 20
18.64096724087716
 10
47.5649660908551
 20
18.53643318250605
 10
47.316030999157
 20
18.45442795583881
 10
47.05167701772722
 20
18.39599649623878
 10
46.79163375356312
 20
18.36209801810938
 10
46.55932366713162
 20
18.33331601117937
 10
46.09999910291226
 20
18.262359809881
 10
45.64910458698301
 20
18.16768031959513
 10
45.2082832034624
 20
18.04223709343806
 10
44.77917803646886
 20
17.87898968452606
 10
44.56953249795677
 20
17.78098927188582
 10
44.46602634610964
 20
17.72750986408068
 10
44.34666856519831
 20
17.66228006656245
 10
43.80600459968688
 20
17.37215823732526
 10
42.71396155946867
 20
16.81389582397946
 10
41.61477464321835
 20
16.27022232710437
 10
41.47730087695156
 20
16.20240920842411
 10
41.40857759058264
 20
16.16847385434413
 10
41.37548032898748
 20
16.15211982525746
 10
41.37012777956721
 20
16.1494462022022
 10
41.32873868509091
 20
16.12696302262109
 10
41.25257806834709
 20
16.07689079539986
 10
40.9884841047324
 20
15.84277743920775
  0
LWPOLYLINE
  5
B1
330
1F
100
AcDbEntity
  8
Calque 1
 62
     7
420
 16777215
370
    70
100
AcDbPolyline
 90
      537
 70
     0
 43
0.0
 10
45.7574192166929
 20
13.93520339442358
 10
45.55655682244484
 20
13.6157353760286
 10
45.33189591422925
 20
13.31978569458546
 10
45.08551206449278
 20
13.04593045706279
 10
44.81948084568205
 20
12.79274577042924
 10
44.53587783024372
 20
12.55880774165345
 10
44.23677859062439
 20
12.34269247770407
 10
43.92425869927073
 20
12.14297608554972
 10
43.88109129404422
 20
12.11715818372258
 10
43.81163299671654
 20
12.07662901789965
 10
43.67209366185755
 20
11.99915285871488
 10
43.39055801366354
 20
11.85823706996748
 10
42.81793066207997
 20
11.63021432918288
 10
42.23307972968078
 20
11.4694847387201
 10
41.63662660780004
 20
11.3707059402289
 10
41.02919268777177
 20
11.32853557535907
 10
40.41139936093006
 20
11.33763128576039
 10
39.78386801860894
 20
11.39265071308264
 10
39.61362459821032
 20
11.41457309843179
 10
39.34922967442004
 20
11.45346254755247
 10
38.82785358598848
 20
11.5468429166419
 10
38.31612165751349
 20
11.66067858225892
 10
37.81374486630453
 20
11.79455354687978
 10
36.83590060492248
 20
12.12075738303795
 10
35.89200862031804
 20
12.52212644492625
 10
34.97975673096689
 20
12.99533275235456
 10
34.09683275534471
 20
13.53704832513276
 10
33.24092451192719
 20
14.1439451830707
 10
33.0308977004574
 20
14.30546397568286
 10
32.97862800947125
 20
14.34644161630354
 10
32.94565572648404
 20
14.37241415302645
 10
32.89882100598548
 20
14.40901492614063
 10
32.70959113161228
 20
14.55262859290918
 10
32.32187249083466
 20
14.82554466825361
 10
31.92143506352856
 20
15.07748775341388
 10
31.50783053310977
 20
15.30618827327731
 10
31.08061058299411
 20
15.50937665273123
 10
30.63932689659737
 20
15.68478331666294
 10
30.18353115733535
 20
15.83013868995979
 10
29.9591262903037
 20
15.88863167374937
 10
29.80538665801553
 20
15.92214360073943
 10
29.49664854506327
 20
15.97128502865249
 10
28.87533593189092
 20
16.01500383256524
 10
28.2511919570964
 20
16.01828609555512
 10
27.93891464211644
 20
16.01688184731458
 10
27.78287452851025
 20
16.01753908480481
 10
27.65730017736281
 20
16.01679811848985
 10
27.17708515582906
 20
15.97134881127567
 10
26.70379386996314
 20
15.88435512775564
 10
26.23157462715099
 20
15.79110029836405
 10
25.76695722359162
 20
15.7228398699385
 10
24.84001937728157
 20
15.64690114092593
 10
24.60769428830869
 20
15.63670120413605
 10
24.49159898873434
 20
15.6325456502709
 10
24.433580546461
 20
15.63067428286817
 10
24.31257984241125
 20
15.62769002150982
 10
23.79985362972997
 20
15.63371360440842
 10
23.29167063659111
 20
15.66931743793819
 10
22.78803583006336
 20
15.7334499163868
 10
22.28895417721543
 20
15.82505943404201
 10
21.79443064511604
 20
15.94309438519151
 10
21.30447020083391
 20
16.08650316412306
 10
21.0612026888333
 20
16.16739411222202
 10
20.93999738200467
 20
16.2100787162424
 10
20.87950187483785
 20
16.23197361203438
 10
20.77581032201514
 20
16.27032187431814
 10
19.9208995577056
 20
16.62264135314134
 10
19.09606358746423
 20
17.0243871147955
 10
18.29836294417779
 20
17.47089241057897
 10
17.52485816073302
 20
17.95749049179008
 10
16.77260977001666
 20
18.47951460972717
 10
16.03867830491549
 20
19.03229801568859
 10
15.32012429831624
 20
19.61117396097267
 10
13.8940146913535
 20
20.82953391115737
 10
12.51780394762998
 20
22.09934407872804
 10
11.85412465495226
 20
22.75892508893305
 10
11.20977688464754
 20
23.43782716736444
 10
10.58704623890355
 20
24.13820315198222
 10
10.00212837129276
 20
24.85643543682943
 10
9.466355915649497
 20
25.6005954810599
 10
8.982887538579999
 20
26.37287788606425
 10
8.555424975638239
 20
27.17467669830988
 10
8.187669962378187
 20
28.00738596426413
 10
7.883324234353809
 20
28.87239973039435
 10
7.646089527119068
 20
29.77111204316791
 10
7.600591514553411
 20
29.98680283916004
 10
7.581037828585429
 20
30.08810312568521
 10
7.546456594994458
 20
30.29048027768525
 10
7.495554912060409
 20
30.69442183310925
 10
7.469298524062525
 20
31.09743388686071
 10
7.468044530127544
 20
31.4997014346545
 10
7.492150029382216
 20
31.90140947220534
 10
7.541972120953296
 20
32.30274299522802
 10
7.617867903967523
 20
32.7038869994373
 10
7.640957711562991
 20
32.80416506736035
 10
7.671240747167896
 20
32.92756662807057
 10
7.740834501068116
 20
33.1962174949329
 10
7.894253891003629
 20
33.72740900931516
 10
8.068665210985548
 20
34.24970305888814
 10
8.266487765653462
 20
34.76219903682844
 10
8.490140859646956
 20
35.26399633631271
 10
8.742043797605605
 20
35.75419435051755
 10
9.024615884169003
 20
36.23189247261961
 10
9.100334472541796
 20
36.34925835514196
 10
9.13898109036204
 20
36.40762282471528
 10
9.158503297457539
 20
36.43672467201851
 10
9.164002022479307
 20
36.44486640405342
 10
9.194323694315784
 20
36.48851712042393
 10
9.257163730106395
 20
36.5730318657267
 10
9.390533902094832
 20
36.73270654836447
 10
9.67129289861973
 20
37.01913549246172
 10
9.797723657263455
 20
37.08504881535097
 10
9.936610764600677
 20
37.10422261523643
 10
10.07500655157656
 20
37.08974063677985
 10
10.10801142454671
 20
37.08239467812731
 10
10.13858224691049
 20
37.07431990598497
 10
10.19704240267106
 20
37.0550535792335
 10
10.41496701753854
 20
36.93521865559119
 10
10.60140079940726
 20
36.75860932709918
 10
10.7483101217184
 20
36.54076823611533
 10
10.84766135791319
 20
36.29723802499759
 10
10.89142088143284
 20
36.04356133610388
 10
10.87155506571856
 20
35.79528081179216
 10
10.83525214734907
 20
35.67802118709139
 10
10.77727617191174
 20
35.55563106987333
 10
10.66942472684309
 20
35.28156497081297
 10
10.59822899791861
 20
35.00328471744637
 10
10.55621149366863
 20
34.72186761178805
 10
10.53589472262341
 20
34.43839095585238
 10
10.5304534142685
 20
33.8695682012067
 10
10.53097246501135
 20
33.72775857801949
 10
10.53051693362168
 20
33.60189922005897
 10
10.52858921725171
 20
33.45744194402342
 10
10.53486131384043
 20
33.16173002832408
 10
10.58464538369286
 20
32.86311265460168
 10
10.63710763390256
 20
32.71502355603738
 10
10.71395174779969
 20
32.56897905503393
 10
10.90578898010211
 20
32.29991633375548
 10
11.12751245409145
 20
32.09339521335663
 10
11.25780600409542
 20
32.01691635180129
 10
11.40544048137317
 20
31.96006720844294
 10
11.57370567487539
 20
31.92417922260728
 10
11.59950358245823
 20
31.92083502911451
 10
11.65012244431741
 20
31.91384902790488
 10
11.7484362654393
 20
31.89663081031771
 10
11.93375753197877
 20
31.84967051432789
 10
12.26228843969319
 20
31.70934247793564
 10
12.54060170873625
 20
31.51416260870666
 10
12.77581477328553
 20
31.27256061829692
 10
12.97504506751864
 20
30.9929662183624
 10
13.14541002561315
 20
30.68380912055908
 10
13.29402708174665
 20
30.35351903654293
 10
13.32660695444889
 20
30.27363392404101
 10
13.34234420420198
 20
30.23330954715234
 10
13.37192311081178
 20
30.15198807152501
 10
13.42512461483206
 20
29.98720447922353
 10
13.62665293205892
 20
29.3225861718125
 10
13.69279915678016
 20
29.16134914015904
 10
13.71133726104026
 20
29.12169113279137
 10
13.72731809314242
 20
29.08898992123809
 10
13.75633852452047
 20
29.03065316349429
 10
13.87598565186269
 20
28.8022490938947
 10
14.13574236331894
 20
28.37332714177682
 10
14.42965112583003
 20
27.9901200493123
 10
14.76595446982693
 20
27.6628677487551
 10
14.95257990064224
 20
27.52342462427112
 10
15.15289492574063
 20
27.40181017235923
 10
15.36792986142595
 20
27.29930438455116
 10
15.59871502400208
 20
27.21718725237866
 10
15.8462807297729
 20
27.15673876737348
 10
16.11165729504226
 20
27.11923892106738
 10
16.25134662383387
 20
27.10949473478014
 10
16.32299789519177
 20
27.10694407538988
 10
16.35928222578909
 20
27.1062578540752
 10
16.36901320363849
 20
27.10612603601433
 10
16.420199811738
 20
27.10448230167998
 10
16.52290251384101
 20
27.09687996985391
 10
16.7295204715029
 20
27.07048675948541
 10
16.93755442394368
 20
27.04073911713964
 10
17.0420271195203
 20
27.02894374534192
 10
17.09436422337766
 20
27.02457453502602
 10
17.2495650113764
 20
27.00860353810041
 10
17.56121406466009
 20
26.93830732828621
 10
17.84178484599307
 20
26.82281515928894
 10
18.09470015138828
 20
26.66661231623324
 10
18.32338277685861
 20
26.47418408424376
 10
18.53125551841699
 20
26.25001574844512
 10
18.72174117207636
 20
25.99859259396199
 10
18.81153346469794
 20
25.86406211131517
 10
18.84987291490828
 20
25.80351635509845
 10
18.87708334167878
 20
25.7598390162787
 10
18.98462467745343
 20
25.5843078226879
 10
19.42656192434684
 20
24.88790805493138
 10
19.68913139707903
 20
24.54848719009661
 10
19.8693065351434
 20
24.35790014486963
 10
20.06103165818394
 20
24.19038172677812
 10
20.26466914145816
 20
24.04713427551303
 10
20.48058136022357
 20
23.92936013076513
 10
20.70913068973769
 20
23.83826163222532
 10
20.95067950525804
 20
23.7750411195844
 10
21.21100604630681
 20
23.74049409321125
 10
21.51541849037654
 20
23.73893783658811
 10
21.80934570013115
 20
23.7770851238123
 10
22.09139590291694
 20
23.85256500741773
 10
22.36017732608026
 20
23.9630065399381
 10
22.61429819696742
 20
24.10603877390736
 10
22.85236674292476
 20
24.27929076185928
 10
23.0729911912986
 20
24.48039155632771
 10
23.38964754082953
 20
24.78405039823111
 10
23.7180595217929
 20
25.06126184851719
 10
24.06102997379849
 20
25.30886111175996
 10
24.42136173645614
 20
25.52368339253343
 10
24.80185764937567
 20
25.70256389541163
 10
25.20532055216691
 20
25.84233782496858
 10
25.63455328443968
 20
25.93984038577828
 10
26.04282659848902
 20
26.01270846448323
 10
26.83903398270968
 20
26.20464926473342
 10
27.62661714241066
 20
26.43197572741279
 10
28.41410265812577
 20
26.65963703675103
 10
28.50856234528117
 20
26.6851940464864
 10
28.56791269589006
 20
26.70061286972647
 10
28.68651027386261
 20
26.72895214457146
 10
28.92344024352804
 20
26.77501811779529
 10
29.3974178913495
 20
26.81974703897392
 10
29.8737971573666
 20
26.79183817521397
 10
30.11372914977661
 20
26.74710691726458
 10
30.17395063731423
 20
26.73247865455474
 10
30.25190884458707
 20
26.7114198688451
 10
30.41914213177835
 20
26.65717384049002
 10
30.7251997424561
 20
26.51953371841073
 10
30.99371093977499
 20
26.34451970337306
 10
31.22507436963207
 20
26.13392002841749
 10
31.41968867792442
 20
25.88952292658451
 10
31.57795251054909
 20
25.61311663091464
 10
31.70026451340313
 20
25.30648937444836
 10
31.74934444000786
 20
25.13813116572174
 10
31.81013795010876
 20
24.93930288702058
 10
31.96136587007712
 20
24.57805666153003
 10
32.1531487655095
 20
24.26479909955933
 10
32.38672716733618
 20
23.99886006627343
 10
32.66334160648748
 20
23.77956942683729
 10
32.98423261389368
 20
23.60625704641588
 10
33.35064072048508
 20
23.47825279017415
 10
33.73306945724758
 20
23.39356444750808
 10
34.08198165175694
 20
23.30434631793105
 10
34.41685723876548
 20
23.18994929532993
 10
34.73450943528967
 20
23.04526758628047
 10
35.03175145834606
 20
22.8651953973584
 10
35.30539652495112
 20
22.64462693513943
 10
35.55225785212142
 20
22.37845640619935
 10
35.66464874373618
 20
22.2266748062638
 10
35.7115538720317
 20
22.15583683838138
 10
35.74428379115443
 20
22.10357462624352
 10
35.86385858075497
 20
21.89013049677246
 10
36.05555272659311
 20
21.44550234088017
 10
36.19833198427785
 20
20.98410806898153
 10
36.25676316368664
 20
20.74970629450254
 10
36.28368145191683
 20
20.63203121225084
 10
36.31300909936644
 20
20.49750015049627
 10
36.43772992341526
 20
19.8739611284231
 10
36.70202691873321
 20
18.62920675996601
 10
36.78595363239643
 20
18.32345279429677
 10
36.88218726426987
 20
18.04294135492208
 10
36.99969183195837
 20
17.77654669276371
 10
37.13899737688335
 20
17.52647356820661
 10
37.30063394046624
 20
17.29492674163567
 10
37.48513156412851
 20
17.08411097343585
 10
37.69302028929158
 20
16.89623102399209
 10
37.9248301573769
 20
16.73349165368928
 10
38.32669731827856
 20
16.53497906695397
 10
38.76351093990289
 20
16.39070112104064
 10
39.2174771718956
 20
16.28202932144418
 10
39.44533193854436
 20
16.2352243219819
 10
39.71819378672173
 20
16.1788801502047
 10
40.26416698526445
 20
16.04003902334279
 10
40.79053022595862
 20
15.84160641554387
 10
41.04480706212206
 20
15.70961798095879
 10
41.29232014883482
 20
15.55022128573833
 10
41.43234069274146
 20
15.44846157169049
 10
41.59094969279664
 20
15.34461585291327
 10
41.9213544527342
 20
15.16518169398343
 10
42.26650102128632
 20
15.01776659925318
 10
42.62298075306696
 20
14.89558179996282
 10
43.35630512476964
 20
14.69974801266273
 10
43.72633247391958
 20
14.61252148713355
 10
43.81861286480563
 20
14.59067929521857
 10
43.8870402115512
 20
14.57459981970519
 10
44.00102255409414
 20
14.55093426115326
 10
44.46399500694377
 20
14.4779739963986
 10
44.92253674619703
 20
14.39321544964814
 10
45.14360457910794
 20
14.3270278900576
 10
45.35571491067925
 20
14.23463004340784
 10
45.45398810517192
 20
14.1784868738663
 10
45.52202888368677
 20
14.13841388932763
 10
45.65831701190601
 20
14.06723841323406
 10
45.93421677449348
 20
13.9611029109375
 10
46.21930449078589
 20
13.90388987126756
 10
46.36707756113632
 20
13.89386747345721
 10
46.44258355203644
 20
13.89354398980264
 10
46.45584428317824
 20
13.89380138096683
 10
46.49902670662938
 20
13.89463409634885
 10
46.58535414990891
 20
13.89595488646809
 10
46.75786222888823
 20
13.89723801911721
 10
47.44605473335555
 20
13.88510082904917
 10
48.1316114977632
 20
13.84753898766148
 10
49.4964602504543
 20
13.70791149355868
 10
50.85569337507108
 20
13.50189582207214
 10
51.19500916216398
 20
13.44277737866361
 10
51.3495095946153
 20
13.41508854824335
 10
51.47380382011093
 20
13.39281895804474
 10
51.97154212043569
 20
13.30535215502937
 10
52.96957510578336
 20
13.14229380216293
 10
53.97073285566248
 20
13.00356096802812
 10
54.47237711165154
 20
12.94650106342733
 10
54.72344696391974
 20
12.92160501675846
 10
54.9935738268249
 20
12.89826418791071
 10
55.58028744351446
 20
12.87147929508033
 10
56.16515681334568
 20
12.87859599775653
 10
56.74762244569856
 20
12.9187999615806
 10
57.3271248499532
 20
12.99127685219374
 10
57.90310453548965
 20
13.09521233523715
 10
58.47500201168795
 20
13.22979207635208
 10
58.75924508046654
 20
13.30831906419927
 10
58.90090960038245
 20
13.35034730353504
 10
58.97162378207911
 20
13.37204704281719
 10
59.07635185782942
 20
13.404989667123
 10
59.93444551418379
 20
13.7074468790336
 10
60.76965219339808
 20
14.05600755443074
 10
61.5847196337331
 20
14.44475447954506
 10
62.38239557344981
 20
14.86777044060714
 10
63.16542775080903
 20
15.31913822384763
 10
64.69855177149866
 20
16.28326040178621
 10
65.76418467987287
 20
16.95829712887513
 10
66.85813976009137
 20
17.57510052123875
 10
67.42097031444628
 20
17.8504965388433
 10
67.99716005152713
 20
18.0979324091002
 10
68.58880185125555
 20
18.31294086078735
 10
68.65810526303935
 20
18.33544057994404
 10
68.68087883181875
 20
18.34243273664169
 10
68.72688514751529
 20
18.35505460648683
 10
68.82062208945384
 20
18.37515262625875
 10
69.21385048520204
 20
18.39967642873823
 10
69.62399577999264
 20
18.36817008703832
 10
70.03461516616154
 20
18.32511239901747
 10
70.09173720014762
 20
18.32063404747239
 10
70.20137146459474
 20
18.31197411740238
 10
70.42059840808595
 20
18.29276444076798
 10
70.85897480879644
 20
18.25121193781988
 10
71.73612850785229
 20
18.19098326359305
 10
72.17531200203914
 20
18.19254076682097
 10
72.61517072322627
 20
18.2287019466142
 10
73.05590776933449
 20
18.30958364022606
 10
73.26216357910659
 20
18.36525342918006
 10
73.43826750903834
 20
18.41877464862811
 10
74.12197294377929
 20
18.67201344510462
 10
74.76666568157128
 20
18.99426801548471
 10
75.07193385537327
 20
19.18393017589214
 10
75.36451073445229
 20
19.39403103177974
 10
75.43555716909011
 20
19.44987419629558
 10
75.47075519802551
 20
19.47830487486947
 10
75.48827207853033
 20
19.49264839535067
 10
75.52612487992774
 20
19.52392676588402
 10
75.84302006942476
 20
19.79591375320579
 10
76.44198594701634
 20
20.36647318312752
 10
76.99272232816234
 20
20.9730634989308
 10
77.49307301937196
 20
21.61638503522846
 10
77.94088182715431
 20
22.29713812663333
 10
78.33399255801859
 20
23.01602310775823
 10
78.67024901847393
 20
23.77374031321595
 10
78.81638308683237
 20
24.16737985463614
 10
78.93073224187585
 20
24.51957417962726
 10
79.10257629301067
 20
25.2088648355332
 10
79.19767671398031
 20
25.89265870017723
 10
79.21408889867781
 20
26.23216805455116
 10
79.20848417846354
 20
26.56991167363977
 10
79.17991888754738
 20
26.90575904495311
 10
79.12744936013912
 20
27.23957965600129
 10
79.05013193044867
 20
27.57124299429426
 10
78.94702293268583
 20
27.90061854734217
 10
78.81717870106044
 20
28.22757580265503
 10
78.65965556978238
 20
28.55198424774292
 10
78.47350987306146
 20
28.87371337011589
 10
78.42239058719599
 20
28.95371171210248
 10
78.40356993102739
 20
28.98241335230451
 10
78.39947371381303
 20
28.98864202771694
 10
78.38318013724003
 20
29.01360592571976
 10
78.31870338982802
 20
29.11360305772683
 10
78.18402797901781
 20
29.3066032769088
 10
78.02311781128294
 20
29.47453771977822
 10
77.92584761771509
 20
29.54320263139454
 10
77.87178775523168
 20
29.57267654710041
 10
77.84324900903079
 20
29.5860697495968
 10
77.8361466644092
 20
29.58922392935435
 10
77.80000342384211
 20
29.60798843732694
 10
77.74065681162527
 20
29.66011766240882
 10
77.73643008061931
 20
29.66771308782907
 10
77.73470316593989
 20
29.67158311025169
 10
77.73394186993572
 20
29.67353538699961
 10
77.72132050740072
 20
29.70752154844462
 10
77.59760497554314
 20
30.0071355077477
 10
77.31697322981236
 20
30.59292596753075
 10
77.0464311533087
 20
31.18179660841764
 10
76.93532770798502
 20
31.4852607941005
 10
76.85120744032971
 20
31.79894358184994
 10
76.82722341281857
 20
31.97577178732498
 10
76.82842990495159
 20
32.15091380910612
 10
76.89287717700111
 20
32.4951665508496
 10
77.01747471418006
 20
32.82975630560645
 10
77.09386903772487
 20
32.9928195936543
 10
77.19519711549506
 20
33.19487758065693
 10
77.61631877690849
 20
34.02116247836476
 10
77.81362655581722
 20
34.4400898624293
 10
77.86985286149408
 20
34.5711814066299
 10
77.92770650067744
 20
34.72384233348529
 10
78.02229280209971
 20
35.03390315707683
 10
78.14183872819341
 20
35.66803229124729
 10
78.19684857295675
 20
36.31141256514248
 10
78.21076477271606
 20
36.63303731338994
 10
78.21759532592499
 20
36.81060581939394
 10
78.23641552918258
 20
37.01700443068819
 10
78.31383085693572
 20
37.40562890563502
 10
78.43968196779066
 20
37.76550404573394
 10
78.60845192748877
 20
38.10080704539413
 10
78.81462380177146
 20
38.4157150990248
 10
79.05268065638011
 20
38.71440540103519
 10
79.31710555705608
 20
39.00105514583446
 10
79.45330227658965
 20
39.13708038728233
 10
79.55930377609359
 20
39.23837622229362
 10
79.77615000559421
 20
39.43543351812742
 10
80.21843962901535
 20
39.81997707612789
 10
80.65166688585165
 20
40.21569537607288
 10
80.85718515712121
 20
40.42672109933741
 10
80.95582348377496
 20
40.53709641217867
 10
80.96972766720808
 20
40.55324893352003
 10
80.99771233241375
 20
40.58621779756379
 10
81.05226870319441
 20
40.65232236097385
 10
81.15577571804996
 20
40.78519560023065
 10
81.34073573547338
 20
41.05357269766403
 10
81.4969930594373
 20
41.32540808541544
 10
81.62539087745079
 20
41.60064272159478
 10
81.72677237702286
 20
41.87921756431189
 10
81.80198074566259
 20
42.16107357167667
 10
81.85185917087896
 20
42.44615170179903
 10
81.87725084018103
 20
42.73439291278882
 10
81.87899894107783
 20
43.02573816275596
 10
81.8579466610784
 20
43.32012840981028
 10
81.81493718769178
 20
43.6175046120617
 10
81.6664194107931
 20
44.22097871459543
 10
81.56259748229912
 20
44.52695853109747
 10
81.53370524388995
 20
44.60388544586506
 10
81.51116757786502
 20
44.66180022185604
 10
81.47173466878504
 20
44.75720839768057
 10
81.29230569740997
 20
45.11970858467365
 10
81.07950481383021
 20
45.45239217196251
 10
80.83512378322401
 20
45.75631972805896
 10
80.5609543707696
 20
46.03255182147482
 10
80.25878834164528
 20
46.28214902072193
 10
79.93041746102925
 20
46.50617189431208
 10
79.75696512803008
 20
46.60892438664574
 10
79.66802022551587
 20
46.65804389653771
 10
79.51590434853661
 20
46.73980609884798
 10
78.2407028523602
 20
47.43442167480925
 10
75.70816423537884
 20
48.85537895897385
 10
75.39285778761132
 20
49.03535219325803
 10
75.23528443120302
 20
49.12549713939469
 10
75.15651655907413
 20
49.17060745382308
 10
75.10074650150913
 20
49.20222886686911
 10
74.66941631334306
 20
49.41828291636388
 10
74.2251894660782
 20
49.59712687578849
 10
73.77061351406837
 20
49.74577539411196
 10
72.84060451322874
 20
49.98054470333149
 10
71.89976974565444
 20
50.17870803577443
 10
71.38235037159406
 20
50.31245161032174
 10
70.89862757206674
 20
50.490911254081
 10
70.45070773742104
 20
50.71826539770966
 10
70.04069725800547
 20
50.99869247186511
 10
69.67070252416859
 20
51.33637090720478
 10
69.3428299262589
 20
51.73547913438611
 10
69.05918585462493
 20
52.20019558406648
 10
68.95363357935669
 20
52.41658779597003
 10
68.86674589737552
 20
52.62314843406778
 10
68.73193671284387
 20
53.03725866468216
 10
68.64679471274936
 20
53.45341718197905
 10
68.60857463132754
 20
53.87249960290721
 10
68.61453120281395
 20
54.29538154441542
 10
68.66191916144416
 20
54.72293862345246
 10
68.74799324145368
 20
55.1560464569671
 10
68.97840329721407
 20
55.95798973023498
 10
69.23724154806253
 20
56.7426037574988
 10
69.47716002077924
 20
57.53257438940177
 10
69.57469464173496
 20
57.93417522275625
 10
69.65149128576294
 20
58.34351300471994
 10
69.7083493483142
 20
58.75387307583427
 10
69.74188916951726
 20
59.16343138111333
 10
69.74859000276423
 20
59.57222227059677
 10
69.7249311014471
 20
59.98028009432421
 10
69.66739171895792
 20
60.38763920233531
 10
69.57245110868872
 20
60.7943339446697
 10
69.50743177143673
 20
61.00457626723558
 10
69.40901283530235
 20
61.26063597374276
 10
69.29434036257704
 20
61.49725926197074
 10
69.16421525445823
 20
61.7154248817717
 10
68.86081073682956
 20
62.10029811550129
 10
68.50520649199538
 20
62.4230856737489
 10
68.1038097295348
 20
62.69161755533186
 10
67.66302765902683
 20
62.91372375906759
 10
67.1892674900506
 20
63.09723428377345
 10
66.94202287163029
 20
63.17696304112059
 10
66.71002799180829
 20
63.23998117187663
 10
66.25283568943077
 20
63.31608570314184
 10
65.79842971391908
 20
63.33615912870129
 10
65.346591955767
 20
63.31083865800263
 10
64.89710430546835
 20
63.25076150049353
 10
64.00430689040658
 20
63.06888596283465
 10
63.5445056090003
 20
62.96601263376778
 10
63.05538039933018
 20
62.87910008203469
 10
62.56858498772139
 20
62.82223169779201
 10
62.08275279007764
 20
62.79616238718082
 10
61.59651722230261
 20
62.80164705634222
 10
61.1085117002999
 20
62.83944061141731
 10
60.61736963997326
 20
62.91029795854716
 10
60.37019535040832
 20
62.95836146230171
 10
60.24613265570772
 20
62.98559320565599
 10
60.14325861696675
 20
63.00830468064187
 10
59.73939820477648
 20
63.07520219119928
 10
59.33173400400638
 20
63.10908467282589
 10
58.92187481509913
 20
63.11197657027437
 10
58.5114294384974
 20
63.0859023282974
 10
58.10200667464393
 20
63.03288639164767
 10
57.69521532398133
 20
62.95495320507784
 10
57.49330917873497
 20
62.9072752820581
 10
57.39281646990724
 20
62.88136919993693
 10
57.34269620410149
 20
62.86791321770134
 10
57.32415168121689
 20
62.86286039223735
 10
57.20787429891942
 20
62.83171598346013
 10
56.97693180803592
 20
62.77549832201209
 10
56.50920019638558
 20
62.70840340311017
  0
LWPOLYLINE
  5
B2
330
1F
100
AcDbEntity
  8
Calque 1
 62
     7
420
 16777215
370
    70
100
AcDbPolyline
 90
      152
 70
     0
 43
0.0
 10
56.35746135191412
 20
62.44827966973048
 10
56.3917864307912
 20
62.54999394125956
 10
56.44749543016365
 20
62.64761916980562
 10
56.45774757708132
 20
62.70345725573091
 10
56.44260011657769
 20
62.76854371623549
 10
56.43364356327872
 20
62.78666158658205
 10
56.4282797417812
 20
62.79603423640185
 10
56.41036211489083
 20
62.8260658565587
 10
56.33506121923684
 20
62.96861532526429
 10
56.22243528994546
 20
63.26209049236348
 10
56.15043117358828
 20
63.5644575376559
 10
56.10703366645966
 20
63.87298474747252
 10
56.05799766506582
 20
64.49759280600247
 10
56.04484403969523
 20
64.65332662085478
 10
56.03710047668819
 20
64.73089604167049
 10
56.02584841486079
 20
64.83441845038945
 10
55.9762523354494
 20
65.27369426435305
 10
55.84192066301479
 20
66.14263490427245
 10
55.74042970350619
 20
66.56914636458686
 10
55.60488508414657
 20
66.98824967471011
 10
55.42690912169323
 20
67.39836815182155
 10
55.36808477164505
 20
67.5119302708363
 10
55.27884689434735
 20
67.6718962602024
 10
55.0891465864888
 20
67.97277033384421
 10
54.88439859657669
 20
68.24822540722334
 10
54.66450499136781
 20
68.49825132816919
 10
54.42936783761894
 20
68.72283794451111
 10
54.17888920208682
 20
68.9219751040785
 10
53.91297115152823
 20
69.0956526547007
 10
53.63151575269992
 20
69.24386044420713
 10
53.33442507235869
 20
69.36658832042714
 10
53.02160117726129
 20
69.46382613119012
 10
52.69294613416448
 20
69.53556372432545
 10
52.34836200982503
 20
69.5817909476625
 10
51.98775087099971
 20
69.60249764903062
 10
51.90195959927823
 20
69.60365829734844
 10
51.84328387208426
 20
69.60386830265787
 10
51.72598201603689
 20
69.60331082824753
 10
50.78955800604595
 20
69.56307246140983
 10
49.85543293805866
 20
69.49466953553265
 10
48.92185576326342
 20
69.44813751940381
 10
48.53120782202824
 20
69.45297001056051
 10
48.14127120197744
 20
69.4846913061399
 10
47.75455498066241
 20
69.54542629103508
 10
47.37356823563458
 20
69.63729985013924
 10
47.00082004444538
 20
69.76243686834546
 10
46.63881948464618
 20
69.9229622305469
 10
46.55029269462663
 20
69.9688720097949
 10
46.44778307874871
 20
70.02487952580485
 10
46.19759168473994
 20
70.1537830663371
 10
45.69099712949471
 20
70.37291104354178
 10
45.17519604993059
 20
70.54018394382021
 10
44.64907944442923
 20
70.65526224103661
 10
44.11153831137233
 20
70.71780640905517
 10
43.56146364914155
 20
70.72747692174018
 10
43.28137968158022
 20
70.71237845541514
 10
43.14001539016207
 20
70.69982722375019
 10
43.09358732060172
 20
70.69505405388075
 10
43.06346999588972
 20
70.6920813070647
 10
42.82103630596836
 20
70.67414632729594
 10
42.33158218603715
 20
70.66896389790901
 10
41.84323819422916
 20
70.70363909933515
 10
41.60219216446176
 20
70.73552615808272
 10
41.34114423197692
 20
70.78887647766705
 10
41.08656485921104
 20
70.87464842546514
 10
40.84495187207507
 20
70.98929744661321
 10
40.61596562330365
 20
71.12985214234019
 10
40.39926646563144
 20
71.29334111387493
 10
40.19451475179316
 20
71.47679296244641
 10
40.0965130465413
 20
71.57507640350495
 10
39.96411168133177
 20
71.71347017287129
 10
39.37964531049092
 20
72.28352564294645
 10
39.07042348729288
 20
72.54706106168035
 10
38.74573715102508
 20
72.78982559052785
 10
38.40248223577401
 20
73.00698722022602
 10
38.03755467562615
 20
73.19371394151189
 10
37.50847384424203
 20
73.39978014477535
 10
36.97174633435191
 20
73.54706855971619
 10
36.42769792388736
 20
73.63958488007231
 10
35.87665439077993
 20
73.68133479958159
 10
35.31894151296121
 20
73.6763240119819
 10
34.75488506836276
 20
73.62855821101117
 10
34.45813745865027
 20
73.58793294711623
 10
34.11537720984329
 20
73.52660266346444
 10
33.45073200973354
 20
73.35993927578899
 10
32.81211086411436
 20
73.13778925029836
 10
32.19734216236776
 20
72.86397313420934
 10
31.60425429387571
 20
72.5423114747388
 10
31.03067564802017
 20
72.17662481910351
 10
30.75052365526297
 20
71.97846603872935
 10
30.61198823147134
 20
71.87576672157906
 10
30.49578778133864
 20
71.78637420068747
 10
30.0800568734078
 20
71.4219463098361
 10
29.70463012827256
 20
71.02546396605956
 10
29.36235315004136
 20
70.60224920822564
 10
29.04607154282271
 20
70.15762407520206
 10
28.7486309107251
 20
69.69691060585666
 10
28.46287685785703
 20
69.22543083905718
 10
28.19098656098171
 20
68.77656833829847
 10
27.90637258794124
 20
68.34555904617963
 10
27.60043081372714
 20
67.9313423194317
 10
27.26843337020923
 20
67.53861332120563
 10
26.90565238925735
 20
67.17206721465242
 10
26.50736000274135
 20
66.83639916292301
 10
26.29341957360613
 20
66.68161164610191
 10
26.10021345987437
 20
66.55629329395758
 10
25.71813538602995
 20
66.34848997541496
 10
25.32384304417326
 20
66.18123814198831
 10
24.91846318140213
 20
66.05005587910389
 10
24.5031225448143
 20
65.950461272188
 10
24.07894788150756
 20
65.87797240666695
 10
23.64706593857966
 20
65.82810736796699
 10
22.80670954898849
 20
65.75715725072088
 10
21.97306698288032
 20
65.64666976919864
 10
21.56344829619493
 20
65.55225323383216
 10
21.1611299604554
 20
65.41873681779446
 10
21.06191066163217
 20
65.37810712541444
 10
21.01252518547098
 20
65.35660007803407
 10
20.91980271749982
 20
65.31426648313375
 10
20.52590045676228
 20
65.10984907797764
 10
20.16511569098776
 20
64.88154109736583
 10
19.83620724350431
 20
64.63027705579619
 10
19.53793393764
 20
64.3569914677666
 10
19.26905459672289
 20
64.06261884777496
 10
19.02832804408103
 20
63.74809371031915
 10
18.8145131030425
 20
63.41435056989705
 10
18.62636859693532
 20
63.06232394100653
 10
18.46265334908757
 20
62.69294833814549
 10
18.32212618282731
 20
62.30715827581182
 10
18.2035459214826
 20
61.90588826850337
 10
18.10567138838148
 20
61.49007283071808
 10
18.06411090221229
 20
61.27700261117719
 10
18.03335185736186
 20
61.09868354900379
 10
17.94685948044646
 20
60.42204990351413
 10
17.90328432148596
 20
59.7451853366455
 10
17.89616399772252
 20
59.06799948575172
 10
17.91903612639832
 20
58.39040198818656
 10
17.96543832475555
 20
57.71230248130384
 10
18.02890821003638
 20
57.03361060245735
 10
18.03772016047954
 20
56.94872796596448
 10
18.0446488599289
 20
56.88293246069788
 10
18.05234952540962
 20
56.80860829236437
 10
18.06713665951164
 20
56.65986502665631
 10
18.17404349654859
 20
55.46755013385754
 10
18.20342506277573
 20
55.16951710678155
 10
18.21938689613714
 20
55.02061300071126
 10
18.22977484060883
 20
54.91653342020586
 10
18.22414095330427
 20
54.54985064277474
 10
18.19301969133474
 20
54.37110383728619
 10
18.14092833587318
 20
54.19663727777932
 10
18.06629147595918
 20
54.02736385712689
 10
17.96753370063236
 20
53.86419646820163
  0
ENDSEC
  0
SECTION
  2
OBJECTS
  0
DICTIONARY
  5
C
330
0
100
AcDbDictionary
281
     1
  3
ACAD_CIP_PREVIOUS_PRODUCT_INFO
350
8E
  3
ACAD_COLOR
350
73
  3
ACAD_DETAILVIEWSTYLE
350
8A
  3
ACAD_GROUP
350
D
  3
ACAD_LAYOUT
350
1A
  3
ACAD_MATERIAL
350
3B
  3
ACAD_MLEADERSTYLE
350
66
  3
ACAD_MLINESTYLE
350
17
  3
ACAD_PLOTSETTINGS
350
19
  3
ACAD_PLOTSTYLENAME
350
E
  3
ACAD_SCALELIST
350
75
  3
ACAD_SECTIONVIEWSTYLE
350
88
  3
ACAD_TABLESTYLE
350
65
  3
ACAD_VISUALSTYLE
350
2A
  3
ACDB_RECOMPOSE_DATA
350
DC
  3
AcDbVariableDictionary
350
BC
  0
SUN
  5
3F
330
29
100
AcDbSun
 90
        1
290
     1
 63
     7
421
 16777215
 40
1.0
291
     1
 91
  2455826
 92
 54000000
292
     0
 70
     0
 71
   256
280
     1
  0
DICTIONARY
  5
C9
330
2
100
AcDbDictionary
280
     1
281
     1
  3
ACAD_LAYERSTATES
360
CA
  0
XRECORD
  5
8E
102
{ACAD_REACTORS
330
C
102
}
330
C
100
AcDbXrecord
280
     1
300
ACD
300
2021
300

  0
DICTIONARY
  5
73
102
{ACAD_REACTORS
330
C
102
}
330
C
100
AcDbDictionary
281
     1
  0
DICTIONARY
  5
8A
102
{ACAD_REACTORS
330
C
102
}
330
C
100
AcDbDictionary
281
     1
  3
Imperial24
350
8B
  0
DICTIONARY
  5
D
102
{ACAD_REACTORS
330
C
102
}
330
C
100
AcDbDictionary
281
     1
  0
DICTIONARY
  5
1A
102
{ACAD_REACTORS
330
C
102
}
330
C
100
AcDbDictionary
281
     1
  3
Layout1
350
1E
  3
Layout2
350
26
  3
Model
350
22
  0
DICTIONARY
  5
3B
102
{ACAD_REACTORS
330
C
102
}
330
C
100
AcDbDictionary
281
     1
  3
ByBlock
350
3D
  3
ByLayer
350
3C
  3
Global
350
3E
  0
DICTIONARY
  5
66
102
{ACAD_REACTORS
330
C
102
}
330
C
100
AcDbDictionary
281
     1
  3
Standard
350
87
  0
DICTIONARY
  5
17
102
{ACAD_REACTORS
330
C
102
}
330
C
100
AcDbDictionary
281
     1
  3
Standard
350
18
  0
DICTIONARY
  5
19
102
{ACAD_REACTORS
330
C
102
}
330
C
100
AcDbDictionary
281
     1
  0
ACDBDICTIONARYWDFLT
  5
E
102
{ACAD_REACTORS
330
C
102
}
330
C
100
AcDbDictionary
281
     1
  3
Normal
350
F
100
AcDbDictionaryWithDefault
340
F
  0
DICTIONARY
  5
75
102
{ACAD_REACTORS
330
C
102
}
330
C
100
AcDbDictionary
281
     1
  3
A0
350
76
  3
A1
350
77
  3
A2
350
78
  3
A3
350
79
  3
A4
350
7A
  3
A5
350
7B
  3
A6
350
7C
  3
A7
350
7D
  3
A8
350
7E
  3
A9
350
7F
  3
B0
350
80
  3
B1
350
81
  3
B2
350
82
  3
B3
350
83
  3
B4
350
84
  3
B5
350
85
  3
B6
350
86
  0
DICTIONARY
  5
88
102
{ACAD_REACTORS
330
C
102
}
330
C
100
AcDbDictionary
281
     1
  3
Imperial24
350
89
  0
DICTIONARY
  5
65
102
{ACAD_REACTORS
330
C
102
}
330
C
100
AcDbDictionary
281
     1
  3
Standard
350
74
  0
DICTIONARY
  5
2A
102
{ACAD_REACTORS
330
C
102
}
330
C
100
AcDbDictionary
281
     1
  3
2dWireframe
350
2F
  3
3D Hidden
350
31
  3
3dWireframe
350
30
  3
Basic
350
32
  3
Brighten
350
36
  3
ColorChange
350
3A
  3
Conceptual
350
34
  3
Dim
350
35
  3
EdgeColorOff
350
72
  3
Facepattern
350
39
  3
Flat
350
2B
  3
FlatWithEdges
350
2C
  3
Gouraud
350
2D
  3
GouraudWithEdges
350
2E
  3
Hidden
350
6A
  3
JitterOff
350
70
  3
Linepattern
350
38
  3
OverhangOff
350
71
  3
Realistic
350
33
  3
Shaded
350
6F
  3
Shaded with edges
350
6E
  3
Shades of Gray
350
6B
  3
Sketchy
350
6C
  3
Thicken
350
37
  3
Wireframe
350
69
  3
X-Ray
350
6D
  0
XRECORD
  5
DC
102
{ACAD_REACTORS
330
C
102
}
330
C
100
AcDbXrecord
280
     1
 90
        1
330
74
  0
DICTIONARY
  5
BC
102
{ACAD_REACTORS
330
C
102
}
330
C
100
AcDbDictionary
281
     1
  3
CANNOSCALE
350
C1
  3
CMLEADERSTYLE
350
BE
  3
CTABLESTYLE
350
BD
  3
CVIEWDETAILSTYLE
350
BF
  3
CVIEWSECTIONSTYLE
350
C0
  0
DICTIONARY
  5
CA
102
{ACAD_REACTORS
330
C9
102
}
330
C9
100
AcDbDictionary
281
     1
  0
ACDBDETAILVIEWSTYLE
  5
8B
102
{ACAD_REACTORS
330
8A
102
}
330
8A
100
AcDbModelDocViewStyle
 70
     0
  3
Imperial24
290
     0
300
Imperial24
 90
        0
100
AcDbDetailViewStyle
 70
     0
 71
     0
 90
        3
 71
     1
340
11
 62
   256
 40
0.24
340
0
 62
   256
 40
0.24
300

 40
0.36
280
     3
 71
     2
340
16
 90
       25
 62
   256
 71
     3
340
11
 62
   256
 40
0.24
 90
        1
 40
0.75
 90
        1
300
%<\AcVar ViewType \f "%tc1">% %<\AcVar ViewDetailId>%\PSCALE %<\AcVar ViewScale \f "%sn">%
 71
     4
340
16
 90
       25
 62
   256
340
16
 90
       25
 62
   256
280
     0
  0
LAYOUT
  5
1E
102
{ACAD_REACTORS
330
1A
102
}
330
1A
100
AcDbPlotSettings
  1

  2
none_device
  4

  6

 40
0.0
 41
0.0
 42
0.0
 43
0.0
 44
0.0
 45
0.0
 46
0.0
 47
0.0
 48
0.0
 49
0.0
140
0.0
141
0.0
142
1.0
143
1.0
 70
   688
 72
     0
 73
     0
 74
     5
  7

 75
    16
147
1.0
 76
     0
 77
     2
 78
   300
148
0.0
149
0.0
100
AcDbLayout
  1
Layout1
 70
     1
 71
     1
 10
0.0
 20
0.0
 11
12.0
 21
9.0
 12
0.0
 22
0.0
 32
0.0
 14
1.000000000000000E+20
 24
1.000000000000000E+20
 34
1.000000000000000E+20
 15
-1.000000000000000E+20
 25
-1.000000000000000E+20
 35
-1.000000000000000E+20
146
0.0
 13
0.0
 23
0.0
 33
0.0
 16
1.0
 26
0.0
 36
0.0
 17
0.0
 27
1.0
 37
0.0
 76
     0
330
1B
  0
LAYOUT
  5
26
102
{ACAD_REACTORS
330
1A
102
}
330
1A
100
AcDbPlotSettings
  1

  2
none_device
  4

  6

 40
0.0
 41
0.0
 42
0.0
 43
0.0
 44
0.0
 45
0.0
 46
0.0
 47
0.0
 48
0.0
 49
0.0
140
0.0
141
0.0
142
1.0
143
1.0
 70
   688
 72
     0
 73
     0
 74
     5
  7

 75
    16
147
1.0
 76
     0
 77
     2
 78
   300
148
0.0
149
0.0
100
AcDbLayout
  1
Layout2
 70
     1
 71
     2
 10
0.0
 20
0.0
 11
0.0
 21
0.0
 12
0.0
 22
0.0
 32
0.0
 14
0.0
 24
0.0
 34
0.0
 15
0.0
 25
0.0
 35
0.0
146
0.0
 13
0.0
 23
0.0
 33
0.0
 16
1.0
 26
0.0
 36
0.0
 17
0.0
 27
1.0
 37
0.0
 76
     0
330
23
  0
LAYOUT
  5
22
102
{ACAD_REACTORS
330
1A
102
}
330
1A
100
AcDbPlotSettings
  1

  2
none_device
  4

  6

 40
0.0
 41
0.0
 42
0.0
 43
0.0
 44
0.0
 45
0.0
 46
0.0
 47
0.0
 48
0.0
 49
0.0
140
0.0
141
0.0
142
1.0
143
1.0
 70
  1712
 72
     0
 73
     0
 74
     0
  7

 75
     0
147
1.0
 76
     0
 77
     2
 78
   300
148
0.0
149
0.0
100
AcDbLayout
  1
Model
 70
     1
 71
     0
 10
0.0
 20
0.0
 11
12.0
 21
9.0
 12
0.0
 22
0.0
 32
0.0
 14
1.000000000000000E+20
 24
1.000000000000000E+20
 34
1.000000000000000E+20
 15
-1.000000000000000E+20
 25
-1.000000000000000E+20
 35
-1.000000000000000E+20
146
0.0
 13
0.0
 23
0.0
 33
0.0
 16
1.0
 26
0.0
 36
0.0
 17
0.0
 27
1.0
 37
0.0
 76
     0
330
1F
331
29
  0
MATERIAL
  5
3D
102
{ACAD_REACTORS
330
3B
102
}
330
3B
100
AcDbMaterial
  1
ByBlock
  0
MATERIAL
  5
3C
102
{ACAD_REACTORS
330
3B
102
}
330
3B
100
AcDbMaterial
  1
ByLayer
  0
MATERIAL
  5
3E
102
{ACAD_REACTORS
330
3B
102
}
330
3B
100
AcDbMaterial
  1
Global
  0
MLEADERSTYLE
  5
87
102
{ACAD_REACTORS
330
66
102
}
330
66
100
AcDbMLeaderStyle
179
     2
170
     2
171
     1
172
     0
 90
        2
 40
0.0
 41
0.0
173
     1
 91
-1056964608
340
14
 92
       -2
290
     1
 42
0.09
291
     1
 43
0.36
  3
Standard
 44
0.18
300

342
11
174
     1
178
     6
175
     1
176
     0
 93
-1056964608
 45
0.18
292
     0
297
     0
 46
0.18
 94
-1056964608
 47
1.0
 49
1.0
140
1.0
293
     1
141
0.0
294
     1
177
     0
142
1.0
295
     0
296
     0
143
0.125
271
     0
272
     9
273
     9
298
     0
  0
MLINESTYLE
  5
18
102
{ACAD_REACTORS
330
17
102
}
330
17
100
AcDbMlineStyle
  2
STANDARD
 70
     0
  3

 62
   256
 51
90.0
 52
90.0
 71
     2
 49
0.5
 62
   256
  6
BYLAYER
 49
-0.5
 62
   256
  6
BYLAYER
  0
ACDBPLACEHOLDER
  5
F
102
{ACAD_REACTORS
330
E
102
}
330
E
  0
SCALE
  5
76
102
{ACAD_REACTORS
330
75
102
}
330
75
100
AcDbScale
 70
     0
300
1:1
140
1.0
141
1.0
290
     1
  0
SCALE
  5
77
102
{ACAD_REACTORS
330
75
102
}
330
75
100
AcDbScale
 70
     0
300
1/128" = 1'-0"
140
0.0078125
141
12.0
290
     0
  0
SCALE
  5
78
102
{ACAD_REACTORS
330
75
102
}
330
75
100
AcDbScale
 70
     0
300
1/64" = 1'-0"
140
0.015625
141
12.0
290
     0
  0
SCALE
  5
79
102
{ACAD_REACTORS
330
75
102
}
330
75
100
AcDbScale
 70
     0
300
1/32" = 1'-0"
140
0.03125
141
12.0
290
     0
  0
SCALE
  5
7A
102
{ACAD_REACTORS
330
75
102
}
330
75
100
AcDbScale
 70
     0
300
1/16" = 1'-0"
140
0.0625
141
12.0
290
     0
  0
SCALE
  5
7B
102
{ACAD_REACTORS
330
75
102
}
330
75
100
AcDbScale
 70
     0
300
3/32" = 1'-0"
140
0.09375
141
12.0
290
     0
  0
SCALE
  5
7C
102
{ACAD_REACTORS
330
75
102
}
330
75
100
AcDbScale
 70
     0
300
1/8" = 1'-0"
140
0.125
141
12.0
290
     0
  0
SCALE
  5
7D
102
{ACAD_REACTORS
330
75
102
}
330
75
100
AcDbScale
 70
     0
300
3/16" = 1'-0"
140
0.1875
141
12.0
290
     0
  0
SCALE
  5
7E
102
{ACAD_REACTORS
330
75
102
}
330
75
100
AcDbScale
 70
     0
300
1/4" = 1'-0"
140
0.25
141
12.0
290
     0
  0
SCALE
  5
7F
102
{ACAD_REACTORS
330
75
102
}
330
75
100
AcDbScale
 70
     0
300
3/8" = 1'-0"
140
0.375
141
12.0
290
     0
  0
SCALE
  5
80
102
{ACAD_REACTORS
330
75
102
}
330
75
100
AcDbScale
 70
     0
300
1/2" = 1'-0"
140
0.5
141
12.0
290
     0
  0
SCALE
  5
81
102
{ACAD_REACTORS
330
75
102
}
330
75
100
AcDbScale
 70
     0
300
3/4" = 1'-0"
140
0.75
141
12.0
290
     0
  0
SCALE
  5
82
102
{ACAD_REACTORS
330
75
102
}
330
75
100
AcDbScale
 70
     0
300
1" = 1'-0"
140
1.0
141
12.0
290
     0
  0
SCALE
  5
83
102
{ACAD_REACTORS
330
75
102
}
330
75
100
AcDbScale
 70
     0
300
1-1/2" = 1'-0"
140
1.5
141
12.0
290
     0
  0
SCALE
  5
84
102
{ACAD_REACTORS
330
75
102
}
330
75
100
AcDbScale
 70
     0
300
3" = 1'-0"
140
3.0
141
12.0
290
     0
  0
SCALE
  5
85
102
{ACAD_REACTORS
330
75
102
}
330
75
100
AcDbScale
 70
     0
300
6" = 1'-0"
140
6.0
141
12.0
290
     0
  0
SCALE
  5
86
102
{ACAD_REACTORS
330
75
102
}
330
75
100
AcDbScale
 70
     0
300
1'-0" = 1'-0"
140
12.0
141
12.0
290
     0
  0
ACDBSECTIONVIEWSTYLE
  5
89
102
{ACAD_REACTORS
330
88
102
}
330
88
100
AcDbModelDocViewStyle
 70
     0
  3
Imperial24
290
     0
300
Imperial24
 90
        0
100
AcDbSectionViewStyle
 70
     0
 71
     0
 90
       78
 71
     1
340
11
 62
   256
 40
0.24
340
0
340
0
 62
   256
 40
0.24
300
I, O, Q, S, X, Z
 40
0.48
 90
        3
 40
0.18
 90
        1
 71
     2
340
16
 90
       25
 62
   256
340
16
 90
       50
 62
   256
 40
0.24
 40
0.0
 40
0.24
 71
     3
340
11
 62
   256
 40
0.24
 90
        1
 40
0.75
 90
        1
300
%<\AcVar ViewType \f "%tc1">% %<\AcVar ViewSectionStartId>%-%<\AcVar ViewSectionEndId>%\PSCALE %<\AcVar ViewScale \f "%sn">%
 71
     4
 62
   256
 62
   257
300
ANSI31
 40
1.0
 90
        0
290
     0
290
     0
 90
        6
 40
0.0
 40
1.570796326794896
 40
0.2617993877991494
 40
1.308996938995747
 40
-0.2617993877991494
 40
1.832595714594046
  0
TABLESTYLE
  5
74
102
{ACAD_XDICTIONARY
360
DA
102
}
102
{ACAD_REACTORS
330
65
102
}
330
65
100
AcDbTableStyle
280
     0
  3
Standard
 70
     0
 71
     0
 40
0.06
 41
0.06
280
     0
281
     0
  7
Standard
140
0.18
170
     2
 62
     0
 63
     7
283
     0
 90
      512
 91
        0
  1

274
    -2
284
     1
 64
     0
275
    -2
285
     1
 65
     0
276
    -2
286
     1
 66
     0
277
    -2
287
     1
 67
     0
278
    -2
288
     1
 68
     0
279
    -2
289
     1
 69
     0
  7
Standard
140
0.25
170
     5
 62
     0
 63
     7
283
     0
 90
      512
 91
        0
  1

274
    -2
284
     1
 64
     0
275
    -2
285
     1
 65
     0
276
    -2
286
     1
 66
     0
277
    -2
287
     1
 67
     0
278
    -2
288
     1
 68
     0
279
    -2
289
     1
 69
     0
  7
Standard
140
0.18
170
     5
 62
     0
 63
     7
283
     0
 90
      512
 91
        0
  1

274
    -2
284
     1
 64
     0
275
    -2
285
     1
 65
     0
276
    -2
286
     1
 66
     0
277
    -2
287
     1
 67
     0
278
    -2
288
     1
 68
     0
279
    -2
289
     1
 69
     0
  0
VISUALSTYLE
  5
2F
102
{ACAD_REACTORS
330
2A
102
}
330
2A
100
AcDbVisualStyle
  2
2dWireframe
 70
     4
177
     3
291
     0
 70
    58
 90
        0
176
     1
 90
        2
176
     1
 90
        0
176
     1
 90
        0
176
     1
 40
0.6
176
     1
 40
30.0
176
     1
 62
     7
420
 16777215
176
     1
 90
        1
176
     1
 90
        4
176
     1
 62
     7
176
     1
 62
   257
176
     1
 90
        1
176
     1
 90
        1
176
     1
 40
1.0
176
     1
 90
        0
176
     1
 62
   257
176
     1
 40
1.0
176
     1
 90
        1
176
     1
 90
        6
176
     1
 90
        2
176
     1
 62
     7
176
     1
 90
        5
176
     1
 90
        0
176
     1
 90
        0
176
     1
290
     0
176
     1
 90
        1
176
     1
 40
0.0
176
     1
 90
        0
176
     1
290
     1
176
     1
290
     1
176
     1
290
     0
176
     1
290
     0
176
     1
290
     0
176
     1
290
     0
176
     1
290
     0
176
     1
290
     0
176
     1
290
     0
176
     1
 90
       50
176
     1
 40
0.0
176
     1
 40
1.0
176
     1
 90
        0
176
     1
 62
    18
420
        0
176
     1
 90
       50
176
     1
 90
        3
176
     1
 62
     5
420
      255
176
     1
290
     0
176
     1
 90
       50
176
     1
 90
       50
176
     1
 90
       50
176
     1
290
     0
176
     1
 90
       50
176
     1
 62
   256
176
     0
 40
1.0
176
     0
 90
        2
176
     1
  1
strokes_ogs.tif
176
     1
290
     0
176
     1
 40
1.0
176
     1
 40
1.0
176
     1
  0
VISUALSTYLE
  5
31
102
{ACAD_REACTORS
330
2A
102
}
330
2A
100
AcDbVisualStyle
  2
3D Hidden
 70
     6
177
     3
291
     0
 70
    58
 90
        1
176
     1
 90
        2
176
     1
 90
        2
176
     1
 90
        0
176
     1
 40
0.6
176
     1
 40
30.0
176
     1
 62
     7
420
 16777215
176
     1
 90
        2
176
     1
 90
        2
176
     1
 62
     7
176
     1
 62
   257
176
     1
 90
        2
176
     1
 90
        1
176
     1
 40
40.0
176
     1
 90
        0
176
     1
 62
   257
176
     1
 40
1.0
176
     1
 90
        1
176
     1
 90
        6
176
     1
 90
        2
176
     1
 62
     7
176
     1
 90
        3
176
     1
 90
        0
176
     1
 90
        0
176
     1
290
     0
176
     1
 90
        1
176
     1
 40
0.0
176
     1
 90
        0
176
     1
290
     0
176
     1
290
     1
176
     1
290
     1
176
     1
290
     0
176
     1
290
     0
176
     1
290
     0
176
     1
290
     0
176
     1
290
     0
176
     1
290
     0
176
     1
 90
       50
176
     1
 40
0.0
176
     1
 40
1.0
176
     1
 90
        0
176
     1
 62
    18
420
        0
176
     1
 90
       50
176
     1
 90
        3
176
     1
 62
     5
420
      255
176
     1
290
     0
176
     1
 90
       50
176
     1
 90
       50
176
     1
 90
       50
176
     1
290
     0
176
     1
 90
       50
176
     1
 62
   256
176
     0
 40
1.0
176
     0
 90
        2
176
     1
  1
strokes_ogs.tif
176
     1
290
     0
176
     1
 40
1.0
176
     1
 40
1.0
176
     1
  0
VISUALSTYLE
  5
30
102
{ACAD_REACTORS
330
2A
102
}
330
2A
100
AcDbVisualStyle
  2
3dWireframe
 70
     5
177
     3
291
     0
 70
    58
 90
        0
176
     1
 90
        2
176
     1
 90
        0
176
     1
 90
        0
176
     1
 40
0.6
176
     1
 40
30.0
176
     1
 62
     7
420
 16777215
176
     1
 90
        1
176
     1
 90
        4
176
     1
 62
     7
176
     1
 62
   257
176
     1
 90
        1
176
     1
 90
        1
176
     1
 40
1.0
176
     1
 90
        0
176
     1
 62
   257
176
     1
 40
1.0
176
     1
 90
        1
176
     1
 90
        6
176
     1
 90
        2
176
     1
 62
     7
176
     1
 90
        5
176
     1
 90
        0
176
     1
 90
        0
176
     1
290
     0
176
     1
 90
        1
176
     1
 40
0.0
176
     1
 90
        0
176
     1
290
     0
176
     1
290
     1
176
     1
290
     1
176
     1
290
     0
176
     1
290
     0
176
     1
290
     0
176
     1
290
     0
176
     1
290
     0
176
     1
290
     0
176
     1
 90
       50
176
     1
 40
0.0
176
     1
 40
1.0
176
     1
 90
        0
176
     1
 62
    18
420
        0
176
     1
 90
       50
176
     1
 90
        3
176
     1
 62
     5
420
      255
176
     1
290
     0
176
     1
 90
       50
176
     1
 90
       50
176
     1
 90
       50
176
     1
290
     0
176
     1
 90
       50
176
     1
 62
   256
176
     0
 40
1.0
176
     0
 90
        2
176
     1
  1
strokes_ogs.tif
176
     1
290
     0
176
     1
 40
1.0
176
     1
 40
1.0
176
     1
  0
VISUALSTYLE
  5
32
102
{ACAD_REACTORS
330
2A
102
}
330
2A
100
AcDbVisualStyle
  2
Basic
 70
     7
177
     3
291
     1
 70
    58
 90
        1
176
     1
 90
        0
176
     1
 90
        1
176
     1
 90
        0
176
     1
 40
0.6
176
     1
 40
30.0
176
     1
 62
     7
420
 16777215
176
     1
 90
        0
176
     1
 90
        4
176
     1
 62
     7
176
     1
 62
   257
176
     1
 90
        1
176
     1
 90
        1
176
     1
 40
1.0
176
     1
 90
        8
176
     1
 62
     7
176
     1
 40
1.0
176
     1
 90
        1
176
     1
 90
        6
176
     1
 90
        2
176
     1
 62
     7
176
     1
 90
        5
176
     1
 90
        0
176
     1
 90
        0
176
     1
290
     0
176
     1
 90
        1
176
     1
 40
0.0
176
     1
 90
        0
176
     1
290
     0
176
     1
290
     1
176
     1
290
     1
176
     1
290
     0
176
     1
290
     0
176
     1
290
     0
176
     1
290
     0
176
     1
290
     0
176
     1
290
     0
176
     1
 90
       50
176
     1
 40
0.0
176
     1
 40
1.0
176
     1
 90
        0
176
     1
 62
    18
420
        0
176
     1
 90
       50
176
     1
 90
        3
176
     1
 62
     5
420
      255
176
     1
290
     0
176
     1
 90
       50
176
     1
 90
       50
176
     1
 90
       50
176
     1
290
     0
176
     1
 90
       50
176
     1
 62
   256
176
     0
 40
1.0
176
     0
 90
        2
176
     1
  1
strokes_ogs.tif
176
     1
290
     0
176
     1
 40
1.0
176
     1
 40
1.0
176
     1
  0
VISUALSTYLE
  5
36
102
{ACAD_REACTORS
330
2A
102
}
330
2A
100
AcDbVisualStyle
  2
Brighten
 70
    12
177
     3
291
     1
 70
    58
 90
        2
176
     1
 90
        2
176
     1
 90
        0
176
     1
 90
        0
176
     1
 40
0.6
176
     1
 40
30.0
176
     1
 62
     7
420
 16777215
176
     1
 90
        1
176
     1
 90
        4
176
     1
 62
     7
176
     1
 62
   257
176
     1
 90
        1
176
     1
 90
        1
176
     1
 40
1.0
176
     1
 90
        8
176
     1
 62
     7
176
     1
 40
1.0
176
     1
 90
        1
176
     1
 90
        6
176
     1
 90
        2
176
     1
 62
     7
176
     1
 90
        5
176
     1
 90
        0
176
     1
 90
        0
176
     1
290
     0
176
     1
 90
        1
176
     1
 40
50.0
176
     1
 90
        0
176
     1
290
     0
176
     1
290
     1
176
     1
290
     1
176
     1
290
     0
176
     1
290
     0
176
     1
290
     0
176
     1
290
     0
176
     1
290
     0
176
     1
290
     0
176
     1
 90
       50
176
     1
 40
0.0
176
     1
 40
1.0
176
     1
 90
        0
176
     1
 62
    18
420
        0
176
     1
 90
       50
176
     1
 90
        3
176
     1
 62
     5
420
      255
176
     1
290
     0
176
     1
 90
       50
176
     1
 90
       50
176
     1
 90
       50
176
     1
290
     0
176
     1
 90
       50
176
     1
 62
   256
176
     0
 40
1.0
176
     0
 90
        2
176
     1
  1
strokes_ogs.tif
176
     1
290
     0
176
     1
 40
1.0
176
     1
 40
1.0
176
     1
  0
VISUALSTYLE
  5
3A
102
{ACAD_REACTORS
330
2A
102
}
330
2A
100
AcDbVisualStyle
  2
ColorChange
 70
    16
177
     3
291
     1
 70
    58
 90
        2
176
     1
 90
        2
176
     1
 90
        3
176
     1
 90
        0
176
     1
 40
0.6
176
     1
 40
30.0
176
     1
 62
     8
420
  8421504
176
     1
 90
        1
176
     1
 90
        4
176
     1
 62
     7
176
     1
 62
   257
176
     1
 90
        1
176
     1
 90
        1
176
     1
 40
1.0
176
     1
 90
        8
176
     1
 62
     8
420
  8421504
176
     1
 40
1.0
176
     1
 90
        1
176
     1
 90
        6
176
     1
 90
        2
176
     1
 62
     7
176
     1
 90
        5
176
     1
 90
        0
176
     1
 90
        0
176
     1
290
     0
176
     1
 90
        1
176
     1
 40
0.0
176
     1
 90
        0
176
     1
290
     0
176
     1
290
     1
176
     1
290
     1
176
     1
290
     0
176
     1
290
     0
176
     1
290
     0
176
     1
290
     0
176
     1
290
     0
176
     1
290
     0
176
     1
 90
       50
176
     1
 40
0.0
176
     1
 40
1.0
176
     1
 90
        0
176
     1
 62
    18
420
        0
176
     1
 90
       50
176
     1
 90
        3
176
     1
 62
     5
420
      255
176
     1
290
     0
176
     1
 90
       50
176
     1
 90
       50
176
     1
 90
       50
176
     1
290
     0
176
     1
 90
       50
176
     1
 62
   256
176
     0
 40
1.0
176
     0
 90
        2
176
     1
  1
strokes_ogs.tif
176
     1
290
     0
176
     1
 40
1.0
176
     1
 40
1.0
176
     1
  0
VISUALSTYLE
  5
34
102
{ACAD_REACTORS
330
2A
102
}
330
2A
100
AcDbVisualStyle
  2
Conceptual
 70
     9
177
     3
291
     0
 70
    58
 90
        3
176
     1
 90
        2
176
     1
 90
        0
176
     1
 90
        0
176
     1
 40
0.6
176
     1
 40
30.0
176
     1
 62
     7
420
 16777215
176
     1
 90
        2
176
     1
 90
        2
176
     1
 62
     7
176
     1
 62
   257
176
     1
 90
        1
176
     1
 90
        1
176
     1
 40
40.0
176
     1
 90
        8
176
     1
 62
     7
176
     1
 40
1.0
176
     1
 90
        1
176
     1
 90
        6
176
     1
 90
        2
176
     1
 62
     7
176
     1
 90
        3
176
     1
 90
        0
176
     1
 90
        0
176
     1
290
     0
176
     1
 90
        1
176
     1
 40
0.0
176
     1
 90
        0
176
     1
290
     0
176
     1
290
     1
176
     1
290
     1
176
     1
290
     0
176
     1
290
     0
176
     1
290
     0
176
     1
290
     0
176
     1
290
     0
176
     1
290
     0
176
     1
 90
       50
176
     1
 40
0.0
176
     1
 40
1.0
176
     1
 90
        0
176
     1
 62
    18
420
        0
176
     1
 90
       50
176
     1
 90
        3
176
     1
 62
     5
420
      255
176
     1
290
     0
176
     1
 90
       50
176
     1
 90
       50
176
     1
 90
       50
176
     1
290
     0
176
     1
 90
       50
176
     1
 62
   256
176
     0
 40
1.0
176
     0
 90
        2
176
     1
  1
strokes_ogs.tif
176
     1
290
     0
176
     1
 40
1.0
176
     1
 40
1.0
176
     1
  0
VISUALSTYLE
  5
35
102
{ACAD_REACTORS
330
2A
102
}
330
2A
100
AcDbVisualStyle
  2
Dim
 70
    11
177
     3
291
     1
 70
    58
 90
        2
176
     1
 90
        2
176
     1
 90
        0
176
     1
 90
        0
176
     1
 40
0.6
176
     1
 40
30.0
176
     1
 62
     7
420
 16777215
176
     1
 90
        1
176
     1
 90
        4
176
     1
 62
     7
176
     1
 62
   257
176
     1
 90
        1
176
     1
 90
        1
176
     1
 40
1.0
176
     1
 90
        8
176
     1
 62
     7
176
     1
 40
1.0
176
     1
 90
        1
176
     1
 90
        6
176
     1
 90
        2
176
     1
 62
     7
176
     1
 90
        5
176
     1
 90
        0
176
     1
 90
        0
176
     1
290
     0
176
     1
 90
        1
176
     1
 40
-50.0
176
     1
 90
        0
176
     1
290
     0
176
     1
290
     1
176
     1
290
     1
176
     1
290
     0
176
     1
290
     0
176
     1
290
     0
176
     1
290
     0
176
     1
290
     0
176
     1
290
     0
176
     1
 90
       50
176
     1
 40
0.0
176
     1
 40
1.0
176
     1
 90
        0
176
     1
 62
    18
420
        0
176
     1
 90
       50
176
     1
 90
        3
176
     1
 62
     5
420
      255
176
     1
290
     0
176
     1
 90
       50
176
     1
 90
       50
176
     1
 90
       50
176
     1
290
     0
176
     1
 90
       50
176
     1
 62
   256
176
     0
 40
1.0
176
     0
 90
        2
176
     1
  1
strokes_ogs.tif
176
     1
290
     0
176
     1
 40
1.0
176
     1
 40
1.0
176
     1
  0
VISUALSTYLE
  5
72
102
{ACAD_REACTORS
330
2A
102
}
330
2A
100
AcDbVisualStyle
  2
EdgeColorOff
 70
    22
177
     3
291
     1
 70
    58
 90
        2
176
     0
 90
        2
176
     0
 90
        0
176
     0
 90
        0
176
     0
 40
0.6
176
     0
 40
30.0
176
     0
 62
     7
420
 16777215
176
     0
 90
        1
176
     0
 90
        4
176
     0
 62
     7
176
     0
 62
   257
176
     0
 90
        1
176
     0
 90
        1
176
     0
 40
1.0
176
     0
 90
        8
176
     2
 62
     7
176
     0
 40
1.0
176
     0
 90
        1
176
     0
 90
        6
176
     0
 90
        2
176
     0
 62
     7
176
     0
 90
        5
176
     0
 90
        0
176
     0
 90
        0
176
     0
290
     0
176
     0
 90
        1
176
     0
 40
0.0
176
     0
 90
        0
176
     0
290
     0
176
     1
290
     1
176
     1
290
     1
176
     1
290
     0
176
     1
290
     0
176
     1
290
     0
176
     1
290
     0
176
     1
290
     0
176
     1
290
     0
176
     1
 90
       50
176
     0
 40
0.0
176
     0
 40
1.0
176
     0
 90
        0
176
     0
 62
    18
420
        0
176
     0
 90
       50
176
     0
 90
        3
176
     0
 62
     5
420
      255
176
     0
290
     0
176
     1
 90
       50
176
     0
 90
       50
176
     0
 90
       50
176
     0
290
     0
176
     1
 90
       50
176
     0
 62
   256
176
     0
 40
1.0
176
     0
 90
        2
176
     0
  1
strokes_ogs.tif
176
     0
290
     0
176
     1
 40
1.0
176
     0
 40
1.0
176
     0
  0
VISUALSTYLE
  5
39
102
{ACAD_REACTORS
330
2A
102
}
330
2A
100
AcDbVisualStyle
  2
Facepattern
 70
    15
177
     3
291
     1
 70
    58
 90
        2
176
     1
 90
        2
176
     1
 90
        0
176
     1
 90
        0
176
     1
 40
0.6
176
     1
 40
30.0
176
     1
 62
     7
420
 16777215
176
     1
 90
        1
176
     1
 90
        4
176
     1
 62
     7
176
     1
 62
   257
176
     1
 90
        1
176
     1
 90
        1
176
     1
 40
1.0
176
     1
 90
        8
176
     1
 62
     7
176
     1
 40
1.0
176
     1
 90
        1
176
     1
 90
        6
176
     1
 90
        2
176
     1
 62
     7
176
     1
 90
        5
176
     1
 90
        0
176
     1
 90
        0
176
     1
290
     0
176
     1
 90
        1
176
     1
 40
0.0
176
     1
 90
        0
176
     1
290
     0
176
     1
290
     1
176
     1
290
     1
176
     1
290
     0
176
     1
290
     0
176
     1
290
     0
176
     1
290
     0
176
     1
290
     0
176
     1
290
     0
176
     1
 90
       50
176
     1
 40
0.0
176
     1
 40
1.0
176
     1
 90
        0
176
     1
 62
    18
420
        0
176
     1
 90
       50
176
     1
 90
        3
176
     1
 62
     5
420
      255
176
     1
290
     0
176
     1
 90
       50
176
     1
 90
       50
176
     1
 90
       50
176
     1
290
     0
176
     1
 90
       50
176
     1
 62
   256
176
     0
 40
1.0
176
     0
 90
        2
176
     1
  1
strokes_ogs.tif
176
     1
290
     0
176
     1
 40
1.0
176
     1
 40
1.0
176
     1
  0
VISUALSTYLE
  5
2B
102
{ACAD_REACTORS
330
2A
102
}
330
2A
100
AcDbVisualStyle
  2
Flat
 70
     0
177
     3
291
     1
 70
    58
 90
        2
176
     1
 90
        1
176
     1
 90
        1
176
     1
 90
        2
176
     1
 40
0.6
176
     1
 40
30.0
176
     1
 62
     7
420
 16777215
176
     1
 90
        0
176
     1
 90
        4
176
     1
 62
     7
176
     1
 62
   257
176
     1
 90
        1
176
     1
 90
        1
176
     1
 40
1.0
176
     1
 90
        8
176
     1
 62
     7
176
     1
 40
1.0
176
     1
 90
        1
176
     1
 90
        6
176
     1
 90
        2
176
     1
 62
     7
176
     1
 90
        5
176
     1
 90
        0
176
     1
 90
        0
176
     1
290
     0
176
     1
 90
       13
176
     1
 40
0.0
176
     1
 90
        0
176
     1
290
     0
176
     1
290
     1
176
     1
290
     1
176
     1
290
     0
176
     1
290
     0
176
     1
290
     0
176
     1
290
     0
176
     1
290
     0
176
     1
290
     0
176
     1
 90
       50
176
     1
 40
0.0
176
     1
 40
1.0
176
     1
 90
        0
176
     1
 62
    18
420
        0
176
     1
 90
       50
176
     1
 90
        3
176
     1
 62
     5
420
      255
176
     1
290
     0
176
     1
 90
       50
176
     1
 90
       50
176
     1
 90
       50
176
     1
290
     0
176
     1
 90
       50
176
     1
 62
   256
176
     0
 40
1.0
176
     0
 90
        2
176
     1
  1
strokes_ogs.tif
176
     1
290
     0
176
     1
 40
1.0
176
     1
 40
1.0
176
     1
  0
VISUALSTYLE
  5
2C
102
{ACAD_REACTORS
330
2A
102
}
330
2A
100
AcDbVisualStyle
  2
FlatWithEdges
 70
     1
177
     3
291
     1
 70
    58
 90
        2
176
     1
 90
        1
176
     1
 90
        1
176
     1
 90
        2
176
     1
 40
0.6
176
     1
 40
30.0
176
     1
 62
     7
420
 16777215
176
     1
 90
        1
176
     1
 90
        4
176
     1
 62
     7
176
     1
 62
   257
176
     1
 90
        1
176
     1
 90
        1
176
     1
 40
1.0
176
     1
 90
        0
176
     1
 62
   257
176
     1
 40
1.0
176
     1
 90
        1
176
     1
 90
        6
176
     1
 90
        2
176
     1
 62
     7
176
     1
 90
        5
176
     1
 90
        0
176
     1
 90
        0
176
     1
290
     0
176
     1
 90
       13
176
     1
 40
0.0
176
     1
 90
        0
176
     1
290
     0
176
     1
290
     1
176
     1
290
     1
176
     1
290
     0
176
     1
290
     0
176
     1
290
     0
176
     1
290
     0
176
     1
290
     0
176
     1
290
     0
176
     1
 90
       50
176
     1
 40
0.0
176
     1
 40
1.0
176
     1
 90
        0
176
     1
 62
    18
420
        0
176
     1
 90
       50
176
     1
 90
        3
176
     1
 62
     5
420
      255
176
     1
290
     0
176
     1
 90
       50
176
     1
 90
       50
176
     1
 90
       50
176
     1
290
     0
176
     1
 90
       50
176
     1
 62
   256
176
     0
 40
1.0
176
     0
 90
        2
176
     1
  1
strokes_ogs.tif
176
     1
290
     0
176
     1
 40
1.0
176
     1
 40
1.0
176
     1
  0
VISUALSTYLE
  5
2D
102
{ACAD_REACTORS
330
2A
102
}
330
2A
100
AcDbVisualStyle
  2
Gouraud
 70
     2
177
     3
291
     1
 70
    58
 90
        2
176
     1
 90
        2
176
     1
 90
        1
176
     1
 90
        2
176
     1
 40
0.6
176
     1
 40
30.0
176
     1
 62
     7
420
 16777215
176
     1
 90
        0
176
     1
 90
        4
176
     1
 62
     7
176
     1
 62
   257
176
     1
 90
        1
176
     1
 90
        1
176
     1
 40
1.0
176
     1
 90
        0
176
     1
 62
     7
176
     1
 40
1.0
176
     1
 90
        1
176
     1
 90
        6
176
     1
 90
        2
176
     1
 62
     7
176
     1
 90
        5
176
     1
 90
        0
176
     1
 90
        0
176
     1
290
     0
176
     1
 90
       13
176
     1
 40
0.0
176
     1
 90
        0
176
     1
290
     0
176
     1
290
     1
176
     1
290
     1
176
     1
290
     0
176
     1
290
     0
176
     1
290
     0
176
     1
290
     0
176
     1
290
     0
176
     1
290
     0
176
     1
 90
       50
176
     1
 40
0.0
176
     1
 40
1.0
176
     1
 90
        0
176
     1
 62
    18
420
        0
176
     1
 90
       50
176
     1
 90
        3
176
     1
 62
     5
420
      255
176
     1
290
     0
176
     1
 90
       50
176
     1
 90
       50
176
     1
 90
       50
176
     1
290
     0
176
     1
 90
       50
176
     1
 62
   256
176
     0
 40
1.0
176
     0
 90
        2
176
     1
  1
strokes_ogs.tif
176
     1
290
     0
176
     1
 40
1.0
176
     1
 40
1.0
176
     1
  0
VISUALSTYLE
  5
2E
102
{ACAD_REACTORS
330
2A
102
}
330
2A
100
AcDbVisualStyle
  2
GouraudWithEdges
 70
     3
177
     3
291
     1
 70
    58
 90
        2
176
     1
 90
        2
176
     1
 90
        1
176
     1
 90
        2
176
     1
 40
0.6
176
     1
 40
30.0
176
     1
 62
     7
420
 16777215
176
     1
 90
        1
176
     1
 90
        4
176
     1
 62
     7
176
     1
 62
   257
176
     1
 90
        1
176
     1
 90
        1
176
     1
 40
1.0
176
     1
 90
        0
176
     1
 62
   257
176
     1
 40
1.0
176
     1
 90
        1
176
     1
 90
        6
176
     1
 90
        2
176
     1
 62
     7
176
     1
 90
        5
176
     1
 90
        0
176
     1
 90
        0
176
     1
290
     0
176
     1
 90
       13
176
     1
 40
0.0
176
     1
 90
        0
176
     1
290
     0
176
     1
290
     1
176
     1
290
     1
176
     1
290
     0
176
     1
290
     0
176
     1
290
     0
176
     1
290
     0
176
     1
290
     0
176
     1
290
     0
176
     1
 90
       50
176
     1
 40
0.0
176
     1
 40
1.0
176
     1
 90
        0
176
     1
 62
    18
420
        0
176
     1
 90
       50
176
     1
 90
        3
176
     1
 62
     5
420
      255
176
     1
290
     0
176
     1
 90
       50
176
     1
 90
       50
176
     1
 90
       50
176
     1
290
     0
176
     1
 90
       50
176
     1
 62
   256
176
     0
 40
1.0
176
     0
 90
        2
176
     1
  1
strokes_ogs.tif
176
     1
290
     0
176
     1
 40
1.0
176
     1
 40
1.0
176
     1
  0
VISUALSTYLE
  5
6A
102
{ACAD_REACTORS
330
2A
102
}
330
2A
100
AcDbVisualStyle
  2
Hidden
 70
     6
177
     3
291
     0
 70
    58
 90
        1
176
     1
 90
        2
176
     1
 90
        2
176
     1
 90
        0
176
     1
 40
0.6
176
     1
 40
30.0
176
     1
 62
     7
420
 16777215
176
     1
 90
        2
176
     1
 90
        2
176
     1
 62
     7
176
     1
 62
   257
176
     1
 90
        2
176
     1
 90
        1
176
     1
 40
40.0
176
     1
 90
        0
176
     1
 62
   257
176
     1
 40
1.0
176
     1
 90
        1
176
     1
 90
        6
176
     1
 90
        2
176
     1
 62
     7
176
     1
 90
        3
176
     1
 90
        0
176
     1
 90
        0
176
     1
290
     0
176
     1
 90
        1
176
     1
 40
0.0
176
     1
 90
        0
176
     1
290
     0
176
     1
290
     1
176
     1
290
     1
176
     1
290
     0
176
     1
290
     0
176
     1
290
     0
176
     1
290
     0
176
     1
290
     0
176
     1
290
     0
176
     1
 90
       50
176
     1
 40
0.0
176
     1
 40
1.0
176
     1
 90
        0
176
     1
 62
    18
420
        0
176
     1
 90
       50
176
     1
 90
        3
176
     1
 62
     5
420
      255
176
     1
290
     0
176
     1
 90
       50
176
     1
 90
       50
176
     1
 90
       50
176
     1
290
     0
176
     1
 90
       50
176
     1
 62
   256
176
     0
 40
1.0
176
     0
 90
        2
176
     1
  1
strokes_ogs.tif
176
     1
290
     0
176
     1
 40
1.0
176
     1
 40
1.0
176
     1
  0
VISUALSTYLE
  5
70
102
{ACAD_REACTORS
330
2A
102
}
330
2A
100
AcDbVisualStyle
  2
JitterOff
 70
    20
177
     3
291
     1
 70
    58
 90
        2
176
     0
 90
        2
176
     0
 90
        0
176
     0
 90
        0
176
     0
 40
0.6
176
     0
 40
30.0
176
     0
 62
     7
420
 16777215
176
     0
 90
        1
176
     0
 90
        4
176
     0
 62
     7
176
     0
 62
   257
176
     0
 90
        1
176
     0
 90
        1
176
     0
 40
1.0
176
     0
 90
       10
176
     2
 62
     7
176
     0
 40
1.0
176
     0
 90
        1
176
     0
 90
        6
176
     0
 90
        2
176
     0
 62
     7
176
     0
 90
        5
176
     0
 90
        0
176
     0
 90
        0
176
     0
290
     0
176
     0
 90
        1
176
     0
 40
0.0
176
     0
 90
        0
176
     0
290
     0
176
     1
290
     1
176
     1
290
     1
176
     1
290
     0
176
     1
290
     0
176
     1
290
     0
176
     1
290
     0
176
     1
290
     0
176
     1
290
     0
176
     1
 90
       50
176
     0
 40
0.0
176
     0
 40
1.0
176
     0
 90
        0
176
     0
 62
    18
420
        0
176
     0
 90
       50
176
     0
 90
        3
176
     0
 62
     5
420
      255
176
     0
290
     0
176
     1
 90
       50
176
     0
 90
       50
176
     0
 90
       50
176
     0
290
     0
176
     1
 90
       50
176
     0
 62
   256
176
     0
 40
1.0
176
     0
 90
        2
176
     0
  1
strokes_ogs.tif
176
     0
290
     0
176
     1
 40
1.0
176
     0
 40
1.0
176
     0
  0
VISUALSTYLE
  5
38
102
{ACAD_REACTORS
330
2A
102
}
330
2A
100
AcDbVisualStyle
  2
Linepattern
 70
    14
177
     3
291
     1
 70
    58
 90
        2
176
     1
 90
        2
176
     1
 90
        0
176
     1
 90
        0
176
     1
 40
0.6
176
     1
 40
30.0
176
     1
 62
     7
420
 16777215
176
     1
 90
        1
176
     1
 90
        4
176
     1
 62
     7
176
     1
 62
   257
176
     1
 90
        7
176
     1
 90
        7
176
     1
 40
1.0
176
     1
 90
        8
176
     1
 62
     7
176
     1
 40
1.0
176
     1
 90
        1
176
     1
 90
        6
176
     1
 90
        2
176
     1
 62
     7
176
     1
 90
        5
176
     1
 90
        0
176
     1
 90
        0
176
     1
290
     0
176
     1
 90
        1
176
     1
 40
0.0
176
     1
 90
        0
176
     1
290
     0
176
     1
290
     1
176
     1
290
     1
176
     1
290
     0
176
     1
290
     0
176
     1
290
     0
176
     1
290
     0
176
     1
290
     0
176
     1
290
     0
176
     1
 90
       50
176
     1
 40
0.0
176
     1
 40
1.0
176
     1
 90
        0
176
     1
 62
    18
420
        0
176
     1
 90
       50
176
     1
 90
        3
176
     1
 62
     5
420
      255
176
     1
290
     0
176
     1
 90
       50
176
     1
 90
       50
176
     1
 90
       50
176
     1
290
     0
176
     1
 90
       50
176
     1
 62
   256
176
     0
 40
1.0
176
     0
 90
        2
176
     1
  1
strokes_ogs.tif
176
     1
290
     0
176
     1
 40
1.0
176
     1
 40
1.0
176
     1
  0
VISUALSTYLE
  5
71
102
{ACAD_REACTORS
330
2A
102
}
330
2A
100
AcDbVisualStyle
  2
OverhangOff
 70
    21
177
     3
291
     1
 70
    58
 90
        2
176
     0
 90
        2
176
     0
 90
        0
176
     0
 90
        0
176
     0
 40
0.6
176
     0
 40
30.0
176
     0
 62
     7
420
 16777215
176
     0
 90
        1
176
     0
 90
        4
176
     0
 62
     7
176
     0
 62
   257
176
     0
 90
        1
176
     0
 90
        1
176
     0
 40
1.0
176
     0
 90
        9
176
     2
 62
     7
176
     0
 40
1.0
176
     0
 90
        1
176
     0
 90
        6
176
     0
 90
        2
176
     0
 62
     7
176
     0
 90
        5
176
     0
 90
        0
176
     0
 90
        0
176
     0
290
     0
176
     0
 90
        1
176
     0
 40
0.0
176
     0
 90
        0
176
     0
290
     0
176
     1
290
     1
176
     1
290
     1
176
     1
290
     0
176
     1
290
     0
176
     1
290
     0
176
     1
290
     0
176
     1
290
     0
176
     1
290
     0
176
     1
 90
       50
176
     0
 40
0.0
176
     0
 40
1.0
176
     0
 90
        0
176
     0
 62
    18
420
        0
176
     0
 90
       50
176
     0
 90
        3
176
     0
 62
     5
420
      255
176
     0
290
     0
176
     1
 90
       50
176
     0
 90
       50
176
     0
 90
       50
176
     0
290
     0
176
     1
 90
       50
176
     0
 62
   256
176
     0
 40
1.0
176
     0
 90
        2
176
     0
  1
strokes_ogs.tif
176
     0
290
     0
176
     1
 40
1.0
176
     0
 40
1.0
176
     0
  0
VISUALSTYLE
  5
33
102
{ACAD_REACTORS
330
2A
102
}
330
2A
100
AcDbVisualStyle
  2
Realistic
 70
     8
177
     3
291
     0
 70
    58
 90
        2
176
     1
 90
        2
176
     1
 90
        0
176
     1
 90
        0
176
     1
 40
0.6
176
     1
 40
30.0
176
     1
 62
     7
420
 16777215
176
     1
 90
        1
176
     1
 90
        0
176
     1
 62
     7
176
     1
 62
   257
176
     1
 90
        1
176
     1
 90
        1
176
     1
 40
1.0
176
     1
 90
        8
176
     1
 62
     8
420
  7895160
176
     1
 40
1.0
176
     1
 90
        1
176
     1
 90
        6
176
     1
 90
        2
176
     1
 62
     7
176
     1
 90
        5
176
     1
 90
        0
176
     1
 90
        0
176
     1
290
     0
176
     1
 90
       13
176
     1
 40
0.0
176
     1
 90
        0
176
     1
290
     0
176
     1
290
     1
176
     1
290
     1
176
     1
290
     0
176
     1
290
     0
176
     1
290
     0
176
     1
290
     0
176
     1
290
     0
176
     1
290
     0
176
     1
 90
       50
176
     1
 40
0.0
176
     1
 40
1.0
176
     1
 90
        0
176
     1
 62
    18
420
        0
176
     1
 90
       50
176
     1
 90
        3
176
     1
 62
     5
420
      255
176
     1
290
     0
176
     1
 90
       50
176
     1
 90
       50
176
     1
 90
       50
176
     1
290
     0
176
     1
 90
       50
176
     1
 62
   256
176
     0
 40
1.0
176
     0
 90
        2
176
     1
  1
strokes_ogs.tif
176
     1
290
     0
176
     1
 40
1.0
176
     1
 40
1.0
176
     1
  0
VISUALSTYLE
  5
6F
102
{ACAD_REACTORS
330
2A
102
}
330
2A
100
AcDbVisualStyle
  2
Shaded
 70
    27
177
     3
291
     0
 70
    58
 90
        2
176
     1
 90
        2
176
     1
 90
        1
176
     1
 90
        2
176
     1
 40
0.6
176
     1
 40
30.0
176
     1
 62
     7
420
 16777215
176
     1
 90
        0
176
     1
 90
        4
176
     1
 62
     7
176
     1
 62
   257
176
     1
 90
        1
176
     1
 90
        1
176
     1
 40
1.0
176
     1
 90
        8
176
     1
 62
   257
176
     1
 40
1.0
176
     1
 90
        1
176
     1
 90
        6
176
     1
 90
        2
176
     1
 62
     8
420
  7895160
176
     1
 90
        3
176
     1
 90
        0
176
     1
 90
        0
176
     1
290
     0
176
     1
 90
        5
176
     1
 40
0.0
176
     1
 90
        0
176
     1
290
     0
176
     1
290
     1
176
     1
290
     1
176
     1
290
     0
176
     1
290
     0
176
     1
290
     0
176
     1
290
     0
176
     1
290
     0
176
     1
290
     0
176
     1
 90
       50
176
     1
 40
0.0
176
     1
 40
1.0
176
     1
 90
        0
176
     1
 62
    18
420
        0
176
     1
 90
       50
176
     1
 90
        3
176
     1
 62
     5
420
      255
176
     1
290
     0
176
     1
 90
       50
176
     1
 90
       50
176
     1
 90
       50
176
     1
290
     0
176
     1
 90
       50
176
     1
 62
   256
176
     0
 40
1.0
176
     0
 90
        2
176
     1
  1
strokes_ogs.tif
176
     1
290
     0
176
     1
 40
1.0
176
     1
 40
1.0
176
     1
  0
VISUALSTYLE
  5
6E
102
{ACAD_REACTORS
330
2A
102
}
330
2A
100
AcDbVisualStyle
  2
Shaded with edges
 70
    26
177
     3
291
     0
 70
    58
 90
        2
176
     1
 90
        2
176
     1
 90
        1
176
     1
 90
        2
176
     1
 40
0.6
176
     1
 40
30.0
176
     1
 62
     7
420
 16777215
176
     1
 90
        1
176
     1
 90
        2
176
     1
 62
     7
176
     1
 62
   257
176
     1
 90
        2
176
     1
 90
        1
176
     1
 40
1.0
176
     1
 90
        8
176
     1
 62
   257
176
     1
 40
1.0
176
     1
 90
        1
176
     1
 90
        6
176
     1
 90
        2
176
     1
 62
     7
176
     1
 90
        3
176
     1
 90
        0
176
     1
 90
        0
176
     1
290
     0
176
     1
 90
        5
176
     1
 40
0.0
176
     1
 90
        0
176
     1
290
     0
176
     1
290
     1
176
     1
290
     1
176
     1
290
     0
176
     1
290
     0
176
     1
290
     0
176
     1
290
     0
176
     1
290
     0
176
     1
290
     0
176
     1
 90
       50
176
     1
 40
0.0
176
     1
 40
1.0
176
     1
 90
        0
176
     1
 62
    18
420
        0
176
     1
 90
       50
176
     1
 90
        3
176
     1
 62
     5
420
      255
176
     1
290
     0
176
     1
 90
       50
176
     1
 90
       50
176
     1
 90
       50
176
     1
290
     0
176
     1
 90
       50
176
     1
 62
   256
176
     0
 40
1.0
176
     0
 90
        2
176
     1
  1
strokes_ogs.tif
176
     1
290
     0
176
     1
 40
1.0
176
     1
 40
1.0
176
     1
  0
VISUALSTYLE
  5
6B
102
{ACAD_REACTORS
330
2A
102
}
330
2A
100
AcDbVisualStyle
  2
Shades of Gray
 70
    23
177
     3
291
     0
 70
    58
 90
        2
176
     1
 90
        2
176
     1
 90
        3
176
     1
 90
        0
176
     1
 40
0.6
176
     1
 40
30.0
176
     1
 62
     7
420
 16777215
176
     1
 90
        2
176
     1
 90
        2
176
     1
 62
     7
176
     1
 62
     7
176
     1
 90
        1
176
     1
 90
        1
176
     1
 40
40.0
176
     1
 90
        8
176
     1
 62
     7
176
     1
 40
1.0
176
     1
 90
        1
176
     1
 90
        6
176
     1
 90
        2
176
     1
 62
     7
176
     1
 90
        3
176
     1
 90
        0
176
     1
 90
        0
176
     1
290
     0
176
     1
 90
        1
176
     1
 40
0.0
176
     1
 90
        0
176
     1
290
     0
176
     1
290
     1
176
     1
290
     1
176
     1
290
     0
176
     1
290
     0
176
     1
290
     0
176
     1
290
     0
176
     1
290
     0
176
     1
290
     0
176
     1
 90
       50
176
     1
 40
0.0
176
     1
 40
1.0
176
     1
 90
        0
176
     1
 62
    18
420
        0
176
     1
 90
       50
176
     1
 90
        3
176
     1
 62
     5
420
      255
176
     1
290
     0
176
     1
 90
       50
176
     1
 90
       50
176
     1
 90
       50
176
     1
290
     0
176
     1
 90
       50
176
     1
 62
   256
176
     0
 40
1.0
176
     0
 90
        2
176
     1
  1
strokes_ogs.tif
176
     1
290
     0
176
     1
 40
1.0
176
     1
 40
1.0
176
     1
  0
VISUALSTYLE
  5
6C
102
{ACAD_REACTORS
330
2A
102
}
330
2A
100
AcDbVisualStyle
  2
Sketchy
 70
    24
177
     3
291
     0
 70
    58
 90
        1
176
     1
 90
        2
176
     1
 90
        2
176
     1
 90
        0
176
     1
 40
0.6
176
     1
 40
30.0
176
     1
 62
     7
420
 16777215
176
     1
 90
        2
176
     1
 90
        2
176
     1
 62
     7
176
     1
 62
     7
176
     1
 90
        1
176
     1
 90
        1
176
     1
 40
40.0
176
     1
 90
       11
176
     1
 62
     7
176
     1
 40
1.0
176
     1
 90
        1
176
     1
 90
        6
176
     1
 90
        2
176
     1
 62
     7
176
     1
 90
        6
176
     1
 90
        0
176
     1
 90
        0
176
     1
290
     0
176
     1
 90
        1
176
     1
 40
0.0
176
     1
 90
        0
176
     1
290
     0
176
     1
290
     1
176
     1
290
     1
176
     1
290
     0
176
     1
290
     0
176
     1
290
     0
176
     1
290
     0
176
     1
290
     0
176
     1
290
     0
176
     1
 90
       50
176
     1
 40
0.0
176
     1
 40
1.0
176
     1
 90
        0
176
     1
 62
    18
420
        0
176
     1
 90
       50
176
     1
 90
        3
176
     1
 62
     5
420
      255
176
     1
290
     0
176
     1
 90
       50
176
     1
 90
       50
176
     1
 90
       50
176
     1
290
     0
176
     1
 90
       50
176
     1
 62
   256
176
     0
 40
1.0
176
     0
 90
        2
176
     1
  1
strokes_ogs.tif
176
     1
290
     0
176
     1
 40
1.0
176
     1
 40
1.0
176
     1
  0
VISUALSTYLE
  5
37
102
{ACAD_REACTORS
330
2A
102
}
330
2A
100
AcDbVisualStyle
  2
Thicken
 70
    13
177
     3
291
     1
 70
    58
 90
        2
176
     1
 90
        2
176
     1
 90
        0
176
     1
 90
        0
176
     1
 40
0.6
176
     1
 40
30.0
176
     1
 62
     7
420
 16777215
176
     1
 90
        1
176
     1
 90
        4
176
     1
 62
     7
176
     1
 62
   257
176
     1
 90
        1
176
     1
 90
        1
176
     1
 40
1.0
176
     1
 90
       12
176
     1
 62
     7
176
     1
 40
1.0
176
     1
 90
        1
176
     1
 90
        6
176
     1
 90
        2
176
     1
 62
     7
176
     1
 90
        5
176
     1
 90
        0
176
     1
 90
        0
176
     1
290
     0
176
     1
 90
        1
176
     1
 40
0.0
176
     1
 90
        0
176
     1
290
     0
176
     1
290
     1
176
     1
290
     1
176
     1
290
     0
176
     1
290
     0
176
     1
290
     0
176
     1
290
     0
176
     1
290
     0
176
     1
290
     0
176
     1
 90
       50
176
     1
 40
0.0
176
     1
 40
1.0
176
     1
 90
        0
176
     1
 62
    18
420
        0
176
     1
 90
       50
176
     1
 90
        3
176
     1
 62
     5
420
      255
176
     1
290
     0
176
     1
 90
       50
176
     1
 90
       50
176
     1
 90
       50
176
     1
290
     0
176
     1
 90
       50
176
     1
 62
   256
176
     0
 40
1.0
176
     0
 90
        2
176
     1
  1
strokes_ogs.tif
176
     1
290
     0
176
     1
 40
1.0
176
     1
 40
1.0
176
     1
  0
VISUALSTYLE
  5
69
102
{ACAD_REACTORS
330
2A
102
}
330
2A
100
AcDbVisualStyle
  2
Wireframe
 70
     5
177
     3
291
     0
 70
    58
 90
        0
176
     1
 90
        2
176
     1
 90
        0
176
     1
 90
        0
176
     1
 40
0.6
176
     1
 40
30.0
176
     1
 62
     7
420
 16777215
176
     1
 90
        1
176
     1
 90
        4
176
     1
 62
     7
176
     1
 62
   257
176
     1
 90
        1
176
     1
 90
        1
176
     1
 40
1.0
176
     1
 90
        0
176
     1
 62
   257
176
     1
 40
1.0
176
     1
 90
        1
176
     1
 90
        6
176
     1
 90
        2
176
     1
 62
     7
176
     1
 90
        3
176
     1
 90
        0
176
     1
 90
        0
176
     1
290
     0
176
     1
 90
        1
176
     1
 40
0.0
176
     1
 90
        0
176
     1
290
     0
176
     1
290
     1
176
     1
290
     1
176
     1
290
     0
176
     1
290
     0
176
     1
290
     0
176
     1
290
     0
176
     1
290
     0
176
     1
290
     0
176
     1
 90
       50
176
     1
 40
0.0
176
     1
 40
1.0
176
     1
 90
        0
176
     1
 62
    18
420
        0
176
     1
 90
       50
176
     1
 90
        3
176
     1
 62
     5
420
      255
176
     1
290
     0
176
     1
 90
       50
176
     1
 90
       50
176
     1
 90
       50
176
     1
290
     0
176
     1
 90
       50
176
     1
 62
   256
176
     0
 40
1.0
176
     0
 90
        2
176
     1
  1
strokes_ogs.tif
176
     1
290
     0
176
     1
 40
1.0
176
     1
 40
1.0
176
     1
  0
VISUALSTYLE
  5
6D
102
{ACAD_REACTORS
330
2A
102
}
330
2A
100
AcDbVisualStyle
  2
X-Ray
 70
    25
177
     3
291
     0
 70
    58
 90
        2
176
     1
 90
        2
176
     1
 90
        1
176
     1
 90
        1
176
     1
 40
0.5
176
     1
 40
30.0
176
     1
 62
     7
420
 16777215
176
     1
 90
        1
176
     1
 90
        0
176
     1
 62
     7
176
     1
 62
   257
176
     1
 90
        1
176
     1
 90
        1
176
     1
 40
1.0
176
     1
 90
        8
176
     1
 62
     7
176
     1
 40
1.0
176
     1
 90
        1
176
     1
 90
        6
176
     1
 90
        2
176
     1
 62
     7
176
     1
 90
        3
176
     1
 90
        0
176
     1
 90
        0
176
     1
290
     0
176
     1
 90
       13
176
     1
 40
0.0
176
     1
 90
        0
176
     1
290
     0
176
     1
290
     1
176
     1
290
     1
176
     1
290
     0
176
     1
290
     0
176
     1
290
     0
176
     1
290
     0
176
     1
290
     0
176
     1
290
     0
176
     1
 90
       50
176
     1
 40
0.0
176
     1
 40
1.0
176
     1
 90
        0
176
     1
 62
    18
420
        0
176
     1
 90
       50
176
     1
 90
        3
176
     1
 62
     5
420
      255
176
     1
290
     0
176
     1
 90
       50
176
     1
 90
       50
176
     1
 90
       50
176
     1
290
     0
176
     1
 90
       50
176
     1
 62
   256
176
     0
 40
1.0
176
     0
 90
        2
176
     1
  1
strokes_ogs.tif
176
     1
290
     0
176
     1
 40
1.0
176
     1
 40
1.0
176
     1
  0
DICTIONARYVAR
  5
C1
102
{ACAD_REACTORS
330
BC
102
}
330
BC
100
DictionaryVariables
280
     0
  1
1:1
  0
DICTIONARYVAR
  5
BE
102
{ACAD_REACTORS
330
BC
102
}
330
BC
100
DictionaryVariables
280
     0
  1
STANDARD
  0
DICTIONARYVAR
  5
BD
102
{ACAD_REACTORS
330
BC
102
}
330
BC
100
DictionaryVariables
280
     0
  1
STANDARD
  0
DICTIONARYVAR
  5
BF
102
{ACAD_REACTORS
330
BC
102
}
330
BC
100
DictionaryVariables
280
     0
  1
Imperial24
  0
DICTIONARYVAR
  5
C0
102
{ACAD_REACTORS
330
BC
102
}
330
BC
100
DictionaryVariables
280
     0
  1
Imperial24
  0
DICTIONARY
  5
DA
330
74
100
AcDbDictionary
280
     1
281
     1
  3
ACAD_ROUNDTRIP_2008_TABLESTYLE_CELLSTYLEMAP
360
DB
  0
CELLSTYLEMAP
  5
DB
102
{ACAD_REACTORS
330
DA
102
}
330
DA
100
AcDbCellStyleMap
 90
        3
300
CELLSTYLE
  1
TABLEFORMAT_BEGIN
 90
        5
170
     1
 91
        0
 92
    32768
 62
   257
 93
        1
300
CONTENTFORMAT
  1
CONTENTFORMAT_BEGIN
 90
        0
 91
        0
 92
      512
 93
        0
300

 40
0.0
140
1.0
 94
        5
 62
     0
340
11
144
0.25
309
CONTENTFORMAT_END
171
     0
 94
        0
309
TABLEFORMAT_END
  1
CELLSTYLE_BEGIN
 90
        1
 91
        1
300
_TITLE
309
CELLSTYLE_END
300
CELLSTYLE
  1
TABLEFORMAT_BEGIN
 90
        5
170
     1
 91
        0
 92
        0
 62
   257
 93
        1
300
CONTENTFORMAT
  1
CONTENTFORMAT_BEGIN
 90
        0
 91
        0
 92
      512
 93
        0
300

 40
0.0
140
1.0
 94
        5
 62
     0
340
11
144
0.18
309
CONTENTFORMAT_END
171
     0
 94
        0
309
TABLEFORMAT_END
  1
CELLSTYLE_BEGIN
 90
        2
 91
        1
300
_HEADER
309
CELLSTYLE_END
300
CELLSTYLE
  1
TABLEFORMAT_BEGIN
 90
        5
170
     1
 91
        0
 92
        0
 62
   257
 93
        1
300
CONTENTFORMAT
  1
CONTENTFORMAT_BEGIN
 90
        0
 91
        0
 92
      512
 93
        0
300

 40
0.0
140
1.0
 94
        2
 62
     0
340
11
144
0.18
309
CONTENTFORMAT_END
171
     0
 94
        0
309
TABLEFORMAT_END
  1
CELLSTYLE_BEGIN
 90
        3
 91
        2
300
_DATA
309
CELLSTYLE_END
  0
ENDSEC
  0
SECTION
  2
ACDSDATA
 70
     2
 71
     8
  0
ACDSSCHEMA
 90
        0
  1
AcDb_Thumbnail_Schema
  2
AcDbDs::ID
280
    10
 91
        8
  2
Thumbnail_Data
280
    15
 91
        0
101
ACDSRECORD
 95
        0
 90
        1
  2
AcDbDs::TreatedAsObjectData
280
     1
291
     1
101
ACDSRECORD
 95
        0
 90
        2
  2
AcDbDs::Legacy
280
     1
291
     1
101
ACDSRECORD
  1
AcDbDs::ID
 90
        3
  2
AcDs:Indexable
280
     1
291
     1
101
ACDSRECORD
  1
AcDbDs::ID
 90
        4
  2
AcDbDs::HandleAttribute
280
     7
282
     1
  0
ACDSSCHEMA
 90
        1
  1
AcDbDs::TreatedAsObjectDataSchema
  2
AcDbDs::TreatedAsObjectData
280
     1
 91
        0
  0
ACDSSCHEMA
 90
        2
  1
AcDbDs::LegacySchema
  2
AcDbDs::Legacy
280
     1
 91
        0
  0
ACDSSCHEMA
 90
        3
  1
AcDbDs::IndexedPropertySchema
  2
AcDs:Indexable
280
     1
 91
        0
  0
ACDSSCHEMA
 90
        4
  1
AcDbDs::HandleAttributeSchema
  2
AcDbDs::HandleAttribute
280
     7
 91
        1
284
     1
  0
ACDSRECORD
 90
        0
  2
AcDbDs::ID
280
    10
320
22
  2
Thumbnail_Data
280
    15
 94
     1219
310
89504E470D0A1A0A0000000D49484452000001000000007408030000005D681C3700000300504C5445212830FFFFFF2128300000000000000000000000000000000000000000000000000000330000660000990000CC0000FF0033000033330033660033990033CC0033FF0066000066330066660066990066CC0066FF0099
310
000099330099660099990099CC0099FF00CC0000CC3300CC6600CC9900CCCC00CCFF00FF0000FF3300FF6600FF9900FFCC00FFFF3300003300333300663300993300CC3300FF3333003333333333663333993333CC3333FF3366003366333366663366993366CC3366FF3399003399333399663399993399CC3399FF33CC00
310
33CC3333CC6633CC9933CCCC33CCFF33FF0033FF3333FF6633FF9933FFCC33FFFF6600006600336600666600996600CC6600FF6633006633336633666633996633CC6633FF6666006666336666666666996666CC6666FF6699006699336699666699996699CC6699FF66CC0066CC3366CC6666CC9966CCCC66CCFF66FF0066
310
FF3366FF6666FF9966FFCC66FFFF9900009900339900669900999900CC9900FF9933009933339933669933999933CC9933FF9966009966339966669966999966CC9966FF9999009999339999669999999999CC9999FF99CC0099CC3399CC6699CC9999CCCC99CCFF99FF0099FF3399FF6699FF9999FFCC99FFFFCC0000CC00
310
33CC0066CC0099CC00CCCC00FFCC3300CC3333CC3366CC3399CC33CCCC33FFCC6600CC6633CC6666CC6699CC66CCCC66FFCC9900CC9933CC9966CC9999CC99CCCC99FFCCCC00CCCC33CCCC66CCCC99CCCCCCCCCCFFCCFF00CCFF33CCFF66CCFF99CCFFCCCCFFFFFF0000FF0033FF0066FF0099FF00CCFF00FFFF3300FF3333
310
FF3366FF3399FF33CCFF33FFFF6600FF6633FF6666FF6699FF66CCFF66FFFF9900FF9933FF9966FF9999FF99CCFF99FFFFCC00FFCC33FFCC66FFCC99FFCCCCFFCCFFFFFF00FFFF33FFFF66FFFF99FFFFCCFFFFFF0000000D0D0D1A1A1A2828283535354343435050505D5D5D6B6B6B787878868686939393A1A1A1AEAEAEBB
310
BBBBC9C9C9D6D6D6E4E4E4F1F1F1FFFFFF0000000000000000000000000000000000000000000000000000000000002E4550F1000001064944415478DAEDD9419682301005C0DCFF40DEA70F91FD0C6A224198D9FAFC550B7DB8EB4FA783A13500000000000000000000E04FBDF7F9995BFFF6D51353E8A3F029B0FE5E9BC8
310
1046FD23844A4A60D4BABFF94909BCD77CBF8A09E0BCFE47009512C056FCA8BF6E4B101101D4ABE7D76DA01222581B7F5D07194DF06FFDDF9EC0D9E83FFC94D202670D501536059E8F43FB4198F32470B6187EE368011D7031FC72B681EB002A6317B8DAFF72666055EE0A68B3D55F4FC159A72273B5D788E0597F6505B0DF
310
FF6A5E54D291C0FB04ACA843A15ACF036E6310B4D6A27AA086A883E1CBFFC42DC5E1A548E6CB915D0C2DB2FC4702C16F4701000000000000000000E0A3FC003E0815B75E2DEDD20000000049454E44AE426082F561139807D006E1DDD9807F098CBB41BA9D0E180FC3FACD45C0FA6858BBBBE0E895508A7302BDE6B5381873
310
7F3AB679243474C1922381B23B1B2FEE86E3E1D29F0B27FBAB4CFB9754FF504AB6087A1000000000000000000000000000000000807FF00327011A959D95EA880000000049454E44AE426082
  0
ENDSEC
  0
EOF
