  0
SECTION
  2
HEADER
  9
$ACADVER
  1
AC1024
  9
$ACADMAINTVER
 70
     6
  9
$DWGCODEPAGE
  3
ANSI_1252
  9
$INSBASE
 10
0.0
 20
0.0
 30
0.0
  9
$EXTMIN
 10
1.000000000000000E+20
 20
1.000000000000000E+20
 30
1.000000000000000E+20
  9
$EXTMAX
 10
-1.000000000000000E+20
 20
-1.000000000000000E+20
 30
-1.000000000000000E+20
  9
$LIMMIN
 10
0.0
 20
0.0
  9
$LIMMAX
 10
12.0
 20
9.0
  9
$ORTHOMODE
 70
     0
  9
$REGENMODE
 70
     1
  9
$FILLMODE
 70
     1
  9
$QTEXTMODE
 70
     0
  9
$MIRRTEXT
 70
     1
  9
$LTSCALE
 40
1.0
  9
$ATTMODE
 70
     1
  9
$TEXTSIZE
 40
0.2
  9
$TRACEWID
 40
0.05
  9
$TEXTSTYLE
  7
Standard
  9
$CLAYER
  8
0
  9
$CELTYPE
  6
ByLayer
  9
$CECOLOR
 62
   256
  9
$CELTSCALE
 40
1.0
  9
$DISPSILH
 70
     0
  9
$DIMSCALE
 40
1.0
  9
$DIMASZ
 40
0.18
  9
$DIMEXO
 40
0.0625
  9
$DIMDLI
 40
0.38
  9
$DIMRND
 40
0.0
  9
$DIMDLE
 40
0.0
  9
$DIMEXE
 40
0.18
  9
$DIMTP
 40
0.0
  9
$DIMTM
 40
0.0
  9
$DIMTXT
 40
0.18
  9
$DIMCEN
 40
0.09
  9
$DIMTSZ
 40
0.0
  9
$DIMTOL
 70
     0
  9
$DIMLIM
 70
     0
  9
$DIMTIH
 70
     1
  9
$DIMTOH
 70
     1
  9
$DIMSE1
 70
     0
  9
$DIMSE2
 70
     0
  9
$DIMTAD
 70
     0
  9
$DIMZIN
 70
     0
  9
$DIMBLK
  1

  9
$DIMASO
 70
     1
  9
$DIMSHO
 70
     1
  9
$DIMPOST
  1

  9
$DIMAPOST
  1

  9
$DIMALT
 70
     0
  9
$DIMALTD
 70
     2
  9
$DIMALTF
 40
25.4
  9
$DIMLFAC
 40
1.0
  9
$DIMTOFL
 70
     0
  9
$DIMTVP
 40
0.0
  9
$DIMTIX
 70
     0
  9
$DIMSOXD
 70
     0
  9
$DIMSAH
 70
     0
  9
$DIMBLK1
  1

  9
$DIMBLK2
  1

  9
$DIMSTYLE
  2
Standard
  9
$DIMCLRD
 70
     0
  9
$DIMCLRE
 70
     0
  9
$DIMCLRT
 70
     0
  9
$DIMTFAC
 40
1.0
  9
$DIMGAP
 40
0.09
  9
$DIMJUST
 70
     0
  9
$DIMSD1
 70
     0
  9
$DIMSD2
 70
     0
  9
$DIMTOLJ
 70
     1
  9
$DIMTZIN
 70
     0
  9
$DIMALTZ
 70
     0
  9
$DIMALTTZ
 70
     0
  9
$DIMUPT
 70
     0
  9
$DIMDEC
 70
     4
  9
$DIMTDEC
 70
     4
  9
$DIMALTU
 70
     2
  9
$DIMALTTD
 70
     2
  9
$DIMTXSTY
  7
Standard
  9
$DIMAUNIT
 70
     0
  9
$DIMADEC
 70
     0
  9
$DIMALTRND
 40
0.0
  9
$DIMAZIN
 70
     0
  9
$DIMDSEP
 70
    46
  9
$DIMATFIT
 70
     3
  9
$DIMFRAC
 70
     0
  9
$DIMLDRBLK
  1

  9
$DIMLUNIT
 70
     2
  9
$DIMLWD
 70
    -2
  9
$DIMLWE
 70
    -2
  9
$DIMTMOVE
 70
     0
  9
$DIMFXL
 40
1.0
  9
$DIMFXLON
 70
     0
  9
$DIMJOGANG
 40
0.7853981633974483
  9
$DIMTFILL
 70
     0
  9
$DIMTFILLCLR
 70
     0
  9
$DIMARCSYM
 70
     0
  9
$DIMLTYPE
  6

  9
$DIMLTEX1
  6

  9
$DIMLTEX2
  6

  9
$DIMTXTDIRECTION
 70
     0
  9
$LUNITS
 70
     2
  9
$LUPREC
 70
     4
  9
$SKETCHINC
 40
0.1
  9
$FILLETRAD
 40
0.5
  9
$AUNITS
 70
     0
  9
$AUPREC
 70
     0
  9
$MENU
  1
.
  9
$ELEVATION
 40
0.0
  9
$PELEVATION
 40
0.0
  9
$THICKNESS
 40
0.0
  9
$LIMCHECK
 70
     0
  9
$CHAMFERA
 40
0.5
  9
$CHAMFERB
 40
0.5
  9
$CHAMFERC
 40
1.0
  9
$CHAMFERD
 40
0.0
  9
$SKPOLY
 70
     0
  9
$TDCREATE
 40
2459169.557731528
  9
$TDUCREATE
 40
2459169.516064861
  9
$TDUPDATE
 40
2459169.557731621
  9
$TDUUPDATE
 40
2459169.516064954
  9
$TDINDWG
 40
0.0000000116
  9
$TDUSRTIMER
 40
0.0000000116
  9
$USRTIMER
 70
     1
  9
$ANGBASE
 50
0.0
  9
$ANGDIR
 70
     0
  9
$PDMODE
 70
     0
  9
$PDSIZE
 40
0.0
  9
$PLINEWID
 40
0.0
  9
$SPLFRAME
 70
     0
  9
$SPLINETYPE
 70
     6
  9
$SPLINESEGS
 70
     8
  9
$HANDSEED
  5
76
  9
$SURFTAB1
 70
     6
  9
$SURFTAB2
 70
     6
  9
$SURFTYPE
 70
     6
  9
$SURFU
 70
     6
  9
$SURFV
 70
     6
  9
$UCSBASE
  2

  9
$UCSNAME
  2

  9
$UCSORG
 10
0.0
 20
0.0
 30
0.0
  9
$UCSXDIR
 10
1.0
 20
0.0
 30
0.0
  9
$UCSYDIR
 10
0.0
 20
1.0
 30
0.0
  9
$UCSORTHOREF
  2

  9
$UCSORTHOVIEW
 70
     0
  9
$UCSORGTOP
 10
0.0
 20
0.0
 30
0.0
  9
$UCSORGBOTTOM
 10
0.0
 20
0.0
 30
0.0
  9
$UCSORGLEFT
 10
0.0
 20
0.0
 30
0.0
  9
$UCSORGRIGHT
 10
0.0
 20
0.0
 30
0.0
  9
$UCSORGFRONT
 10
0.0
 20
0.0
 30
0.0
  9
$UCSORGBACK
 10
0.0
 20
0.0
 30
0.0
  9
$PUCSBASE
  2

  9
$PUCSNAME
  2

  9
$PUCSORG
 10
0.0
 20
0.0
 30
0.0
  9
$PUCSXDIR
 10
1.0
 20
0.0
 30
0.0
  9
$PUCSYDIR
 10
0.0
 20
1.0
 30
0.0
  9
$PUCSORTHOREF
  2

  9
$PUCSORTHOVIEW
 70
     0
  9
$PUCSORGTOP
 10
0.0
 20
0.0
 30
0.0
  9
$PUCSORGBOTTOM
 10
0.0
 20
0.0
 30
0.0
  9
$PUCSORGLEFT
 10
0.0
 20
0.0
 30
0.0
  9
$PUCSORGRIGHT
 10
0.0
 20
0.0
 30
0.0
  9
$PUCSORGFRONT
 10
0.0
 20
0.0
 30
0.0
  9
$PUCSORGBACK
 10
0.0
 20
0.0
 30
0.0
  9
$USERI1
 70
     0
  9
$USERI2
 70
     0
  9
$USERI3
 70
     0
  9
$USERI4
 70
     0
  9
$USERI5
 70
     0
  9
$USERR1
 40
0.0
  9
$USERR2
 40
0.0
  9
$USERR3
 40
0.0
  9
$USERR4
 40
0.0
  9
$USERR5
 40
0.0
  9
$WORLDVIEW
 70
     1
  9
$SHADEDGE
 70
     3
  9
$SHADEDIF
 70
    70
  9
$TILEMODE
 70
     1
  9
$MAXACTVP
 70
    64
  9
$PINSBASE
 10
0.0
 20
0.0
 30
0.0
  9
$PLIMCHECK
 70
     0
  9
$PEXTMIN
 10
1.000000000000000E+20
 20
1.000000000000000E+20
 30
1.000000000000000E+20
  9
$PEXTMAX
 10
-1.000000000000000E+20
 20
-1.000000000000000E+20
 30
-1.000000000000000E+20
  9
$PLIMMIN
 10
0.0
 20
0.0
  9
$PLIMMAX
 10
12.0
 20
9.0
  9
$UNITMODE
 70
     0
  9
$VISRETAIN
 70
     1
  9
$PLINEGEN
 70
     0
  9
$PSLTSCALE
 70
     1
  9
$TREEDEPTH
 70
  3020
  9
$CMLSTYLE
  2
Standard
  9
$CMLJUST
 70
     0
  9
$CMLSCALE
 40
1.0
  9
$PROXYGRAPHICS
 70
     1
  9
$MEASUREMENT
 70
     0
  9
$CELWEIGHT
370
    -1
  9
$ENDCAPS
280
     0
  9
$JOINSTYLE
280
     0
  9
$LWDISPLAY
290
     1
  9
$INSUNITS
 70
     1
  9
$HYPERLINKBASE
  1

  9
$STYLESHEET
  1

  9
$XEDIT
290
     1
  9
$CEPSNTYPE
380
     0
  9
$PSTYLEMODE
290
     1
  9
$FINGERPRINTGUID
  2
{0616BA52-34F0-4B62-8F14-679658046626}
  9
$VERSIONGUID
  2
{FAEB1C32-E019-11D5-929B-00C0DF256EC4}
  9
$EXTNAMES
290
     1
  9
$PSVPSCALE
 40
0.0
  9
$OLESTARTUP
290
     0
  9
$SORTENTS
280
   127
  9
$INDEXCTL
280
     0
  9
$HIDETEXT
280
     1
  9
$XCLIPFRAME
280
     2
  9
$HALOGAP
280
     0
  9
$OBSCOLOR
 70
   257
  9
$OBSLTYPE
280
     0
  9
$INTERSECTIONDISPLAY
280
     0
  9
$INTERSECTIONCOLOR
 70
   257
  9
$DIMASSOC
280
     2
  9
$PROJECTNAME
  1

  9
$CAMERADISPLAY
290
     0
  9
$LENSLENGTH
 40
50.0
  9
$CAMERAHEIGHT
 40
0.0
  9
$STEPSPERSEC
 40
2.0
  9
$STEPSIZE
 40
6.0
  9
$3DDWFPREC
 40
2.0
  9
$PSOLWIDTH
 40
0.25
  9
$PSOLHEIGHT
 40
4.0
  9
$LOFTANG1
 40
1.570796326794897
  9
$LOFTANG2
 40
1.570796326794897
  9
$LOFTMAG1
 40
0.0
  9
$LOFTMAG2
 40
0.0
  9
$LOFTPARAM
 70
     7
  9
$LOFTNORMALS
280
     1
  9
$LATITUDE
 40
37.795
  9
$LONGITUDE
 40
-122.394
  9
$NORTHDIRECTION
 40
0.0
  9
$TIMEZONE
 70
 -8000
  9
$LIGHTGLYPHDISPLAY
280
     1
  9
$TILEMODELIGHTSYNCH
280
     1
  9
$CMATERIAL
347
3C
  9
$SOLIDHIST
280
     1
  9
$SHOWHIST
280
     1
  9
$DWFFRAME
280
     2
  9
$DGNFRAME
280
     2
  9
$REALWORLDSCALE
290
     1
  9
$INTERFERECOLOR
 62
   256
  9
$CSHADOW
280
     0
  9
$SHADOWPLANELOCATION
 40
0.0
  0
ENDSEC
  0
SECTION
  2
CLASSES
  0
CLASS
  1
ACDBDICTIONARYWDFLT
  2
AcDbDictionaryWithDefault
  3
ObjectDBX Classes
 90
        0
 91
        4
280
     0
281
     0
  0
CLASS
  1
VISUALSTYLE
  2
AcDbVisualStyle
  3
ObjectDBX Classes
 90
     4095
 91
        4
280
     0
281
     0
  0
CLASS
  1
MATERIAL
  2
AcDbMaterial
  3
ObjectDBX Classes
 90
     1153
 91
        4
280
     0
281
     0
  0
CLASS
  1
SUN
  2
AcDbSun
  3
SCENEOE
 90
     1024
 91
        4
280
     0
281
     0
  0
ENDSEC
  0
SECTION
  2
TABLES
  0
TABLE
  2
VPORT
  5
8
330
0
100
AcDbSymbolTable
 70
     1
  0
VPORT
  5
29
330
8
100
AcDbSymbolTableRecord
100
AcDbViewportTableRecord
  2
*Active
 70
     0
 10
0.0
 20
0.0
 11
1.0
 21
1.0
 12
0.0
 22
0.0
 13
0.0
 23
0.0
 14
0.5
 24
0.5
 15
0.5
 25
0.5
 16
0.0
 26
0.0
 36
1.0
 17
104.9999999737534
 27
-148.4999999628701
 37
0.0
 40
296.9999999257402
 41
0.7070707070707533
 42
50.0
 43
0.0
 44
0.0
 50
0.0
 51
0.0
 71
     0
 72
   100
 73
     1
 74
     3
 75
     0
 76
     0
 77
     0
 78
     0
281
     0
 65
     1
110
0.0
120
0.0
130
0.0
111
1.0
121
0.0
131
0.0
112
0.0
122
1.0
132
0.0
 79
     0
146
0.0
 60
     3
 61
     5
292
     1
282
     1
141
0.0
142
0.0
 63
   250
361
3F
  0
ENDTAB
  0
TABLE
  2
LTYPE
  5
5
330
0
100
AcDbSymbolTable
 70
     1
  0
LTYPE
  5
14
330
5
100
AcDbSymbolTableRecord
100
AcDbLinetypeTableRecord
  2
ByBlock
 70
     0
  3

 72
    65
 73
     0
 40
0.0
  0
LTYPE
  5
15
330
5
100
AcDbSymbolTableRecord
100
AcDbLinetypeTableRecord
  2
ByLayer
 70
     0
  3

 72
    65
 73
     0
 40
0.0
  0
LTYPE
  5
16
330
5
100
AcDbSymbolTableRecord
100
AcDbLinetypeTableRecord
  2
Continuous
 70
     0
  3
Solid line
 72
    65
 73
     0
 40
0.0
  0
ENDTAB
  0
TABLE
  2
LAYER
  5
2
330
0
100
AcDbSymbolTable
 70
     2
  0
LAYER
  5
10
330
2
100
AcDbSymbolTableRecord
100
AcDbLayerTableRecord
  2
0
 70
     0
 62
     7
  6
Continuous
370
    -3
390
F
347
3E
  0
LAYER
  5
40
330
2
100
AcDbSymbolTableRecord
100
AcDbLayerTableRecord
  2
Calque 1
 70
     0
 62
     7
  6
Continuous
370
    -3
390
F
347
3E
  0
ENDTAB
  0
TABLE
  2
STYLE
  5
3
330
0
100
AcDbSymbolTable
 70
     1
  0
STYLE
  5
11
330
3
100
AcDbSymbolTableRecord
100
AcDbTextStyleTableRecord
  2
Standard
 70
     0
 40
0.0
 41
1.0
 50
0.0
 71
     0
 42
0.2
  3
txt
  4

  0
ENDTAB
  0
TABLE
  2
VIEW
  5
6
330
0
100
AcDbSymbolTable
 70
     0
  0
ENDTAB
  0
TABLE
  2
UCS
  5
7
330
0
100
AcDbSymbolTable
 70
     0
  0
ENDTAB
  0
TABLE
  2
APPID
  5
9
330
0
100
AcDbSymbolTable
 70
     1
  0
APPID
  5
12
330
9
100
AcDbSymbolTableRecord
100
AcDbRegAppTableRecord
  2
ACAD
 70
     0
  0
ENDTAB
  0
TABLE
  2
DIMSTYLE
  5
A
330
0
100
AcDbSymbolTable
 70
     1
100
AcDbDimStyleTable
  0
DIMSTYLE
105
27
330
A
100
AcDbSymbolTableRecord
100
AcDbDimStyleTableRecord
  2
Standard
 70
     0
178
     0
340
11
  0
ENDTAB
  0
TABLE
  2
BLOCK_RECORD
  5
1
330
0
100
AcDbSymbolTable
 70
     1
  0
BLOCK_RECORD
  5
1F
330
1
100
AcDbSymbolTableRecord
100
AcDbBlockTableRecord
  2
*Model_Space
340
22
 70
     0
280
     1
281
     0
  0
BLOCK_RECORD
  5
1B
330
1
100
AcDbSymbolTableRecord
100
AcDbBlockTableRecord
  2
*Paper_Space
340
1E
 70
     0
280
     1
281
     0
  0
BLOCK_RECORD
  5
23
330
1
100
AcDbSymbolTableRecord
100
AcDbBlockTableRecord
  2
*Paper_Space0
340
26
 70
     0
280
     1
281
     0
  0
ENDTAB
  0
ENDSEC
  0
SECTION
  2
BLOCKS
  0
BLOCK
  5
20
330
1F
100
AcDbEntity
  8
0
100
AcDbBlockBegin
  2
*Model_Space
 70
     0
 10
0.0
 20
0.0
 30
0.0
  3
*Model_Space
  1

  0
ENDBLK
  5
21
330
1F
100
AcDbEntity
  8
0
100
AcDbBlockEnd
  0
BLOCK
  5
1C
330
1B
100
AcDbEntity
 67
     1
  8
0
100
AcDbBlockBegin
  2
*Paper_Space
 70
     0
 10
0.0
 20
0.0
 30
0.0
  3
*Paper_Space
  1

  0
ENDBLK
  5
1D
330
1B
100
AcDbEntity
 67
     1
  8
0
100
AcDbBlockEnd
  0
BLOCK
  5
24
330
23
100
AcDbEntity
  8
0
100
AcDbBlockBegin
  2
*Paper_Space0
 70
     0
 10
0.0
 20
0.0
 30
0.0
  3
*Paper_Space0
  1

  0
ENDBLK
  5
25
330
23
100
AcDbEntity
  8
0
100
AcDbBlockEnd
  0
ENDSEC
  0
SECTION
  2
ENTITIES
  0
SPLINE
  5
41
330
1F
100
AcDbEntity
  8
Calque 1
 62
     7
420
 16777215
370
    70
100
AcDbSpline
210
0.0
220
0.0
230
1.0
 70
     8
 71
     3
 72
    62
 73
    58
 74
     0
 42
0.0000000001
 43
0.0000000001
 12
1.0
 22
0.0
 32
0.0
 13
1.0
 23
0.0
 33
0.0
 40
0.0
 40
0.0
 40
0.0
 40
0.0
 40
1.0
 40
1.0
 40
1.0
 40
2.0
 40
2.0
 40
2.0
 40
3.0
 40
3.0
 40
3.0
 40
4.0
 40
4.0
 40
4.0
 40
5.0
 40
5.0
 40
5.0
 40
6.0
 40
6.0
 40
6.0
 40
7.0
 40
7.0
 40
7.0
 40
8.0
 40
8.0
 40
8.0
 40
9.0
 40
9.0
 40
9.0
 40
10.0
 40
10.0
 40
10.0
 40
11.0
 40
11.0
 40
11.0
 40
12.0
 40
12.0
 40
12.0
 40
13.0
 40
13.0
 40
13.0
 40
14.0
 40
14.0
 40
14.0
 40
15.0
 40
15.0
 40
15.0
 40
16.0
 40
16.0
 40
16.0
 40
17.0
 40
17.0
 40
17.0
 40
18.0
 40
18.0
 40
18.0
 40
19.0
 40
19.0
 40
19.0
 40
19.0
 10
72.16076063940903
 20
-169.8605094326422
 30
0.0
 10
71.28064702240802
 20
-170.007196154598
 30
0.0
 10
70.39857606044146
 20
-170.1431158005587
 30
0.0
 10
69.52081931508044
 20
-170.3027653165328
 30
0.0
 10
67.5871538588015
 20
-170.6544763695794
 30
0.0
 10
65.74494979456018
 20
-171.2946423238703
 30
0.0
 10
63.96559564071249
 20
-172.1177344196039
 30
0.0
 10
61.6082170385291
 20
-173.20819715177
 30
0.0
 10
59.44510912090914
 20
-174.5923892087512
 30
0.0
 10
57.46662952980435
 20
-176.2879031936692
 30
0.0
 10
54.58923170908598
 20
-178.7537683959889
 30
0.0
 10
52.24105229250499
 20
-181.617736748675
 30
0.0
 10
50.59903795086257
 20
-185.042983003059
 30
0.0
 10
49.7672603466789
 20
-186.7780635581697
 30
0.0
 10
49.17338241133023
 20
-188.5869323253858
 30
0.0
 10
48.8275266063462
 20
-190.4863157071441
 30
0.0
 10
48.51802101396008
 20
-192.1860566171262
 30
0.0
 10
48.44920170502568
 20
-193.888382699704
 30
0.0
 10
48.56476899218252
 20
-195.6036950778702
 30
0.0
 10
48.66013835941763
 20
-197.0191878674687
 30
0.0
 10
49.11118047276896
 20
-198.2575929768517
 30
0.0
 10
50.08632772030445
 20
-199.3590040828321
 30
0.0
 10
51.9779824432096
 20
-201.495578728986
 30
0.0
 10
54.15753810180308
 20
-203.3058978787503
 30
0.0
 10
56.38796122793785
 20
-205.0468202524549
 30
0.0
 10
58.80008505655714
 20
-206.9295578085865
 30
0.0
 10
60.70819087780262
 20
-209.2241100019449
 30
0.0
 10
62.43232641646602
 20
-211.7155046229953
 30
0.0
 10
63.60754587875476
 20
-213.4137078588871
 30
0.0
 10
64.8516652267861
 20
-215.0588512665812
 30
0.0
 10
66.2020956011323
 20
-216.6319120046092
 30
0.0
 10
67.84364998349481
 20
-218.5440869546688
 30
0.0
 10
69.77675475948324
 20
-220.0883616279686
 30
0.0
 10
71.9012865301791
 20
-221.376502772211
 30
0.0
 10
73.30427648503928
 20
-222.2271655658161
 30
0.0
 10
74.85103225255764
 20
-222.8431551202807
 30
0.0
 10
76.34309986887938
 20
-223.543616028672
 30
0.0
 10
77.32370619517012
 20
-224.0039513339021
 30
0.0
 10
78.31360571333964
 20
-224.4466067444672
 30
0.0
 10
79.3132550253007
 20
-224.8638468867796
 30
0.0
 10
81.77775713661514
 20
-225.8925105644257
 30
0.0
 10
84.27953945118898
 20
-226.8241194765985
 30
0.0
 10
86.79017178519605
 20
-227.7348052775766
 30
0.0
 10
89.49555826461572
 20
-228.716136795141
 30
0.0
 10
92.21934982997445
 20
-229.6182008776415
 30
0.0
 10
95.04227772835182
 20
-230.2101718285294
 30
0.0
 10
97.40442714905386
 20
-230.7055244716552
 30
0.0
 10
99.78545168707592
 20
-230.9786059893692
 30
0.0
 10
102.1939126282894
 20
-230.8498106762
 30
0.0
 10
103.6909625772515
 20
-230.7697576172563
 30
0.0
 10
105.0680538030098
 20
-230.3263031533435
 30
0.0
 10
106.2783980389383
 20
-229.3394185507471
 30
0.0
 10
107.5208454182
 20
-228.3263733444231
 30
0.0
 10
108.5935510362594
 20
-227.1343804765619
 30
0.0
 10
109.8401816948128
 20
-226.1322198540783
 30
0.0
 10
110.0633660240509
 20
-225.952795446425
 30
0.0
 10
110.2806749610243
 20
-225.7660586934286
 30
0.0
 10
110.5007033652747
 20
-225.5826994516421
 30
0.0
  0
SPLINE
  5
42
330
1F
100
AcDbEntity
  8
Calque 1
 62
     7
420
 16777215
370
    70
100
AcDbSpline
210
0.0
220
0.0
230
1.0
 70
     8
 71
     3
 72
    62
 73
    58
 74
     0
 42
0.0000000001
 43
0.0000000001
 12
1.0
 22
0.0
 32
0.0
 13
1.0
 23
0.0
 33
0.0
 40
0.0
 40
0.0
 40
0.0
 40
0.0
 40
1.0
 40
1.0
 40
1.0
 40
2.0
 40
2.0
 40
2.0
 40
3.0
 40
3.0
 40
3.0
 40
4.0
 40
4.0
 40
4.0
 40
5.0
 40
5.0
 40
5.0
 40
6.0
 40
6.0
 40
6.0
 40
7.0
 40
7.0
 40
7.0
 40
8.0
 40
8.0
 40
8.0
 40
9.0
 40
9.0
 40
9.0
 40
10.0
 40
10.0
 40
10.0
 40
11.0
 40
11.0
 40
11.0
 40
12.0
 40
12.0
 40
12.0
 40
13.0
 40
13.0
 40
13.0
 40
14.0
 40
14.0
 40
14.0
 40
15.0
 40
15.0
 40
15.0
 40
16.0
 40
16.0
 40
16.0
 40
17.0
 40
17.0
 40
17.0
 40
18.0
 40
18.0
 40
18.0
 40
19.0
 40
19.0
 40
19.0
 40
19.0
 10
144.9901624462298
 20
-209.7406610603605
 30
0.0
 10
144.9362565615459
 20
-210.8088946655654
 30
0.0
 10
145.2646070549492
 20
-211.8114245984202
 30
0.0
 10
145.6678939799755
 20
-212.7585378314365
 30
0.0
 10
146.521538115484
 20
-214.7633156783164
 30
0.0
 10
147.4926363784071
 20
-216.7236352712738
 30
0.0
 10
148.7996727841727
 20
-218.4763352884431
 30
0.0
 10
149.6753143883186
 20
-219.6505542553635
 30
0.0
 10
150.8431006400509
 20
-220.5486365005923
 30
0.0
 10
152.0311385295767
 20
-221.4020791940795
 30
0.0
 10
153.6423255273503
 20
-222.559511325959
 30
0.0
 10
155.138220542061
 20
-223.8374125008265
 30
0.0
 10
156.5743678534943
 20
-225.2186534322075
 30
0.0
 10
157.8632610479472
 20
-226.458307482118
 30
0.0
 10
158.7644455002915
 20
-227.8931655646195
 30
0.0
 10
159.563028816865
 20
-229.4352848082999
 30
0.0
 10
160.1356613337854
 20
-230.541073920859
 30
0.0
 10
159.9472861856889
 20
-231.4085772673765
 30
0.0
 10
159.0178864210075
 20
-232.2395927492494
 30
0.0
 10
158.358056368149
 20
-232.8295828536027
 30
0.0
 10
157.5560351077594
 20
-233.0593610516447
 30
0.0
 10
156.7061243643647
 20
-233.109439537939
 30
0.0
 10
155.9569614901516
 20
-233.1535821993629
 30
0.0
 10
155.1985188535289
 20
-233.1716045454635
 30
0.0
 10
154.452458186432
 20
-233.1063641897599
 30
0.0
 10
153.3115443002328
 20
-233.0065966717439
 30
0.0
 10
152.1694754797832
 20
-232.8711672013666
 30
0.0
 10
151.0429445538477
 20
-232.6675764659886
 30
0.0
 10
149.4581733196952
 20
-232.3811796307199
 30
0.0
 10
147.8853811710278
 20
-232.0269841260875
 30
0.0
 10
146.3110177746009
 20
-231.6853451740658
 30
0.0
 10
145.361500666806
 20
-231.4793035607715
 30
0.0
 10
144.4196920736624
 20
-231.2562669556819
 30
0.0
 10
143.452609221681
 20
-231.1197161247242
 30
0.0
 10
142.3171208405674
 20
-230.9593817058797
 30
0.0
 10
141.1792688730802
 20
-230.8511871966732
 30
0.0
 10
140.0392144728351
 20
-230.8196279467964
 30
0.0
 10
137.9500324193691
 20
-230.7618006574465
 30
0.0
 10
135.8587016510174
 20
-230.7872159256992
 30
0.0
 10
133.7688078357453
 20
-230.7483443304781
 30
0.0
 10
132.1731318735501
 20
-230.7186652061251
 30
0.0
 10
130.5740179675381
 20
-230.6978562454082
 30
0.0
 10
128.9843046891498
 20
-230.5729689074365
 30
0.0
 10
127.4063421952896
 20
-230.4490082027594
 30
0.0
 10
125.8326234133282
 20
-230.2662398575663
 30
0.0
 10
124.2538148629825
 20
-230.1325830769692
 30
0.0
 10
121.4667100705831
 20
-229.8966407531004
 30
0.0
 10
118.6814854037082
 20
-229.8848765391037
 30
0.0
 10
115.891372410469
 20
-229.9823476180861
 30
0.0
 10
115.6899303899762
 20
-229.9893846593355
 30
0.0
 10
115.4880116233685
 20
-229.9820521697891
 30
0.0
 10
115.2863278724507
 20
-229.9834622639329
 30
0.0
 10
112.7009941225112
 20
-230.0015181837028
 30
0.0
 10
110.1156738020389
 20
-230.0270610319013
 30
0.0
 10
107.5303131931631
 20
-230.0327349821454
 30
0.0
 10
106.9619915354807
 20
-230.0339772079386
 30
0.0
 10
106.3935154389163
 20
-229.9649363127817
 30
0.0
 10
105.8251064896918
 20
-229.9282671503179
 30
0.0
  0
SPLINE
  5
43
330
1F
100
AcDbEntity
  8
Calque 1
 62
     7
420
 16777215
370
    70
100
AcDbSpline
210
0.0
220
0.0
230
1.0
 70
     8
 71
     3
 72
    35
 73
    31
 74
     0
 42
0.0000000001
 43
0.0000000001
 12
1.0
 22
0.0
 32
0.0
 13
1.0
 23
0.0
 33
0.0
 40
0.0
 40
0.0
 40
0.0
 40
0.0
 40
1.0
 40
1.0
 40
1.0
 40
2.0
 40
2.0
 40
2.0
 40
3.0
 40
3.0
 40
3.0
 40
4.0
 40
4.0
 40
4.0
 40
5.0
 40
5.0
 40
5.0
 40
6.0
 40
6.0
 40
6.0
 40
7.0
 40
7.0
 40
7.0
 40
8.0
 40
8.0
 40
8.0
 40
9.0
 40
9.0
 40
9.0
 40
10.0
 40
10.0
 40
10.0
 40
10.0
 10
70.5105476075322
 20
-195.438814784097
 30
0.0
 10
71.9333292409057
 20
-197.166972448436
 30
0.0
 10
73.85441128563787
 20
-198.1278710303885
 30
0.0
 10
75.90556108563527
 20
-198.8367656447045
 30
0.0
 10
78.0016593151385
 20
-199.5612048682683
 30
0.0
 10
80.1812552621359
 20
-199.9022394942287
 30
0.0
 10
82.39013416417926
 20
-200.1330383318411
 30
0.0
 10
84.9026734826472
 20
-200.3955441434794
 30
0.0
 10
87.41653560371623
 20
-200.3701087310252
 30
0.0
 10
89.92761111016851
 20
-200.3144704449653
 30
0.0
 10
92.44161424065211
 20
-200.2587582968311
 30
0.0
 10
94.95068204163354
 20
-200.0070833511611
 30
0.0
 10
97.46451058903288
 20
-199.9065436387332
 30
0.0
 10
99.09461970726404
 20
-199.8413368566995
 30
0.0
 10
100.7280929072378
 20
-199.8105833749047
 30
0.0
 10
102.3590816556254
 20
-199.7640838418407
 30
0.0
 10
105.1653905873118
 20
-199.6840777860349
 30
0.0
 10
107.9733446288324
 20
-199.649268604894
 30
0.0
 10
110.7781293158974
 20
-199.4298176677691
 30
0.0
 10
112.4279931816051
 20
-199.3007336210372
 30
0.0
 10
114.1291240415282
 20
-199.1998245982386
 30
0.0
 10
115.7263981104194
 20
-199.8943563964937
 30
0.0
 10
115.8393735102459
 20
-199.9434746758234
 30
0.0
 10
115.9540275935763
 20
-199.9966553692334
 30
0.0
 10
116.0630614445347
 20
-200.0441889713356
 30
0.0
 10
116.1907689707934
 20
-200.0998608310662
 30
0.0
 10
116.1908159739313
 20
-200.240554652912
 30
0.0
 10
116.3037846590235
 20
-200.2795336838774
 30
0.0
 10
116.1730756466599
 20
-200.6397455901887
 30
0.0
 10
115.9105698350221
 20
-200.3089979367418
 30
0.0
 10
115.7263846809515
 20
-200.3894538797262
 30
0.0
  0
SPLINE
  5
44
330
1F
100
AcDbEntity
  8
Calque 1
 62
     7
420
 16777215
370
    70
100
AcDbSpline
210
0.0
220
0.0
230
1.0
 70
     8
 71
     3
 72
    29
 73
    25
 74
     0
 42
0.0000000001
 43
0.0000000001
 12
1.0
 22
0.0
 32
0.0
 13
1.0
 23
0.0
 33
0.0
 40
0.0
 40
0.0
 40
0.0
 40
0.0
 40
1.0
 40
1.0
 40
1.0
 40
2.0
 40
2.0
 40
2.0
 40
3.0
 40
3.0
 40
3.0
 40
4.0
 40
4.0
 40
4.0
 40
5.0
 40
5.0
 40
5.0
 40
6.0
 40
6.0
 40
6.0
 40
7.0
 40
7.0
 40
7.0
 40
8.0
 40
8.0
 40
8.0
 40
8.0
 10
59.39911319289649
 20
-228.333061219504
 30
0.0
 10
59.59140974565906
 20
-228.9670596906006
 30
0.0
 10
60.02603433434006
 20
-229.4413414983825
 30
0.0
 10
60.44342220080095
 20
-229.9289721973892
 30
0.0
 10
62.01477403902162
 20
-231.7648006216819
 30
0.0
 10
63.99025550138797
 20
-233.1188267360942
 30
0.0
 10
66.01534541866742
 20
-234.3587292311632
 30
0.0
 10
68.53293757448286
 20
-235.9001904309095
 30
0.0
 10
71.08397246306701
 20
-237.4008126183687
 30
0.0
 10
73.75589942288295
 20
-238.6745305139439
 30
0.0
 10
76.34103173080244
 20
-239.9068856479785
 30
0.0
 10
78.99150511543557
 20
-240.9906840066339
 30
0.0
 10
81.73913398655286
 20
-241.785117617585
 30
0.0
 10
83.46130882288327
 20
-242.2830688627751
 30
0.0
 10
85.22541717314671
 20
-242.6518957728291
 30
0.0
 10
87.00936084769423
 20
-242.9311212721684
 30
0.0
 10
89.31415301042823
 20
-243.2918770719347
 30
0.0
 10
91.62330975027247
 20
-243.4163145227272
 30
0.0
 10
93.94326378241539
 20
-243.3405051756816
 30
0.0
 10
96.74936455734755
 20
-243.2488356268891
 30
0.0
 10
99.50690437587278
 20
-242.8093159971102
 30
0.0
 10
102.1954503023793
 20
-241.9774410292833
 30
0.0
 10
102.262382771055
 20
-241.956732789577
 30
0.0
 10
102.3413211841519
 20
-241.9748222830169
 30
0.0
 10
102.4146662238133
 20
-241.9748222830169
 30
0.0
  0
SPLINE
  5
45
330
1F
100
AcDbEntity
  8
Calque 1
 62
     7
420
 16777215
370
    70
100
AcDbSpline
210
0.0
220
0.0
230
1.0
 70
     8
 71
     3
 72
    83
 73
    79
 74
     0
 42
0.0000000001
 43
0.0000000001
 12
1.0
 22
0.0
 32
0.0
 13
1.0
 23
0.0
 33
0.0
 40
0.0
 40
0.0
 40
0.0
 40
0.0
 40
1.0
 40
1.0
 40
1.0
 40
2.0
 40
2.0
 40
2.0
 40
3.0
 40
3.0
 40
3.0
 40
4.0
 40
4.0
 40
4.0
 40
5.0
 40
5.0
 40
5.0
 40
6.0
 40
6.0
 40
6.0
 40
7.0
 40
7.0
 40
7.0
 40
8.0
 40
8.0
 40
8.0
 40
9.0
 40
9.0
 40
9.0
 40
10.0
 40
10.0
 40
10.0
 40
11.0
 40
11.0
 40
11.0
 40
12.0
 40
12.0
 40
12.0
 40
13.0
 40
13.0
 40
13.0
 40
14.0
 40
14.0
 40
14.0
 40
15.0
 40
15.0
 40
15.0
 40
16.0
 40
16.0
 40
16.0
 40
17.0
 40
17.0
 40
17.0
 40
18.0
 40
18.0
 40
18.0
 40
19.0
 40
19.0
 40
19.0
 40
20.0
 40
20.0
 40
20.0
 40
21.0
 40
21.0
 40
21.0
 40
22.0
 40
22.0
 40
22.0
 40
23.0
 40
23.0
 40
23.0
 40
24.0
 40
24.0
 40
24.0
 40
25.0
 40
25.0
 40
25.0
 40
26.0
 40
26.0
 40
26.0
 40
26.0
 10
106.265163298192
 20
-155.0636026041823
 30
0.0
 10
105.55460342984
 20
-154.7840380107756
 30
0.0
 10
105.2663869016532
 20
-154.0814821053713
 30
0.0
 10
104.7828857640664
 20
-153.5756242608766
 30
0.0
 10
103.6599740797657
 20
-152.4007808236927
 30
0.0
 10
102.3423485384566
 20
-151.4845117213802
 30
0.0
 10
100.9889603237759
 20
-150.6011616025836
 30
0.0
 10
99.01406304326903
 20
-149.3121509002854
 30
0.0
 10
96.92190636263359
 20
-148.2558074103402
 30
0.0
 10
94.76957223574276
 20
-147.3055852554737
 30
0.0
 10
92.76567401901876
 20
-146.4208972259245
 30
0.0
 10
90.67150963291245
 20
-145.9190934020924
 30
0.0
 10
88.50015937928701
 20
-145.639597634709
 30
0.0
 10
86.79363658794863
 20
-145.4199335047793
 30
0.0
 10
85.08738238597088
 20
-145.3878370761809
 30
0.0
 10
83.38277329382731
 20
-145.4522280180313
 30
0.0
 10
80.55046491202903
 20
-145.559217232482
 30
0.0
 10
77.76502537366562
 20
-145.9755340988674
 30
0.0
 10
75.18888409459396
 20
-147.2580785123075
 30
0.0
 10
73.46510443683366
 20
-148.1162685227448
 30
0.0
 10
72.13032275011234
 20
-149.4154872994314
 30
0.0
 10
71.11529333988669
 20
-151.0478794272283
 30
0.0
 10
70.23678118694878
 20
-152.4607232542572
 30
0.0
 10
69.36832099083337
 20
-153.8801072322184
 30
0.0
 10
68.46711975165401
 20
-155.2783666569636
 30
0.0
 10
68.20865285252664
 20
-155.6793940739937
 30
0.0
 10
67.74963699253078
 20
-155.9720154676957
 30
0.0
 10
67.56366907657889
 20
-156.394127149537
 30
0.0
 10
67.27068508724022
 20
-157.0591309049545
 30
0.0
 10
66.76036530199212
 20
-157.5027767387868
 30
0.0
 10
66.2708477627267
 20
-157.9746714586261
 30
0.0
 10
65.12491797021751
 20
-159.0793358532374
 30
0.0
 10
63.82527784397155
 20
-159.9690448251478
 30
0.0
 10
62.42846880177354
 20
-160.736552352693
 30
0.0
 10
59.84059016764158
 20
-162.1585114311496
 30
0.0
 10
57.04717016789941
 20
-163.0101646480212
 30
0.0
 10
54.23045004112027
 20
-163.8167250686067
 30
0.0
 10
53.06597079589096
 20
-164.1501720451278
 30
0.0
 10
51.92603390349149
 20
-164.5596936006891
 30
0.0
 10
50.86543495086309
 20
-165.171778537323
 30
0.0
 10
50.62213327851209
 20
-165.3121869829735
 30
0.0
 10
50.4525493135602
 20
-165.5021669525003
 30
0.0
 10
50.27416904704688
 20
-165.6860197272371
 30
0.0
 10
49.80595400144863
 20
-166.1686110183642
 30
0.0
 10
49.80448347469905
 20
-166.4474537778643
 30
0.0
 10
50.27325920058751
 20
-166.9400668095117
 30
0.0
 10
50.53899479928781
 20
-167.2193191677868
 30
0.0
 10
50.63232624474886
 20
-167.5989467275059
 30
0.0
 10
50.87681978238806
 20
-167.8769098568499
 30
0.0
 10
51.99127425919512
 20
-169.1439063036754
 30
0.0
 10
53.40234203907662
 20
-169.8844944625489
 30
0.0
 10
55.05336755376931
 20
-170.1915458196518
 30
0.0
 10
56.62503834185593
 20
-170.4838381913868
 30
0.0
 10
58.20672415572795
 20
-170.4941083770649
 30
0.0
 10
59.782806524063
 20
-170.2900946134442
 30
0.0
 10
60.92656074275069
 20
-170.1420414431162
 30
0.0
 10
62.05669076611935
 20
-169.8907190209821
 30
0.0
 10
63.19492883081252
 20
-169.697415258117
 30
0.0
 10
64.22018478094526
 20
-169.5232988477046
 30
0.0
 10
65.2495132172593
 20
-169.3731506803629
 30
0.0
 10
66.27463151534492
 20
-169.1982654329054
 30
0.0
 10
67.29620107650263
 20
-169.0239912262433
 30
0.0
 10
68.32649307714784
 20
-169.0113440247231
 30
0.0
 10
69.35518361373029
 20
-169.042470174256
 30
0.0
 10
70.40432051539234
 20
-169.074210721952
 30
0.0
 10
71.47940650666126
 20
-169.0078221467315
 30
0.0
 10
72.43579614472173
 20
-169.5854772846963
 30
0.0
 10
74.4153064474977
 20
-169.8292758473649
 30
0.0
 10
75.64973643434323
 20
-171.2840128999226
 30
0.0
 10
77.05147744867627
 20
-172.451742076416
 30
0.0
 10
78.49082768823509
 20
-173.6508022018297
 30
0.0
 10
79.80610307263838
 20
-175.0163507998138
 30
0.0
 10
81.51576835949625
 20
-175.8484809275334
 30
0.0
 10
82.77673497517495
 20
-176.4622210461029
 30
0.0
 10
84.08999593937313
 20
-176.7538385870691
 30
0.0
 10
85.5314814643492
 20
-176.5438117791362
 30
0.0
 10
86.46497721678078
 20
-176.4078014842666
 30
0.0
 10
87.3475618558997
 20
-176.1709459565709
 30
0.0
 10
88.22283414967461
 20
-175.8562868058274
 30
0.0
  0
SPLINE
  5
46
330
1F
100
AcDbEntity
  8
Calque 1
 62
     7
420
 16777215
370
    70
100
AcDbSpline
210
0.0
220
0.0
230
1.0
 70
     8
 71
     3
 72
    50
 73
    46
 74
     0
 42
0.0000000001
 43
0.0000000001
 12
1.0
 22
0.0
 32
0.0
 13
1.0
 23
0.0
 33
0.0
 40
0.0
 40
0.0
 40
0.0
 40
0.0
 40
1.0
 40
1.0
 40
1.0
 40
2.0
 40
2.0
 40
2.0
 40
3.0
 40
3.0
 40
3.0
 40
4.0
 40
4.0
 40
4.0
 40
5.0
 40
5.0
 40
5.0
 40
6.0
 40
6.0
 40
6.0
 40
7.0
 40
7.0
 40
7.0
 40
8.0
 40
8.0
 40
8.0
 40
9.0
 40
9.0
 40
9.0
 40
10.0
 40
10.0
 40
10.0
 40
11.0
 40
11.0
 40
11.0
 40
12.0
 40
12.0
 40
12.0
 40
13.0
 40
13.0
 40
13.0
 40
14.0
 40
14.0
 40
14.0
 40
15.0
 40
15.0
 40
15.0
 40
15.0
 10
108.0803976332563
 20
-173.5459885612005
 30
0.0
 10
109.0893737107665
 20
-173.4852101462504
 30
0.0
 10
110.007398716024
 20
-173.8590160315782
 30
0.0
 10
110.9402028508515
 20
-174.1528561495038
 30
0.0
 10
113.5685310426987
 20
-174.980802997931
 30
0.0
 10
116.0963598105223
 20
-176.0503056878655
 30
0.0
 10
118.5949794853742
 20
-177.2137911524601
 30
0.0
 10
121.0646586566157
 20
-178.363803503251
 30
0.0
 10
123.5153082716541
 20
-179.5553397692001
 30
0.0
 10
126.0574931408044
 20
-180.5578226989157
 30
0.0
 10
128.4983526736469
 20
-181.5203395317662
 30
0.0
 10
130.9395009400523
 20
-182.5100308931812
 30
0.0
 10
133.2696345089641
 20
-183.7299704840194
 30
0.0
 10
135.1172472914556
 20
-184.6972816369578
 30
0.0
 10
136.9438966743475
 20
-185.707251495102
 30
0.0
 10
138.5018895492426
 20
-187.1299290500984
 30
0.0
 10
139.4077474564628
 20
-187.9570969893795
 30
0.0
 10
140.1080002080998
 20
-188.9419738865044
 30
0.0
 10
140.8197082959686
 20
-189.9308460503696
 30
0.0
 10
141.9835328546314
 20
-191.5479285846094
 30
0.0
 10
143.0694262102997
 20
-193.2050980809265
 30
0.0
 10
143.9563217086567
 20
-194.9931578874263
 30
0.0
 10
144.1439985244163
 20
-195.3715130050497
 30
0.0
 10
144.2259854267566
 20
-195.7746052027903
 30
0.0
 10
144.3681632048206
 20
-196.160145085811
 30
0.0
 10
144.6925385756857
 20
-197.0398356745686
 30
0.0
 10
145.4011981743111
 20
-197.6391794034071
 30
0.0
 10
145.8768565025669
 20
-198.4051156831927
 30
0.0
 10
146.7565806649945
 20
-199.8217164039037
 30
0.0
 10
147.3699044700548
 20
-201.3517759852903
 30
0.0
 10
147.9057133856299
 20
-202.9197200959977
 30
0.0
 10
148.2267582484231
 20
-203.859191961704
 30
0.0
 10
148.8053937375547
 20
-204.6750791478376
 30
0.0
 10
149.2050009883399
 20
-205.569374283081
 30
0.0
 10
149.8904947546089
 20
-207.1034089870058
 30
0.0
 10
151.0902834286636
 20
-208.3237313176825
 30
0.0
 10
151.742579549955
 20
-209.8564029306019
 30
0.0
 10
152.4261797612311
 20
-211.462661313607
 30
0.0
 10
153.0040363412165
 20
-213.1139822765964
 30
0.0
 10
153.6259550058179
 20
-214.7464281222655
 30
0.0
 10
154.2417766919324
 20
-216.3629130451776
 30
0.0
 10
154.7526202264339
 20
-218.019713231124
 30
0.0
 10
155.490932090476
 20
-219.5895643262922
 30
0.0
 10
155.5452274297327
 20
-219.7049906040345
 30
0.0
 10
155.4433917736395
 20
-219.8797684157478
 30
0.0
 10
155.6065329513025
 20
-219.9719818579959
 30
0.0
  0
SPLINE
  5
47
330
1F
100
AcDbEntity
  8
Calque 1
 62
     7
420
 16777215
370
    70
100
AcDbSpline
210
0.0
220
0.0
230
1.0
 70
     8
 71
     3
 72
    23
 73
    19
 74
     0
 42
0.0000000001
 43
0.0000000001
 12
1.0
 22
0.0
 32
0.0
 13
1.0
 23
0.0
 33
0.0
 40
0.0
 40
0.0
 40
0.0
 40
0.0
 40
1.0
 40
1.0
 40
1.0
 40
2.0
 40
2.0
 40
2.0
 40
3.0
 40
3.0
 40
3.0
 40
4.0
 40
4.0
 40
4.0
 40
5.0
 40
5.0
 40
5.0
 40
6.0
 40
6.0
 40
6.0
 40
6.0
 10
159.9520939352446
 20
-182.2371105290836
 30
0.0
 10
162.7593899328312
 20
-186.0545241089635
 30
0.0
 10
165.7685711233561
 20
-189.724697001331
 30
0.0
 10
168.3154025884464
 20
-193.7321778422798
 30
0.0
 10
169.369763553173
 20
-195.3912341788563
 30
0.0
 10
170.3666061063153
 20
-197.081896768448
 30
0.0
 10
171.2272067062646
 20
-198.8499063791744
 30
0.0
 10
172.4571445360529
 20
-201.3766809337575
 30
0.0
 10
173.4282159400403
 20
-203.9927077328862
 30
0.0
 10
173.9242736302381
 20
-206.7702104556425
 30
0.0
 10
174.2331648244619
 20
-208.4997782141254
 30
0.0
 10
174.3529153909108
 20
-210.2339119917392
 30
0.0
 10
174.2707941938898
 20
-211.9967378278055
 30
0.0
 10
174.1787754789287
 20
-213.9719507008109
 30
0.0
 10
173.8277963318898
 20
-215.886536240382
 30
0.0
 10
173.2650747623773
 20
-217.7720738405986
 30
0.0
 10
173.2550160908208
 20
-217.8057415169569
 30
0.0
 10
173.2638123923826
 20
-217.845042855155
 30
0.0
 10
173.2638123923826
 20
-217.8817120176188
 30
0.0
  0
SPLINE
  5
48
330
1F
100
AcDbEntity
  8
Calque 1
 62
     7
420
 16777215
370
    70
100
AcDbSpline
210
0.0
220
0.0
230
1.0
 70
     8
 71
     3
 72
    23
 73
    19
 74
     0
 42
0.0000000001
 43
0.0000000001
 12
1.0
 22
0.0
 32
0.0
 13
1.0
 23
0.0
 33
0.0
 40
0.0
 40
0.0
 40
0.0
 40
0.0
 40
1.0
 40
1.0
 40
1.0
 40
2.0
 40
2.0
 40
2.0
 40
3.0
 40
3.0
 40
3.0
 40
4.0
 40
4.0
 40
4.0
 40
5.0
 40
5.0
 40
5.0
 40
6.0
 40
6.0
 40
6.0
 40
6.0
 10
53.34833207601552
 20
-209.1905900497351
 30
0.0
 10
53.41966941020599
 20
-210.5777600912523
 30
0.0
 10
53.77880695907447
 20
-211.9093724235175
 30
0.0
 10
54.24009911390183
 20
-213.2019520069451
 30
0.0
 10
55.13425659709815
 20
-215.7074744283664
 30
0.0
 10
56.54541502588891
 20
-217.9144329164803
 30
0.0
 10
58.41756680384351
 20
-219.7984328426073
 30
0.0
 10
59.9955192256023
 20
-221.3863667164811
 30
0.0
 10
61.80038601134528
 20
-222.7068795934172
 30
0.0
 10
63.80631543510908
 20
-223.6990554064186
 30
0.0
 10
66.33829726592151
 20
-224.9514204478219
 30
0.0
 10
69.01730827012473
 20
-225.8039969406214
 30
0.0
 10
71.83234635603257
 20
-226.1181793452495
 30
0.0
 10
73.62053038511172
 20
-226.3177412402179
 30
0.0
 10
75.4242019481997
 20
-226.3916838912069
 30
0.0
 10
77.22189739801294
 20
-226.1361949766158
 30
0.0
 10
77.40163068343085
 20
-226.1106454136831
 30
0.0
 10
77.58812570600296
 20
-226.1327771770017
 30
0.0
 10
77.7714849477895
 20
-226.1327771770017
 30
0.0
  0
SPLINE
  5
49
330
1F
100
AcDbEntity
  8
Calque 1
 62
     7
420
 16777215
370
    70
100
AcDbSpline
210
0.0
220
0.0
230
1.0
 70
     8
 71
     3
 72
    26
 73
    22
 74
     0
 42
0.0000000001
 43
0.0000000001
 12
1.0
 22
0.0
 32
0.0
 13
1.0
 23
0.0
 33
0.0
 40
0.0
 40
0.0
 40
0.0
 40
0.0
 40
1.0
 40
1.0
 40
1.0
 40
2.0
 40
2.0
 40
2.0
 40
3.0
 40
3.0
 40
3.0
 40
4.0
 40
4.0
 40
4.0
 40
5.0
 40
5.0
 40
5.0
 40
6.0
 40
6.0
 40
6.0
 40
7.0
 40
7.0
 40
7.0
 40
7.0
 10
161.9323495734965
 20
-199.949397071226
 30
0.0
 10
161.8263910707172
 20
-198.7072652844634
 30
0.0
 10
161.5031303456983
 20
-197.5111898583199
 30
0.0
 10
161.1621427228764
 20
-196.3189619747674
 30
0.0
 10
160.3440195303149
 20
-193.4584248511646
 30
0.0
 10
159.1597284623702
 20
-190.7553952433842
 30
0.0
 10
157.5805707458553
 20
-188.2367858053659
 30
0.0
 10
155.8224653678026
 20
-185.4327733127128
 30
0.0
 10
153.7384939479331
 20
-182.9193006462165
 30
0.0
 10
150.9321783015127
 20
-181.0800611370433
 30
0.0
 10
149.3883669448607
 20
-180.0682783007146
 30
0.0
 10
147.7247244449512
 20
-179.3207538216023
 30
0.0
 10
145.9217646436685
 20
-178.953961475955
 30
0.0
 10
144.7345190927566
 20
-178.7124324933842
 30
0.0
 10
143.511860034642
 20
-178.6859965855617
 30
0.0
 10
142.2945190458681
 20
-178.7672381524258
 30
0.0
 10
142.0914117713393
 20
-178.7808019151391
 30
0.0
 10
141.9481730653007
 20
-178.9485695445394
 30
0.0
 10
141.7323615140126
 20
-178.8781655583772
 30
0.0
 10
141.6375226107652
 20
-179.3331223616603
 30
0.0
 10
141.9611190724842
 20
-179.5410709594149
 30
0.0
 10
142.129793190977
 20
-179.8167980823316
 30
0.0
  0
SPLINE
  5
4A
330
1F
100
AcDbEntity
  8
Calque 1
 62
     7
420
 16777215
370
    70
100
AcDbSpline
210
0.0
220
0.0
230
1.0
 70
     8
 71
     3
 72
    53
 73
    49
 74
     0
 42
0.0000000001
 43
0.0000000001
 12
1.0
 22
0.0
 32
0.0
 13
1.0
 23
0.0
 33
0.0
 40
0.0
 40
0.0
 40
0.0
 40
0.0
 40
1.0
 40
1.0
 40
1.0
 40
2.0
 40
2.0
 40
2.0
 40
3.0
 40
3.0
 40
3.0
 40
4.0
 40
4.0
 40
4.0
 40
5.0
 40
5.0
 40
5.0
 40
6.0
 40
6.0
 40
6.0
 40
7.0
 40
7.0
 40
7.0
 40
8.0
 40
8.0
 40
8.0
 40
9.0
 40
9.0
 40
9.0
 40
10.0
 40
10.0
 40
10.0
 40
11.0
 40
11.0
 40
11.0
 40
12.0
 40
12.0
 40
12.0
 40
13.0
 40
13.0
 40
13.0
 40
14.0
 40
14.0
 40
14.0
 40
15.0
 40
15.0
 40
15.0
 40
16.0
 40
16.0
 40
16.0
 40
16.0
 10
116.3314627926392
 20
-200.3069432281325
 30
0.0
 10
117.1649627260984
 20
-199.9013128609346
 30
0.0
 10
118.0578209082623
 20
-199.7453967370732
 30
0.0
 10
118.971864076248
 20
-199.7344248616905
 30
0.0
 10
120.5860525601265
 20
-199.7150528540525
 30
0.0
 10
122.1991935454989
 20
-199.7489018282294
 30
0.0
 10
123.8129657158682
 20
-199.8285452883982
 30
0.0
 10
125.1149392121846
 20
-199.8928052929356
 30
0.0
 10
126.4417303654261
 20
-199.9437096915141
 30
0.0
 10
127.713507702871
 20
-199.6548754077974
 30
0.0
 10
130.0463473095914
 20
-199.1250560349656
 30
0.0
 10
130.6975019261002
 20
-197.6941462160658
 30
0.0
 10
129.9120257703273
 20
-195.4960310326508
 30
0.0
 10
129.5477313057342
 20
-194.4765933995429
 30
0.0
 10
128.9409543663399
 20
-193.5831980386577
 30
0.0
 10
128.264881371896
 20
-192.7459848572874
 30
0.0
 10
126.5180164585872
 20
-190.5827460023539
 30
0.0
 10
124.4940277576858
 20
-188.7056689669986
 30
0.0
 10
122.3339985456121
 20
-186.959354661879
 30
0.0
 10
120.5277015215238
 20
-185.4990141637847
 30
0.0
 10
118.6561574269982
 20
-184.1332238353757
 30
0.0
 10
116.6527829595273
 20
-182.9671901292215
 30
0.0
 10
115.2571523531497
 20
-182.1548751815848
 30
0.0
 10
113.7782523302342
 20
-181.4895054731628
 30
0.0
 10
112.2624548438985
 20
-180.9129515515764
 30
0.0
 10
109.5293902308631
 20
-179.8734032900899
 30
0.0
 10
106.7082215927978
 20
-179.1224542966293
 30
0.0
 10
103.8976085166069
 20
-178.3396707491964
 30
0.0
 10
102.4659466474969
 20
-177.9409431285667
 30
0.0
 10
101.0420671551119
 20
-177.4894376985683
 30
0.0
 10
99.59999744827638
 20
-177.162483869841
 30
0.0
 10
98.37856047175254
 20
-176.8855480948011
 30
0.0
 10
97.08333528312245
 20
-176.9256081979432
 30
0.0
 10
95.81190039711241
 20
-177.1663649861021
 30
0.0
 10
93.77501269216596
 20
-177.5520727374734
 30
0.0
 10
91.99235153181526
 20
-178.5193100283376
 30
0.0
 10
90.20276748069367
 20
-179.4861511498947
 30
0.0
 10
88.29441321428968
 20
-180.5171515549787
 30
0.0
 10
86.41459656745545
 20
-181.6147419773037
 30
0.0
 10
84.31599374216401
 20
-182.232584798357
 30
0.0
 10
82.91773767478567
 20
-182.6442382819674
 30
0.0
 10
81.4890504328449
 20
-182.8632661908495
 30
0.0
 10
80.0280653202854
 20
-182.96986259336
 30
0.0
 10
77.73887148467162
 20
-183.1368848872848
 30
0.0
 10
75.42013953411977
 20
-183.134534730379
 30
0.0
 10
73.20516365358957
 20
-183.8851681313411
 30
0.0
 10
72.02040926899778
 20
-184.2866689371193
 30
0.0
 10
70.91878329152888
 20
-184.8331072766421
 30
0.0
 10
69.96047659690682
 20
-185.6475507949619
 30
0.0
  0
SPLINE
  5
4B
330
1F
100
AcDbEntity
  8
Calque 1
 62
     7
420
 16777215
370
    70
100
AcDbSpline
210
0.0
220
0.0
230
1.0
 70
     8
 71
     3
 72
    26
 73
    22
 74
     0
 42
0.0000000001
 43
0.0000000001
 12
1.0
 22
0.0
 32
0.0
 13
1.0
 23
0.0
 33
0.0
 40
0.0
 40
0.0
 40
0.0
 40
0.0
 40
1.0
 40
1.0
 40
1.0
 40
2.0
 40
2.0
 40
2.0
 40
3.0
 40
3.0
 40
3.0
 40
4.0
 40
4.0
 40
4.0
 40
5.0
 40
5.0
 40
5.0
 40
6.0
 40
6.0
 40
6.0
 40
7.0
 40
7.0
 40
7.0
 40
7.0
 10
42.45692606562989
 20
-190.1581330820915
 30
0.0
 10
42.35713672472837
 20
-191.4241827514202
 30
0.0
 10
42.24717624047529
 20
-192.6900309787289
 30
0.0
 10
42.14836221468973
 20
-193.9553017389121
 30
0.0
 10
42.05105564669056
 20
-195.2012676387973
 30
0.0
 10
41.94618157345529
 20
-196.4477841468729
 30
0.0
 10
41.84417637032801
 20
-197.6934747426639
 30
0.0
 10
41.63418313606542
 20
-200.257932384547
 30
0.0
 10
41.58038636580942
 20
-202.826130133277
 30
0.0
 10
41.64387249725124
 20
-205.394804628122
 30
0.0
 10
41.67802027709157
 20
-206.7764282993415
 30
0.0
 10
41.84222238272927
 20
-208.1506053305373
 30
0.0
 10
42.05104725327323
 20
-209.5238020105663
 30
0.0
 10
42.3066838920125
 20
-211.2048289568438
 30
0.0
 10
42.68901413217368
 20
-212.8486294177353
 30
0.0
 10
43.17814557423314
 20
-214.4694251998855
 30
0.0
 10
43.66661057894153
 20
-216.0880051198106
 30
0.0
 10
44.33840628781668
 20
-217.6365302197427
 30
0.0
 10
45.09630335230113
 20
-219.1473588029063
 30
0.0
 10
45.14042083347271
 20
-219.2353016743199
 30
0.0
 10
45.17061195629397
 20
-219.3302345838437
 30
0.0
 10
45.20728111875784
 20
-219.4219108473698
 30
0.0
  0
SPLINE
  5
4C
330
1F
100
AcDbEntity
  8
Calque 1
 62
     7
420
 16777215
370
    70
100
AcDbSpline
210
0.0
220
0.0
230
1.0
 70
     8
 71
     3
 72
    20
 73
    16
 74
     0
 42
0.0000000001
 43
0.0000000001
 12
1.0
 22
0.0
 32
0.0
 13
1.0
 23
0.0
 33
0.0
 40
0.0
 40
0.0
 40
0.0
 40
0.0
 40
1.0
 40
1.0
 40
1.0
 40
2.0
 40
2.0
 40
2.0
 40
3.0
 40
3.0
 40
3.0
 40
4.0
 40
4.0
 40
4.0
 40
5.0
 40
5.0
 40
5.0
 40
5.0
 10
166.1128892542505
 20
-220.0819960601204
 30
0.0
 10
167.0412952382972
 20
-221.6214898428001
 30
0.0
 10
167.4962050384424
 20
-223.3134148023873
 30
0.0
 10
167.5250918241806
 20
-225.0879377051096
 30
0.0
 10
167.5536831616225
 20
-226.8453178918882
 30
0.0
 10
167.1978291176884
 20
-228.5566551475169
 30
0.0
 10
166.555443943805
 20
-230.2042762920631
 30
0.0
 10
165.21338348541
 20
-233.6464033877646
 30
0.0
 10
163.0332167860213
 20
-236.4547065954543
 30
0.0
 10
160.051163120923
 20
-238.6042138193238
 30
0.0
 10
158.2710871331687
 20
-239.8872920541184
 30
0.0
 10
156.3078063425099
 20
-240.809789072231
 30
0.0
 10
154.0686305605851
 20
-241.0602352215757
 30
0.0
 10
153.3805717659218
 20
-241.1372129323402
 30
0.0
 10
152.7108441951232
 20
-241.1262007685533
 30
0.0
 10
152.0310713822367
 20
-241.0947086660159
 30
0.0
  0
SPLINE
  5
4D
330
1F
100
AcDbEntity
  8
Calque 1
 62
     7
420
 16777215
370
    70
100
AcDbSpline
210
0.0
220
0.0
230
1.0
 70
     8
 71
     3
 72
    26
 73
    22
 74
     0
 42
0.0000000001
 43
0.0000000001
 12
1.0
 22
0.0
 32
0.0
 13
1.0
 23
0.0
 33
0.0
 40
0.0
 40
0.0
 40
0.0
 40
0.0
 40
1.0
 40
1.0
 40
1.0
 40
2.0
 40
2.0
 40
2.0
 40
3.0
 40
3.0
 40
3.0
 40
4.0
 40
4.0
 40
4.0
 40
5.0
 40
5.0
 40
5.0
 40
6.0
 40
6.0
 40
6.0
 40
7.0
 40
7.0
 40
7.0
 40
7.0
 10
147.4104748929825
 20
-237.6842684001377
 30
0.0
 10
145.7285817460161
 20
-239.1678217337268
 30
0.0
 10
143.9817034032388
 20
-240.5688241273179
 30
0.0
 10
142.072503080349
 20
-241.7511007750575
 30
0.0
 10
139.9056315543123
 20
-243.0929329324961
 30
0.0
 10
137.6248109920172
 20
-244.1912619755624
 30
0.0
 10
135.2027661438886
 20
-245.0116413187532
 30
0.0
 10
132.9948541635441
 20
-245.7594478166947
 30
0.0
 10
130.7481713089886
 20
-246.2708822477896
 30
0.0
 10
128.4347372835757
 20
-246.5543648884949
 30
0.0
 10
126.7858403395663
 20
-246.756411235049
 30
0.0
 10
125.1343045050884
 20
-246.7925365040574
 30
0.0
 10
123.4823053539634
 20
-246.8032935079521
 30
0.0
 10
121.8280836258791
 20
-246.8140773707826
 30
0.0
 10
120.1701687940852
 20
-246.718795295089
 30
0.0
 10
118.5335329543902
 20
-246.4735060614692
 30
0.0
 10
116.8521165535393
 20
-246.221488664365
 30
0.0
 10
115.1709956009848
 20
-245.9451370711849
 30
0.0
 10
113.5254560239838
 20
-245.4976537668625
 30
0.0
 10
113.4571604643025
 20
-245.4790808125728
 30
0.0
 10
113.3794172738602
 20
-245.4952767510203
 30
0.0
 10
113.3060722341989
 20
-245.4952767510203
 30
0.0
  0
SPLINE
  5
4E
330
1F
100
AcDbEntity
  8
Calque 1
 62
     7
420
 16777215
370
    70
100
AcDbSpline
210
0.0
220
0.0
230
1.0
 70
     8
 71
     3
 72
    23
 73
    19
 74
     0
 42
0.0000000001
 43
0.0000000001
 12
1.0
 22
0.0
 32
0.0
 13
1.0
 23
0.0
 33
0.0
 40
0.0
 40
0.0
 40
0.0
 40
0.0
 40
1.0
 40
1.0
 40
1.0
 40
2.0
 40
2.0
 40
2.0
 40
3.0
 40
3.0
 40
3.0
 40
4.0
 40
4.0
 40
4.0
 40
5.0
 40
5.0
 40
5.0
 40
6.0
 40
6.0
 40
6.0
 40
6.0
 10
130.5232948667782
 20
-192.7434668320317
 30
0.0
 10
130.5689953464938
 20
-193.0991530076157
 30
0.0
 10
130.900837501586
 20
-193.1189077550916
 30
0.0
 10
131.1310723015408
 20
-193.2330850923071
 30
0.0
 10
133.3503053234376
 20
-194.3336635712691
 30
0.0
 10
135.5541481749682
 20
-195.463404140065
 30
0.0
 10
137.5593020469529
 20
-196.9307011026002
 30
0.0
 10
138.4319220207917
 20
-197.5692521633598
 30
0.0
 10
139.2779650773932
 20
-198.2503947819859
 30
0.0
 10
140.0887960688125
 20
-198.96575568516
 30
0.0
 10
141.6572102109011
 20
-200.3495079270625
 30
0.0
 10
143.3501423805901
 20
-201.5742284085208
 30
0.0
 10
144.9994153497044
 20
-202.8528413451945
 30
0.0
 10
146.3501243855126
 20
-203.8999839708538
 30
0.0
 10
147.6858461349958
 20
-204.9560639074886
 30
0.0
 10
148.8962172298604
 20
-206.164648883105
 30
0.0
 10
149.0950136451511
 20
-206.3631431353651
 30
0.0
 10
149.2643726665131
 20
-206.6225131662172
 30
0.0
 10
149.6107589354841
 20
-206.5502491987327
 30
0.0
  0
SPLINE
  5
4F
330
1F
100
AcDbEntity
  8
Calque 1
 62
     7
420
 16777215
370
    70
100
AcDbSpline
210
0.0
220
0.0
230
1.0
 70
     8
 71
     3
 72
    17
 73
    13
 74
     0
 42
0.0000000001
 43
0.0000000001
 12
1.0
 22
0.0
 32
0.0
 13
1.0
 23
0.0
 33
0.0
 40
0.0
 40
0.0
 40
0.0
 40
0.0
 40
1.0
 40
1.0
 40
1.0
 40
2.0
 40
2.0
 40
2.0
 40
3.0
 40
3.0
 40
3.0
 40
4.0
 40
4.0
 40
4.0
 40
4.0
 10
138.8843742282863
 20
-210.8958101826742
 30
0.0
 10
137.6328552433691
 20
-209.5609277749429
 30
0.0
 10
136.0265968603641
 20
-209.0357281391141
 30
0.0
 10
134.2650669679631
 20
-208.7960927115363
 30
0.0
 10
132.1629791957173
 20
-208.5101256192446
 30
0.0
 10
130.0738911485271
 20
-208.704396303808
 30
0.0
 10
127.9951102180518
 20
-208.9348661194534
 30
0.0
 10
125.9976245723142
 20
-209.1563247620492
 30
0.0
 10
124.0087405008512
 20
-209.4474621995337
 30
0.0
 10
121.9971069105405
 20
-209.5181683487265
 30
0.0
 10
121.96112936568
 20
-209.5194307187212
 30
0.0
 10
121.9238491624213
 20
-209.4839567789126
 30
0.0
 10
121.8871799999574
 20
-209.4656255550478
 30
0.0
  0
SPLINE
  5
50
330
1F
100
AcDbEntity
  8
Calque 1
 62
     7
420
 16777215
370
    70
100
AcDbSpline
210
0.0
220
0.0
230
1.0
 70
     8
 71
     3
 72
    17
 73
    13
 74
     0
 42
0.0000000001
 43
0.0000000001
 12
1.0
 22
0.0
 32
0.0
 13
1.0
 23
0.0
 33
0.0
 40
0.0
 40
0.0
 40
0.0
 40
0.0
 40
1.0
 40
1.0
 40
1.0
 40
2.0
 40
2.0
 40
2.0
 40
3.0
 40
3.0
 40
3.0
 40
4.0
 40
4.0
 40
4.0
 40
4.0
 10
144.9901624462298
 20
-199.069283454225
 30
0.0
 10
142.8543935681579
 20
-197.3749747640628
 30
0.0
 10
140.3657251291181
 20
-196.3438400642982
 30
0.0
 10
137.8967845786186
 20
-195.2679650917827
 30
0.0
 10
135.9674400536794
 20
-194.427226675054
 30
0.0
 10
134.0094504734257
 20
-193.6651647967959
 30
0.0
 10
132.0061498680296
 20
-193.0258348268901
 30
0.0
 10
130.8455349522267
 20
-192.6554433838102
 30
0.0
 10
129.6601695268388
 20
-192.3630368615968
 30
0.0
 10
128.489267638523
 20
-192.0241039473836
 30
0.0
 10
128.2788883070542
 20
-191.9632080245887
 30
0.0
 10
128.0846444814271
 20
-191.9374503049018
 30
0.0
 10
127.8829540157758
 20
-192.0283745182181
 30
0.0
  0
SPLINE
  5
51
330
1F
100
AcDbEntity
  8
Calque 1
 62
     7
420
 16777215
370
    70
100
AcDbSpline
210
0.0
220
0.0
230
1.0
 70
     8
 71
     3
 72
    14
 73
    10
 74
     0
 42
0.0000000001
 43
0.0000000001
 12
1.0
 22
0.0
 32
0.0
 13
1.0
 23
0.0
 33
0.0
 40
0.0
 40
0.0
 40
0.0
 40
0.0
 40
1.0
 40
1.0
 40
1.0
 40
2.0
 40
2.0
 40
2.0
 40
3.0
 40
3.0
 40
3.0
 40
3.0
 10
129.9732238561528
 20
-198.3541911404121
 30
0.0
 10
132.6901395338785
 20
-199.5534829241498
 30
0.0
 10
134.729350536795
 20
-201.517509050284
 30
0.0
 10
136.3590970593891
 20
-203.9615446523164
 30
0.0
 10
137.2543322573951
 20
-205.3040818568263
 30
0.0
 10
137.8836639883508
 20
-206.7649528189076
 30
0.0
 10
138.2506913496882
 20
-208.3172381698886
 30
0.0
 10
138.3978648898607
 20
-208.9397343016156
 30
0.0
 10
138.569117466215
 20
-209.6186207696123
 30
0.0
 10
138.3893103187232
 20
-210.2907320709859
 30
0.0
  0
SPLINE
  5
52
330
1F
100
AcDbEntity
  8
Calque 1
 62
     7
420
 16777215
370
    70
100
AcDbSpline
210
0.0
220
0.0
230
1.0
 70
     8
 71
     3
 72
    26
 73
    22
 74
     0
 42
0.0000000001
 43
0.0000000001
 12
1.0
 22
0.0
 32
0.0
 13
1.0
 23
0.0
 33
0.0
 40
0.0
 40
0.0
 40
0.0
 40
0.0
 40
1.0
 40
1.0
 40
1.0
 40
2.0
 40
2.0
 40
2.0
 40
3.0
 40
3.0
 40
3.0
 40
4.0
 40
4.0
 40
4.0
 40
5.0
 40
5.0
 40
5.0
 40
6.0
 40
6.0
 40
6.0
 40
7.0
 40
7.0
 40
7.0
 40
7.0
 10
116.2214485905147
 20
-200.4994680818514
 30
0.0
 10
116.9896544503975
 20
-201.2724481176207
 30
0.0
 10
117.7737339414957
 20
-202.0270969295244
 30
0.0
 10
118.5740160857751
 20
-202.7685042859477
 30
0.0
 10
119.8083319221421
 20
-203.912030203679
 30
0.0
 10
121.0116458315558
 20
-205.093541371741
 30
0.0
 10
121.8393912379624
 20
-206.6012946067254
 30
0.0
 10
122.7719200686957
 20
-208.2999141561264
 30
0.0
 10
121.9576377039917
 20
-209.60136390319
 30
0.0
 10
120.1827454908981
 20
-210.2927397764568
 30
0.0
 10
119.7387068451262
 20
-210.4656911805184
 30
0.0
 10
119.2436295060952
 20
-210.5177236544115
 30
0.0
 10
118.8370792203363
 20
-210.8243251243353
 30
0.0
 10
119.6301564550163
 20
-212.3469380656976
 30
0.0
 10
120.144995256258
 20
-213.9361074506311
 30
0.0
 10
120.2244037007362
 20
-215.6270117706471
 30
0.0
 10
120.2960566274252
 20
-217.1528746432735
 30
0.0
 10
119.9157005190652
 20
-218.5323563143422
 30
0.0
 10
118.4710859280372
 20
-219.356992798899
 30
0.0
 10
118.0681347397115
 20
-219.5870194421001
 30
0.0
 10
117.5966261170781
 20
-219.6969463526825
 30
0.0
 10
117.156569308578
 20
-219.8619676558707
 30
0.0
  0
SPLINE
  5
53
330
1F
100
AcDbEntity
  8
Calque 1
 62
     7
420
 16777215
370
    70
100
AcDbSpline
210
0.0
220
0.0
230
1.0
 70
     8
 71
     3
 72
    23
 73
    19
 74
     0
 42
0.0000000001
 43
0.0000000001
 12
1.0
 22
0.0
 32
0.0
 13
1.0
 23
0.0
 33
0.0
 40
0.0
 40
0.0
 40
0.0
 40
0.0
 40
1.0
 40
1.0
 40
1.0
 40
2.0
 40
2.0
 40
2.0
 40
3.0
 40
3.0
 40
3.0
 40
4.0
 40
4.0
 40
4.0
 40
5.0
 40
5.0
 40
5.0
 40
6.0
 40
6.0
 40
6.0
 40
6.0
 10
75.79122930953737
 20
-158.9140996785614
 30
0.0
 10
75.62191057657931
 20
-159.2744492369195
 30
0.0
 10
75.25761611198622
 20
-159.4146864568526
 30
0.0
 10
74.96244983409211
 20
-159.6240149324479
 30
0.0
 10
74.16949346462455
 20
-160.1863705489559
 30
0.0
 10
73.42623955634647
 20
-160.8106192262609
 30
0.0
 10
72.88535765922242
 20
-161.6158333426757
 30
0.0
 10
72.04925912369924
 20
-162.8605301578326
 30
0.0
 10
71.7999611938714
 20
-163.815301544995
 30
0.0
 10
72.50635456976636
 20
-165.6657042994703
 30
0.0
 10
72.06245693340838
 20
-165.8734480978375
 30
0.0
 10
71.54674521674502
 20
-165.855721200034
 30
0.0
 10
71.11071724865442
 20
-166.1116667165378
 30
0.0
 10
70.37577953845577
 20
-166.5430581607901
 30
0.0
 10
70.00268541493412
 20
-167.5532563198913
 30
0.0
 10
70.57218550843614
 20
-168.4260005163091
 30
0.0
 10
70.69916784342081
 20
-168.6205935081053
 30
0.0
 10
70.86139581725764
 20
-168.7825831088847
 30
0.0
 10
70.8405902139075
 20
-169.0354062740709
 30
0.0
  0
SPLINE
  5
54
330
1F
100
AcDbEntity
  8
Calque 1
 62
     7
420
 16777215
370
    70
100
AcDbSpline
210
0.0
220
0.0
230
1.0
 70
     8
 71
     3
 72
    17
 73
    13
 74
     0
 42
0.0000000001
 43
0.0000000001
 12
1.0
 22
0.0
 32
0.0
 13
1.0
 23
0.0
 33
0.0
 40
0.0
 40
0.0
 40
0.0
 40
0.0
 40
1.0
 40
1.0
 40
1.0
 40
2.0
 40
2.0
 40
2.0
 40
3.0
 40
3.0
 40
3.0
 40
4.0
 40
4.0
 40
4.0
 40
4.0
 10
116.8265267022023
 20
-219.7519534537455
 30
0.0
 10
117.4317861117092
 20
-220.0621943095061
 30
0.0
 10
117.5263564255966
 20
-220.6933188744441
 30
0.0
 10
117.6945806569097
 20
-221.2408517156116
 30
0.0
 10
118.1907189239153
 20
-222.855651240285
 30
0.0
 10
117.2643273600731
 20
-223.9289947580769
 30
0.0
 10
115.8314702683082
 20
-224.5817609107496
 30
0.0
 10
114.4800158970244
 20
-225.1974415874493
 30
0.0
 10
113.0247718820487
 20
-225.4221837349791
 30
0.0
 10
111.5457442791868
 20
-225.4696031866035
 30
0.0
 10
110.9596084321595
 20
-225.4884044418495
 30
0.0
 10
110.3723579392847
 20
-225.4726919642511
 30
0.0
 10
109.7856177661954
 20
-225.4726919642511
 30
0.0
  0
SPLINE
  5
55
330
1F
100
AcDbEntity
  8
Calque 1
 62
     7
420
 16777215
370
    70
100
AcDbSpline
210
0.0
220
0.0
230
1.0
 70
     8
 71
     3
 72
    14
 73
    10
 74
     0
 42
0.0000000001
 43
0.0000000001
 12
1.0
 22
0.0
 32
0.0
 13
1.0
 23
0.0
 33
0.0
 40
0.0
 40
0.0
 40
0.0
 40
0.0
 40
1.0
 40
1.0
 40
1.0
 40
2.0
 40
2.0
 40
2.0
 40
3.0
 40
3.0
 40
3.0
 40
3.0
 10
74.30603758084867
 20
-173.6009956622628
 30
0.0
 10
74.2946225330205
 20
-174.119346269395
 30
0.0
 10
73.93283937894957
 20
-174.5258361225469
 30
0.0
 10
73.86181763725791
 20
-175.0305927506626
 30
0.0
 10
73.54055118824192
 20
-177.3138608335067
 30
0.0
 10
73.8184135965756
 20
-179.4125979534785
 30
0.0
 10
75.6833168191594
 20
-181.0245235719933
 30
0.0
 10
76.37525673008416
 20
-181.6225982161029
 30
0.0
 10
77.20907225604158
 20
-181.7936896388408
 30
0.0
 10
78.1015275541648
 20
-181.7420466195211
 30
0.0
  0
SPLINE
  5
56
330
1F
100
AcDbEntity
  8
Calque 1
 62
     7
420
 16777215
370
    70
100
AcDbSpline
210
0.0
220
0.0
230
1.0
 70
     8
 71
     3
 72
    11
 73
     7
 74
     0
 42
0.0000000001
 43
0.0000000001
 12
1.0
 22
0.0
 32
0.0
 13
1.0
 23
0.0
 33
0.0
 40
0.0
 40
0.0
 40
0.0
 40
0.0
 40
1.0
 40
1.0
 40
1.0
 40
2.0
 40
2.0
 40
2.0
 40
2.0
 10
97.68405553243382
 20
-163.4246819656904
 30
0.0
 10
96.32493964963724
 20
-161.6217020202062
 30
0.0
 10
94.58380240444437
 20
-160.3406482777178
 30
0.0
 10
92.45933442372137
 20
-159.5715560729445
 30
0.0
 10
91.23812574815423
 20
-159.1294613426696
 30
0.0
 10
90.01603744243091
 20
-159.0104829706327
 30
0.0
 10
88.77290516030001
 20
-159.4641706891868
 30
0.0
  0
SPLINE
  5
57
330
1F
100
AcDbEntity
  8
Calque 1
 62
     7
420
 16777215
370
    70
100
AcDbSpline
210
0.0
220
0.0
230
1.0
 70
     8
 71
     3
 72
    20
 73
    16
 74
     0
 42
0.0000000001
 43
0.0000000001
 12
1.0
 22
0.0
 32
0.0
 13
1.0
 23
0.0
 33
0.0
 40
0.0
 40
0.0
 40
0.0
 40
0.0
 40
1.0
 40
1.0
 40
1.0
 40
2.0
 40
2.0
 40
2.0
 40
3.0
 40
3.0
 40
3.0
 40
4.0
 40
4.0
 40
4.0
 40
5.0
 40
5.0
 40
5.0
 40
5.0
 10
67.37514284696667
 20
-157.0438582424341
 30
0.0
 10
68.0335762351495
 20
-157.6344560302162
 30
0.0
 10
68.86322191128274
 20
-157.8297372822483
 30
0.0
 10
69.6859950571504
 20
-158.0317265535635
 30
0.0
 10
70.9694896054538
 20
-158.3468188046516
 30
0.0
 10
72.28666525958404
 20
-158.4558392261421
 30
0.0
 10
73.59226806963653
 20
-158.6290860785001
 30
0.0
 10
74.06074834722861
 20
-158.6912544433907
 30
0.0
 10
74.57068539263788
 20
-158.5411868528576
 30
0.0
 10
75.01535522340747
 20
-158.6605748236701
 30
0.0
 10
75.80555183719437
 20
-158.8727402743871
 30
0.0
 10
76.50820846360931
 20
-158.7022800366461
 30
0.0
 10
77.22258230088273
 20
-158.4220103961674
 30
0.0
 10
77.32415608234926
 20
-158.382161807147
 30
0.0
 10
77.4414423414142
 20
-158.3823632491676
 30
0.0
 10
77.55145654353909
 20
-158.3640286679353
 30
0.0
  0
SPLINE
  5
58
330
1F
100
AcDbEntity
  8
Calque 1
 62
     7
420
 16777215
370
    70
100
AcDbSpline
210
0.0
220
0.0
230
1.0
 70
     8
 71
     3
 72
    17
 73
    13
 74
     0
 42
0.0000000001
 43
0.0000000001
 12
1.0
 22
0.0
 32
0.0
 13
1.0
 23
0.0
 33
0.0
 40
0.0
 40
0.0
 40
0.0
 40
0.0
 40
1.0
 40
1.0
 40
1.0
 40
2.0
 40
2.0
 40
2.0
 40
3.0
 40
3.0
 40
3.0
 40
4.0
 40
4.0
 40
4.0
 40
4.0
 10
77.7164778467269
 20
-173.1609388537626
 30
0.0
 10
77.55395442459336
 20
-173.2234496700882
 30
0.0
 10
77.42305068494301
 20
-173.3346993832723
 30
0.0
 10
77.22136021929165
 20
-173.3332490007249
 30
0.0
 10
75.85870567166856
 20
-173.323425344859
 30
0.0
 10
74.49904589541677
 20
-173.3890282961991
 30
0.0
 10
73.15115033316165
 20
-173.6026474868309
 30
0.0
 10
71.68298381257136
 20
-173.8353398794363
 30
0.0
 10
70.25593496573049
 20
-174.1840259448078
 30
0.0
 10
69.02385513579073
 20
-175.0841326823428
 30
0.0
 10
68.3237668951372
 20
-175.5955872576398
 30
0.0
 10
67.7543675226455
 20
-176.1957132529907
 30
0.0
 10
67.54016415015448
 20
-177.066443029204
 30
0.0
  0
SPLINE
  5
59
330
1F
100
AcDbEntity
  8
Calque 1
 62
     7
420
 16777215
370
    70
100
AcDbSpline
210
0.0
220
0.0
230
1.0
 70
     8
 71
     3
 72
    14
 73
    10
 74
     0
 42
0.0000000001
 43
0.0000000001
 12
1.0
 22
0.0
 32
0.0
 13
1.0
 23
0.0
 33
0.0
 40
0.0
 40
0.0
 40
0.0
 40
0.0
 40
1.0
 40
1.0
 40
1.0
 40
2.0
 40
2.0
 40
2.0
 40
3.0
 40
3.0
 40
3.0
 40
3.0
 10
79.86175478816652
 20
-164.4148097848166
 30
0.0
 10
80.6524214333344
 20
-164.7153344204557
 30
0.0
 10
80.93364120867639
 20
-165.503590476112
 30
0.0
 10
80.75642594851487
 20
-166.4527919914078
 30
0.0
 10
80.45882893690681
 20
-168.0467456243274
 30
0.0
 10
79.91964251012192
 20
-169.5585679881257
 30
0.0
 10
79.36840985051151
 20
-171.071293483649
 30
0.0
 10
79.33676330909225
 20
-171.1581250665826
 30
0.0
 10
79.33002171613987
 20
-171.2540248978047
 30
0.0
 10
79.31168377754081
 20
-171.3457045186983
 30
0.0
  0
SPLINE
  5
5A
330
1F
100
AcDbEntity
  8
Calque 1
 62
     7
420
 16777215
370
    70
100
AcDbSpline
210
0.0
220
0.0
230
1.0
 70
     8
 71
     3
 72
    14
 73
    10
 74
     0
 42
0.0000000001
 43
0.0000000001
 12
1.0
 22
0.0
 32
0.0
 13
1.0
 23
0.0
 33
0.0
 40
0.0
 40
0.0
 40
0.0
 40
0.0
 40
1.0
 40
1.0
 40
1.0
 40
2.0
 40
2.0
 40
2.0
 40
3.0
 40
3.0
 40
3.0
 40
3.0
 10
96.58391351118271
 20
-158.1440002636856
 30
0.0
 10
97.46656529764194
 20
-158.3636392133626
 30
0.0
 10
98.10339067175951
 20
-158.9972112988496
 30
0.0
 10
98.77060021730165
 20
-159.5360183431621
 30
0.0
 10
99.72934336963469
 20
-160.3102607489261
 30
0.0
 10
100.6335360228185
 20
-161.1587143950397
 30
0.0
 10
101.3209904914203
 20
-162.210298817251
 30
0.0
 10
101.7251570466028
 20
-162.828554594446
 30
0.0
 10
102.0410987115435
 20
-163.4725479471265
 30
0.0
 10
102.1946378195632
 20
-164.1947813805662
 30
0.0
  0
SPLINE
  5
5B
330
1F
100
AcDbEntity
  8
Calque 1
 62
     7
420
 16777215
370
    70
100
AcDbSpline
210
0.0
220
0.0
230
1.0
 70
     8
 71
     3
 72
    26
 73
    22
 74
     0
 42
0.0000000001
 43
0.0000000001
 12
1.0
 22
0.0
 32
0.0
 13
1.0
 23
0.0
 33
0.0
 40
0.0
 40
0.0
 40
0.0
 40
0.0
 40
1.0
 40
1.0
 40
1.0
 40
2.0
 40
2.0
 40
2.0
 40
3.0
 40
3.0
 40
3.0
 40
4.0
 40
4.0
 40
4.0
 40
5.0
 40
5.0
 40
5.0
 40
6.0
 40
6.0
 40
6.0
 40
7.0
 40
7.0
 40
7.0
 40
7.0
 10
79.80674768710392
 20
-160.1792630029997
 30
0.0
 10
80.02253909418984
 20
-159.1701257718731
 30
0.0
 10
80.5704278162598
 20
-158.4606134020279
 30
0.0
 10
81.56373841930977
 20
-158.0805393124958
 30
0.0
 10
82.51795584091586
 20
-157.7154290077197
 30
0.0
 10
83.35017326017763
 20
-157.8530306945517
 30
0.0
 10
84.09496484254528
 20
-158.5316116421503
 30
0.0
 10
84.44066620864686
 20
-158.8465830280256
 30
0.0
 10
84.73866610429589
 20
-159.2206541453473
 30
0.0
 10
85.14701593877076
 20
-159.4562271588455
 30
0.0
 10
85.33311479203616
 20
-159.5635856836668
 30
0.0
 10
85.32017549958628
 20
-159.7038631920041
 30
0.0
 10
85.30397956113873
 20
-159.8488309420513
 30
0.0
 10
85.15659114947806
 20
-161.1680512326895
 30
0.0
 10
84.51344721065087
 20
-161.5497167141833
 30
0.0
 10
83.43720964249832
 20
-161.5528558523357
 30
0.0
 10
82.30555537450826
 20
-161.5561561441051
 30
0.0
 10
81.31014305971136
 20
-161.1059634446067
 30
0.0
 10
80.36492338168735
 20
-160.5505240041347
 30
0.0
 10
80.11504798473398
 20
-160.4036862006635
 30
0.0
 10
79.77457068169733
 20
-160.334772885453
 30
0.0
 10
79.64172638391611
 20
-160.0142416998122
 30
0.0
  0
SPLINE
  5
5C
330
1F
100
AcDbEntity
  8
Calque 1
 62
     7
420
 16777215
370
    70
100
AcDbSpline
210
0.0
220
0.0
230
1.0
 70
     8
 71
     3
 72
    11
 73
     7
 74
     0
 42
0.0000000001
 43
0.0000000001
 12
1.0
 22
0.0
 32
0.0
 13
1.0
 23
0.0
 33
0.0
 40
0.0
 40
0.0
 40
0.0
 40
0.0
 40
1.0
 40
1.0
 40
1.0
 40
2.0
 40
2.0
 40
2.0
 40
2.0
 10
79.20166957541592
 20
-161.5544405295638
 30
0.0
 10
79.78840974850519
 20
-162.0128319192962
 30
0.0
 10
80.38816307611793
 20
-162.4556585555782
 30
0.0
 10
80.95924448948092
 20
-162.9327907679503
 30
0.0
 10
82.23416432244565
 20
-163.9979725265449
 30
0.0
 10
83.68519819919295
 20
-164.1092726002337
 30
0.0
 10
85.19744359123429
 20
-163.1496464603777
 30
0.0
  0
SPLINE
  5
5D
330
1F
100
AcDbEntity
  8
Calque 1
 62
     7
420
 16777215
370
    70
100
AcDbSpline
210
0.0
220
0.0
230
1.0
 70
     8
 71
     3
 72
    11
 73
     7
 74
     0
 42
0.0000000001
 43
0.0000000001
 12
1.0
 22
0.0
 32
0.0
 13
1.0
 23
0.0
 33
0.0
 40
0.0
 40
0.0
 40
0.0
 40
0.0
 40
1.0
 40
1.0
 40
1.0
 40
2.0
 40
2.0
 40
2.0
 40
2.0
 10
85.41747199548439
 20
-166.3950654230684
 30
0.0
 10
85.76435515477277
 20
-168.0515903049206
 30
0.0
 10
85.71947387260694
 20
-169.7253183353223
 30
0.0
 10
85.63807786686002
 20
-171.400738478697
 30
0.0
 10
85.63363271294126
 20
-171.4922032281014
 30
0.0
 10
85.63750039973448
 20
-171.5840675041803
 30
0.0
 10
85.63750039973448
 20
-171.6757471250733
 30
0.0
  0
SPLINE
  5
5E
330
1F
100
AcDbEntity
  8
Calque 1
 62
     7
420
 16777215
370
    70
100
AcDbSpline
210
0.0
220
0.0
230
1.0
 70
     8
 71
     3
 72
    11
 73
     7
 74
     0
 42
0.0000000001
 43
0.0000000001
 12
1.0
 22
0.0
 32
0.0
 13
1.0
 23
0.0
 33
0.0
 40
0.0
 40
0.0
 40
0.0
 40
0.0
 40
1.0
 40
1.0
 40
1.0
 40
2.0
 40
2.0
 40
2.0
 40
2.0
 10
155.8265613555529
 20
-220.1920102622456
 30
0.0
 10
156.2455473287097
 20
-221.4258829261678
 30
0.0
 10
156.3291054788103
 20
-222.7325433068285
 30
0.0
 10
156.6499757585192
 20
-223.9879299785388
 30
0.0
 10
156.7711095601756
 20
-224.4618357612165
 30
0.0
 10
157.0692168915689
 20
-224.8953725629864
 30
0.0
 10
156.9817104778666
 20
-225.4176848631882
 30
0.0
  0
SPLINE
  5
5F
330
1F
100
AcDbEntity
  8
Calque 1
 62
     7
420
 16777215
370
    70
100
AcDbSpline
210
0.0
220
0.0
230
1.0
 70
     8
 71
     3
 72
    14
 73
    10
 74
     0
 42
0.0000000001
 43
0.0000000001
 12
1.0
 22
0.0
 32
0.0
 13
1.0
 23
0.0
 33
0.0
 40
0.0
 40
0.0
 40
0.0
 40
0.0
 40
1.0
 40
1.0
 40
1.0
 40
2.0
 40
2.0
 40
2.0
 40
3.0
 40
3.0
 40
3.0
 40
3.0
 10
107.0352627130678
 20
-159.7942132955618
 30
0.0
 10
107.5080471351644
 20
-160.1418585771613
 30
0.0
 10
108.0104502490076
 20
-160.4855287362228
 30
0.0
 10
108.3429034448947
 20
-160.9581755062719
 30
0.0
 10
109.4128224483376
 20
-162.4792877045821
 30
0.0
 10
110.9368992017159
 20
-163.6434580720466
 30
0.0
 10
111.7694523576784
 20
-165.3481813146687
 30
0.0
 10
111.9087428001152
 20
-165.6333829272821
 30
0.0
 10
112.0019835966674
 20
-165.9130314548642
 30
0.0
 10
111.9308947076354
 20
-166.230044119881
 30
0.0
  0
SPLINE
  5
60
330
1F
100
AcDbEntity
  8
Calque 1
 62
     7
420
 16777215
370
    70
100
AcDbSpline
210
0.0
220
0.0
230
1.0
 70
     8
 71
     3
 72
    11
 73
     7
 74
     0
 42
0.0000000001
 43
0.0000000001
 12
1.0
 22
0.0
 32
0.0
 13
1.0
 23
0.0
 33
0.0
 40
0.0
 40
0.0
 40
0.0
 40
0.0
 40
1.0
 40
1.0
 40
1.0
 40
2.0
 40
2.0
 40
2.0
 40
2.0
 10
68.75032037353049
 20
-163.0946393593154
 30
0.0
 10
67.37441765569294
 20
-163.087172575089
 30
0.0
 10
66.04019329189536
 20
-163.3390355333111
 30
0.0
 10
64.73653439734053
 20
-163.760093001912
 30
0.0
 10
64.49355838958913
 20
-163.8385748130962
 30
0.0
 10
64.26417971822099
 20
-163.8707753200717
 30
0.0
 10
64.01970968215105
 20
-163.8097316731283
 30
0.0
  0
SPLINE
  5
61
330
1F
100
AcDbEntity
  8
Calque 1
 62
     7
420
 16777215
370
    70
100
AcDbSpline
210
0.0
220
0.0
230
1.0
 70
     8
 71
     3
 72
    17
 73
    13
 74
     0
 42
0.0000000001
 43
0.0000000001
 12
1.0
 22
0.0
 32
0.0
 13
1.0
 23
0.0
 33
0.0
 40
0.0
 40
0.0
 40
0.0
 40
0.0
 40
1.0
 40
1.0
 40
1.0
 40
2.0
 40
2.0
 40
2.0
 40
3.0
 40
3.0
 40
3.0
 40
4.0
 40
4.0
 40
4.0
 40
4.0
 10
110.6107242821342
 20
-166.0100157156305
 30
0.0
 10
110.5609613883383
 20
-166.2402840892559
 30
0.0
 10
110.6800270519174
 20
-166.4244692433265
 30
0.0
 10
110.7757254411195
 20
-166.6151038994199
 30
0.0
 10
111.3092043439904
 20
-167.6778717111356
 30
0.0
 10
111.8303482804732
 20
-168.745581567087
 30
0.0
 10
112.1106145635845
 20
-169.9289795754077
 30
0.0
 10
111.2352751224699
 20
-170.2441725475058
 30
0.0
 10
110.5008510894232
 20
-169.907703940677
 30
0.0
 10
109.7858997850246
 20
-169.4749930511904
 30
0.0
 10
109.4144004108315
 20
-169.2501468252832
 30
0.0
 10
109.1829032408814
 20
-168.8344342849593
 30
0.0
 10
108.7404828460069
 20
-168.7053636676959
 30
0.0
  0
SPLINE
  5
62
330
1F
100
AcDbEntity
  8
Calque 1
 62
     7
420
 16777215
370
    70
100
AcDbSpline
210
0.0
220
0.0
230
1.0
 70
     8
 71
     3
 72
    20
 73
    16
 74
     0
 42
0.0000000001
 43
0.0000000001
 12
1.0
 22
0.0
 32
0.0
 13
1.0
 23
0.0
 33
0.0
 40
0.0
 40
0.0
 40
0.0
 40
0.0
 40
1.0
 40
1.0
 40
1.0
 40
2.0
 40
2.0
 40
2.0
 40
3.0
 40
3.0
 40
3.0
 40
4.0
 40
4.0
 40
4.0
 40
5.0
 40
5.0
 40
5.0
 40
5.0
 10
68.585299070343
 20
-162.9846251571902
 30
0.0
 10
68.5936488420924
 20
-162.5248639617182
 30
0.0
 10
68.36356512365268
 20
-162.1426377999341
 30
0.0
 10
68.13552939908774
 20
-161.7805860565026
 30
0.0
 10
67.90902127651164
 20
-161.4209616894184
 30
0.0
 10
67.23821934827086
 20
-161.2291855285418
 30
0.0
 10
66.8276637236716
 20
-161.3958082957927
 30
0.0
 10
65.86879970612613
 20
-161.7849774925498
 30
0.0
 10
64.9520572150655
 20
-162.258970566769
 30
0.0
 10
64.30554919449605
 20
-163.1029152689906
 30
0.0
 10
64.18057456498255
 20
-163.2660564466536
 30
0.0
 10
63.96296010761109
 20
-163.4200622286874
 30
0.0
 10
64.01374364097738
 20
-163.7007951858131
 30
0.0
 10
64.04609522946856
 20
-163.8796320542392
 30
0.0
 10
63.87634003879923
 20
-163.9377615066198
 30
0.0
 10
63.74467417683834
 20
-164.0022565268473
 30
0.0
  0
SPLINE
  5
63
330
1F
100
AcDbEntity
  8
Calque 1
 62
     7
420
 16777215
370
    70
100
AcDbSpline
210
0.0
220
0.0
230
1.0
 70
     8
 71
     3
 72
    17
 73
    13
 74
     0
 42
0.0000000001
 43
0.0000000001
 12
1.0
 22
0.0
 32
0.0
 13
1.0
 23
0.0
 33
0.0
 40
0.0
 40
0.0
 40
0.0
 40
0.0
 40
1.0
 40
1.0
 40
1.0
 40
2.0
 40
2.0
 40
2.0
 40
3.0
 40
3.0
 40
3.0
 40
4.0
 40
4.0
 40
4.0
 40
4.0
 10
154.6714122332392
 20
-216.3415131878672
 30
0.0
 10
155.2333414641376
 20
-217.379745361487
 30
0.0
 10
155.6259653915462
 20
-218.4781549813611
 30
0.0
 10
155.8206792485545
 20
-219.6429263175207
 30
0.0
 10
155.8470950121749
 20
-219.8010180152037
 30
0.0
 10
155.9617020923674
 20
-219.9915015897811
 30
0.0
 10
155.7706947685365
 20
-220.1358616564002
 30
0.0
 10
155.7590245608156
 20
-220.1446781021641
 30
0.0
 10
155.731037549435
 20
-220.143523167913
 30
0.0
 10
155.7174200688502
 20
-220.1355124902317
 30
0.0
 10
155.6957986253171
 20
-220.1227679250682
 30
0.0
 10
155.6798712762302
 20
-220.1003339987195
 30
0.0
 10
155.6615400523654
 20
-220.0819960601204
 30
0.0
  0
SPLINE
  5
64
330
1F
100
AcDbEntity
  8
Calque 1
 62
     7
420
 16777215
370
    70
100
AcDbSpline
210
0.0
220
0.0
230
1.0
 70
     8
 71
     3
 72
    17
 73
    13
 74
     0
 42
0.0000000001
 43
0.0000000001
 12
1.0
 22
0.0
 32
0.0
 13
1.0
 23
0.0
 33
0.0
 40
0.0
 40
0.0
 40
0.0
 40
0.0
 40
1.0
 40
1.0
 40
1.0
 40
2.0
 40
2.0
 40
2.0
 40
3.0
 40
3.0
 40
3.0
 40
4.0
 40
4.0
 40
4.0
 40
4.0
 10
102.6346946280637
 20
-153.7434321786811
 30
0.0
 10
103.1114205990277
 20
-154.0001331027622
 30
0.0
 10
103.577953603755
 20
-154.2788247807464
 30
0.0
 10
104.0682433374323
 20
-154.506279680819
 30
0.0
 10
104.4324437957491
 20
-154.6752324607735
 30
0.0
 10
104.4945550854011
 20
-155.0811784204705
 30
0.0
 10
104.8229122935383
 20
-155.3016063513948
 30
0.0
 10
105.5946836771843
 20
-155.8197017986336
 30
0.0
 10
106.3700004403908
 20
-156.3575889243863
 30
0.0
 10
107.0687356621397
 20
-156.9588664966214
 30
0.0
 10
107.8834813434908
 20
-157.6599686621115
 30
0.0
 10
108.8861858594292
 20
-157.8891526061932
 30
0.0
 10
109.7856177661954
 20
-158.3640286679353
 30
0.0
  0
SPLINE
  5
65
330
1F
100
AcDbEntity
  8
Calque 1
 62
     7
420
 16777215
370
    70
100
AcDbSpline
210
0.0
220
0.0
230
1.0
 70
     8
 71
     3
 72
    11
 73
     7
 74
     0
 42
0.0000000001
 43
0.0000000001
 12
1.0
 22
0.0
 32
0.0
 13
1.0
 23
0.0
 33
0.0
 40
0.0
 40
0.0
 40
0.0
 40
0.0
 40
1.0
 40
1.0
 40
1.0
 40
2.0
 40
2.0
 40
2.0
 40
2.0
 10
83.16218085191954
 20
-159.0241138806859
 30
0.0
 10
82.37444183078266
 20
-158.5969594335982
 30
0.0
 10
82.0971367453724
 20
-158.648310361989
 30
0.0
 10
81.67698912323085
 20
-159.2991493859993
 30
0.0
 10
82.14347512481994
 20
-159.9577204262286
 30
0.0
 10
82.60476392228017
 20
-159.8918186692248
 30
0.0
 10
83.21718795298216
 20
-159.0791209817489
 30
0.0
  0
SPLINE
  5
66
330
1F
100
AcDbEntity
  8
Calque 1
 62
     7
420
 16777215
370
    70
100
AcDbSpline
210
0.0
220
0.0
230
1.0
 70
     8
 71
     3
 72
    14
 73
    10
 74
     0
 42
0.0000000001
 43
0.0000000001
 12
1.0
 22
0.0
 32
0.0
 13
1.0
 23
0.0
 33
0.0
 40
0.0
 40
0.0
 40
0.0
 40
0.0
 40
1.0
 40
1.0
 40
1.0
 40
2.0
 40
2.0
 40
2.0
 40
3.0
 40
3.0
 40
3.0
 40
3.0
 10
106.5401988035047
 20
-157.5939292530595
 30
0.0
 10
106.8862896241794
 20
-157.5781328412864
 30
0.0
 10
106.9157740212453
 20
-157.919489774479
 30
0.0
 10
107.0840251114954
 20
-158.0949827053652
 30
0.0
 10
107.7249128996929
 20
-158.763504981408
 30
0.0
 10
108.4229162154342
 20
-159.4116782560135
 30
0.0
 10
108.8309168837405
 20
-160.2438688163388
 30
0.0
 10
109.242536793681
 20
-161.0834254398806
 30
0.0
 10
109.9466102289733
 20
-161.5885110899628
 30
0.0
 10
110.6107242821342
 20
-162.1595186412515
 30
0.0
  0
SPLINE
  5
67
330
1F
100
AcDbEntity
  8
Calque 1
 62
     7
420
 16777215
370
    70
100
AcDbSpline
210
0.0
220
0.0
230
1.0
 70
     8
 71
     3
 72
    23
 73
    19
 74
     0
 42
0.0000000001
 43
0.0000000001
 12
1.0
 22
0.0
 32
0.0
 13
1.0
 23
0.0
 33
0.0
 40
0.0
 40
0.0
 40
0.0
 40
0.0
 40
1.0
 40
1.0
 40
1.0
 40
2.0
 40
2.0
 40
2.0
 40
3.0
 40
3.0
 40
3.0
 40
4.0
 40
4.0
 40
4.0
 40
5.0
 40
5.0
 40
5.0
 40
6.0
 40
6.0
 40
6.0
 40
6.0
 10
107.2552911173182
 20
-169.4754630825711
 30
0.0
 10
107.663687954931
 20
-169.9967782447714
 30
0.0
 10
107.611313029603
 20
-170.6296855715907
 30
0.0
 10
107.7052320142906
 20
-171.2341559998503
 30
0.0
 10
107.8161392760399
 20
-171.9479288684296
 30
0.0
 10
107.9233064309423
 20
-172.6605199438214
 30
0.0
 10
107.9667440452943
 20
-173.3811854868684
 30
0.0
 10
107.9779912247718
 20
-173.5678349483226
 30
0.0
 10
108.0701375196792
 20
-173.8162163169575
 30
0.0
 10
107.8551518806753
 20
-173.9202510484405
 30
0.0
 10
107.6490565495094
 20
-174.0199782780529
 30
0.0
 10
107.4294847471724
 20
-173.8838135443005
 30
0.0
 10
107.2611195064444
 20
-173.7582077297896
 30
0.0
 10
107.1514477557541
 20
-173.6763954105336
 30
0.0
 10
107.0977970309629
 20
-173.5194922207716
 30
0.0
 10
106.9359988001031
 20
-173.425254286218
 30
0.0
 10
106.6720694648537
 20
-174.12722936713
 30
0.0
 10
106.6431961085826
 20
-174.8467869790644
 30
0.0
 10
106.2101561971297
 20
-175.4162299973272
 30
0.0
  0
SPLINE
  5
68
330
1F
100
AcDbEntity
  8
Calque 1
 62
     7
420
 16777215
370
    70
100
AcDbSpline
210
0.0
220
0.0
230
1.0
 70
     8
 71
     3
 72
    17
 73
    13
 74
     0
 42
0.0000000001
 43
0.0000000001
 12
1.0
 22
0.0
 32
0.0
 13
1.0
 23
0.0
 33
0.0
 40
0.0
 40
0.0
 40
0.0
 40
0.0
 40
1.0
 40
1.0
 40
1.0
 40
2.0
 40
2.0
 40
2.0
 40
3.0
 40
3.0
 40
3.0
 40
4.0
 40
4.0
 40
4.0
 40
4.0
 10
107.4753195215687
 20
-166.3950654230684
 30
0.0
 10
107.5981991540688
 20
-166.8712441432102
 30
0.0
 10
107.8463958675177
 20
-167.2925064111985
 30
0.0
 10
108.0862058781804
 20
-167.7119154125988
 30
0.0
 10
108.3650016345427
 20
-168.1994789642655
 30
0.0
 10
108.5751056619167
 20
-168.6878617134819
 30
0.0
 10
108.7220106127279
 20
-169.2458158218429
 30
0.0
 10
108.8969092896539
 20
-169.9100775991516
 30
0.0
 10
109.3435801111601
 20
-170.5033243495027
 30
0.0
 10
109.6767987867256
 20
-171.1250348573492
 30
0.0
 10
109.7798766686114
 20
-171.3173549116807
 30
0.0
 10
109.8616486994638
 20
-171.5085703922664
 30
0.0
 10
109.7856177661954
 20
-171.7307542261362
 30
0.0
  0
SPLINE
  5
69
330
1F
100
AcDbEntity
  8
Calque 1
 62
     7
420
 16777215
370
    70
100
AcDbSpline
210
0.0
220
0.0
230
1.0
 70
     8
 71
     3
 72
     8
 73
     4
 74
     0
 42
0.0000000001
 43
0.0000000001
 12
1.0
 22
0.0
 32
0.0
 13
1.0
 23
0.0
 33
0.0
 40
0.0
 40
0.0
 40
0.0
 40
0.0
 40
1.0
 40
1.0
 40
1.0
 40
1.0
 10
116.9915480053898
 20
-200.3344467786639
 30
0.0
 10
117.7594315580405
 20
-200.7976291311168
 30
0.0
 10
118.5902724568284
 20
-201.094151785282
 30
0.0
 10
119.4668675532048
 20
-201.2695674967272
 30
0.0
  0
SPLINE
  5
6A
330
1F
100
AcDbEntity
  8
Calque 1
 62
     7
420
 16777215
370
    70
100
AcDbSpline
210
0.0
220
0.0
230
1.0
 70
     8
 71
     3
 72
     8
 73
     4
 74
     0
 42
0.0000000001
 43
0.0000000001
 12
1.0
 22
0.0
 32
0.0
 13
1.0
 23
0.0
 33
0.0
 40
0.0
 40
0.0
 40
0.0
 40
0.0
 40
1.0
 40
1.0
 40
1.0
 40
1.0
 10
107.7503550268814
 20
-170.410583800635
 30
0.0
 10
108.6499077988597
 20
-171.1721924343465
 30
0.0
 10
109.774632461345
 20
-171.6393331225022
 30
0.0
 10
110.5557171810713
 20
-172.5558607420743
 30
0.0
  0
SPLINE
  5
6B
330
1F
100
AcDbEntity
  8
Calque 1
 62
     7
420
 16777215
370
    70
100
AcDbSpline
210
0.0
220
0.0
230
1.0
 70
     8
 71
     3
 72
    11
 73
     7
 74
     0
 42
0.0000000001
 43
0.0000000001
 12
1.0
 22
0.0
 32
0.0
 13
1.0
 23
0.0
 33
0.0
 40
0.0
 40
0.0
 40
0.0
 40
0.0
 40
1.0
 40
1.0
 40
1.0
 40
2.0
 40
2.0
 40
2.0
 40
2.0
 10
144.8251411430424
 20
-197.1990420180984
 30
0.0
 10
144.8126114493674
 20
-197.8686688678863
 30
0.0
 10
145.0536972594932
 20
-198.5048294833365
 30
0.0
 10
145.0670192917816
 20
-199.1788679133732
 30
0.0
 10
145.0749426779215
 20
-199.5796636720795
 30
0.0
 10
145.0650451599808
 20
-199.9868317133676
 30
0.0
 10
145.1001766483551
 20
-200.3894538797262
 30
0.0
  0
SPLINE
  5
6C
330
1F
100
AcDbEntity
  8
Calque 1
 62
     7
420
 16777215
370
    70
100
AcDbSpline
210
0.0
220
0.0
230
1.0
 70
     8
 71
     3
 72
    11
 73
     7
 74
     0
 42
0.0000000001
 43
0.0000000001
 12
1.0
 22
0.0
 32
0.0
 13
1.0
 23
0.0
 33
0.0
 40
0.0
 40
0.0
 40
0.0
 40
0.0
 40
1.0
 40
1.0
 40
1.0
 40
2.0
 40
2.0
 40
2.0
 40
2.0
 10
105.5500709843791
 20
-174.041052470763
 30
0.0
 10
105.2789904574018
 20
-174.3629165311067
 30
0.0
 10
105.3555451399232
 20
-174.7725354503105
 30
0.0
 10
105.281857648827
 20
-175.142554225653
 30
0.0
 10
105.2432277840305
 20
-175.3365529634883
 30
0.0
 10
105.2750354790661
 20
-175.544578780684
 30
0.0
 10
105.2750354790661
 20
-175.7462726037028
 30
0.0
  0
SPLINE
  5
6D
330
1F
100
AcDbEntity
  8
Calque 1
 62
     7
420
 16777215
370
    70
100
AcDbSpline
210
0.0
220
0.0
230
1.0
 70
     8
 71
     3
 72
    14
 73
    10
 74
     0
 42
0.0000000001
 43
0.0000000001
 12
1.0
 22
0.0
 32
0.0
 13
1.0
 23
0.0
 33
0.0
 40
0.0
 40
0.0
 40
0.0
 40
0.0
 40
1.0
 40
1.0
 40
1.0
 40
2.0
 40
2.0
 40
2.0
 40
3.0
 40
3.0
 40
3.0
 40
3.0
 10
109.8406248672584
 20
-165.0198878965043
 30
0.0
 10
109.8956319683207
 20
-165.0932295787989
 30
0.0
 10
109.966123246025
 20
-165.159534219844
 30
0.0
 10
110.0031818630616
 20
-165.2410343039683
 30
0.0
 10
110.2944065920882
 20
-165.8814688476199
 30
0.0
 10
110.9033792495055
 20
-166.08740302517
 30
0.0
 10
111.4956456486903
 20
-166.2060389457721
 30
0.0
 10
111.9053585741705
 20
-166.2881097822877
 30
0.0
 10
112.1497211744962
 20
-166.4813363257112
 30
0.0
 10
112.3709515161356
 20
-166.7801151305063
 30
0.0
  0
SPLINE
  5
6E
330
1F
100
AcDbEntity
  8
Calque 1
 62
     7
420
 16777215
370
    70
100
AcDbSpline
210
0.0
220
0.0
230
1.0
 70
     8
 71
     3
 72
     8
 73
     4
 74
     0
 42
0.0000000001
 43
0.0000000001
 12
1.0
 22
0.0
 32
0.0
 13
1.0
 23
0.0
 33
0.0
 40
0.0
 40
0.0
 40
0.0
 40
0.0
 40
1.0
 40
1.0
 40
1.0
 40
1.0
 10
105.4950638833162
 20
-173.7660169654503
 30
0.0
 10
105.64280817588
 20
-174.2715323585101
 30
0.0
 10
106.0797090593925
 20
-174.6266847127397
 30
0.0
 10
106.2101561971297
 20
-175.1411944920144
 30
0.0
  0
SPLINE
  5
6F
330
1F
100
AcDbEntity
  8
Calque 1
 62
     7
420
 16777215
370
    70
100
AcDbSpline
210
0.0
220
0.0
230
1.0
 70
     8
 71
     3
 72
     8
 73
     4
 74
     0
 42
0.0000000001
 43
0.0000000001
 12
1.0
 22
0.0
 32
0.0
 13
1.0
 23
0.0
 33
0.0
 40
0.0
 40
0.0
 40
0.0
 40
0.0
 40
1.0
 40
1.0
 40
1.0
 40
1.0
 10
79.42169797966602
 20
-173.3259601569501
 30
0.0
 10
79.09417339854679
 20
-173.389632622261
 30
0.0
 10
78.74804900420213
 20
-173.1184849479436
 30
0.0
 10
78.4315701605401
 20
-173.3809672580124
 30
0.0
  0
SPLINE
  5
70
330
1F
100
AcDbEntity
  8
Calque 1
 62
     7
420
 16777215
370
    70
100
AcDbSpline
210
0.0
220
0.0
230
1.0
 70
     8
 71
     3
 72
     8
 73
     4
 74
     0
 42
0.0000000001
 43
0.0000000001
 12
1.0
 22
0.0
 32
0.0
 13
1.0
 23
0.0
 33
0.0
 40
0.0
 40
0.0
 40
0.0
 40
0.0
 40
1.0
 40
1.0
 40
1.0
 40
1.0
 10
104.9999999737534
 20
-230.0382813524431
 30
0.0
 10
104.8266188267154
 20
-229.7016851656672
 30
0.0
 10
104.5184192500954
 20
-229.9493044119912
 30
0.0
 10
104.2849076599402
 20
-229.873260049255
 30
0.0
  0
SPLINE
  5
71
330
1F
100
AcDbEntity
  8
Calque 1
 62
     7
420
 16777215
370
    70
100
AcDbSpline
210
0.0
220
0.0
230
1.0
 70
    24
 71
     3
 72
     8
 73
     4
 74
     0
 42
0.0000000001
 43
0.0000000001
 12
1.0
 22
0.0
 32
0.0
 13
1.0
 23
0.0
 33
0.0
 40
0.0
 40
0.0
 40
0.0
 40
0.0
 40
1.0
 40
1.0
 40
1.0
 40
1.0
 10
50.26793441651258
 20
-166.175037018818
 30
0.0
 10
50.26793441651258
 20
-166.3950654230684
 30
0.0
 10
50.26793441651258
 20
-166.6150938273189
 30
0.0
 10
50.26793441651258
 20
-166.8351222315686
 30
0.0
  0
SPLINE
  5
72
330
1F
100
AcDbEntity
  8
Calque 1
 62
     7
420
 16777215
370
    70
100
AcDbSpline
210
0.0
220
0.0
230
1.0
 70
     8
 71
     3
 72
     8
 73
     4
 74
     0
 42
0.0000000001
 43
0.0000000001
 12
1.0
 22
0.0
 32
0.0
 13
1.0
 23
0.0
 33
0.0
 40
0.0
 40
0.0
 40
0.0
 40
0.0
 40
1.0
 40
1.0
 40
1.0
 40
1.0
 10
111.5458450001975
 20
-225.0326351557503
 30
0.0
 10
111.2789477525125
 20
-225.0231069481809
 30
0.0
 10
111.1096760226926
 20
-225.1925532610856
 30
0.0
 10
110.9407668885092
 20
-225.3626777621259
 30
0.0
  0
SPLINE
  5
73
330
1F
100
AcDbEntity
  8
Calque 1
 62
     7
420
 16777215
370
    70
100
AcDbSpline
210
0.0
220
0.0
230
1.0
 70
     8
 71
     3
 72
     8
 73
     4
 74
     0
 42
0.0000000001
 43
0.0000000001
 12
1.0
 22
0.0
 32
0.0
 13
1.0
 23
0.0
 33
0.0
 40
0.0
 40
0.0
 40
0.0
 40
0.0
 40
1.0
 40
1.0
 40
1.0
 40
1.0
 10
127.2228688030252
 20
-191.7533390129054
 30
0.0
 10
127.0945166623009
 20
-191.7716702367702
 30
0.0
 10
126.9661712363109
 20
-191.7900081753693
 30
0.0
 10
126.8378190955872
 20
-191.8083461139684
 30
0.0
  0
ENDSEC
  0
SECTION
  2
OBJECTS
  0
DICTIONARY
  5
C
330
0
100
AcDbDictionary
281
     1
  3
ACAD_GROUP
350
D
  3
ACAD_LAYOUT
350
1A
  3
ACAD_MATERIAL
350
3B
  3
ACAD_MLEADERSTYLE
350
75
  3
ACAD_MLINESTYLE
350
17
  3
ACAD_PLOTSETTINGS
350
19
  3
ACAD_PLOTSTYLENAME
350
E
  3
ACAD_TABLESTYLE
350
74
  3
ACAD_VISUALSTYLE
350
2A
  0
SUN
  5
3F
330
29
100
AcDbSun
 90
        1
290
     0
 63
     7
421
 16777215
 40
1.0
291
     1
 91
  2455826
 92
 54000000
292
     0
 70
     2
 71
   256
280
     1
  0
DICTIONARY
  5
D
102
{ACAD_REACTORS
330
C
102
}
330
C
100
AcDbDictionary
281
     1
  0
DICTIONARY
  5
1A
102
{ACAD_REACTORS
330
C
102
}
330
C
100
AcDbDictionary
281
     1
  3
Layout1
350
1E
  3
Layout2
350
26
  3
Model
350
22
  0
DICTIONARY
  5
3B
102
{ACAD_REACTORS
330
C
102
}
330
C
100
AcDbDictionary
281
     1
  3
ByBlock
350
3D
  3
ByLayer
350
3C
  3
Global
350
3E
  0
DICTIONARY
  5
75
102
{ACAD_REACTORS
330
C
102
}
330
C
100
AcDbDictionary
281
     1
  0
DICTIONARY
  5
17
102
{ACAD_REACTORS
330
C
102
}
330
C
100
AcDbDictionary
281
     1
  3
Standard
350
18
  0
DICTIONARY
  5
19
102
{ACAD_REACTORS
330
C
102
}
330
C
100
AcDbDictionary
281
     1
  0
ACDBDICTIONARYWDFLT
  5
E
102
{ACAD_REACTORS
330
C
102
}
330
C
100
AcDbDictionary
281
     1
  3
Normal
350
F
100
AcDbDictionaryWithDefault
340
F
  0
DICTIONARY
  5
74
102
{ACAD_REACTORS
330
C
102
}
330
C
100
AcDbDictionary
281
     1
  0
DICTIONARY
  5
2A
102
{ACAD_REACTORS
330
C
102
}
330
C
100
AcDbDictionary
281
     1
  3
2dWireframe
350
2F
  3
3D Hidden
350
31
  3
3dWireframe
350
30
  3
Basic
350
32
  3
Brighten
350
36
  3
ColorChange
350
3A
  3
Conceptual
350
34
  3
Dim
350
35
  3
Facepattern
350
39
  3
Flat
350
2B
  3
FlatWithEdges
350
2C
  3
Gouraud
350
2D
  3
GouraudWithEdges
350
2E
  3
Linepattern
350
38
  3
Realistic
350
33
  3
Thicken
350
37
  0
LAYOUT
  5
1E
102
{ACAD_REACTORS
330
1A
102
}
330
1A
100
AcDbPlotSettings
  1

  2
none_device
  4

  6

 40
0.0
 41
0.0
 42
0.0
 43
0.0
 44
0.0
 45
0.0
 46
0.0
 47
0.0
 48
0.0
 49
0.0
140
0.0
141
0.0
142
1.0
143
1.0
 70
   688
 72
     0
 73
     0
 74
     5
  7

 75
    16
 76
     0
 77
     2
 78
   300
147
1.0
148
0.0
149
0.0
100
AcDbLayout
  1
Layout1
 70
     1
 71
     1
 10
0.0
 20
0.0
 11
12.0
 21
9.0
 12
0.0
 22
0.0
 32
0.0
 14
1.000000000000000E+20
 24
1.000000000000000E+20
 34
1.000000000000000E+20
 15
-1.000000000000000E+20
 25
-1.000000000000000E+20
 35
-1.000000000000000E+20
146
0.0
 13
0.0
 23
0.0
 33
0.0
 16
1.0
 26
0.0
 36
0.0
 17
0.0
 27
1.0
 37
0.0
 76
     0
330
1B
  0
LAYOUT
  5
26
102
{ACAD_REACTORS
330
1A
102
}
330
1A
100
AcDbPlotSettings
  1

  2
none_device
  4

  6

 40
0.0
 41
0.0
 42
0.0
 43
0.0
 44
0.0
 45
0.0
 46
0.0
 47
0.0
 48
0.0
 49
0.0
140
0.0
141
0.0
142
1.0
143
1.0
 70
   688
 72
     0
 73
     0
 74
     5
  7

 75
    16
 76
     0
 77
     2
 78
   300
147
1.0
148
0.0
149
0.0
100
AcDbLayout
  1
Layout2
 70
     1
 71
     2
 10
0.0
 20
0.0
 11
0.0
 21
0.0
 12
0.0
 22
0.0
 32
0.0
 14
0.0
 24
0.0
 34
0.0
 15
0.0
 25
0.0
 35
0.0
146
0.0
 13
0.0
 23
0.0
 33
0.0
 16
1.0
 26
0.0
 36
0.0
 17
0.0
 27
1.0
 37
0.0
 76
     0
330
23
  0
LAYOUT
  5
22
102
{ACAD_REACTORS
330
1A
102
}
330
1A
100
AcDbPlotSettings
  1

  2
none_device
  4

  6

 40
0.0
 41
0.0
 42
0.0
 43
0.0
 44
0.0
 45
0.0
 46
0.0
 47
0.0
 48
0.0
 49
0.0
140
0.0
141
0.0
142
1.0
143
1.0
 70
  1712
 72
     0
 73
     0
 74
     0
  7

 75
     0
 76
     0
 77
     2
 78
   300
147
1.0
148
0.0
149
0.0
100
AcDbLayout
  1
Model
 70
     1
 71
     0
 10
0.0
 20
0.0
 11
12.0
 21
9.0
 12
0.0
 22
0.0
 32
0.0
 14
1.000000000000000E+20
 24
1.000000000000000E+20
 34
1.000000000000000E+20
 15
-1.000000000000000E+20
 25
-1.000000000000000E+20
 35
-1.000000000000000E+20
146
0.0
 13
0.0
 23
0.0
 33
0.0
 16
1.0
 26
0.0
 36
0.0
 17
0.0
 27
1.0
 37
0.0
 76
     0
330
1F
331
29
  0
MATERIAL
  5
3D
102
{ACAD_REACTORS
330
3B
102
}
330
3B
100
AcDbMaterial
  1
ByBlock
 72
     1
 94
      127
  0
MATERIAL
  5
3C
102
{ACAD_REACTORS
330
3B
102
}
330
3B
100
AcDbMaterial
  1
ByLayer
 72
     1
 94
      127
  0
MATERIAL
  5
3E
102
{ACAD_REACTORS
330
3B
102
}
330
3B
100
AcDbMaterial
  1
Global
 72
     1
 94
      127
  0
MLINESTYLE
  5
18
102
{ACAD_REACTORS
330
17
102
}
330
17
100
AcDbMlineStyle
  2
Standard
 70
     0
  3

 62
   256
 51
90.0
 52
90.0
 71
     2
 49
0.5
 62
   256
  6
BYLAYER
 49
-0.5
 62
   256
  6
BYLAYER
  0
ACDBPLACEHOLDER
  5
F
102
{ACAD_REACTORS
330
E
102
}
330
E
  0
VISUALSTYLE
  5
2F
102
{ACAD_REACTORS
330
2A
102
}
330
2A
100
AcDbVisualStyle
  2
2dWireframe
 70
     4
177
     2
291
     0
 71
     0
176
     1
 72
     2
176
     1
 73
     0
176
     1
 90
        0
176
     1
 40
-0.6
176
     1
 41
-30.0
176
     1
 62
     5
 63
     7
421
 16777215
176
     1
 74
     1
176
     1
 91
        4
176
     1
 64
     7
176
     1
 65
   257
176
     1
 75
     1
176
     1
175
     1
176
     1
 42
1.0
176
     1
 92
        0
176
     1
 66
   257
176
     1
 43
1.0
176
     1
 76
     1
176
     1
 77
     6
176
     1
 78
     2
176
     1
 67
     7
176
     1
 79
     5
176
     1
170
     0
176
     1
171
     0
176
     1
290
     0
176
     1
 93
        1
176
     1
 44
0.0
176
     1
173
     0
176
     1
  0
VISUALSTYLE
  5
31
102
{ACAD_REACTORS
330
2A
102
}
330
2A
100
AcDbVisualStyle
  2
3D Hidden
 70
     6
177
     2
291
     0
 71
     1
176
     1
 72
     2
176
     1
 73
     2
176
     1
 90
        0
176
     1
 40
-0.6
176
     1
 41
-30.0
176
     1
 62
     5
 63
     7
421
 16777215
176
     1
 74
     2
176
     1
 91
        2
176
     1
 64
     7
176
     1
 65
   257
176
     1
 75
     2
176
     1
175
     1
176
     1
 42
40.0
176
     1
 92
        0
176
     1
 66
   257
176
     1
 43
1.0
176
     1
 76
     1
176
     1
 77
     6
176
     1
 78
     2
176
     1
 67
     7
176
     1
 79
     3
176
     1
170
     0
176
     1
171
     0
176
     1
290
     0
176
     1
 93
        1
176
     1
 44
0.0
176
     1
173
     0
176
     1
  0
VISUALSTYLE
  5
30
102
{ACAD_REACTORS
330
2A
102
}
330
2A
100
AcDbVisualStyle
  2
3dWireframe
 70
     5
177
     2
291
     0
 71
     0
176
     1
 72
     2
176
     1
 73
     0
176
     1
 90
        0
176
     1
 40
-0.6
176
     1
 41
-30.0
176
     1
 62
     5
 63
     7
421
 16777215
176
     1
 74
     1
176
     1
 91
        4
176
     1
 64
     7
176
     1
 65
   257
176
     1
 75
     1
176
     1
175
     1
176
     1
 42
1.0
176
     1
 92
        0
176
     1
 66
   257
176
     1
 43
1.0
176
     1
 76
     1
176
     1
 77
     6
176
     1
 78
     2
176
     1
 67
     7
176
     1
 79
     5
176
     1
170
     0
176
     1
171
     0
176
     1
290
     0
176
     1
 93
        1
176
     1
 44
0.0
176
     1
173
     0
176
     1
  0
VISUALSTYLE
  5
32
102
{ACAD_REACTORS
330
2A
102
}
330
2A
100
AcDbVisualStyle
  2
Basic
 70
     7
177
     2
291
     1
 71
     1
176
     1
 72
     0
176
     1
 73
     1
176
     1
 90
        0
176
     1
 40
-0.6
176
     1
 41
-30.0
176
     1
 62
     5
 63
     7
421
 16777215
176
     1
 74
     0
176
     1
 91
        4
176
     1
 64
     7
176
     1
 65
   257
176
     1
 75
     1
176
     1
175
     1
176
     1
 42
1.0
176
     1
 92
        8
176
     1
 66
     7
176
     1
 43
1.0
176
     1
 76
     1
176
     1
 77
     6
176
     1
 78
     2
176
     1
 67
     7
176
     1
 79
     5
176
     1
170
     0
176
     1
171
     0
176
     1
290
     0
176
     1
 93
        1
176
     1
 44
0.0
176
     1
173
     0
176
     1
  0
VISUALSTYLE
  5
36
102
{ACAD_REACTORS
330
2A
102
}
330
2A
100
AcDbVisualStyle
  2
Brighten
 70
    12
177
     2
291
     1
 71
     2
176
     1
 72
     2
176
     1
 73
     0
176
     1
 90
        0
176
     1
 40
-0.6
176
     1
 41
-30.0
176
     1
 62
     5
 63
     7
421
 16777215
176
     1
 74
     1
176
     1
 91
        4
176
     1
 64
     7
176
     1
 65
   257
176
     1
 75
     1
176
     1
175
     1
176
     1
 42
1.0
176
     1
 92
        8
176
     1
 66
     7
176
     1
 43
1.0
176
     1
 76
     1
176
     1
 77
     6
176
     1
 78
     2
176
     1
 67
     7
176
     1
 79
     5
176
     1
170
     0
176
     1
171
     0
176
     1
290
     0
176
     1
 93
        1
176
     1
 44
50.0
176
     1
173
     0
176
     1
  0
VISUALSTYLE
  5
3A
102
{ACAD_REACTORS
330
2A
102
}
330
2A
100
AcDbVisualStyle
  2
ColorChange
 70
    16
177
     2
291
     1
 71
     2
176
     1
 72
     2
176
     1
 73
     3
176
     1
 90
        0
176
     1
 40
-0.6
176
     1
 41
-30.0
176
     1
 62
     5
 63
     8
421
  8421504
176
     1
 74
     1
176
     1
 91
        4
176
     1
 64
     7
176
     1
 65
   257
176
     1
 75
     1
176
     1
175
     1
176
     1
 42
1.0
176
     1
 92
        8
176
     1
 66
     8
424
  8421504
176
     1
 43
1.0
176
     1
 76
     1
176
     1
 77
     6
176
     1
 78
     2
176
     1
 67
     7
176
     1
 79
     5
176
     1
170
     0
176
     1
171
     0
176
     1
290
     0
176
     1
 93
        1
176
     1
 44
0.0
176
     1
173
     0
176
     1
  0
VISUALSTYLE
  5
34
102
{ACAD_REACTORS
330
2A
102
}
330
2A
100
AcDbVisualStyle
  2
Conceptual
 70
     9
177
     2
291
     0
 71
     3
176
     1
 72
     2
176
     1
 73
     0
176
     1
 90
        0
176
     1
 40
-0.6
176
     1
 41
-30.0
176
     1
 62
     5
 63
     7
421
 16777215
176
     1
 74
     2
176
     1
 91
        2
176
     1
 64
     7
176
     1
 65
   257
176
     1
 75
     1
176
     1
175
     1
176
     1
 42
40.0
176
     1
 92
        8
176
     1
 66
     7
176
     1
 43
1.0
176
     1
 76
     1
176
     1
 77
     6
176
     1
 78
     2
176
     1
 67
     7
176
     1
 79
     3
176
     1
170
     0
176
     1
171
     0
176
     1
290
     0
176
     1
 93
        1
176
     1
 44
0.0
176
     1
173
     0
176
     1
  0
VISUALSTYLE
  5
35
102
{ACAD_REACTORS
330
2A
102
}
330
2A
100
AcDbVisualStyle
  2
Dim
 70
    11
177
     2
291
     1
 71
     2
176
     1
 72
     2
176
     1
 73
     0
176
     1
 90
        0
176
     1
 40
-0.6
176
     1
 41
-30.0
176
     1
 62
     5
 63
     7
421
 16777215
176
     1
 74
     1
176
     1
 91
        4
176
     1
 64
     7
176
     1
 65
   257
176
     1
 75
     1
176
     1
175
     1
176
     1
 42
1.0
176
     1
 92
        8
176
     1
 66
     7
176
     1
 43
1.0
176
     1
 76
     1
176
     1
 77
     6
176
     1
 78
     2
176
     1
 67
     7
176
     1
 79
     5
176
     1
170
     0
176
     1
171
     0
176
     1
290
     0
176
     1
 93
        1
176
     1
 44
-50.0
176
     1
173
     0
176
     1
  0
VISUALSTYLE
  5
39
102
{ACAD_REACTORS
330
2A
102
}
330
2A
100
AcDbVisualStyle
  2
Facepattern
 70
    15
177
     2
291
     1
 71
     2
176
     1
 72
     2
176
     1
 73
     0
176
     1
 90
        0
176
     1
 40
-0.6
176
     1
 41
-30.0
176
     1
 62
     5
 63
     7
421
 16777215
176
     1
 74
     1
176
     1
 91
        4
176
     1
 64
     7
176
     1
 65
   257
176
     1
 75
     1
176
     1
175
     1
176
     1
 42
1.0
176
     1
 92
        8
176
     1
 66
     7
176
     1
 43
1.0
176
     1
 76
     1
176
     1
 77
     6
176
     1
 78
     2
176
     1
 67
     7
176
     1
 79
     5
176
     1
170
     0
176
     1
171
     0
176
     1
290
     0
176
     1
 93
        1
176
     1
 44
0.0
176
     1
173
     0
176
     1
  0
VISUALSTYLE
  5
2B
102
{ACAD_REACTORS
330
2A
102
}
330
2A
100
AcDbVisualStyle
  2
Flat
 70
     0
177
     2
291
     1
 71
     2
176
     1
 72
     1
176
     1
 73
     1
176
     1
 90
        2
176
     1
 40
-0.6
176
     1
 41
30.0
176
     1
 62
     5
 63
     7
421
 16777215
176
     1
 74
     0
176
     1
 91
        4
176
     1
 64
     7
176
     1
 65
   257
176
     1
 75
     1
176
     1
175
     1
176
     1
 42
1.0
176
     1
 92
        8
176
     1
 66
     7
176
     1
 43
1.0
176
     1
 76
     1
176
     1
 77
     6
176
     1
 78
     2
176
     1
 67
     7
176
     1
 79
     5
176
     1
170
     0
176
     1
171
     0
176
     1
290
     0
176
     1
 93
       13
176
     1
 44
0.0
176
     1
173
     0
176
     1
  0
VISUALSTYLE
  5
2C
102
{ACAD_REACTORS
330
2A
102
}
330
2A
100
AcDbVisualStyle
  2
FlatWithEdges
 70
     1
177
     2
291
     1
 71
     2
176
     1
 72
     1
176
     1
 73
     1
176
     1
 90
        2
176
     1
 40
-0.6
176
     1
 41
30.0
176
     1
 62
     5
 63
     7
421
 16777215
176
     1
 74
     1
176
     1
 91
        4
176
     1
 64
     7
176
     1
 65
   257
176
     1
 75
     1
176
     1
175
     1
176
     1
 42
1.0
176
     1
 92
        0
176
     1
 66
   257
176
     1
 43
1.0
176
     1
 76
     1
176
     1
 77
     6
176
     1
 78
     2
176
     1
 67
     7
176
     1
 79
     5
176
     1
170
     0
176
     1
171
     0
176
     1
290
     0
176
     1
 93
       13
176
     1
 44
0.0
176
     1
173
     0
176
     1
  0
VISUALSTYLE
  5
2D
102
{ACAD_REACTORS
330
2A
102
}
330
2A
100
AcDbVisualStyle
  2
Gouraud
 70
     2
177
     2
291
     1
 71
     2
176
     1
 72
     2
176
     1
 73
     1
176
     1
 90
        2
176
     1
 40
-0.6
176
     1
 41
30.0
176
     1
 62
     5
 63
     7
421
 16777215
176
     1
 74
     0
176
     1
 91
        4
176
     1
 64
     7
176
     1
 65
   257
176
     1
 75
     1
176
     1
175
     1
176
     1
 42
1.0
176
     1
 92
        0
176
     1
 66
     7
176
     1
 43
1.0
176
     1
 76
     1
176
     1
 77
     6
176
     1
 78
     2
176
     1
 67
     7
176
     1
 79
     5
176
     1
170
     0
176
     1
171
     0
176
     1
290
     0
176
     1
 93
       13
176
     1
 44
0.0
176
     1
173
     0
176
     1
  0
VISUALSTYLE
  5
2E
102
{ACAD_REACTORS
330
2A
102
}
330
2A
100
AcDbVisualStyle
  2
GouraudWithEdges
 70
     3
177
     2
291
     1
 71
     2
176
     1
 72
     2
176
     1
 73
     1
176
     1
 90
        2
176
     1
 40
-0.6
176
     1
 41
30.0
176
     1
 62
     5
 63
     7
421
 16777215
176
     1
 74
     1
176
     1
 91
        4
176
     1
 64
     7
176
     1
 65
   257
176
     1
 75
     1
176
     1
175
     1
176
     1
 42
1.0
176
     1
 92
        0
176
     1
 66
   257
176
     1
 43
1.0
176
     1
 76
     1
176
     1
 77
     6
176
     1
 78
     2
176
     1
 67
     7
176
     1
 79
     5
176
     1
170
     0
176
     1
171
     0
176
     1
290
     0
176
     1
 93
       13
176
     1
 44
0.0
176
     1
173
     0
176
     1
  0
VISUALSTYLE
  5
38
102
{ACAD_REACTORS
330
2A
102
}
330
2A
100
AcDbVisualStyle
  2
Linepattern
 70
    14
177
     2
291
     1
 71
     2
176
     1
 72
     2
176
     1
 73
     0
176
     1
 90
        0
176
     1
 40
-0.6
176
     1
 41
-30.0
176
     1
 62
     5
 63
     7
421
 16777215
176
     1
 74
     1
176
     1
 91
        4
176
     1
 64
     7
176
     1
 65
   257
176
     1
 75
     7
176
     1
175
     7
176
     1
 42
1.0
176
     1
 92
        8
176
     1
 66
     7
176
     1
 43
1.0
176
     1
 76
     1
176
     1
 77
     6
176
     1
 78
     2
176
     1
 67
     7
176
     1
 79
     5
176
     1
170
     0
176
     1
171
     0
176
     1
290
     0
176
     1
 93
        1
176
     1
 44
0.0
176
     1
173
     0
176
     1
  0
VISUALSTYLE
  5
33
102
{ACAD_REACTORS
330
2A
102
}
330
2A
100
AcDbVisualStyle
  2
Realistic
 70
     8
177
     2
291
     0
 71
     2
176
     1
 72
     2
176
     1
 73
     0
176
     1
 90
        0
176
     1
 40
-0.6
176
     1
 41
-30.0
176
     1
 62
     5
 63
     7
421
 16777215
176
     1
 74
     1
176
     1
 91
        0
176
     1
 64
     7
176
     1
 65
   257
176
     1
 75
     1
176
     1
175
     1
176
     1
 42
1.0
176
     1
 92
        8
176
     1
 66
     8
424
  7895160
176
     1
 43
1.0
176
     1
 76
     1
176
     1
 77
     6
176
     1
 78
     2
176
     1
 67
     7
176
     1
 79
     5
176
     1
170
     0
176
     1
171
     0
176
     1
290
     0
176
     1
 93
       13
176
     1
 44
0.0
176
     1
173
     0
176
     1
  0
VISUALSTYLE
  5
37
102
{ACAD_REACTORS
330
2A
102
}
330
2A
100
AcDbVisualStyle
  2
Thicken
 70
    13
177
     2
291
     1
 71
     2
176
     1
 72
     2
176
     1
 73
     0
176
     1
 90
        0
176
     1
 40
-0.6
176
     1
 41
-30.0
176
     1
 62
     5
 63
     7
421
 16777215
176
     1
 74
     1
176
     1
 91
        4
176
     1
 64
     7
176
     1
 65
   257
176
     1
 75
     1
176
     1
175
     1
176
     1
 42
1.0
176
     1
 92
       12
176
     1
 66
     7
176
     1
 43
1.0
176
     1
 76
     1
176
     1
 77
     6
176
     1
 78
     2
176
     1
 67
     7
176
     1
 79
     5
176
     1
170
     0
176
     1
171
     0
176
     1
290
     0
176
     1
 93
        1
176
     1
 44
0.0
176
     1
173
     0
176
     1
  0
ENDSEC
  0
EOF
