  0
SECTION
  2
HEADER
  9
$ACADVER
  1
AC1032
  9
$ACADMAINTVER
 90
      174
  9
$DWGCODEPAGE
  3
ANSI_1252
  9
$LASTSAVEDBY
  1
ano
  9
$REQUIREDVERSIONS
160
                 0
  9
$INSBASE
 10
0.0
 20
0.0
 30
0.0
  9
$EXTMIN
 10
0.0
 20
-213.4925672209324
 30
0.0
  9
$EXTMAX
 10
71.39874265793157
 20
70.0
 30
0.0
  9
$LIMMIN
 10
0.0
 20
0.0
  9
$LIMMAX
 10
12.0
 20
9.0
  9
$ORTHOMODE
 70
     0
  9
$REGENMODE
 70
     1
  9
$FILLMODE
 70
     1
  9
$QTEXTMODE
 70
     0
  9
$MIRRTEXT
 70
     1
  9
$LTSCALE
 40
1.0
  9
$ATTMODE
 70
     1
  9
$TEXTSIZE
 40
0.2
  9
$TRACEWID
 40
0.05
  9
$TEXTSTYLE
  7
Standard
  9
$CLAYER
  8
0
  9
$CELTYPE
  6
ByLayer
  9
$CECOLOR
 62
   256
  9
$CELTSCALE
 40
1.0
  9
$DISPSILH
 70
     0
  9
$DIMSCALE
 40
1.0
  9
$DIMASZ
 40
0.18
  9
$DIMEXO
 40
0.0625
  9
$DIMDLI
 40
0.38
  9
$DIMRND
 40
0.0
  9
$DIMDLE
 40
0.0
  9
$DIMEXE
 40
0.18
  9
$DIMTP
 40
0.0
  9
$DIMTM
 40
0.0
  9
$DIMTXT
 40
0.18
  9
$DIMCEN
 40
0.09
  9
$DIMTSZ
 40
0.0
  9
$DIMTOL
 70
     0
  9
$DIMLIM
 70
     0
  9
$DIMTIH
 70
     1
  9
$DIMTOH
 70
     1
  9
$DIMSE1
 70
     0
  9
$DIMSE2
 70
     0
  9
$DIMTAD
 70
     0
  9
$DIMZIN
 70
     0
  9
$DIMBLK
  1

  9
$DIMASO
 70
     1
  9
$DIMSHO
 70
     1
  9
$DIMPOST
  1

  9
$DIMAPOST
  1

  9
$DIMALT
 70
     0
  9
$DIMALTD
 70
     2
  9
$DIMALTF
 40
25.4
  9
$DIMLFAC
 40
1.0
  9
$DIMTOFL
 70
     0
  9
$DIMTVP
 40
0.0
  9
$DIMTIX
 70
     0
  9
$DIMSOXD
 70
     0
  9
$DIMSAH
 70
     0
  9
$DIMBLK1
  1

  9
$DIMBLK2
  1

  9
$DIMSTYLE
  2
Standard
  9
$DIMCLRD
 70
     0
  9
$DIMCLRE
 70
     0
  9
$DIMCLRT
 70
     0
  9
$DIMTFAC
 40
1.0
  9
$DIMGAP
 40
0.09
  9
$DIMJUST
 70
     0
  9
$DIMSD1
 70
     0
  9
$DIMSD2
 70
     0
  9
$DIMTOLJ
 70
     1
  9
$DIMTZIN
 70
     0
  9
$DIMALTZ
 70
     0
  9
$DIMALTTZ
 70
     0
  9
$DIMUPT
 70
     0
  9
$DIMDEC
 70
     4
  9
$DIMTDEC
 70
     4
  9
$DIMALTU
 70
     2
  9
$DIMALTTD
 70
     2
  9
$DIMTXSTY
  7
Standard
  9
$DIMAUNIT
 70
     0
  9
$DIMADEC
 70
     0
  9
$DIMALTRND
 40
0.0
  9
$DIMAZIN
 70
     0
  9
$DIMDSEP
 70
    46
  9
$DIMATFIT
 70
     3
  9
$DIMFRAC
 70
     0
  9
$DIMLDRBLK
  1

  9
$DIMLUNIT
 70
     2
  9
$DIMLWD
 70
    -2
  9
$DIMLWE
 70
    -2
  9
$DIMTMOVE
 70
     0
  9
$DIMFXL
 40
1.0
  9
$DIMFXLON
 70
     0
  9
$DIMJOGANG
 40
0.7853981633974483
  9
$DIMTFILL
 70
     0
  9
$DIMTFILLCLR
 70
     0
  9
$DIMARCSYM
 70
     0
  9
$DIMLTYPE
  6

  9
$DIMLTEX1
  6

  9
$DIMLTEX2
  6

  9
$DIMTXTDIRECTION
 70
     0
  9
$LUNITS
 70
     2
  9
$LUPREC
 70
     4
  9
$SKETCHINC
 40
0.1
  9
$FILLETRAD
 40
0.5
  9
$AUNITS
 70
     0
  9
$AUPREC
 70
     0
  9
$MENU
  1
.
  9
$ELEVATION
 40
0.0
  9
$PELEVATION
 40
0.0
  9
$THICKNESS
 40
0.0
  9
$LIMCHECK
 70
     0
  9
$CHAMFERA
 40
0.5
  9
$CHAMFERB
 40
0.5
  9
$CHAMFERC
 40
1.0
  9
$CHAMFERD
 40
0.0
  9
$SKPOLY
 70
     0
  9
$TDCREATE
 40
2459170.901631944
  9
$TDUCREATE
 40
2459170.859969838
  9
$TDUPDATE
 40
2459170.903888889
  9
$TDUUPDATE
 40
2459170.862222222
  9
$TDINDWG
 40
0.0022338079
  9
$TDUSRTIMER
 40
0.0022338079
  9
$USRTIMER
 70
     1
  9
$ANGBASE
 50
0.0
  9
$ANGDIR
 70
     0
  9
$PDMODE
 70
     0
  9
$PDSIZE
 40
0.0
  9
$PLINEWID
 40
0.0
  9
$SPLFRAME
 70
     0
  9
$SPLINETYPE
 70
     6
  9
$SPLINESEGS
 70
     8
  9
$HANDSEED
  5
C64
  9
$SURFTAB1
 70
     6
  9
$SURFTAB2
 70
     6
  9
$SURFTYPE
 70
     6
  9
$SURFU
 70
     6
  9
$SURFV
 70
     6
  9
$UCSBASE
  2

  9
$UCSNAME
  2

  9
$UCSORG
 10
0.0
 20
0.0
 30
0.0
  9
$UCSXDIR
 10
1.0
 20
0.0
 30
0.0
  9
$UCSYDIR
 10
0.0
 20
1.0
 30
0.0
  9
$UCSORTHOREF
  2

  9
$UCSORTHOVIEW
 70
     0
  9
$UCSORGTOP
 10
0.0
 20
0.0
 30
0.0
  9
$UCSORGBOTTOM
 10
0.0
 20
0.0
 30
0.0
  9
$UCSORGLEFT
 10
0.0
 20
0.0
 30
0.0
  9
$UCSORGRIGHT
 10
0.0
 20
0.0
 30
0.0
  9
$UCSORGFRONT
 10
0.0
 20
0.0
 30
0.0
  9
$UCSORGBACK
 10
0.0
 20
0.0
 30
0.0
  9
$PUCSBASE
  2

  9
$PUCSNAME
  2

  9
$PUCSORG
 10
0.0
 20
0.0
 30
0.0
  9
$PUCSXDIR
 10
1.0
 20
0.0
 30
0.0
  9
$PUCSYDIR
 10
0.0
 20
1.0
 30
0.0
  9
$PUCSORTHOREF
  2

  9
$PUCSORTHOVIEW
 70
     0
  9
$PUCSORGTOP
 10
0.0
 20
0.0
 30
0.0
  9
$PUCSORGBOTTOM
 10
0.0
 20
0.0
 30
0.0
  9
$PUCSORGLEFT
 10
0.0
 20
0.0
 30
0.0
  9
$PUCSORGRIGHT
 10
0.0
 20
0.0
 30
0.0
  9
$PUCSORGFRONT
 10
0.0
 20
0.0
 30
0.0
  9
$PUCSORGBACK
 10
0.0
 20
0.0
 30
0.0
  9
$USERI1
 70
     0
  9
$USERI2
 70
     0
  9
$USERI3
 70
     0
  9
$USERI4
 70
     0
  9
$USERI5
 70
     0
  9
$USERR1
 40
0.0
  9
$USERR2
 40
0.0
  9
$USERR3
 40
0.0
  9
$USERR4
 40
0.0
  9
$USERR5
 40
0.0
  9
$WORLDVIEW
 70
     1
  9
$SHADEDGE
 70
     3
  9
$SHADEDIF
 70
    70
  9
$TILEMODE
 70
     1
  9
$MAXACTVP
 70
    64
  9
$PINSBASE
 10
0.0
 20
0.0
 30
0.0
  9
$PLIMCHECK
 70
     0
  9
$PEXTMIN
 10
1.000000000000000E+20
 20
1.000000000000000E+20
 30
1.000000000000000E+20
  9
$PEXTMAX
 10
-1.000000000000000E+20
 20
-1.000000000000000E+20
 30
-1.000000000000000E+20
  9
$PLIMMIN
 10
0.0
 20
0.0
  9
$PLIMMAX
 10
12.0
 20
9.0
  9
$UNITMODE
 70
     0
  9
$VISRETAIN
 70
     1
  9
$PLINEGEN
 70
     0
  9
$PSLTSCALE
 70
     1
  9
$TREEDEPTH
 70
  3020
  9
$CMLSTYLE
  2
Standard
  9
$CMLJUST
 70
     0
  9
$CMLSCALE
 40
1.0
  9
$PROXYGRAPHICS
 70
     1
  9
$MEASUREMENT
 70
     0
  9
$CELWEIGHT
370
    -1
  9
$ENDCAPS
280
     0
  9
$JOINSTYLE
280
     0
  9
$LWDISPLAY
290
     1
  9
$INSUNITS
 70
     1
  9
$HYPERLINKBASE
  1

  9
$STYLESHEET
  1

  9
$XEDIT
290
     1
  9
$CEPSNTYPE
380
     0
  9
$PSTYLEMODE
290
     1
  9
$FINGERPRINTGUID
  2
{46B7BE72-E5A3-4A7D-850F-8603C16B66E3}
  9
$VERSIONGUID
  2
{8E0624B9-9348-2A4B-81B4-0DB5FC053847}
  9
$EXTNAMES
290
     1
  9
$PSVPSCALE
 40
0.0
  9
$OLESTARTUP
290
     0
  9
$SORTENTS
280
   127
  9
$INDEXCTL
280
     0
  9
$HIDETEXT
280
     1
  9
$XCLIPFRAME
280
     2
  9
$HALOGAP
280
     0
  9
$OBSCOLOR
 70
   257
  9
$OBSLTYPE
280
     0
  9
$INTERSECTIONDISPLAY
280
     0
  9
$INTERSECTIONCOLOR
 70
   257
  9
$DIMASSOC
280
     2
  9
$PROJECTNAME
  1

  9
$CAMERADISPLAY
290
     0
  9
$LENSLENGTH
 40
50.0
  9
$CAMERAHEIGHT
 40
0.0
  9
$STEPSPERSEC
 40
2.0
  9
$STEPSIZE
 40
6.0
  9
$3DDWFPREC
 40
2.0
  9
$PSOLWIDTH
 40
0.25
  9
$PSOLHEIGHT
 40
4.0
  9
$LOFTANG1
 40
1.570796326794897
  9
$LOFTANG2
 40
1.570796326794897
  9
$LOFTMAG1
 40
0.0
  9
$LOFTMAG2
 40
0.0
  9
$LOFTPARAM
 70
     7
  9
$LOFTNORMALS
280
     1
  9
$LATITUDE
 40
37.795
  9
$LONGITUDE
 40
-122.394
  9
$NORTHDIRECTION
 40
0.0
  9
$TIMEZONE
 70
 -8000
  9
$LIGHTGLYPHDISPLAY
280
     1
  9
$TILEMODELIGHTSYNCH
280
     1
  9
$CMATERIAL
347
3C
  9
$SOLIDHIST
280
     1
  9
$SHOWHIST
280
     1
  9
$DWFFRAME
280
     2
  9
$DGNFRAME
280
     2
  9
$REALWORLDSCALE
290
     1
  9
$INTERFERECOLOR
 62
   256
  9
$INTERFEREOBJVS
345
33
  9
$INTERFEREVPVS
346
A1
  9
$CSHADOW
280
     0
  9
$SHADOWPLANELOCATION
 40
0.0
  0
ENDSEC
  0
SECTION
  2
CLASSES
  0
CLASS
  1
ACDBDICTIONARYWDFLT
  2
AcDbDictionaryWithDefault
  3
ObjectDBX Classes
 90
        0
 91
        1
280
     0
281
     0
  0
CLASS
  1
VISUALSTYLE
  2
AcDbVisualStyle
  3
ObjectDBX Classes
 90
     4095
 91
       26
280
     0
281
     0
  0
CLASS
  1
MATERIAL
  2
AcDbMaterial
  3
ObjectDBX Classes
 90
     1153
 91
        3
280
     0
281
     0
  0
CLASS
  1
SUN
  2
AcDbSun
  3
SCENEOE
 90
     1153
 91
        1
280
     0
281
     0
  0
CLASS
  1
TABLESTYLE
  2
AcDbTableStyle
  3
ObjectDBX Classes
 90
     4095
 91
        1
280
     0
281
     0
  0
CLASS
  1
SCALE
  2
AcDbScale
  3
ObjectDBX Classes
 90
     1153
 91
       17
280
     0
281
     0
  0
CLASS
  1
MLEADERSTYLE
  2
AcDbMLeaderStyle
  3
ACDB_MLEADERSTYLE_CLASS
 90
     4095
 91
        1
280
     0
281
     0
  0
CLASS
  1
ACDBSECTIONVIEWSTYLE
  2
AcDbSectionViewStyle
  3
ObjectDBX Classes
 90
     1025
 91
        1
280
     0
281
     0
  0
CLASS
  1
ACDBDETAILVIEWSTYLE
  2
AcDbDetailViewStyle
  3
ObjectDBX Classes
 90
     1025
 91
        1
280
     0
281
     0
  0
CLASS
  1
DICTIONARYVAR
  2
AcDbDictionaryVar
  3
ObjectDBX Classes
 90
        0
 91
        5
280
     0
281
     0
  0
CLASS
  1
CELLSTYLEMAP
  2
AcDbCellStyleMap
  3
ObjectDBX Classes
 90
     1152
 91
        2
280
     0
281
     0
  0
ENDSEC
  0
SECTION
  2
TABLES
  0
TABLE
  2
VPORT
  5
8
330
0
100
AcDbSymbolTable
 70
     1
  0
VPORT
  5
29
330
8
100
AcDbSymbolTableRecord
100
AcDbViewportTableRecord
  2
*Active
 70
     0
 10
0.0
 20
0.0
 11
1.0
 21
1.0
 12
3.578998674770446
 22
163.868760385003
 13
0.0
 23
0.0
 14
0.5
 24
0.5
 15
0.5
 25
0.5
 16
0.0
 26
0.0
 36
1.0
 17
104.9999999737534
 27
-148.4999999628701
 37
0.0
 40
161.1387130764504
 41
2.300361881785283
 42
50.0
 43
0.0
 44
0.0
 50
0.0
 51
0.0
 71
     0
 72
   100
 73
     1
 74
     3
 75
     0
 76
     0
 77
     0
 78
     0
281
     0
 65
     1
110
0.0
120
0.0
130
0.0
111
1.0
121
0.0
131
0.0
112
0.0
122
1.0
132
0.0
 79
     0
146
0.0
348
2F
 60
     3
 61
     5
292
     1
282
     1
141
0.0
142
0.0
361
3F
1001
ACAD_NAV_VCDISPLAY
1070
     3
  0
ENDTAB
  0
TABLE
  2
LTYPE
  5
5
330
0
100
AcDbSymbolTable
 70
     2
  0
LTYPE
  5
14
330
5
100
AcDbSymbolTableRecord
100
AcDbLinetypeTableRecord
  2
ByBlock
 70
     0
  3

 72
    65
 73
     0
 40
0.0
  0
LTYPE
  5
15
330
5
100
AcDbSymbolTableRecord
100
AcDbLinetypeTableRecord
  2
ByLayer
 70
     0
  3

 72
    65
 73
     0
 40
0.0
  0
LTYPE
  5
16
330
5
100
AcDbSymbolTableRecord
100
AcDbLinetypeTableRecord
  2
Continuous
 70
     0
  3
Solid line
 72
    65
 73
     0
 40
0.0
  0
ENDTAB
  0
TABLE
  2
LAYER
  5
2
102
{ACAD_XDICTIONARY
360
C5B
102
}
330
0
100
AcDbSymbolTable
 70
     2
  0
LAYER
  5
10
330
2
100
AcDbSymbolTableRecord
100
AcDbLayerTableRecord
  2
0
 70
     0
 62
     7
  6
Continuous
370
    -3
390
F
347
3E
348
0
  0
LAYER
  5
40
330
2
100
AcDbSymbolTableRecord
100
AcDbLayerTableRecord
  2
Calque 1
 70
     0
 62
     7
  6
Continuous
370
    -3
390
F
347
3E
348
0
  0
ENDTAB
  0
TABLE
  2
STYLE
  5
3
330
0
100
AcDbSymbolTable
 70
     1
  0
STYLE
  5
11
330
3
100
AcDbSymbolTableRecord
100
AcDbTextStyleTableRecord
  2
Standard
 70
     0
 40
0.0
 41
1.0
 50
0.0
 71
     0
 42
0.2
  3
txt
  4

  0
ENDTAB
  0
TABLE
  2
VIEW
  5
6
330
0
100
AcDbSymbolTable
 70
     1
  0
ENDTAB
  0
TABLE
  2
UCS
  5
7
330
0
100
AcDbSymbolTable
 70
     0
  0
ENDTAB
  0
TABLE
  2
APPID
  5
9
330
0
100
AcDbSymbolTable
 70
     3
  0
APPID
  5
12
330
9
100
AcDbSymbolTableRecord
100
AcDbRegAppTableRecord
  2
ACAD
 70
     0
  0
APPID
  5
C45
330
9
100
AcDbSymbolTableRecord
100
AcDbRegAppTableRecord
  2
ACAD_EXEMPT_FROM_CAD_STANDARDS
 70
     0
  0
APPID
  5
C54
330
9
100
AcDbSymbolTableRecord
100
AcDbRegAppTableRecord
  2
ACAD_NAV_VCDISPLAY
 70
     0
  0
ENDTAB
  0
TABLE
  2
DIMSTYLE
  5
A
330
0
100
AcDbSymbolTable
 70
     2
100
AcDbDimStyleTable
 71
     1
340
27
  0
DIMSTYLE
105
27
330
A
100
AcDbSymbolTableRecord
100
AcDbDimStyleTableRecord
  2
Standard
 70
     0
340
11
  0
ENDTAB
  0
TABLE
  2
BLOCK_RECORD
  5
1
330
0
100
AcDbSymbolTable
 70
     2
  0
BLOCK_RECORD
  5
1F
330
1
100
AcDbSymbolTableRecord
100
AcDbBlockTableRecord
  2
*Model_Space
340
22
 70
     0
280
     1
281
     0
  0
BLOCK_RECORD
  5
1B
330
1
100
AcDbSymbolTableRecord
100
AcDbBlockTableRecord
  2
*Paper_Space
340
1E
 70
     0
280
     1
281
     0
  0
BLOCK_RECORD
  5
23
330
1
100
AcDbSymbolTableRecord
100
AcDbBlockTableRecord
  2
*Paper_Space0
340
26
 70
     0
280
     1
281
     0
  0
ENDTAB
  0
ENDSEC
  0
SECTION
  2
BLOCKS
  0
BLOCK
  5
20
330
1F
100
AcDbEntity
  8
0
100
AcDbBlockBegin
  2
*Model_Space
 70
     0
 10
0.0
 20
0.0
 30
0.0
  3
*Model_Space
  1

  0
ENDBLK
  5
21
330
1F
100
AcDbEntity
  8
0
100
AcDbBlockEnd
  0
BLOCK
  5
1C
330
1B
100
AcDbEntity
 67
     1
  8
0
100
AcDbBlockBegin
  2
*Paper_Space
 70
     0
 10
0.0
 20
0.0
 30
0.0
  3
*Paper_Space
  1

  0
ENDBLK
  5
1D
330
1B
100
AcDbEntity
 67
     1
  8
0
100
AcDbBlockEnd
  0
BLOCK
  5
24
330
23
100
AcDbEntity
 67
     1
  8
0
100
AcDbBlockBegin
  2
*Paper_Space0
 70
     0
 10
0.0
 20
0.0
 30
0.0
  3
*Paper_Space0
  1

  0
ENDBLK
  5
25
330
23
100
AcDbEntity
 67
     1
  8
0
100
AcDbBlockEnd
  0
ENDSEC
  0
SECTION
  2
ENTITIES
  0
LWPOLYLINE
  5
41
330
1F
100
AcDbEntity
  8
Calque 1
370
     0
100
AcDbPolyline
 90
       11
 70
     0
 43
0.0
 10
7.401065483820861
 20
45.4230621952428
 10
7.401065483820861
 20
45.98116766385323
 10
12.53976990961952
 20
45.98116766385323
 10
12.53976990961952
 20
45.4230621952428
 10
11.3412211903011
 20
45.4230621952428
 10
10.35282329558292
 20
45.43133042440738
 10
10.35282329558292
 20
40.14793198822824
 10
9.592146212439761
 20
40.14793198822824
 10
9.592146212439761
 20
45.43133042440738
 10
8.595480088556978
 20
45.4230621952428
 10
7.401065483820861
 20
45.4230621952428
  0
LWPOLYLINE
  5
60
330
1F
100
AcDbEntity
  8
Calque 1
370
     0
100
AcDbPolyline
 90
        9
 70
     0
 43
0.0
 10
12.14289490971874
 20
21.48102661095052
 10
10.51818787887492
 20
21.48102661095052
 10
10.51818787887492
 20
15.4534875499574
 10
10.38176209765902
 20
15.4534875499574
 10
10.38176209765902
 20
21.48102661095052
 10
8.757055066815205
 20
21.48102661095052
 10
8.757055066815205
 20
21.6174523921664
 10
12.14289490971874
 20
21.6174523921664
 10
12.14289490971874
 20
21.48102661095052
  0
LWPOLYLINE
  5
71
330
1F
100
AcDbEntity
  8
Calque 1
370
     0
100
AcDbPolyline
 90
       13
 70
     0
 43
0.0
 10
31.58150167569242
 20
19.45117635104131
 10
30.29579204059718
 20
19.45117635104131
 10
30.29579204059718
 20
15.4534875499574
 10
30.15936625938129
 20
15.4534875499574
 10
30.15936625938129
 20
19.45117635104131
 10
29.55165141578323
 20
19.45117635104131
 10
29.55165141578323
 20
19.5834680176749
 10
30.15936625938129
 20
19.5834680176749
 10
30.15936625938129
 20
21.5513065588496
 10
30.29579204059718
 20
21.5513065588496
 10
30.29579204059718
 20
19.5834680176749
 10
31.58150167569242
 20
19.5834680176749
 10
31.58150167569242
 20
19.45117635104131
  0
LWPOLYLINE
  5
81
330
1F
100
AcDbEntity
  8
Calque 1
370
     0
100
AcDbPolyline
 90
        9
 70
     0
 43
0.0
 10
46.35269307824962
 20
40.14793198822824
 10
46.35269307824962
 20
45.61736558061082
 10
44.18228292254222
 20
45.61736558061082
 10
44.18228292254222
 20
46.26642157003189
 10
49.39126729623999
 20
46.26642157003189
 10
49.39126729623999
 20
45.61736558061082
 10
47.22085714053259
 20
45.61736558061082
 10
47.22085714053259
 20
40.14793198822824
 10
46.35269307824962
 20
40.14793198822824
  0
LWPOLYLINE
  5
C7
330
1F
100
AcDbEntity
  8
Calque 1
370
     0
100
AcDbPolyline
 90
      250
 70
     1
 43
0.0
 10
61.91332811125183
 20
31.94860473333364
 10
61.90796077375317
 20
31.87410653335223
 10
61.89185876125719
 20
31.81174318336784
 10
61.86502379355558
 20
31.76151336046371
 10
61.83063060606418
 20
31.72097496047383
 10
61.79157016857394
 20
31.68790416048208
 10
61.74784512691821
 20
31.66229884382182
 10
61.70072812692999
 20
31.64314089382663
 10
61.65127750194234
 20
31.62958364383002
 10
61.59950873008028
 20
31.62161518758202
 10
61.54885795509295
 20
31.61659233758326
 10
61.50194098010469
 20
31.61250293758428
 10
61.44046980512006
 20
31.60801348758543
 10
61.20516261767886
 20
31.59051130008982
 10
60.9665883552385
 20
31.57160893759456
 10
60.72487269488227
 20
31.55131632197464
 10
60.49074343244081
 20
31.53048038447986
 10
60.27108264499573
 20
31.50964444698508
 10
60.06598558254698
 20
31.48881327199024
 10
59.88126249509318
 20
31.46827737199536
 10
59.72034238263342
 20
31.44820819700036
 10
59.58348453683431
 20
31.42863815846357
 10
59.48261637435951
 20
31.41105818346796
 10
59.42422018687411
 20
31.39627855847166
 10
59.40428277437909
 20
31.37078225014469
 10
59.3822577993846
 20
31.28119327516709
 10
59.35649902439104
 20
31.17853600019277
 10
59.3270707431484
 20
31.06297115959666
 10
59.29584461815621
 20
30.9391779096276
 10
59.26368504316425
 20
30.80931723466008
 10
59.23061847650584
 20
30.67348173886072
 10
59.19728097651416
 20
30.5338976263956
 10
59.1639434765225
 20
30.3915131639312
 10
59.13068601298916
 20
30.2465844681341
 10
59.09912651299705
 20
30.10428890566968
 10
59.06990063800435
 20
29.96666059320413
 10
59.04304648801107
 20
29.83385193073729
 10
59.01922128801704
 20
29.70849181826861
 10
58.99866316302217
 20
29.59153275579786
 10
58.9814838994848
 20
29.48326538811656
 10
58.96934904948783
 20
29.38802015064039
 10
58.96281489948947
 20
29.3072433881606
 10
58.96172587448974
 20
29.24151665484371
 10
58.96405949948917
 20
29.17617515486004
 10
58.96919347448788
 20
29.10243260487846
 10
58.9774552213608
 20
29.0209736142738
 10
58.99259044635702
 20
28.93963011429415
 10
59.01565999635124
 20
28.86062023931393
 10
59.04679933801013
 20
28.78435038933302
 10
59.08738218799998
 20
28.71494171435037
 10
59.1377662629874
 20
28.65346736436573
 10
59.19837211818057
 20
28.60073021750392
 10
59.2730036681619
 20
28.56399229251312
 10
59.36257041813951
 20
28.54498991751788
 10
59.44627453061859
 20
28.54320874251832
 10
59.51284951810194
 20
28.55447681751548
 10
59.58829228058309
 20
28.57787974250963
 10
59.67222075972877
 20
28.61313097375088
 10
59.76184307220638
 20
28.65813659873962
 10
59.85659935968269
 20
28.71247672372599
 10
59.95622503882445
 20
28.77604551537672
 10
60.05897121379875
 20
28.84814341535872
 10
60.16451773877237
 20
28.92864236533856
 10
60.2723978887454
 20
29.01719232156643
 10
60.37981131371854
 20
29.11169302154281
 10
60.48629128869193
 20
29.2117944215178
 10
60.56476511783896
 20
29.28888712566518
 10
60.62089435532492
 20
29.34023798815238
 10
60.68029066781007
 20
29.39018867563991
 10
60.74295405529442
 20
29.43649975479502
 10
60.80888451777794
 20
29.46800369228714
 10
60.87808205526063
 20
29.48317225478331
 10
60.96183696773969
 20
29.47933844228425
 10
61.02762296772323
 20
29.444334067293
 10
61.05887131771543
 20
29.37665894230989
 10
61.06062563750666
 20
29.31046085378475
 10
61.05398036250832
 20
29.2619881287969
 10
61.04126766251152
 20
29.21491557880873
 10
61.02293468334943
 20
29.16897491632023
 10
61.00069857085499
 20
29.12313585383169
 10
60.97472865836149
 20
29.07729679134312
 10
60.94521782711886
 20
29.03145772885461
 10
60.91284711462695
 20
28.98561866636607
 10
60.87767605213574
 20
28.93977960387753
 10
60.84001578964515
 20
28.89362939138903
 10
60.80087756465494
 20
28.84615679140092
 10
60.76033916466508
 20
28.79728401641316
 10
60.72621161884028
 20
28.75526712475696
 10
60.68787349384987
 20
28.71081712476806
 10
60.64066759386166
 20
28.6593662497809
 10
60.5849511063756
 20
28.60186699979531
 10
60.52170986889142
 20
28.54094827481055
 10
60.4510010314091
 20
28.47676247482653
 10
60.37333312309519
 20
28.41007239359323
 10
60.29000048561602
 20
28.34281954361003
 10
60.20106714813825
 20
28.27509996862693
 10
60.10707497732841
 20
28.20840380197697
 10
60.00929608985285
 20
28.14622936449251
 10
59.90778340237824
 20
28.0887221770069
 10
59.80282504615448
 20
28.03645850201994
 10
59.69504490868143
 20
27.99068611453137
 10
59.58446442120908
 20
27.95144787704118
 10
59.47184822957055
 20
27.92042601038227
 10
59.35872297959884
 20
27.90097913538716
 10
59.24513100462724
 20
27.89320038538909
 10
59.09588272133122
 20
27.89854827601278
 10
58.95624304636612
 20
27.91970647600749
 10
58.83480564639649
 20
27.95673332599824
 10
58.72985602142271
 20
28.00757142598553
 10
58.63848904644555
 20
28.06873462597022
 10
58.560657096465
 20
28.14016577595237
 10
58.49527352773137
 20
28.22059712489062
 10
58.44064447774503
 20
28.30805249986872
 10
58.39675010275598
 20
28.40250874984511
 10
58.36206216943132
 20
28.50129146648706
 10
58.33439204443824
 20
28.60057054146228
 10
58.31372279444341
 20
28.70031634143737
 10
58.29924955694703
 20
28.7997240039125
 10
58.28991505694936
 20
28.89773625388798
 10
58.2857145319504
 20
28.99434832886385
 10
58.28453131528404
 20
29.08617356217419
 10
58.28382011528422
 20
29.16913948715342
 10
58.28357564028428
 20
29.24323763713486
 10
58.28646647778355
 20
29.33407994336216
 10
58.29542315278131
 20
29.43604824333664
 10
58.31044725277753
 20
29.54875121830844
 10
58.32967187777274
 20
29.66938851827828
 10
58.35123012776735
 20
29.79515979324688
 10
58.37512200276139
 20
29.92606398488087
 10
58.40134750275483
 20
30.06014740984733
 10
58.42990662774768
 20
30.19563100981344
 10
58.46079408607327
 20
30.33250843477919
 10
58.49146458606561
 20
30.46772533474544
 10
58.51980146105853
 20
30.59874170971273
 10
58.54580471105204
 20
30.72555041593105
 10
58.56947433604613
 20
30.84656554090074
 10
58.59081033604081
 20
30.96057979087223
 10
58.60979577770272
 20
31.06755929917884
 10
58.6242420276991
 20
31.16312679915495
 10
58.63262085269699
 20
31.24422582413468
 10
58.63489256519644
 20
31.30790626995207
 10
58.62766944019824
 20
31.33737661994473
 10
58.60877819020299
 20
31.35611229494009
 10
58.57825691521061
 20
31.36417996993805
 10
58.53842971522057
 20
31.36564681993767
 10
58.49066819023251
 20
31.36291314493835
 10
58.43501123399644
 20
31.35603728556507
 10
58.37324795901188
 20
31.34770291056714
 10
58.30635070902861
 20
31.33936853556921
 10
58.23438721737993
 20
31.33116962723796
 10
58.15980011739859
 20
31.32799145223874
 10
58.08381284241757
 20
31.33228087723765
 10
58.0124535268104
 20
31.34274012098501
 10
57.96378077682257
 20
31.35307474598244
 10
57.91697492683427
 20
31.36620972097916
 10
57.8720756643455
 20
31.38218473347521
 10
57.83003707685601
 20
31.40195387097029
 10
57.7912655643657
 20
31.42592353346433
 10
57.75580914874955
 20
31.45414174283221
 10
57.72463858625733
 20
31.48757925532385
 10
57.69813527376395
 20
31.52661746781411
 10
57.67639446126941
 20
31.57135163030299
 10
57.66105921127324
 20
31.62342480528995
 10
57.65272483627533
 20
31.68343230527492
 10
57.65179376752555
 20
31.75530385421521
 10
57.66426199252241
 20
31.82706837919727
 10
57.69213214251543
 20
31.88109735418377
 10
57.7348856341714
 20
31.91775378750796
 10
57.78578088415868
 20
31.94175678750196
 10
57.84274355914444
 20
31.95455838749877
 10
57.92117836224976
 20
31.95687296249821
 10
58.30437025515381
 20
31.95687296249821
 10
58.74547338604362
 20
31.95687296249821
 10
58.86067038701497
 20
31.96103009583052
 10
58.88021727451008
 20
31.98128818332544
 10
58.90303123700438
 20
32.01508129581697
 10
58.9289975776229
 20
32.0620653426802
 10
58.95707886511587
 20
32.11912803016591
 10
58.98702705260838
 20
32.18552521764932
 10
59.01879927760045
 20
32.26099973013041
 10
59.05204787759214
 20
32.34346559260979
 10
59.08669665258347
 20
32.43246560508755
 10
59.12265008799114
 20
32.52761770923047
 10
59.159210212982
 20
32.62613002170582
 10
59.19623706297274
 20
32.72744268418052
 10
59.23357188796339
 20
32.83129111332119
 10
59.27016535045424
 20
32.93592641329502
 10
59.30582536294533
 20
33.04102843826874
 10
59.34049358481167
 20
33.1459554413675
 10
59.37381997230334
 20
33.24685694134229
 10
59.40574618479536
 20
33.34309119131822
 10
59.44596390978531
 20
33.46188804962185
 10
59.49892608477208
 20
33.58228087459179
 10
59.55748895975744
 20
33.67373674956894
 10
59.62249232224116
 20
33.7373753912197
 10
59.69812399722224
 20
33.77878056620935
 10
59.78495707220052
 20
33.79871639120438
 10
59.86096974718154
 20
33.79939266620423
 10
59.91736568466745
 20
33.7908916037064
 10
59.96676074715511
 20
33.77445621621053
 10
60.00932029922781
 20
33.75083064434145
 10
60.0457359617187
 20
33.72312718184839
 10
60.07608419921112
 20
33.69168991935624
 10
60.10063329920498
 20
33.65696600269828
 10
60.12041354920005
 20
33.62067257770732
 10
60.13552654919627
 20
33.58297897771672
 10
60.14616518044362
 20
33.54456028710129
 10
60.1530104804419
 20
33.50780013711048
 10
60.15612198044113
 20
33.47290688711922
 10
60.15498109710809
 20
33.451067120458
 10
60.14790243460986
 20
33.42307473296501
 10
60.13475634711316
 20
33.38061387047566
 10
60.11621037836779
 20
33.32501962048957
 10
60.09426319087328
 20
33.26028930800573
 10
60.06904892837958
 20
33.1866912205241
 10
60.04068665338668
 20
33.10482067054457
 10
60.00950497839449
 20
33.01632072056674
 10
59.97552295340298
 20
32.92128662059054
 10
59.93937623987034
 20
32.82149822269881
 10
59.90268276487952
 20
32.7214857227238
 10
59.86552256488881
 20
32.62147322274879
 10
59.82843750656475
 20
32.52200258944035
 10
59.79269970657369
 20
32.42434593946476
 10
59.75836208158227
 20
32.32855618948872
 10
59.72585682846539
 20
32.23665025826168
 10
59.69611977847283
 20
32.15299535828257
 10
59.66918307847956
 20
32.07774150830139
 10
59.86480594093047
 20
32.07785369163463
 10
60.08833387837461
 20
32.09452244163046
 10
60.2852584908254
 20
32.11119119162632
 10
60.45882092411535
 20
32.12737376974724
 10
60.61498488657631
 20
32.14217561974351
 10
60.7538800240416
 20
32.15557729474017
 10
60.87722083651076
 20
32.16757879473715
 10
60.98791244898309
 20
32.17818011973452
 10
61.08600248645858
 20
32.18738126973221
 10
61.17511309476964
 20
32.19463892285541
 10
61.2608904822482
 20
32.19910614785428
 10
61.34340079472758
 20
32.20077302285387
 10
61.454998340533
 20
32.19925748952093
 10
61.55428852800818
 20
32.19401238952227
 10
61.63724334048746
 20
32.18503348952456
 10
61.70607614984527
 20
32.17252200515265
 10
61.76369446233088
 20
32.15674225515656
 10
61.8101113748193
 20
32.13769543016127
 10
61.84638522064354
 20
32.11516986350031
 10
61.87378864563669
 20
32.08891102600686
 10
61.89232429563206
 20
32.05891838851432
 10
61.90399361125415
 20
32.02541433331442
 10
61.91099448625241
 20
31.98864307082366
  0
LWPOLYLINE
  5
C8
330
1F
100
AcDbEntity
  8
Calque 1
370
     0
100
AcDbPolyline
 90
      160
 70
     1
 43
0.0
 10
58.97810675781897
 20
31.14245238978512
 10
58.97386864441671
 20
31.09615579708429
 10
58.96115430420994
 20
31.04656289395947
 10
58.93996567506485
 20
30.99367497232151
 10
58.91181623049179
 20
30.93850101451062
 10
58.87801596804907
 20
30.88191435223229
 10
58.83857005537989
 20
30.82391756930807
 10
58.79454948654324
 20
30.76504616276762
 10
58.74676170579347
 20
30.70570385473806
 10
58.69522996752512
 20
30.64589645881799
 10
58.64220994800714
 20
30.58618789407461
 10
58.58918992848913
 20
30.52695023082041
 10
58.53780288423114
 20
30.46982677960176
 10
58.49472411837277
 20
30.42208260084169
 10
58.44976174655784
 20
30.37386752059248
 10
58.40287539657362
 20
30.32512501775639
 10
58.35253253922537
 20
30.27370955146066
 10
58.29795156847485
 20
30.21852687325179
 10
58.23906272113849
 20
30.15950721994619
 10
58.17396495046385
 20
30.09474954479149
 10
58.1018036574521
 20
30.02339924878882
 10
58.02249971256635
 20
29.94537720240129
 10
57.93442369330127
 20
29.85905398312358
 10
57.83692964425338
 20
29.76378363555216
 10
57.73342820995305
 20
29.6631214982279
 10
57.63013509627038
 20
29.56561872878209
 10
57.5197784602506
 20
29.46481964891228
 10
57.40269839741365
 20
29.36098587055687
 10
57.28331614951869
 20
29.25751834891523
 10
57.16299209864546
 20
29.15546353174102
 10
57.04195232918516
 20
29.05491831234474
 10
56.92261368327995
 20
28.9569184802159
 10
56.80562954482041
 20
28.86174405702195
 10
56.69166427893909
 20
28.76978584578197
 10
56.58665324686085
 20
28.68453523545168
 10
56.49200204754368
 20
28.60681904894767
 10
56.35524876693821
 20
28.49432979116335
 10
56.16055716237264
 20
28.33547030176212
 10
55.97245817865502
 20
28.1827325317197
 10
55.79040598346941
 20
28.03655314688888
 10
55.61087043053579
 20
27.8997562642937
 10
55.4332184835587
 20
27.7728483129705
 10
55.17407021905643
 20
27.60436344210194
 10
54.87513497743195
 20
27.45053562231615
 10
54.62517349067804
 20
27.37581925270593
 10
54.48987942332905
 20
27.36989519570059
 10
54.41216323682503
 20
27.38281882545812
 10
54.32691262649479
 20
27.4079858939333
 10
54.23941925900364
 20
27.4449003073762
 10
54.17952756590337
 20
27.49146723241338
 10
54.15165717406464
 20
27.54745218723335
 10
54.15860830016154
 20
27.67955523488914
 10
54.21073883908893
 20
27.83115063280047
 10
54.30901772395206
 20
27.95637554731994
 10
54.45263105094252
 20
28.05862512004831
 10
54.64590995104067
 20
28.16288619790311
 10
54.89004621196596
 20
28.27279809362756
 10
55.1568606751968
 20
28.38453158358985
 10
55.37923082284628
 20
28.4938853738457
 10
55.55451082158175
 20
28.60135555814494
 10
55.68270067140322
 20
28.71469360132952
 10
55.76380037231068
 20
28.85345257346279
 10
55.79780992430413
 20
29.01858202898791
 10
55.77931686705778
 20
29.14985308608402
 10
55.69628123780609
 20
29.32377270273978
 10
55.54826120305306
 20
29.5617349219186
 10
55.43875561327739
 20
29.72613444783778
 10
55.35316490742721
 20
29.85792582201137
 10
55.27463772391413
 20
29.98171187086956
 10
55.20317406273814
 20
30.09749259441242
 10
55.13877392389926
 20
30.20526799263988
 10
55.0814373073975
 20
30.30503806555197
 10
54.99538345152299
 20
30.49186677796863
 10
54.93904968078512
 20
30.69636010982666
 10
54.91850442322188
 20
30.90744606253264
 10
54.92849929118
 20
31.09928641994731
 10
54.9620728232761
 20
31.29565234091871
 10
55.0191914298292
 20
31.49861088273809
 10
55.06033685116496
 20
31.61933413405069
 10
55.11380161097824
 20
31.73722519389674
 10
55.1809225139766
 20
31.85558715523189
 10
55.2569905452686
 20
31.96994645390933
 10
55.33729668996288
 20
32.07582952578224
 10
55.42183868721551
 20
32.17323346405135
 10
55.50885081793106
 20
32.25988805845108
 10
55.5968047516249
 20
32.33382831264405
 10
55.68567723390248
 20
32.39503484796813
 10
55.77064879149843
 20
32.43949143670213
 10
55.84808592526814
 20
32.46417016289226
 10
55.93736729731611
 20
32.46889855644574
 10
56.13228563222833
 20
32.40904174493727
 10
56.24432530505188
 20
32.25123742368769
 10
56.27409609768768
 20
32.02303946638796
 10
56.2563936898552
 20
31.91263922837845
 10
56.21137899565259
 20
31.8041225963255
 10
56.14717490427867
 20
31.70776833558702
 10
56.10423566478745
 20
31.65657087923998
 10
56.05564560742656
 20
31.6039607184255
 10
56.00140473219596
 20
31.5499145987491
 10
55.94151303909569
 20
31.49379883795987
 10
55.87597052812576
 20
31.43532856972496
 10
55.80592796883745
 20
31.37546465270702
 10
55.74152782999857
 20
31.3204389416612
 10
55.68419121349679
 20
31.27012224550677
 10
55.63387677818629
 20
31.22451456424378
 10
55.58991725213527
 20
31.18361589787216
 10
55.55207944544306
 20
31.14742624639195
 10
55.53192951258677
 20
31.07660498786473
 10
55.55704425867424
 20
30.91737052135182
 10
55.61229670006667
 20
30.74118360122986
 10
55.68043982749102
 20
30.58602640522372
 10
55.73197737935803
 20
30.48623017111785
 10
55.78822394611643
 20
30.38078311914228
 10
55.84933584897388
 20
30.269685249297
 10
55.9167096435127
 20
30.15293656158204
 10
55.99067605889948
 20
30.0305370559974
 10
56.06974681388457
 20
29.90392850500365
 10
56.14266678151771
 20
29.78401431283393
 10
56.20711052234632
 20
29.67304724895789
 10
56.26296886990726
 20
29.57211897800736
 10
56.30953579494445
 20
29.48828979254244
 10
56.34668469019884
 20
29.42282576515399
 10
56.36379863265874
 20
29.39257470467572
 10
56.37522235396936
 20
29.38524957040022
 10
56.39512230208449
 20
29.38169164803781
 10
56.4313710584841
 20
29.38429904702397
 10
56.49081801128907
 20
29.40467861702621
 10
56.56957192514878
 20
29.4443651480832
 10
56.66639256568854
 20
29.50228377040352
 10
56.77604284947459
 20
29.5738956783446
 10
56.89793657197831
 20
29.65869282798161
 10
57.0312336681974
 20
29.75611517597969
 10
57.17282676966346
 20
29.86409114335987
 10
57.32242519644491
 20
29.98242694350114
 10
57.47824998736056
 20
30.10997148387458
 10
57.63451951857148
 20
30.2429837137608
 10
57.79078904978241
 20
30.38117586002753
 10
57.94632219183338
 20
30.52219761393923
 10
58.08549974306811
 20
30.65256756324746
 10
58.20584123473726
 20
30.77069407383806
 10
58.3114807814231
 20
30.87864420300207
 10
58.41284668715947
 20
30.98163210275658
 10
58.51044538098273
 20
31.07991098761974
 10
58.60043116739821
 20
31.17048976109564
 10
58.6742493360199
 20
31.24671475955071
 10
58.7315859525217
 20
31.30834181184247
 10
58.77337894414944
 20
31.354432990725
 10
58.80146734593686
 20
31.38314926116459
 10
58.81589960453919
 20
31.39444217650598
 10
58.83555150577939
 20
31.39258311685472
 10
58.85660254642354
 20
31.38494404825312
 10
58.8767117840894
 20
31.37165416178183
 10
58.89569318362079
 20
31.35364363322191
 10
58.91326478548409
 20
31.33232226024143
 10
58.92942368287996
 20
31.30770457683693
 10
58.94376615368123
 20
31.28079988832642
 10
58.95575670085841
 20
31.25294693728358
 10
58.96539274058991
 20
31.22415218326245
 10
58.9724559399493
 20
31.19550729089494
 10
58.97669405335157
 20
31.16827348810631
  0
LWPOLYLINE
  5
C9
330
1F
100
AcDbEntity
  8
Calque 1
370
     0
100
AcDbPolyline
 90
       46
 70
     1
 43
0.0
 10
52.14854946785969
 20
31.8287154104469
 10
52.14442316823879
 20
31.87160391862773
 10
52.13779608096887
 20
31.91399226927874
 10
52.12866039108852
 20
31.95585701751577
 10
52.11640653160827
 20
31.99536946237046
 10
52.1006515694194
 20
32.03138080451646
 10
52.08144239429029
 20
32.06385978410822
 10
52.0598105811262
 20
32.09211868454222
 10
52.0361781378429
 20
32.11587616720797
 10
52.01047472978771
 20
32.1349915628002
 10
51.98196575058879
 20
32.14799565857516
 10
51.95045582621104
 20
32.15449770646268
 10
51.85736400597597
 20
32.14368179988063
 10
51.70494099876769
 20
32.07653565150418
 10
51.55251799155941
 20
31.95087107214053
 10
51.40126722856163
 20
31.77040016845612
 10
51.25559634800573
 20
31.54908046151712
 10
51.1159273578075
 20
31.28824830972346
 10
51.05892502933247
 20
31.16786664426837
 10
51.03041605013356
 20
31.09771955071315
 10
51.00440785858366
 20
31.02207072433003
 10
50.98032605501966
 20
30.94264336410851
 10
50.95725628895737
 20
30.86218052150102
 10
50.9351868379547
 20
30.7807173638339
 10
50.91461785954145
 20
30.69900412740194
 10
50.89604951124741
 20
30.61779104849978
 10
50.8794778855919
 20
30.5371211094151
 10
50.86459819908018
 20
30.46034692858993
 10
50.85121898515788
 20
30.38957463812241
 10
50.87930595644102
 20
30.36828668326001
 10
51.02285116749524
 20
30.4759455915507
 10
51.15839385807257
 20
30.57760260948365
 10
51.28607469747826
 20
30.67382041427999
 10
51.40736289845614
 20
30.77047585691497
 10
51.52264920907633
 20
30.86913192966918
 10
51.61267756444136
 20
30.95128280393976
 10
51.68269961861415
 20
31.01805383416883
 10
51.75372198784656
 20
31.08832596710653
 10
51.82467011494562
 20
31.16190382871778
 10
51.8915036648659
 20
31.23805281263066
 10
51.95383579701791
 20
31.31670258419257
 10
52.01054115695963
 20
31.39771247409826
 10
52.05886887827711
 20
31.48073862404601
 10
52.0986939215879
 20
31.56576540411299
 10
52.12829308790256
 20
31.65240988119044
 10
52.14492332576859
 20
31.74006248828888
  0
LWPOLYLINE
  5
CA
330
1F
100
AcDbEntity
  8
Calque 1
370
     0
100
AcDbPolyline
 90
      112
 70
     1
 43
0.0
 10
55.30701300873674
 20
31.00602660856921
 10
55.29654325809497
 20
30.95300157960114
 10
55.26513400616963
 20
30.87808525383662
 10
55.20836836810487
 20
30.77584501450477
 10
55.05591827891539
 20
30.56544811165563
 10
54.89157074581479
 20
30.35505120880643
 10
54.71534949777709
 20
30.14469385424721
 10
54.52979946726438
 20
29.93861760208157
 10
54.33663507264856
 20
29.73967981626257
 10
54.13588004290362
 20
29.54789829352075
 10
53.92873928259852
 20
29.36417671228279
 10
53.71588774921609
 20
29.18902129066083
 10
53.49742035865236
 20
29.02257967560425
 10
53.27619052003147
 20
28.86929050352842
 10
53.05353298814125
 20
28.7312300596588
 10
52.82951367679839
 20
28.60851369317459
 10
52.60545349888918
 20
28.50345300162686
 10
52.38186921873641
 20
28.4169523225805
 10
52.15899812608014
 20
28.3492252168015
 10
51.94024796524281
 20
28.30333865418012
 10
51.7267326797264
 20
28.28029518386805
 10
51.43383211167443
 20
28.28351836950381
 10
51.04408437277148
 20
28.36038838079478
 10
50.72239001304011
 20
28.52577537478442
 10
50.47018331713132
 20
28.77984809084342
 10
50.29949882969491
 20
29.12402235775423
 10
50.2130482451492
 20
29.55861719838953
 10
50.20656034817318
 20
30.03133395404106
 10
50.25150763890685
 20
30.46342406964243
 10
50.34261701201566
 20
30.88694802562773
 10
50.48252502016687
 20
31.30164216673029
 10
50.68549541329048
 20
31.70608011795719
 10
50.953663799047
 20
32.1000483185423
 10
51.1226898948557
 20
32.30145721334876
 10
51.19005447464295
 20
32.3667303477327
 10
51.26265392975108
 20
32.43009989109083
 10
51.34001368069999
 20
32.49099634804711
 10
51.42039030703846
 20
32.54732761405993
 10
51.50362231991557
 20
32.59889990250832
 10
51.58948693063099
 20
32.64526763599147
 10
51.67730259032019
 20
32.68506771678043
 10
51.76702184103517
 20
32.71820522897917
 10
51.85825710953382
 20
32.74442179042632
 10
51.95001771115144
 20
32.76305694467868
 10
52.04225421052552
 20
32.77407773482796
 10
52.08123036860595
 20
32.77483442544346
 10
52.11103659650959
 20
32.77237979491019
 10
52.14655359749055
 20
32.76802157335121
 10
52.18643145658321
 20
32.761422282025
 10
52.22826036464965
 20
32.75197946864711
 10
52.27199286374188
 20
32.73968126873058
 10
52.31648600827861
 20
32.72471817320553
 10
52.36004317661846
 20
32.70737295234565
 10
52.40264854944541
 20
32.68764824270355
 10
52.442166519099
 20
32.6651169227471
 10
52.4759803070569
 20
32.63925563677188
 10
52.50408332193747
 20
32.61006306650163
 10
52.57715867480206
 20
32.51934192577309
 10
52.63928837926842
 20
32.42671719401875
 10
52.69046848050753
 20
32.33218227985697
 10
52.72912891140608
 20
32.23312040476549
 10
52.75398830736772
 20
32.12739596108375
 10
52.76504666839248
 20
32.01357730071342
 10
52.76230399448033
 20
31.88539799710262
 10
52.74576028563131
 20
31.75864638676114
 10
52.71538588062788
 20
31.63328094398457
 10
52.66967464875886
 20
31.50719308577712
 10
52.60778289317072
 20
31.37920163654385
 10
52.52967897523146
 20
31.24928550386346
 10
52.43441175856635
 20
31.11681059681951
 10
52.3215363249128
 20
30.98148030323685
 10
52.19100323890827
 20
30.84314631702802
 10
52.04182181588807
 20
30.69883658419874
 10
51.87360448261007
 20
30.54738838502286
 10
51.7089965899336
 20
30.40740523512065
 10
51.58099261707516
 20
30.30059123604914
 10
51.4439465868443
 20
30.186638770631
 10
51.29708335275679
 20
30.06574162548722
 10
51.1320344966467
 20
29.93999190515933
 10
50.9465220370095
 20
29.80995910502344
 10
50.8347025426992
 20
29.62206847488039
 10
50.8859867877687
 20
29.39071954712247
 10
50.9929510703422
 20
29.20362911071393
 10
51.15399368467436
 20
29.06122428718678
 10
51.35841681831765
 20
28.96635782652706
 10
51.60424305677162
 20
28.91955703926825
 10
51.81942859840275
 20
28.91614204442595
 10
51.98030708733137
 20
28.93079468587436
 10
52.14213737177286
 20
28.95972426001615
 10
52.30444091741815
 20
29.00205345395122
 10
52.4650939810937
 20
29.0538887385282
 10
52.62384345374347
 20
29.11476608047764
 10
52.78040458767943
 20
29.18421090031936
 10
52.93373133063076
 20
29.2604797776022
 10
53.083726789287
 20
29.34341122347527
 10
53.22972259754696
 20
29.43177990008644
 10
53.36967410881718
 20
29.52183728868096
 10
53.5034389492536
 20
29.61332237054487
 10
53.70917772267787
 20
29.76566304279862
 10
53.92879201365189
 20
29.93900253877095
 10
54.13317757641967
 20
30.11186613698686
 10
54.32678359360726
 20
30.28633012267184
 10
54.5191214289619
 20
30.46683313224125
 10
54.71050746880364
 20
30.65352281264441
 10
54.78489723733545
 20
30.72782359752367
 10
54.89324627503485
 20
30.83617263522302
 10
54.96304759446224
 20
30.90597395465036
 10
55.07658489699789
 20
30.9983555585838
 10
55.17820159162397
 20
31.0619004326943
 10
55.25411980740205
 20
31.0845180997506
 10
55.28416991642742
 20
31.07645947652299
 10
55.30130223565942
 20
31.05028509991854
  0
LWPOLYLINE
  5
CB
330
1F
100
AcDbEntity
  8
Calque 1
370
     0
100
AcDbPolyline
 90
      238
 70
     1
 43
0.0
 10
50.66440233281406
 20
33.68079874331721
 10
50.66136619188786
 20
33.60419457225618
 10
50.65225776910925
 20
33.54113626071205
 10
50.63707779431982
 20
33.49162234900166
 10
50.61705094167201
 20
33.4532034888201
 10
50.59328730019193
 20
33.42365950211513
 10
50.56578803762613
 20
33.40298571790075
 10
50.53506462694601
 20
33.38913624429122
 10
50.50153862464171
 20
33.38042485532608
 10
50.465219226717
 20
33.376838413857
 10
50.42796811304554
 20
33.37571737720731
 10
50.39118409797811
 20
33.37506343916164
 10
50.34905881037359
 20
33.37487659972004
 10
50.25820813188961
 20
33.37515685888249
 10
50.17342973525803
 20
33.37590421664896
 10
50.09467618077687
 20
33.37711867301943
 10
50.01824717169234
 20
33.37880022799391
 10
49.9418181626078
 20
33.38094888157241
 10
49.86535762436749
 20
33.38355412403641
 10
49.78710693072724
 20
33.38602974663781
 10
49.7060536454628
 20
33.38803827063515
 10
49.62210478675832
 20
33.38957969602845
 10
49.53134752799513
 20
33.3906540228177
 10
49.43171539575537
 20
33.39126125100293
 10
49.32197524972439
 20
33.39127059297502
 10
49.1947842998468
 20
33.3863660576327
 10
49.05264619464024
 20
33.37445504322992
 10
48.89597475427421
 20
33.35563213723395
 10
48.73579496548696
 20
33.33241733661362
 10
48.5770164725118
 20
33.30593284576506
 10
48.4199020183135
 20
33.27623705201384
 10
48.27023194811694
 20
33.24461447652098
 10
48.13037094860503
 20
33.211590605216
 10
48.00097251991847
 20
33.17730673542664
 10
47.89412371424641
 20
33.14437628384249
 10
47.81436662760818
 20
33.11378132527849
 10
47.76802811059531
 20
33.08939644265505
 10
47.74654157480988
 20
33.07213714923614
 10
47.72598923623253
 20
33.05067396838092
 10
47.70642043215327
 20
33.02513024331455
 10
47.6885072006887
 20
32.99718606932842
 10
47.67246236364025
 20
32.96737350092616
 10
47.65825731121842
 20
32.93577836747622
 10
47.64555222918878
 20
32.90342011168198
 10
47.63424844297122
 20
32.87059475728367
 10
47.62447732404817
 20
32.83753220437555
 10
47.61761097456892
 20
32.80663363171897
 10
47.61401431531789
 20
32.77853765068656
 10
47.60212198485925
 20
32.6453351417751
 10
47.57222767420128
 20
32.35241760718736
 10
47.53999787052316
 20
32.06136846701577
 10
47.50581223740897
 20
31.77214553641767
 10
47.47280004356909
 20
31.48440111886961
 10
47.44165624414534
 20
31.19805799713367
 10
47.41247542660502
 20
30.91316346494347
 10
47.38595590336119
 20
30.6300666785055
 10
47.36223897174153
 20
30.34883828648367
 10
47.34179888279746
 20
30.0694255943167
 10
47.32778592467653
 20
29.79147856998819
 10
47.32077944561607
 20
29.51493284147179
 10
47.32042912166305
 20
29.35163516950266
 10
47.32463300909933
 20
29.28897389177194
 10
47.33304078397188
 20
29.21089836010819
 10
47.34520184209614
 20
29.11940410732882
 10
47.35866595935732
 20
29.02534212594213
 10
47.37306427382658
 20
28.93034594734738
 10
47.38811419084844
 20
28.83561659883017
 10
47.40241908559688
 20
28.74708973590126
 10
47.41578978313727
 20
28.66556935203281
 10
47.42768576280373
 20
28.59344918160213
 10
47.43567314893266
 20
28.5415078168339
 10
47.4394566476253
 20
28.51105298785109
 10
47.4387840256355
 20
28.47145236820137
 10
47.43261832406228
 20
28.41535382585727
 10
47.42084743924071
 20
28.35878818490909
 10
47.40374506175908
 20
28.30257651712185
 10
47.38234026822937
 20
28.24980605233148
 10
47.35673158726338
 20
28.20077237637338
 10
47.32682034428101
 20
28.15587018756784
 10
47.29226672504784
 20
28.11645874285273
 10
47.25304211977435
 20
28.08265248138599
 10
47.20967858296421
 20
28.05540910127425
 10
47.16385620990879
 20
28.03775277404191
 10
47.11569834383323
 20
28.0299055174942
 10
47.07699221801021
 20
28.0310662575252
 10
47.04139930438308
 20
28.03891351407293
 10
47.0039379963398
 20
28.05330015107708
 10
46.96522209063978
 20
28.07373513113018
 10
46.92688497271396
 20
28.09891174588745
 10
46.88901495339216
 20
28.12875934668503
 10
46.85213751860392
 20
28.16314656204051
 10
46.81753718951035
 20
28.20175226166361
 10
46.78527235343692
 20
28.24456184872304
 10
46.75604438813127
 20
28.29101422102062
 10
46.73142829169885
 20
28.33984938007205
 10
46.71148318130675
 20
28.39102003214362
 10
46.69116439203139
 20
28.45936122889941
 10
46.67257386759096
 20
28.53795056902757
 10
46.65678593477473
 20
28.6235463882162
 10
46.64348267459532
 20
28.7145590915284
 10
46.63206211372676
 20
28.80797881233451
 10
46.62250994727432
 20
28.90373402616081
 10
46.61482617523802
 20
29.0008122967831
 10
46.60901079761784
 20
29.0974549979571
 10
46.60506381441378
 20
29.19363060052706
 10
46.60262760325713
 20
29.28737218146506
 10
46.60113288772424
 20
29.37554872044095
 10
46.6005723693994
 20
29.45812007616849
 10
46.60075687334798
 20
29.53414037397451
 10
46.60141081139362
 20
29.60223167297707
 10
46.6025318480433
 20
29.66238229571113
 10
46.60372032205393
 20
29.71239410533977
 10
46.60444432489017
 20
29.74934160491861
 10
46.60470122912239
 20
29.77321034358457
 10
46.60723115193647
 20
29.86802318597722
 10
46.61535866764661
 20
29.99881079510581
 10
46.62909136660511
 20
30.1622953065166
 10
46.6470971419806
 20
30.3498180258056
 10
46.66790638479018
 20
30.55182649458379
 10
46.69151821922393
 20
30.76831502008693
 10
46.71723199737583
 20
30.99437906697279
 10
46.74434707133982
 20
31.22511409989889
 10
46.77286256530601
 20
31.46051442610104
 10
46.80130887029149
 20
31.69102758719024
 10
46.82835387946487
 20
31.90799488876249
 10
46.8539958412064
 20
32.11140406947956
 10
46.87746754605893
 20
32.29588466314152
 10
46.8981366592873
 20
32.45701032660193
 10
46.91599529860254
 20
32.59472851126785
 10
46.92944773839862
 20
32.69840104643251
 10
46.93729499494634
 20
32.76003470723438
 10
46.93953239725966
 20
32.78396650421192
 10
46.9356087689858
 20
32.82338962639207
 10
46.92514576025551
 20
32.8544049736997
 10
46.90817986314722
 20
32.87704173979753
 10
46.88755745977927
 20
32.89357703038024
 10
46.8650666619952
 20
32.90544133492261
 10
46.84074425381005
 20
32.91265567286189
 10
46.81664196584207
 20
32.9163924616941
 10
46.79394097368617
 20
32.91732665890217
 10
46.77271280181611
 20
32.915515484065
 10
46.7559673168616
 20
32.91336683048653
 10
46.74529411375949
 20
32.91215237411606
 10
46.71959434856576
 20
32.91172264340037
 10
46.59959671719026
 20
32.90714507708086
 10
46.4590467472374
 20
32.8960281303049
 10
46.29827549484281
 20
32.87850186084006
 10
46.12610294939708
 20
32.85803126451845
 10
45.94645682628685
 20
32.83615937238471
 10
45.75949769065725
 20
32.81297376542713
 10
45.5687579757013
 20
32.79040122538731
 10
45.37568276772518
 20
32.76922998115964
 10
45.180731283044
 20
32.74965431656975
 10
44.99239712589878
 20
32.73526767956557
 10
44.81387203943822
 20
32.72742042301783
 10
44.68306808185842
 20
32.72581827480599
 10
44.64415876814266
 20
32.72581827480599
 10
44.60524945442689
 20
32.72581827480599
 10
44.56631547206611
 20
32.72596628667614
 10
44.52702080200201
 20
32.72827842476611
 10
44.48725903333389
 20
32.73339315448024
 10
44.44705877585126
 20
32.74142491497654
 10
44.40675984378851
 20
32.75373296319273
 10
44.36646091172575
 20
32.77071199744924
 10
44.3261291367924
 20
32.79249338922844
 10
44.28542149345111
 20
32.82044924067972
 10
44.2442467515058
 20
32.85494447258739
 10
44.21824337221939
 20
32.89034587578687
 10
44.21588452426904
 20
32.92318290765019
 10
44.21399277492271
 20
32.96162512276195
 10
44.21286341807915
 20
33.00520848785268
 10
44.21493032940198
 20
33.05010834116513
 10
44.22073402955706
 20
33.09547529308159
 10
44.23055828094634
 20
33.14097828746651
 10
44.24649802080888
 20
33.18417323087425
 10
44.26897714112787
 20
33.22456558265782
 10
44.29836450383215
 20
33.2615757026432
 10
44.33711033303649
 20
33.29135323865015
 10
44.38566523292549
 20
33.31319009838859
 10
44.47761359312892
 20
33.33455985952301
 10
44.61435670945891
 20
33.35861543763056
 10
44.76277729088969
 20
33.3789342269059
 10
44.92152352486749
 20
33.39577371545445
 10
45.08324473904804
 20
33.41053403134186
 10
45.24683434764471
 20
33.42342595281309
 10
45.41158586401893
 20
33.43473207452362
 10
45.57400772610553
 20
33.44584902129955
 10
45.73362699656793
 20
33.45696596807551
 10
45.88897654788456
 20
33.46839178380341
 10
46.03345014611129
 20
33.48151725457669
 10
46.16624627923724
 20
33.49651111976607
 10
46.27031117722927
 20
33.51003829533877
 10
46.37188176867576
 20
33.52321047597243
 10
46.48746531824317
 20
33.5382510510222
 10
46.614781071029
 20
33.55497756009589
 10
46.74525338859988
 20
33.57270395211887
 10
46.87806119919094
 20
33.59136454134992
 10
47.01211908242103
 20
33.61076197862886
 10
47.1436890817114
 20
33.63021663548674
 10
47.27245648937759
 20
33.64967129234461
 10
47.39554821109985
 20
33.66891312740103
 10
47.50389173230479
 20
33.68727010253943
 10
47.59682099957672
 20
33.70469288046976
 10
47.74013852875841
 20
33.73399864688665
 10
47.91530050526993
 20
33.77183363381315
 10
48.09746896084194
 20
33.81340540957189
 10
48.28517078325194
 20
33.85736362129228
 10
48.47448584746562
 20
33.90011482102619
 10
48.66520220749137
 20
33.94146472494808
 10
48.85666300591731
 20
33.98049373268111
 10
49.04726259129207
 20
34.01495393219347
 10
49.23692797945875
 20
34.04474314566554
 10
49.42425641492215
 20
34.0685988931516
 10
49.60609790147133
 20
34.08368617806178
 10
49.78233420477214
 20
34.08989858949539
 10
49.83561147154798
 20
34.08992661541163
 10
49.86781792029589
 20
34.08931938722637
 10
49.90983343972844
 20
34.08824506043709
 10
49.95975051592144
 20
34.08638571605641
 10
50.01395730891921
 20
34.08313938075841
 10
50.07236798935325
 20
34.07849174964832
 10
50.13447633911147
 20
34.07227408335541
 10
50.19940304507175
 20
34.06419327750567
 10
50.2671323426562
 20
34.05424407723982
 10
50.33551849765257
 20
34.04206886018918
 10
50.4011458515189
 20
34.02709834992999
 10
50.46397061376104
 20
34.00932524804662
 10
50.49666751604322
 20
33.99724140716029
 10
50.52396942944881
 20
33.97974856443935
 10
50.54893584983426
 20
33.95571634126196
 10
50.57156677719956
 20
33.9271430438435
 10
50.59186221154469
 20
33.89668821486069
 10
50.60982215286968
 20
33.86436499146177
 10
50.6254466011745
 20
33.83101648662702
 10
50.63873555645918
 20
33.79766564629924
 10
50.64968901872372
 20
33.76431480597145
 10
50.65786295235763
 20
33.73274010808544
 10
50.66276748769995
 20
33.70490103128521
  0
LWPOLYLINE
  5
CC
330
1F
100
AcDbEntity
  8
Calque 1
370
     0
100
AcDbPolyline
 90
      100
 70
     1
 43
0.0
 10
61.31405375159262
 20
40.14793198822824
 10
60.92221720383903
 20
40.06436150790245
 10
60.74984400441923
 20
40.04710238696557
 10
60.66954367332357
 20
40.04460435630366
 10
60.51384419775621
 20
40.05003744683015
 10
60.21139172895977
 20
40.10223266204232
 10
59.94818105092498
 20
40.20969339924389
 10
59.72421216365187
 20
40.3724196584348
 10
59.54620300333667
 20
40.5870524715169
 10
59.42433544202678
 20
40.84850090246653
 10
59.35871444747532
 20
41.15671246740714
 10
59.346996412734
 20
41.32835442512408
 10
59.3462152104179
 20
41.39244502106123
 10
59.3462152104179
 20
41.45336496319404
 10
59.3462152104179
 20
41.57785354059583
 10
59.3462152104179
 20
41.75490848947009
 10
59.3462152104179
 20
42.22270844644973
 10
59.3462152104179
 20
43.30500521102976
 10
59.3462152104179
 20
43.54196137390752
 10
59.3462152104179
 20
43.74346579788524
 10
59.3462152104179
 20
43.89851621916636
 10
59.3462152104179
 20
43.99611037395437
 10
59.34611279746893
 20
44.02573146642541
 10
59.33645648962503
 20
44.02573146642541
 10
59.27727360137041
 20
44.02573146642541
 10
59.06509541882153
 20
44.02573146642541
 10
58.85291723627265
 20
44.02573146642541
 10
58.79373434801802
 20
44.02573146642541
 10
58.78397562722515
 20
44.03260281702998
 10
58.78397562722515
 20
44.09121002276387
 10
58.78397562722515
 20
44.19292188303754
 10
58.78397562722515
 20
44.44398759018153
 10
58.78397562722515
 20
44.55250544854044
 10
58.78397562722515
 20
44.6224559844164
 10
58.7875659785674
 20
44.6375804246058
 10
58.83586199501002
 20
44.6375804246058
 10
59.25836527554404
 20
44.6375804246058
 10
59.32750849332879
 20
44.6375804246058
 10
59.3462152104179
 20
44.63991671409053
 10
59.3462152104179
 20
44.70148664096288
 10
59.3462152104179
 20
44.82647191485909
 10
59.3462152104179
 20
45.15797648025361
 10
59.3462152104179
 20
45.31013976001719
 10
59.3462152104179
 20
45.41700636333516
 10
59.34680549632496
 20
45.45205792844703
 10
59.39965161884483
 20
45.45715476259869
 10
59.51893286681825
 20
45.46865904539814
 10
59.67747123437788
 20
45.48394954785314
 10
60.00360730478622
 20
45.51540429576053
 10
60.11684899590022
 20
45.52632608322838
 10
60.16063578313098
 20
45.53054917438262
 10
60.16063578313098
 20
45.48253929599764
 10
60.16063578313098
 20
45.35837581741574
 10
60.16063578313098
 20
45.00078499909998
 10
60.16063578313098
 20
44.82695612908537
 10
60.16063578313098
 20
44.69617059831245
 10
60.16063578313098
 20
44.63822764164092
 10
60.2110849001431
 20
44.6375804246058
 10
60.36514639934259
 20
44.6375804246058
 10
60.58450869098145
 20
44.6375804246058
 10
61.06241374972275
 20
44.6375804246058
 10
61.24259556589798
 20
44.6375804246058
 10
61.33135627265812
 20
44.6375804246058
 10
61.33472432450412
 20
44.61722311483234
 10
61.33472432450412
 20
44.54197902489011
 10
61.33472432450412
 20
44.30301286989766
 10
61.33472432450412
 20
44.08219604313248
 10
61.33472432450412
 20
44.02963861347433
 10
61.30570175008664
 20
44.02573146642541
 10
61.17147234340575
 20
44.02573146642541
 10
60.96323537196028
 20
44.02573146642541
 10
60.48146063662997
 20
44.02573146642541
 10
60.28628382367237
 20
44.02573146642541
 10
60.17382134780461
 20
44.02573146642541
 10
60.16063578313098
 20
44.02527813851889
 10
60.16063578313098
 20
43.98253477585694
 10
60.16063578313098
 20
43.87750273477311
 10
60.16063578313098
 20
43.72056346167101
 10
60.16063578313098
 20
43.29248900502668
 10
60.16063578313098
 20
42.78136297715318
 10
60.16063578313098
 20
42.27023694927962
 10
60.16063578313098
 20
41.84216249263528
 10
60.16063578313098
 20
41.68522321953318
 10
60.16063578313098
 20
41.58019117844935
 10
60.16134633407481
 20
41.47912495817124
 10
60.18212994918193
 20
41.24449175090876
 10
60.23169087751425
 20
41.05204346871505
 10
60.31002911907183
 20
40.90178011159011
 10
60.4183073935809
 20
40.79152158004726
 10
60.56030454015182
 20
40.71418255075449
 10
60.73631123871621
 20
40.66921799884011
 10
60.93145840333011
 20
40.65648056572766
 10
61.02894518537972
 20
40.66167646950441
 10
61.25727427162634
 20
40.69757544105303
 10
61.31405375159262
 20
40.70976406439885
 10
61.31405375159262
 20
40.67328146205011
 10
61.31405375159262
 20
40.48148720970243
 10
61.31405375159262
 20
40.25633743520734
 10
61.31405375159262
 20
40.17816043017433
 10
61.31405375159262
 20
40.14793198822824
  0
LWPOLYLINE
  5
CD
330
1F
100
AcDbEntity
  8
Calque 1
370
     0
100
AcDbPolyline
 90
       76
 70
     1
 43
0.0
 10
54.83176208654653
 20
40.30502834235562
 10
54.83176208654653
 20
40.50783381553503
 10
54.83176208654653
 20
40.87657103949763
 10
54.87361283929172
 20
41.03268976804514
 10
55.39161968682208
 20
40.81473833111902
 10
55.86124250634629
 20
40.6896842279647
 10
56.25706393687984
 20
40.65695491676208
 10
56.4772670920324
 20
40.68608090997736
 10
56.67085903178158
 20
40.75981570375043
 10
56.83709252350552
 20
40.87756732454645
 10
56.95695464826997
 20
41.02407331250643
 10
57.02214282138747
 20
41.19287415126606
 10
57.03395190452315
 20
41.36014069447552
 10
57.01193292756737
 20
41.4804265875824
 10
56.96279342965024
 20
41.59875165429116
 10
56.88344074820308
 20
41.71534147201046
 10
56.74153597683354
 20
41.83220612135568
 10
56.528748604435
 20
41.95015304501154
 10
56.35295000022961
 20
42.02769617862833
 10
56.14675503326639
 20
42.11542601985437
 10
55.94056006630316
 20
42.2031558610804
 10
55.71572251938056
 20
42.30316679717597
 10
55.41121639850782
 20
42.4770267378114
 10
55.17661246546499
 20
42.66831766116797
 10
55.00977869385451
 20
42.87798562492187
 10
54.90293463136215
 20
43.11747815674578
 10
54.85522731046836
 20
43.38901237448484
 10
54.87452111342692
 20
43.72551987380617
 10
54.98441798934625
 20
44.04549076411623
 10
55.18648643861728
 20
44.32292190769771
 10
55.47979424120494
 20
44.54551867340424
 10
55.86147974278384
 20
44.68486965285023
 10
56.33151702602974
 20
44.73993692877343
 10
56.64505802784687
 20
44.73227283444623
 10
56.95942925046224
 20
44.69970666174979
 10
57.31549986563551
 20
44.64294847505025
 10
57.38481069521596
 20
44.62976906362217
 10
57.46867634375994
 20
44.61347128576747
 10
57.51480245045911
 20
44.6045075079474
 10
57.51480245045911
 20
44.41962959040814
 10
57.51480245045911
 20
44.08348792215491
 10
57.47893028070734
 20
43.93311470275685
 10
57.04765041584682
 20
44.04663107615587
 10
56.6815361971272
 20
44.11176342154874
 10
56.38170376466511
 20
44.12861475527665
 10
56.14221637486848
 20
44.10265233312332
 10
55.94947050265357
 20
44.03691951321284
 10
55.80335695999081
 20
43.93209150211478
 10
55.70332061512317
 20
43.80548589425674
 10
55.64886711769291
 20
43.66426321688524
 10
55.63938066755534
 20
43.51999416146887
 10
55.66442193225241
 20
43.40243533844253
 10
55.72053720230448
 20
43.29356017517935
 10
55.80787208686466
 20
43.19183789204529
 10
55.93853826387472
 20
43.09072180307092
 10
56.1177157952804
 20
42.99056066201768
 10
56.26058854229587
 20
42.92599214399572
 10
56.4309754107995
 20
42.85422674666628
 10
56.60136227930313
 20
42.78246134933681
 10
56.89963794574423
 20
42.64824917004998
 10
57.301029981159
 20
42.42093883539894
 10
57.56767249857668
 20
42.19544926811756
 10
57.71537406124302
 20
41.96910655124248
 10
57.80649600807624
 20
41.73037610050747
 10
57.84727310050516
 20
41.47812358720867
 10
57.83841859233415
 20
41.22630155388486
 10
57.78246060302089
 20
40.98926348307677
 10
57.67957010654168
 20
40.76494531857875
 10
57.53046284295577
 20
40.55886492653084
 10
57.33677785699888
 20
40.38423515095593
 10
57.09857956527634
 20
40.24148790330926
 10
56.8243552134109
 20
40.13432433822148
 10
56.52904515939957
 20
40.06870815254854
 10
56.2129299733456
 20
40.04470223096086
 10
55.81135256125546
 20
40.07055189894123
 10
55.34962006014456
 20
40.15730818300454
  0
LWPOLYLINE
  5
CE
330
1F
100
AcDbEntity
  8
Calque 1
370
     0
100
AcDbPolyline
 90
       23
 70
     1
 43
0.0
 10
50.79273213963961
 20
42.87644761254611
 10
50.82810750251379
 20
42.87644761254611
 10
50.92645878610899
 20
42.87644761254611
 10
51.26544028529882
 20
42.87644761254611
 10
52.1859772005299
 20
42.87644761254611
 10
52.58093729591621
 20
42.87644761254611
 10
52.72127252665879
 20
42.87644761254611
 10
52.80796160271307
 20
42.87644761254611
 10
52.83078452052929
 20
42.89741189330513
 10
52.82847097064082
 20
42.99941733526316
 10
52.81393198010381
 20
43.18934840999392
 10
52.74523403418182
 20
43.5128913227141
 10
52.62376203644781
 20
43.76134191977925
 10
52.4539127731931
 20
43.9380430204024
 10
52.25267747890136
 20
44.05673732579262
 10
52.02176860826206
 20
44.11891053337803
 10
51.75211183359668
 20
44.12420736768658
 10
51.48867894017441
 20
44.06934153060314
 10
51.2664004710913
 20
43.95351365231587
 10
51.08534993741803
 20
43.7767075839397
 10
50.9458235702654
 20
43.53839041226669
 10
50.84828430433927
 20
43.23830375513549
 10
50.79273213963961
 20
42.87644761254611
  0
LWPOLYLINE
  5
CF
330
1F
100
AcDbEntity
  8
Calque 1
370
     0
100
AcDbPolyline
 90
       70
 70
     1
 43
0.0
 10
53.62460062851498
 20
40.29262599860871
 10
53.22410827835469
 20
40.18410549082332
 10
52.85358825891607
 20
40.10659084240521
 10
52.51304057019912
 20
40.06008205335433
 10
52.20246521220385
 20
40.0445791236707
 10
51.70009492899068
 20
40.08863328218831
 10
51.25437493466309
 20
40.2207957577412
 10
50.86524063368073
 20
40.44106655032936
 10
50.53262743050325
 20
40.74944565995281
 10
50.26655301684636
 20
41.1177694310196
 10
50.07653985194974
 20
41.5178742079378
 10
49.96255563804324
 20
41.94975999070743
 10
49.92456807735665
 20
42.41342677932848
 10
49.9413090882303
 20
42.72581081245351
 10
49.99157518454477
 20
43.03044338073675
 10
50.07543096184043
 20
43.32732448417814
 10
50.19294101565762
 20
43.61645412277773
 10
50.33743585645537
 20
43.88336289549747
 10
50.50269816347515
 20
44.11358140129928
 10
50.68869563894677
 20
44.30710964018319
 10
50.89539598510005
 20
44.46394761214921
 10
51.12205097025932
 20
44.58512884584289
 10
51.36789083090208
 20
44.67168686990979
 10
51.63285097148797
 20
44.72362168434995
 10
51.91686679647663
 20
44.74093328916334
 10
52.29125716537447
 20
44.70605169737516
 10
52.62582438364749
 20
44.60140692201068
 10
52.92053615352553
 20
44.42699896306987
 10
53.1753601772384
 20
44.1828278205528
 10
53.38089780366543
 20
43.8691518766208
 10
53.52775038168591
 20
43.48622951343529
 10
53.61588561352964
 20
43.03406073099625
 10
53.64527120142648
 20
42.51264552930371
 10
53.64462524602299
 20
42.47388820509462
 10
53.64320414413533
 20
42.38862209183468
 10
53.64178304224767
 20
42.30335597857475
 10
53.64113708684418
 20
42.26459865436569
 10
53.60873031169562
 20
42.26459865436569
 10
53.51714594714536
 20
42.26459865436569
 10
53.37483793453649
 20
42.26459865436569
 10
53.1902602152121
 20
42.26459865436569
 10
52.72811142178923
 20
42.26459865436569
 10
52.19833109762155
 20
42.26459865436569
 10
51.66855077345387
 20
42.26459865436569
 10
51.20640198003099
 20
42.26459865436569
 10
51.02182426070661
 20
42.26459865436569
 10
50.87951624809774
 20
42.26459865436569
 10
50.78793188354747
 20
42.26459865436569
 10
50.75552510839893
 20
42.26459865436569
 10
50.79705465788127
 20
41.9839956270921
 10
50.85444241251916
 20
41.73749904512249
 10
50.92765607454241
 20
41.52510890845684
 10
51.01666334618086
 20
41.34682521709521
 10
51.24253241893254
 20
41.06002101794814
 10
51.53273864987129
 20
40.84453029534572
 10
51.70488576489986
 20
40.76585292720134
 10
51.8988661725662
 20
40.70965480709822
 10
52.11467987287033
 20
40.67593593503636
 10
52.35232686581221
 20
40.66469631101571
 10
52.85565531620722
 20
40.70810451412978
 10
52.99770090943342
 20
40.73872280025494
 10
53.17320699256011
 20
40.7871694555163
 10
53.38217356558729
 20
40.85344447991383
 10
53.62460062851498
 20
40.93754787344749
 10
53.62460062851498
 20
40.909836386638
 10
53.62460062851498
 20
40.83677883050393
 10
53.62460062851498
 20
40.61508693602809
 10
53.62460062851498
 20
40.39339504155225
 10
53.62460062851498
 20
40.32033748541818
 10
53.62460062851498
 20
40.29262599860871
  0
LWPOLYLINE
  5
D0
330
1F
100
AcDbEntity
  8
Calque 1
370
     0
100
AcDbPolyline
 90
       72
 70
     1
 43
0.0
 10
25.28524516684982
 20
16.3009810393288
 10
25.23524821862014
 20
15.99189137876158
 10
25.08525737393107
 20
15.74675130313932
 10
24.83527263278264
 20
15.56556081246197
 10
24.48529399517481
 20
15.44831990672955
 10
24.03532146110761
 20
15.39502858594207
 10
23.8262176225572
 20
15.39180688336719
 10
23.71311890584961
 20
15.39677266553147
 10
23.22438904757337
 20
15.47622518016004
 10
22.67752320298352
 20
15.6510207123429
 10
22.53172299397457
 20
15.70961694188148
 10
22.48287261658606
 20
15.73186606831024
 10
22.49006694489237
 20
15.74985188907601
 10
22.53192485503816
 20
15.85449666444049
 10
23.10282024063761
 20
15.65043935247979
 10
23.58767436649296
 20
15.54056233834709
 10
24.36127055770581
 20
15.54857218535031
 10
24.63993571876895
 20
15.60825846463226
 10
24.90464824311684
 20
15.74365071720257
 10
25.08777660000465
 20
15.97871388853048
 10
25.14881938563393
 20
16.3009810393288
 10
25.09940379726737
 20
16.57325124189748
 10
24.95115703216772
 20
16.80715169349918
 10
24.83997195834297
 20
16.90971326268737
 10
24.78123846328116
 20
16.95381586786027
 10
24.7121535328785
 20
16.9980961107691
 10
24.48103068951181
 20
17.12328226796435
 10
24.11942485464128
 20
17.29730265366311
 10
24.02747915878719
 20
17.34155867324432
 10
23.80418246885583
 20
17.44903757794159
 10
23.27877849254675
 20
17.7019291184057
 10
22.83371521954604
 20
17.9432580571474
 10
22.55026998849711
 20
18.2287703454875
 10
22.44097433422755
 20
18.66982869498662
 10
22.47905340526295
 20
18.98032330855648
 10
22.59329061836915
 20
19.2265776572498
 10
22.78368597354617
 20
19.4085917410666
 10
23.05023947079398
 20
19.52636556000689
 10
23.3929511101126
 20
19.57989911407065
 10
23.69109182659081
 20
19.578106587826
 10
24.18660421660364
 20
19.49768514009219
 10
24.67397756853259
 20
19.32075795507779
 10
24.79454918181422
 20
19.26144713737409
 10
24.83388382866514
 20
19.23899009404985
 10
24.82429139092339
 20
19.22160380064295
 10
24.76848084406234
 20
19.12044718445733
 10
24.14390656443333
 20
19.32198527034447
 10
23.70885560018662
 20
19.43050577812982
 10
23.56240136133164
 20
19.44988444023437
 10
23.46561301856205
 20
19.45041331622096
 10
23.301257740588
 20
19.43896779391545
 10
23.02268947283538
 20
19.37487286900472
 10
22.81097758934338
 20
19.25583943702761
 10
22.66612209011203
 20
19.0818674979842
 10
22.58812297514129
 20
18.85295705187443
 10
22.57463865609356
 20
18.62280314161296
 10
22.59522848457962
 20
18.4879276533654
 10
22.71053152410157
 20
18.24608195030086
 10
22.92466574035663
 20
18.04144327847714
 10
23.05489034969908
 20
17.96664164275358
 10
23.33394308400432
 20
17.82801961316588
 10
23.52927999801798
 20
17.73354863540629
 10
23.66376791302342
 20
17.66988973039289
 10
23.88584738074133
 20
17.5660201015126
 10
24.17071371367794
 20
17.43191975974923
 10
24.25246744443143
 20
17.39330777550597
 10
24.39692729597816
 20
17.32339925196388
 10
24.68993266699865
 20
17.1691451016118
 10
24.89922221772758
 20
17.03814534578518
 10
25.0968845711938
 20
16.8552107755184
 10
25.23815501793581
 20
16.60076894208592
 10
25.28524516684982
 20
16.3009810393288
  0
LWPOLYLINE
  5
D1
330
1F
100
AcDbEntity
  8
Calque 1
370
     0
100
AcDbPolyline
 90
       42
 70
     1
 43
0.0
 10
18.44328553314364
 20
17.55361775776569
 10
18.44328553314364
 20
17.57383751814876
 10
18.44328553314364
 20
17.62813552636848
 10
18.44328553314364
 20
17.80079864874085
 10
18.44328553314364
 20
17.99527184972868
 10
18.44328553314364
 20
18.13521985417785
 10
18.44328553314364
 20
18.1608921342148
 10
18.43997904892205
 20
18.26068457964086
 10
18.40654681957047
 20
18.48148424821565
 10
18.33711065091717
 20
18.6868536570897
 10
18.23167054296217
 20
18.87679280626301
 10
18.09022649570546
 20
19.05130169573562
 10
17.92174114037038
 20
19.20282264728669
 10
17.73748236152647
 20
19.31854959504216
 10
17.53739767529719
 20
19.39827260349597
 10
17.32148708168255
 20
19.44199167264801
 10
17.09102634260443
 20
19.44970680249838
 10
16.86802235121527
 20
19.42141799304704
 10
16.66044861952685
 20
19.357125244294
 10
16.46830514753916
 20
19.25682855623921
 10
16.29159193525221
 20
19.12052792888275
 10
16.1355573703193
 20
18.95347174987785
 10
16.01468700266355
 20
18.7701455691477
 10
15.92982057430953
 20
18.57138912871684
 10
15.88095808525721
 20
18.35720242858522
 10
15.87002831796918
 20
18.24432273113169
 10
15.86793880363471
 20
18.18643629555797
 10
15.86773214837086
 20
18.15958927875331
 10
15.86773214837086
 20
18.06637715705153
 10
15.86773214837086
 20
17.69456724541661
 10
15.86773214837086
 20
17.56864000579165
 10
15.86959889009719
 20
17.55361775776569
 10
15.90414098075162
 20
17.55361775776569
 10
15.97840045787282
 20
17.55361775776569
 10
16.22585181113242
 20
17.55361775776569
 10
16.57151342910986
 20
17.55361775776569
 10
17.39570937615354
 20
17.55361775776569
 10
17.79336466368746
 20
17.55361775776569
 10
18.12747213287456
 20
17.55361775776569
 10
18.35759226294868
 20
17.55361775776569
 10
18.42101972557894
 20
17.55361775776569
 10
18.44328553314364
 20
17.55361775776569
  0
LWPOLYLINE
  5
D2
330
1F
100
AcDbEntity
  8
Calque 1
370
     0
100
AcDbPolyline
 90
       95
 70
     1
 43
0.0
 10
18.57971131435953
 20
17.41719197654979
 10
18.5528699039305
 20
17.41719197654979
 10
18.47671012962376
 20
17.41719197654979
 10
18.35777867690978
 20
17.41719197654979
 10
18.20262223125907
 20
17.41719197654979
 10
17.80982110302942
 20
17.41719197654979
 10
17.35068022869877
 20
17.41719197654979
 10
16.87757309203107
 20
17.41719197654979
 10
16.44287317679026
 20
17.41719197654979
 10
16.0989539667403
 20
17.41719197654979
 10
15.97740383983813
 20
17.41719197654979
 10
15.89818894564515
 20
17.41719197654979
 10
15.86785596963186
 20
17.41719197654979
 10
15.86773214837086
 20
17.41193824667496
 10
15.86773214837086
 20
17.36950561206001
 10
15.86773214837086
 20
17.19779297143
 10
15.86773214837086
 20
16.9885247107351
 10
15.86773214837086
 20
16.83558988013757
 10
15.86773214837086
 20
16.80958782930099
 10
15.8714413454143
 20
16.64620181166782
 10
15.90436993141224
 20
16.33562847228319
 10
15.97136257189079
 20
16.07864924528144
 10
16.07241926684997
 20
15.87526413066243
 10
16.20261965286478
 20
15.72994838820608
 10
16.35074530132628
 20
15.63923202622931
 10
16.53883944037838
 20
15.57395015826472
 10
16.76690207002108
 20
15.53410278431224
 10
17.03493319025436
 20
15.51968990437197
 10
17.09620521435397
 20
15.5196333832742
 10
17.23266013926092
 20
15.5196333832742
 10
17.43656189203949
 20
15.5196333832742
 10
17.67980762774318
 20
15.5196333832742
 10
18.17191966813987
 20
15.5196333832742
 10
18.36458028293984
 20
15.5196333832742
 10
18.48417350087888
 20
15.5196333832742
 10
18.50943136646044
 20
15.51906200212886
 10
18.50943136646044
 20
15.51122460834406
 10
18.50943136646044
 20
15.43202568167663
 10
18.50943136646044
 20
15.39836613784297
 10
18.50943136646044
 20
15.39168372840541
 10
18.47345972492891
 20
15.39147583122292
 10
18.34250046747816
 20
15.39147583122292
 10
18.14222085915936
 20
15.39147583122292
 10
17.64611196970362
 20
15.39147583122292
 10
17.40648837845969
 20
15.39147583122292
 10
17.20995581613376
 20
15.39147583122292
 10
17.08461712767232
 20
15.39147583122292
 10
17.05742762518657
 20
15.39147583122292
 10
17.05157609875381
 20
15.39147682475786
 10
17.01222785782189
 20
15.39173017616304
 10
16.72145708877531
 20
15.40985225314674
 10
16.47337993467778
 20
15.45658813589415
 10
16.2679963955293
 20
15.53193782440527
 10
16.10530647132986
 20
15.63590131868011
 10
15.95858274795498
 20
15.80139913027401
 10
15.84662555556201
 20
16.02812947689699
 10
15.77327429158041
 20
16.31299580983361
 10
15.73852895601017
 20
16.65599812908382
 10
15.7358747984319
 20
16.75083245675788
 10
15.7354525460899
 20
16.79961218277412
 10
15.73544048173727
 20
16.81167011290907
 10
15.73544048173727
 20
16.88215875439565
 10
15.73544048173727
 20
17.03270856892868
 10
15.73544048173727
 20
17.23721265225396
 10
15.73544048173727
 20
17.70365600826386
 10
15.73544048173727
 20
17.91338147243996
 10
15.73544048173727
 20
18.07263358839111
 10
15.73544048173727
 20
18.15530545186303
 10
15.7355981856932
 20
18.18451760614854
 10
15.73796374503213
 20
18.25323994361571
 10
15.77581269445504
 20
18.51563914017487
 10
15.85908038318544
 20
18.75805409143874
 10
15.98776681122334
 20
18.98048479740728
 10
16.16181545747092
 20
19.18287473698277
 10
16.36692648418356
 20
19.35092407242052
 10
16.5920217561915
 20
19.47355466855077
 10
16.83710127349473
 20
19.55076652537352
 10
17.10216503609326
 20
19.58255964288875
 10
17.37442312699809
 20
19.56893402109651
 10
17.62749634241945
 20
19.50988965999676
 10
17.8605853125455
 20
19.4054265595895
 10
18.07369003737625
 20
19.25554471987476
 10
18.2631931666522
 20
19.06386149111205
 10
18.4100470904131
 20
18.8494244832616
 10
18.5114822748665
 20
18.61500323011586
 10
18.5674987200124
 20
18.36059773167483
 10
18.57847491534505
 20
18.22590089046858
 10
18.57971131435953
 20
18.16129862601769
 10
18.57971131435953
 20
18.15297555333114
 10
18.57971131435953
 20
18.09788759022575
 10
18.57971131435953
 20
18.00351951429741
 10
18.57971131435953
 20
17.7544261159079
 10
18.57971131435953
 20
17.52066154203464
 10
18.57971131435953
 20
17.44545449675166
 10
18.57971131435953
 20
17.41719197654979
  0
LWPOLYLINE
  5
D3
330
1F
100
AcDbEntity
  8
Calque 1
370
     0
100
AcDbPolyline
 90
      349
 70
     1
 43
0.0
 10
19.46854594955399
 20
30.56367634826322
 10
19.46205183794707
 20
30.52471167862166
 10
19.45004611870327
 20
30.45267736315887
 10
19.44373233572464
 20
30.41484578884524
 10
19.41922967938807
 20
30.40816324620801
 10
19.37522072471926
 20
30.39616080402562
 10
19.35182625819962
 20
30.39023740993324
 10
19.30871930330162
 20
30.39975231218429
 10
19.23680554501071
 20
30.41670122821421
 10
19.13769747842606
 20
30.44078031327834
 10
19.05915188092007
 20
30.45885703909093
 10
18.98896954891526
 20
30.46949975112469
 10
18.93065813782817
 20
30.4727127938979
 10
18.90715680580732
 20
30.46954380725501
 10
18.85206091522649
 20
30.46079931027799
 10
18.77395477198448
 20
30.44784123630129
 10
18.76655127583993
 20
30.43796990810856
 10
18.75459471251709
 20
30.42202782367809
 10
18.74860829334503
 20
30.4148482233004
 10
18.69557950026977
 20
30.4148482233004
 10
18.61202119358852
 20
30.4148482233004
 10
18.57514987392758
 20
30.41445974525527
 10
18.54675406865153
 20
30.3886453768225
 10
18.50306954306102
 20
30.34893217174022
 10
18.48260973637225
 20
30.32224087972793
 10
18.46046654148407
 20
30.24543862199167
 10
18.42531382248296
 20
30.16120235047655
 10
18.38653329498261
 20
30.07166427327664
 10
18.3863426792447
 20
29.98641932681508
 10
18.37314253939385
 20
29.89374036657469
 10
18.35178657914723
 20
29.81071906109881
 10
18.33258101947027
 20
29.79151350142183
 10
18.30498823078067
 20
29.76392071273222
 10
18.29483510428941
 20
29.75159583361679
 10
18.3060172570409
 20
29.69848060804719
 10
18.32173650129637
 20
29.62381419783367
 10
18.32674685508375
 20
29.59595776325264
 10
18.30682252660707
 20
29.58741876533407
 10
18.27940560687911
 20
29.57566865687923
 10
18.26912940230225
 20
29.57057304133781
 10
18.25754526335274
 20
29.55030079817615
 10
18.24193525447716
 20
29.52298328264388
 10
18.23718428959131
 20
29.51240227323362
 10
18.24896286751704
 20
29.48884511738217
 10
18.26451170457987
 20
29.45774744325652
 10
18.26827047299529
 20
29.44591038238897
 10
18.2443331780218
 20
29.41898092554379
 10
18.213366586352
 20
29.38414350991528
 10
18.20291951846255
 20
29.37011450402236
 10
18.19380375773813
 20
29.32453570040022
 10
18.18224371884431
 20
29.26673550593111
 10
18.17782168491152
 20
29.24880778235058
 10
18.16548600654832
 20
29.24572386275978
 10
18.15014690141488
 20
29.24188908647642
 10
18.14390882598469
 20
29.23707298785572
 10
18.1220117065471
 20
29.19015058906087
 10
18.09530590914226
 20
29.1329238803362
 10
18.08775167906586
 20
29.11591807379685
 10
18.08775167906586
 20
29.10640415011272
 10
18.08775167906586
 20
29.09502107253434
 10
18.08323755033256
 20
29.08952402163999
 10
18.03503709759293
 20
29.06381711351219
 10
17.97844941584065
 20
29.03363701657765
 10
17.96504990566639
 20
29.02198593944774
 10
17.97806721280013
 20
28.98456118143821
 10
17.99306550354829
 20
28.94144109553725
 10
17.9939121407629
 20
28.92817319794886
 10
17.96755855918611
 20
28.90511381406915
 10
17.93775423195841
 20
28.87903502774492
 10
17.92947615468747
 20
28.86849985984884
 10
17.91947722591659
 20
28.83183712102232
 10
17.90837597561834
 20
28.79113253659543
 10
17.90094949803039
 20
28.77548017275166
 10
17.8621868797056
 20
28.72492023580625
 10
17.81993357654411
 20
28.66980723168257
 10
17.81076600205177
 20
28.65462605122662
 10
17.81076600205177
 20
28.63077525701959
 10
17.81076600205177
 20
28.60524701701002
 10
17.8122539092986
 20
28.59848401442397
 10
17.82258218273987
 20
28.5881557409827
 10
17.83343765343336
 20
28.57730027028919
 10
17.8400976662735
 20
28.57516723417698
 10
17.86965358542011
 20
28.57516723417698
 10
17.90016005718815
 20
28.57516723417698
 10
17.90585063744467
 20
28.57060461862833
 10
17.90585063744467
 20
28.54252074863396
 10
17.90585063744467
 20
28.51405346245613
 10
17.9034139384523
 20
28.50719387661582
 10
17.88924310570685
 20
28.49656575205674
 10
17.87513617565864
 20
28.4859855545206
 10
17.88366073898537
 20
28.4562312275707
 10
17.90207104233932
 20
28.3960363660006
 10
17.91676433880386
 20
28.32840749065164
 10
17.93618939059919
 20
28.29680790154569
 10
18.00826699058126
 20
28.31122342154211
 10
18.07746896918758
 20
28.32506381726336
 10
18.09360903574183
 20
28.32345951131654
 10
18.12267165474004
 20
28.30529537444267
 10
18.15007280361002
 20
28.28816965639891
 10
18.15854904895387
 20
28.28965549389201
 10
18.18051314333377
 20
28.30795890587527
 10
18.20084771893407
 20
28.3249043855422
 10
18.21006173217563
 20
28.32466229243701
 10
18.23956129269342
 20
28.31359995724284
 10
18.26637693992717
 20
28.30354408953019
 10
18.30813768518065
 20
28.31658062586422
 10
18.38879991160977
 20
28.34487912062267
 10
18.48990567593064
 20
28.37875312571526
 10
18.54425176190968
 20
28.40328190051124
 10
18.58536638864391
 20
28.44439652724543
 10
18.62138477527333
 20
28.48041491387482
 10
18.6328469376329
 20
28.50432516589501
 10
18.66293636920213
 20
28.58330992376426
 10
18.68880822275358
 20
28.65122353933685
 10
18.69133240808163
 20
28.67695421802475
 10
18.69133240808163
 20
28.74884208980637
 10
18.69133240808163
 20
28.80949906254821
 10
18.72315994143238
 20
28.88965665945113
 10
18.7724499943291
 20
28.98391217069053
 10
18.82359855067054
 20
29.05679489231588
 10
18.83132709423256
 20
29.08091599789265
 10
18.80072644108541
 20
29.1000414061096
 10
18.77587703068979
 20
29.11557228760685
 10
18.78325347960188
 20
29.12482017684818
 10
18.81400706228087
 20
29.15172956169229
 10
18.83849818063044
 20
29.17315929024818
 10
18.84016053304442
 20
29.17943936353092
 10
18.84016053304442
 20
29.19488825022117
 10
18.84016053304442
 20
29.20695029395773
 10
18.85400683712376
 20
29.21649804968294
 10
18.89667752184462
 20
29.24365212177804
 10
18.92933145877325
 20
29.26443189982351
 10
18.9455425849261
 20
29.26556436942102
 10
18.98838750007788
 20
29.26556436942102
 10
19.02051273776782
 20
29.26556436942102
 10
19.06450412374634
 20
29.25442068012731
 10
19.09995070867675
 20
29.24486606626414
 10
19.11309525227071
 20
29.24088696273512
 10
19.127219759373
 20
29.20950282135428
 10
19.16645369422599
 20
29.12318816467769
 10
19.19466441380524
 20
29.06112458160331
 10
19.18536003785195
 20
29.04188078079057
 10
19.15780834897404
 20
28.99661729191974
 10
19.13842022966842
 20
28.96476538163194
 10
19.13781678297001
 20
28.9469147844344
 10
19.13781678297001
 20
28.90349310647676
 10
19.13781678297001
 20
28.87360282465948
 10
19.08144312884403
 20
28.80337758188148
 10
19.01243228939516
 20
28.73925127071678
 10
18.9415629465016
 20
28.69556849744384
 10
18.93111105385503
 20
28.68433253031816
 10
18.93111105385503
 20
28.66846417976913
 10
18.93111105385503
 20
28.65802755848543
 10
18.91234569700394
 20
28.63396634437618
 10
18.8686176138057
 20
28.57831242030568
 10
18.84052971575671
 20
28.54256418642516
 10
18.823696981162
 20
28.4627275721231
 10
18.78937820601428
 20
28.38397150307315
 10
18.73833289986423
 20
28.31636645469146
 10
18.71077498791519
 20
28.29598485691685
 10
18.66291432547915
 20
28.26407774862614
 10
18.63364934793967
 20
28.2445677635998
 10
18.61837225489113
 20
28.22369956266533
 10
18.58642582186367
 20
28.17977321725257
 10
18.5673877336785
 20
28.15359584599796
 10
18.45921464139909
 20
28.1016207872689
 10
18.35866483964714
 20
28.06989120922791
 10
18.27298306545284
 20
28.06232217596806
 10
18.26162056540033
 20
28.04647271539835
 10
18.24562113239542
 20
28.01447384938854
 10
18.23658709338958
 20
27.99640577137683
 10
18.22208781926631
 20
27.99639119265498
 10
18.19407734179284
 20
27.99639119265498
 10
18.1787036226984
 20
27.99639119265498
 10
18.17016982746491
 20
28.00492356506652
 10
18.15416165562961
 20
28.02093173690181
 10
18.14513217529471
 20
28.02934551754197
 10
18.09259371253096
 20
28.01359589219647
 10
18.05120627043543
 20
27.99412925996157
 10
18.02157304362489
 20
27.97157921580029
 10
17.98091986809861
 20
27.96254517679447
 10
17.90892241957654
 20
27.94654574378956
 10
17.87277772078627
 20
27.93853375892462
 10
17.87277772078627
 20
27.94781248518143
 10
17.87277772078627
 20
27.96380099464836
 10
17.86501824149629
 20
27.97289658106084
 10
17.74566499143093
 20
27.98986932405799
 10
17.64582602753497
 20
27.99754954983161
 10
17.56922935375961
 20
27.99917131097357
 10
17.53686836108676
 20
28.03681394805125
 10
17.48685158568923
 20
28.07724434029601
 10
17.41856149502859
 20
28.12094262485675
 10
17.34699719892386
 20
28.16697235440282
 10
17.29494718898852
 20
28.20649732189244
 10
17.2650628771882
 20
28.23680751765869
 10
17.2650628771882
 20
28.28532297792509
 10
17.2650628771882
 20
28.36085330344935
 10
17.26492935269138
 20
28.39339971705263
 10
17.2571018867286
 20
28.40122718301535
 10
17.24520062381683
 20
28.41312844592707
 10
17.2402581896944
 20
28.41892503128108
 10
17.2402581896944
 20
28.45888162644423
 10
17.2402581896944
 20
28.5182486658938
 10
17.25031717497234
 20
28.56903779776687
 10
17.29929747729495
 20
28.71226964016765
 10
17.32597573828111
 20
28.81647291022969
 10
17.3317259505322
 20
28.87334072412969
 10
17.34834433850843
 20
28.88995911210594
 10
17.37196007183236
 20
28.91357484542991
 10
17.38706957571209
 20
28.93410912522563
 10
17.40997523355195
 20
29.00073329678929
 10
17.41801286383418
 20
29.07943774074354
 10
17.4154666340051
 20
29.15186960277197
 10
17.45279379702988
 20
29.20068204672745
 10
17.50362040484644
 20
29.26714761079526
 10
17.52113421308748
 20
29.29756113533392
 10
17.5292274396266
 20
29.36189394688137
 10
17.55218869372334
 20
29.48012335832525
 10
17.58071161778261
 20
29.60617957888027
 10
17.60742847526966
 20
29.6358649760881
 10
17.64234085367764
 20
29.67465650765254
 10
17.65293317661328
 20
29.68871699943782
 10
17.64087113287672
 20
29.71284108691092
 10
17.62542224618649
 20
29.74373886029139
 10
17.62956626071135
 20
29.78528503504831
 10
17.66732406146402
 20
29.92100344044619
 10
17.7143743794402
 20
30.09203341129341
 10
17.75451793749146
 20
30.23294718167918
 10
17.77626117158763
 20
30.23294718167918
 10
17.80303674309138
 20
30.23294718167918
 10
17.81851577405883
 20
30.24476712239067
 10
17.8411871333875
 20
30.29926733879051
 10
17.86107073754911
 20
30.37978660341619
 10
17.87148768508576
 20
30.44906783835924
 10
17.85712155996269
 20
30.46183772735754
 10
17.84009548506704
 20
30.47697201615364
 10
17.82989127255747
 20
30.47973196395318
 10
17.77167960206672
 20
30.46679603717746
 10
17.70397838103596
 20
30.45175132139283
 10
17.66572595758154
 20
30.43135596707936
 10
17.61235355096439
 20
30.39390791690081
 10
17.56455665468136
 20
30.3676108873905
 10
17.53376809042228
 20
30.35810144165669
 10
17.49731713168849
 20
30.36804261222045
 10
17.45647286251949
 20
30.37918195835743
 10
17.40146092815878
 20
30.3614549765723
 10
17.28949006677656
 20
30.32780335650731
 10
17.17937770883904
 20
30.31831228122346
 10
17.11800753118285
 20
30.33054562358027
 10
17.13156391491638
 20
30.381382062581
 10
17.14620664450298
 20
30.43629229853073
 10
17.18022020596268
 20
30.47173303715093
 10
17.25647444345243
 20
30.5236917103785
 10
17.34016269472101
 20
30.57193337671663
 10
17.39268526311458
 20
30.5967492649215
 10
17.41690595562678
 20
30.5967492649215
 10
17.44213311562052
 20
30.5967492649215
 10
17.44916918584402
 20
30.60060848223208
 10
17.46314503343635
 20
30.62506621551867
 10
17.47744039451488
 20
30.65008309740611
 10
17.48652258636679
 20
30.65462686907372
 10
17.52531664399935
 20
30.65462686907372
 10
17.56428643404933
 20
30.65462686907372
 10
17.57979346407141
 20
30.65902992297024
 10
17.62961121488252
 20
30.68393879837578
 10
17.67875798737262
 20
30.70851218462081
 10
17.69276788485438
 20
30.71116551316553
 10
17.72506885496171
 20
30.70398751980835
 10
17.75636335758753
 20
30.69703318589148
 10
17.81815348196718
 20
30.70708940459292
 10
17.91757150277524
 20
30.73131745911465
 10
18.00862625808212
 20
30.76019177224808
 10
18.05017845848516
 20
30.78581996768736
 10
18.06841291563484
 20
30.84052333913638
 10
18.0854491972113
 20
30.89163218386571
 10
18.09333194180032
 20
30.89853962942939
 10
18.11905134372469
 20
30.89853962942939
 10
18.14264598096588
 20
30.89853962942939
 10
18.15825597408634
 20
30.91369165847132
 10
18.21376222557763
 20
30.98029916026087
 10
18.26375686943207
 20
31.04029273288623
 10
18.27231481081953
 20
31.05712875154464
 10
18.28349143352992
 20
31.09810970148271
 10
18.29337402662122
 20
31.1343458761508
 10
18.32723781657189
 20
31.15762477121058
 10
18.37223107304304
 20
31.18253189429859
 10
18.40793181229067
 20
31.2000050036078
 10
18.42142508049859
 20
31.21525963629839
 10
18.43274261684905
 20
31.25675726958338
 10
18.44238270739698
 20
31.29210426825912
 10
18.45461375690003
 20
31.29129527523699
 10
18.4963517080208
 20
31.27611783846581
 10
18.53123609486269
 20
31.26343260688694
 10
18.53855275685504
 20
31.26665841557264
 10
18.55381321251494
 20
31.28191887123254
 10
18.56632585219356
 20
31.29443151091118
 10
18.56730897061263
 20
31.30332046117468
 10
18.56730897061263
 20
31.33016389515816
 10
18.56730897061263
 20
31.35175133229376
 10
18.5850165654519
 20
31.36155577774073
 10
18.64281675992101
 20
31.38852920182632
 10
18.68839556354316
 20
31.40979931018333
 10
18.69133240808163
 20
31.41979707424364
 10
18.69133240808163
 20
31.44689284195471
 10
18.69133240808163
 20
31.46783797505651
 10
18.70032918626918
 20
31.48318523608151
 10
18.72753965112914
 20
31.5259445380043
 10
18.74815216249917
 20
31.55833562730004
 10
18.75858205051872
 20
31.55999796259738
 10
18.78589956605097
 20
31.55999796259738
 10
18.80617180921263
 20
31.55999796259738
 10
18.81266069421005
 20
31.55581815422937
 10
18.82832750548317
 20
31.54406804577454
 10
18.83971283604128
 20
31.53552904785599
 10
18.85029972424445
 20
31.53953864276076
 10
18.87780840169152
 20
31.55132807595234
 10
18.89737716900664
 20
31.55971469051596
 10
18.89803813719662
 20
31.52238788188376
 10
18.89803813719662
 20
31.42384220799235
 10
18.89803813719662
 20
31.35525092343176
 10
18.8871104875142
 20
31.34704786223529
 10
18.85944123405868
 20
31.3312368602607
 10
18.84060652849645
 20
31.32047417136801
 10
18.84016053304442
 20
31.31536379893595
 10
18.84016053304442
 20
31.30347605390245
 10
18.84016053304442
 20
31.29556625177207
 10
18.8334540370101
 20
31.28870813329593
 10
18.81756875497719
 20
31.27282285126302
 10
18.80724300760408
 20
31.2624971038899
 10
18.80708761638603
 20
31.24325200162781
 10
18.80708761638603
 20
31.19948336479479
 10
18.80708761638603
 20
31.17170637794581
 10
18.78016411496975
 20
31.13908299016169
 10
18.72038129835553
 20
31.06734361022458
 10
18.68336381763272
 20
31.02292263335721
 10
18.66768736754328
 20
30.92895482099419
 10
18.63308266878868
 20
30.83282492166521
 10
18.57989293558705
 20
30.74319978439272
 10
18.6762884954182
 20
30.72714258073216
 10
18.78439144578516
 20
30.71084493514013
 10
18.89249439615211
 20
30.68897177921403
 10
18.95373703333294
 20
30.70096896269317
 10
19.03055517571404
 20
30.70952284393224
 10
19.12595835254218
 20
30.7125012148372
 10
19.2332422933372
 20
30.70990407540808
 10
19.32781946863437
 20
30.70173142564485
 10
19.40938711981862
 20
30.6879832655475
 10
19.42537967756896
 20
30.65617550251679
 10
19.45339302247116
 20
30.59614690629783
  0
LWPOLYLINE
  5
D4
330
1F
100
AcDbEntity
  8
Calque 1
370
     0
100
AcDbPolyline
 90
      244
 70
     1
 43
0.0
 10
17.09969829389621
 20
30.01797322339962
 10
17.09317690167159
 20
29.99623524931755
 10
17.08114447376419
 20
29.95612715629292
 10
17.07487868955984
 20
29.93527104263021
 10
17.05450801985923
 20
29.90811014969606
 10
17.01843089846271
 20
29.86000732116736
 10
17.00036416150627
 20
29.8360853683401
 10
16.95922554961412
 20
29.84078692398492
 10
16.88915400038738
 20
29.8487951010394
 10
16.85565275724953
 20
29.85274141639857
 10
16.83372958847243
 20
29.87466458517568
 10
16.79775327870426
 20
29.91064089494384
 10
16.78124106252092
 20
29.92741392820361
 10
16.76864707650601
 20
29.96519588624833
 10
16.74870504291407
 20
30.02502198702416
 10
16.74015190023507
 20
30.051856640051
 10
16.74795023975204
 20
30.10384557016414
 10
16.75988185603109
 20
30.18338967869113
 10
16.76419670300509
 20
30.2170490330748
 10
16.73474029195594
 20
30.24650544412399
 10
16.69113888932099
 20
30.29010684675893
 10
16.66616955194097
 20
30.31196920982308
 10
16.59693063208906
 20
30.33349249247442
 10
16.48660387953557
 20
30.34567763132995
 10
16.36243156505662
 20
30.34863128454606
 10
16.33075020403228
 20
30.34603482505162
 10
16.29346595673046
 20
30.33970310803884
 10
16.24845399269195
 20
30.32263169239397
 10
16.19825577579932
 20
30.28489192588259
 10
16.15552807394334
 20
30.256490303167
 10
16.12707854066077
 20
30.23932485130956
 10
16.10629491666036
 20
30.20369578159458
 10
16.07908175103004
 20
30.15704464051402
 10
16.07599886404541
 20
30.12139163828237
 10
16.0924886594312
 20
30.04932849933124
 10
16.10150793978033
 20
29.98473587541676
 10
16.10449790157475
 20
29.94154096129518
 10
16.12000422351958
 20
29.91362958179448
 10
16.13918456925293
 20
29.87910495947446
 10
16.17986557649174
 20
29.84580473854834
 10
16.28948627427042
 20
29.75497420816365
 10
16.39723934328994
 20
29.63799687515069
 10
16.50379361907261
 20
29.4916841050426
 10
16.58471660664952
 20
29.34188661298143
 10
16.62641939028401
 20
29.20889777975271
 10
16.63047793712539
 20
29.12828129777429
 10
16.61078158520548
 20
29.08068178063454
 10
16.58832971544419
 20
29.02642309537808
 10
16.57942998839739
 20
29.01065806001412
 10
16.54938140237581
 20
28.98728693755288
 10
16.51602619494457
 20
28.96134399843968
 10
16.50764613499442
 20
28.9507000207675
 10
16.50086113903051
 20
28.91338254296596
 10
16.49352503949831
 20
28.87303399553889
 10
16.46328574009636
 20
28.84043717932584
 10
16.41135655020743
 20
28.7693761826358
 10
16.37810364791014
 20
28.67590364083574
 10
16.3614901465479
 20
28.61273429133593
 10
16.31957043122428
 20
28.58828112406383
 10
16.2765485087641
 20
28.56318500262873
 10
16.2663662246722
 20
28.55269318039345
 10
16.25220480452475
 20
28.51728963002478
 10
16.2380433843773
 20
28.48188607965608
 10
16.22045622664144
 20
28.4647610435174
 10
16.1851079359802
 20
28.43585834967138
 10
16.14228913028232
 20
28.39761751202951
 10
16.10997826575217
 20
28.37814900167504
 10
16.05919011414554
 20
28.38540445190455
 10
16.01097377919086
 20
28.39229249975523
 10
15.95651339782378
 20
28.37385829667278
 10
15.86720885679112
 20
28.32031201358996
 10
15.77230142948096
 20
28.24248655663797
 10
15.67141781234598
 20
28.18915136782292
 10
15.57799082246687
 20
28.15348421371499
 10
15.49576960514273
 20
28.10287602953378
 10
15.39564537186075
 20
28.07299063631979
 10
15.29411014005161
 20
28.06602119241365
 10
15.2112511958341
 20
28.06278700602581
 10
15.19240603282819
 20
28.06441465393314
 10
15.15201286692118
 20
28.07500547555523
 10
15.0490541375822
 20
28.09493444097313
 10
14.93346836020331
 20
28.1162821820754
 10
14.85322865144072
 20
28.13356913607788
 10
14.79726811654726
 20
28.14898846132121
 10
14.74592610202967
 20
28.16792195061288
 10
14.67987581664464
 20
28.20005883084679
 10
14.60261975870462
 20
28.24526911239479
 10
14.53474628545891
 20
28.32050033189725
 10
14.46737499436618
 20
28.39987455416167
 10
14.39253318823678
 20
28.47364589014856
 10
14.35691714116211
 20
28.53814796573238
 10
14.34388929176893
 20
28.61672502938012
 10
14.3383319574124
 20
28.7139783806195
 10
14.357517648803
 20
28.819696056488
 10
14.37826654879809
 20
28.8965193711789
 10
14.39341256251569
 20
28.94159299696406
 10
14.40725232344682
 20
28.96061469415383
 10
14.43869360344514
 20
28.99795121415187
 10
14.46131722635103
 20
29.02481676635261
 10
14.4680835352814
 20
29.0495871032175
 10
14.4838758635496
 20
29.11275641629032
 10
14.49489196089273
 20
29.15682080566288
 10
14.5014804333752
 20
29.15807739028122
 10
14.51733548887882
 20
29.15807739028122
 10
14.52804691107852
 20
29.15807739028122
 10
14.53158112817162
 20
29.18284317377536
 10
14.53953553902431
 20
29.2425012551706
 10
14.54473443203563
 20
29.28149295275546
 10
14.57083963506876
 20
29.30118520664169
 10
14.63066573584458
 20
29.34505768054396
 10
14.66844769388932
 20
29.37276444977678
 10
14.68886112884797
 20
29.37305134856081
 10
14.73283217412018
 20
29.37305134856081
 10
14.75962715818109
 20
29.37305134856081
 10
14.78051889741651
 20
29.37064487390742
 10
14.826275802016
 20
29.36265051177978
 10
14.89631188048461
 20
29.34905326337466
 10
15.01190210195334
 20
29.27944110429178
 10
15.10184436987939
 20
29.16626403518439
 10
15.16377220641799
 20
29.01114568826626
 10
15.16076542447205
 20
28.98200786423618
 10
15.15274380586712
 20
28.93421238671511
 10
15.1483962110507
 20
28.90830796760062
 10
15.15600450197942
 20
28.87796537877776
 10
15.17004233453804
 20
28.82198116559749
 10
15.17732921213247
 20
28.7928742029863
 10
15.16940728502668
 20
28.76137511187522
 10
15.15537729337248
 20
28.70558919267879
 10
15.14831049839976
 20
28.67771295002234
 10
15.11775038670845
 20
28.63559484737087
 10
15.0656972358543
 20
28.56385492792447
 10
15.04074694977747
 20
28.52969197377172
 10
15.0139519657166
 20
28.52969197377172
 10
14.96998092044439
 20
28.52969197377172
 10
14.94975005743919
 20
28.53007776569723
 10
14.92959967981535
 20
28.56733497432461
 10
14.89769242606823
 20
28.62633015703409
 10
14.88373182778421
 20
28.65259398432613
 10
14.8785329347729
 20
28.69115244082667
 10
14.8705785239202
 20
28.75014765465087
 10
14.86687022235669
 20
28.77515326266451
 10
14.84812523350723
 20
28.79891923067006
 10
14.8203788863759
 20
28.8340976350687
 10
14.80861344991563
 20
28.8480187966087
 10
14.78107320655781
 20
28.8480187966087
 10
14.7415923858873
 20
28.8480187966087
 10
14.72569656860875
 20
28.84740682358028
 10
14.69741703997641
 20
28.83043910640092
 10
14.6581154399785
 20
28.80685814640222
 10
14.63763974222824
 20
28.77593121516355
 10
14.61648087494454
 20
28.67580809290399
 10
14.60839540897499
 20
28.57942022816278
 10
14.61363960802523
 20
28.50650065481443
 10
14.66411412345477
 20
28.45899522852784
 10
14.73020323998556
 20
28.39679370708717
 10
14.79747921081503
 20
28.36391575665743
 10
14.95101196039453
 20
28.32681371703941
 10
15.07653027858659
 20
28.30652033625387
 10
15.15603560150161
 20
28.30235566855387
 10
15.18696535583019
 20
28.30309588726939
 10
15.22536562519541
 20
28.30476992036449
 10
15.27043841771373
 20
28.30728388644107
 10
15.31080880766028
 20
28.30929955894337
 10
15.3427748681906
 20
28.31038141706605
 10
15.37666855269302
 20
28.31825995510198
 10
15.43179207103892
 20
28.35264026744289
 10
15.49298538285211
 20
28.40476305299586
 10
15.55937355794351
 20
28.47225350124768
 10
15.62138680433389
 20
28.52913646254049
 10
15.67639644287741
 20
28.56827695062128
 10
15.70952366075868
 20
28.59150593050788
 10
15.7250568658044
 20
28.62646702984097
 10
15.7517958434051
 20
28.68197204552487
 10
15.77221062616152
 20
28.72923800093725
 10
15.76881812817956
 20
28.76994797672074
 10
15.76515007841346
 20
28.81396457391389
 10
15.768760901416
 20
28.8271088803173
 10
15.79975711674399
 20
28.85466107171993
 10
15.83240664277684
 20
28.88368287263799
 10
15.83609756867759
 20
28.89529065318953
 10
15.81863102062609
 20
28.93371705890283
 10
15.80070521960101
 20
28.97315382115798
 10
15.79923347910808
 20
28.98535741937852
 10
15.80985454421866
 20
29.01545043719185
 10
15.82047560932925
 20
29.04554345500518
 10
15.81770266118465
 20
29.05449403409648
 10
15.79260653974955
 20
29.07600499532657
 10
15.76815337247744
 20
29.09696485298838
 10
15.7537347779502
 20
29.10303832102582
 10
15.69931890122882
 20
29.11754922148487
 10
15.64765854234879
 20
29.1313253171862
 10
15.63012166293271
 20
29.1489178433462
 10
15.60750513417845
 20
29.18482414503913
 10
15.57928571914671
 20
29.23100240490749
 10
15.54738326465237
 20
29.28393290379057
 10
15.52012043996068
 20
29.32835741470214
 10
15.49846050154648
 20
29.36250996743829
 10
15.48793055849128
 20
29.37305134856081
 10
15.47296264531709
 20
29.37305134856081
 10
15.45983174403714
 20
29.37305134856081
 10
15.45555525465832
 20
29.37595089862566
 10
15.44422850814934
 20
29.38727764513465
 10
15.43455507234518
 20
29.39695108093881
 10
15.4084371289807
 20
29.47553483804148
 10
15.37169950473033
 20
29.58265018016764
 10
15.33682950923912
 20
29.67669212097968
 10
15.32746970050528
 20
29.74363066882336
 10
15.33409750500426
 20
29.80198267956698
 10
15.34632819578073
 20
29.8603346903106
 10
15.38334857524775
 20
29.91849338314572
 10
15.43231689027459
 20
29.98932662023106
 10
15.48502046281975
 20
30.07510088738971
 10
15.50104994884997
 20
30.11821149129858
 10
15.50493754394001
 20
30.17263782255921
 10
15.50790663308293
 20
30.21420507056002
 10
15.52003633920296
 20
30.225722402955
 10
15.55522631827006
 20
30.25309238667387
 10
15.58132308846058
 20
30.27338987459984
 10
15.58670260458269
 20
30.2897776562674
 10
15.59849308458205
 20
30.3330094162651
 10
15.60697694317176
 20
30.36411689776068
 10
15.61323327457844
 20
30.3652388483128
 10
15.62902560284665
 20
30.3652388483128
 10
15.64004170018979
 20
30.3652388483128
 10
15.65133591741815
 20
30.37621891938656
 10
15.67908226454948
 20
30.4039652665179
 10
15.69782725339895
 20
30.42271025536735
 10
15.76570028952107
 20
30.44042062731566
 10
15.86550454833391
 20
30.47453901611112
 10
15.98772035225671
 20
30.52359843497987
 10
16.13398757044385
 20
30.55140177209947
 10
16.24151287985859
 20
30.56632002621228
 10
16.30608272781258
 20
30.57190013652928
 10
16.38942052271136
 20
30.56890259792595
 10
16.49865402916193
 20
30.55842565610627
 10
16.63029908072246
 20
30.54047819924992
 10
16.69776480872448
 20
30.50733417715392
 10
16.77720735887035
 20
30.46610968868947
 10
16.87532619660785
 20
30.41741468518836
 10
16.93640993383069
 20
30.35342812402709
 10
17.00146946493495
 20
30.27610373820565
 10
17.07306569669628
 20
30.18570595107005
 10
17.08114447376419
 20
30.14166535761305
 10
17.09317690167159
 20
30.06144917156374
  0
LWPOLYLINE
  5
D5
330
1F
100
AcDbEntity
  8
Calque 1
370
     0
100
AcDbPolyline
 90
       49
 70
     1
 43
0.0
 10
13.73452902390416
 20
29.76165811929698
 10
13.72534864634623
 20
29.77083849685491
 10
13.70885646365366
 20
29.78733067954749
 10
13.70144233260326
 20
29.80675629886366
 10
13.70021294575954
 20
29.89896031214238
 10
13.69699312307362
 20
29.97325040284122
 10
13.68365582546658
 20
30.03488848439776
 10
13.611180543918
 20
30.1227603726081
 10
13.48695393047202
 20
30.23650792676719
 10
13.33915890369723
 20
30.32241004109912
 10
13.21147829864273
 20
30.3020373448318
 10
13.06190289932395
 20
30.25777941845803
 10
12.9709058539555
 20
30.21996521362581
 10
12.95254868305784
 20
30.19059374018954
 10
12.93480082925472
 20
30.16219717410456
 10
12.92447792943541
 20
30.15317787552942
 10
12.88962857584517
 20
30.12994497313594
 10
12.86026307610591
 20
30.11036797330977
 10
12.85311762086318
 20
30.09772074312505
 10
12.83705554435501
 20
30.06158107098165
 10
12.82538055092761
 20
30.03531233577002
 10
12.82010626842335
 20
30.02959213435395
 10
12.80780164733158
 20
30.01728751326218
 10
12.80024969957732
 20
30.0097355655079
 10
12.80021912830441
 20
29.9931529340148
 10
12.80021912830441
 20
29.96011122113842
 10
12.80015798575859
 20
29.94350820879669
 10
12.78505409025008
 20
29.93092162920627
 10
12.76044484806654
 20
29.91041392738666
 10
12.74760343758974
 20
29.89589545418466
 10
12.73173849308274
 20
29.85070085212041
 10
12.71786398441794
 20
29.78958276331852
 10
12.70830578809411
 20
29.73685343180321
 10
12.69525445487667
 20
29.73685343180321
 10
12.67976585328101
 20
29.73685343180321
 10
12.67573768397207
 20
29.73273137003309
 10
12.67218811321145
 20
29.70078523318747
 10
12.66851667903192
 20
29.66774232557168
 10
12.67013049084763
 20
29.65362725261457
 10
12.68146737302452
 20
29.60827972390703
 10
12.69170748443121
 20
29.56731927828025
 10
12.82822986384161
 20
29.50882455608797
 10
13.11795536334401
 20
29.4444281023695
 10
13.50521221911454
 20
29.40391687875754
 10
13.62980041692632
 20
29.45887425869833
 10
13.6603009190966
 20
29.51759211604343
 10
13.69677272879351
 20
29.55242474328205
 10
13.70885646365366
 20
29.60120461773133
 10
13.72534864634623
 20
29.70428075955988
  0
LWPOLYLINE
  5
D6
330
1F
100
AcDbEntity
  8
Calque 1
370
     0
100
AcDbPolyline
 90
      178
 70
     1
 43
0.0
 10
14.20581808628634
 20
29.8608768692722
 10
14.19707800782408
 20
29.85213679080994
 10
14.18099119674137
 20
29.83604997972725
 10
14.17274206157535
 20
29.82776976403528
 10
14.17043459641611
 20
29.80238764728367
 10
14.16641711590555
 20
29.75819536166762
 10
14.16452629399282
 20
29.73673004797951
 10
14.17422904776396
 20
29.71247316355164
 10
14.19026519172515
 20
29.67238280364867
 10
14.19743965613243
 20
29.6538405371893
 10
14.1872808982676
 20
29.6233642635948
 10
14.17129542142794
 20
29.57540783307578
 10
14.16457414627425
 20
29.55422334660014
 10
14.16987308273325
 20
29.51448132315761
 10
14.17783204307208
 20
29.45478912061645
 10
14.16940071738159
 20
29.40631528730441
 10
14.09972462891586
 20
29.27836180529499
 10
14.03004854045013
 20
29.18422862690039
 10
13.9729861726289
 20
29.13321633561469
 10
13.96017829838958
 20
29.13124348457049
 10
13.93703644249018
 20
29.12645227489174
 10
13.90412323282108
 20
29.1189961505485
 10
13.87546992003629
 20
29.11270181626466
 10
13.85715058891159
 20
29.10922584061535
 10
13.84746169822786
 20
29.10866843190763
 10
13.81307772288613
 20
29.1129899151473
 10
13.7411156324168
 20
29.1229481156561
 10
13.66672732572218
 20
29.13421891128178
 10
13.64478212871368
 20
29.14675902385807
 10
13.61796022125885
 20
29.16208582811797
 10
13.58510382444545
 20
29.16452412469863
 10
13.47163357430812
 20
29.17064622595484
 10
13.30226587791851
 20
29.19414820545759
 10
13.08420007583314
 20
29.23364071678364
 10
12.8958554313041
 20
29.27399021790185
 10
12.75871096863639
 20
29.31105163394642
 10
12.69587033227528
 20
29.32924778063193
 10
12.65367412013413
 20
29.30899359880417
 10
12.6075195391242
 20
29.28683939991941
 10
12.5928336006484
 20
29.27226945337995
 10
12.57263536376732
 20
29.22063086017545
 10
12.53975451303068
 20
29.1285957932088
 10
12.49725992784058
 20
29.00506400274608
 10
12.46625798286032
 20
28.91124397531087
 10
12.45075701037018
 20
28.85875987451601
 10
12.44893682041869
 20
28.83453764780671
 10
12.44987627329688
 20
28.80193863293354
 10
12.45175517905326
 20
28.76182399503486
 10
12.45430631553582
 20
28.71633151132679
 10
12.45612259110032
 20
28.67671791496312
 10
12.45699941378662
 20
28.64461994162502
 10
12.46893404839649
 20
28.60856221545507
 10
12.52431954560841
 20
28.49409885455043
 10
12.5749550001778
 20
28.38945224844037
 10
12.62404405197578
 20
28.36169848817559
 10
12.6783131132392
 20
28.3441620344494
 10
12.71097475830425
 20
28.33602010950506
 10
12.7228322193818
 20
28.3355770008975
 10
12.73119334999769
 20
28.33664171415944
 10
12.73955448061357
 20
28.33864588029959
 10
12.74791561122947
 20
28.34117196470538
 10
12.75627674184536
 20
28.34286297988612
 10
12.76463787246125
 20
28.34361454218868
 10
12.80205902506862
 20
28.34016553622595
 10
12.91815006725209
 20
28.32855643200759
 10
13.0095408876944
 20
28.31941734996334
 10
13.06371687157902
 20
28.33414642293133
 10
13.13477082426609
 20
28.36477258676027
 10
13.2114614942223
 20
28.40667218512746
 10
13.30046317222892
 20
28.46224604205509
 10
13.3722373721226
 20
28.50492851782087
 10
13.42146470293974
 20
28.53070084177921
 10
13.43896090445274
 20
28.53530556830242
 10
13.46666948653417
 20
28.5392639371712
 10
13.48595465966285
 20
28.54201896190387
 10
13.53663849429618
 20
28.5841870256441
 10
13.58821445730879
 20
28.6415875965015
 10
13.6303958915395
 20
28.70650379038441
 10
13.67110729899311
 20
28.72595485142208
 10
13.75503105240135
 20
28.74993306668159
 10
13.8083645311917
 20
28.76517120347884
 10
13.81622775178215
 20
28.74530367512221
 10
13.83226389574333
 20
28.70120427922896
 10
13.84196664951448
 20
28.67452170635829
 10
13.79054651135756
 20
28.57907535815028
 10
13.65003567587635
 20
28.40975463440455
 10
13.42121626984532
 20
28.17091439767285
 10
13.31131019954417
 20
28.1234777684252
 10
13.1821354287931
 20
28.09404157824193
 10
13.02759543033093
 20
28.07493936971875
 10
12.86196988790609
 20
28.0586555198301
 10
12.73298300773066
 20
28.03767440555052
 10
12.64305284299366
 20
28.01294008319457
 10
12.59113487691081
 20
28.02216994383153
 10
12.50074156542343
 20
28.03823986587375
 10
12.45705060282641
 20
28.04603758278975
 10
12.44977353749806
 20
28.05331464811809
 10
12.43774642952716
 20
28.06534175608897
 10
12.43178702602784
 20
28.0709154561257
 10
12.38607261563613
 20
28.08107421399052
 10
12.31413796985762
 20
28.09705969083021
 10
12.26455301360777
 20
28.11691360239791
 10
12.12598371407481
 20
28.24023245020828
 10
11.99305113181099
 20
28.40864503617172
 10
11.88557250336342
 20
28.59471411706252
 10
11.8762406047734
 20
28.66786618117755
 10
11.86127198891425
 20
28.75041277407445
 10
11.84810085956204
 20
28.83398023909902
 10
11.86466654531411
 20
28.90979408636886
 10
11.88499004257895
 20
29.02224659588814
 10
11.9036978568208
 20
29.13385429566285
 10
11.91551174065529
 20
29.14566817949733
 10
11.9311256586038
 20
29.16128209744585
 10
11.93581236734444
 20
29.16691083933475
 10
11.92971964598162
 20
29.17604992137899
 10
11.92198024316939
 20
29.18765902559736
 10
11.92130858713974
 20
29.19280617180479
 10
11.94325378414824
 20
29.2147513688133
 10
11.97007569160307
 20
29.24157327626813
 10
11.97868910226152
 20
29.25337332047221
 10
11.99156699564793
 20
29.30166542067127
 10
12.00672490950276
 20
29.3585075976269
 10
12.02759690181506
 20
29.3856817705898
 10
12.07009148700517
 20
29.43425148439221
 10
12.10694935492614
 20
29.50348916151478
 10
12.12635845138954
 20
29.56849571176437
 10
12.12635845138954
 20
29.67989371181705
 10
12.12635845138954
 20
29.80174180568326
 10
12.13017997211621
 20
29.8292370228863
 10
12.15775977526378
 20
29.83957944906663
 10
12.18685959205696
 20
29.85049188036408
 10
12.19635015379974
 20
29.86689329674025
 10
12.22095537468805
 20
29.95828411718256
 10
12.24600393288966
 20
30.05132161907429
 10
12.35316586250648
 20
30.17898605219256
 10
12.56507511673011
 20
30.35951758028466
 10
12.78543944685745
 20
30.48368193568538
 10
12.89926982059806
 20
30.5222015913642
 10
12.91805887816185
 20
30.52123082339003
 10
12.94154520011659
 20
30.51932060253771
 10
12.96822044267452
 20
30.5167725975648
 10
12.99108046271047
 20
30.51498763709626
 10
13.00924321835547
 20
30.51414212950587
 10
13.05861459861393
 20
30.52609197011643
 10
13.10843691625391
 20
30.54012113309739
 10
13.1300756475482
 20
30.54663467305284
 10
13.14258329563552
 20
30.54229197295604
 10
13.18805703720002
 20
30.52334458063749
 10
13.22669071735928
 20
30.50724721390444
 10
13.25455106623527
 20
30.5107674060001
 10
13.2989558722777
 20
30.52291766322469
 10
13.35275520710202
 20
30.54070463771842
 10
13.40321322118959
 20
30.54311746586055
 10
13.46080168262261
 20
30.53018433123742
 10
13.53154248435029
 20
30.50879612071066
 10
13.60836259003638
 20
30.48349978621065
 10
13.67296563295989
 20
30.46605727777225
 10
13.72441633558873
 20
30.45706984523758
 10
13.7482406963806
 20
30.44110652939929
 10
13.78757104946077
 20
30.39784314101112
 10
13.81613463921786
 20
30.36642319227832
 10
13.83200611503411
 20
30.35932092851922
 10
13.87158980372187
 20
30.34348745304411
 10
13.89914005104855
 20
30.33246735411345
 10
13.90784699649732
 20
30.32103118663278
 10
13.92774439734436
 20
30.2931748254469
 10
13.94099173849186
 20
30.27462854784042
 10
13.96509943639526
 20
30.26406060605533
 10
14.02104860533409
 20
30.24008239079583
 10
14.05660425786097
 20
30.22484425399858
 10
14.07155929211673
 20
30.20828845537227
 10
14.10363158003911
 20
30.1722071314596
 10
14.12303708758139
 20
30.15037593547456
 10
14.13614199782062
 20
30.11633185207299
 10
14.15007721551376
 20
30.06816923451777
 10
14.1640124332069
 20
30.00779372954614
 10
14.17794765090005
 20
29.94661760195496
 10
14.1918828685932
 20
29.89764079190533
  0
LWPOLYLINE
  5
D7
330
1F
100
AcDbEntity
  8
Calque 1
370
     0
100
AcDbPolyline
 90
       16
 70
     1
 43
0.0
 10
13.57743266977677
 20
33.32526488923938
 10
13.38073924941579
 20
33.35665832184873
 10
13.03870586327083
 20
33.39502807281574
 10
12.66805665275151
 20
33.40691365223987
 10
12.49636170650537
 20
33.31699666007484
 10
12.34559571533212
 20
33.17126912104877
 10
12.34701681721979
 20
33.10744872718448
 10
12.4621260701207
 20
33.10027862220579
 10
12.63072043043011
 20
33.08962035804828
 10
12.77412253000364
 20
33.08206267982754
 10
12.89427023505173
 20
33.07799316078561
 10
13.02417186669243
 20
33.07915588051188
 10
13.20846294330651
 20
33.10822387366866
 10
13.38694042128924
 20
33.17217345861363
 10
13.46581157605468
 20
33.22062011387496
 10
13.53557475963099
 20
33.28602309847773
  0
LWPOLYLINE
  5
D8
330
1F
100
AcDbEntity
  8
Calque 1
370
     0
100
AcDbPolyline
 90
      415
 70
     1
 43
0.0
 10
14.00738058633595
 20
33.37487426422701
 10
13.99873520247649
 20
33.32300196107025
 10
13.98274079531561
 20
33.227035518105
 10
13.97430135294232
 20
33.17642757629812
 10
13.94994496994525
 20
33.14100011012056
 10
13.90596884043362
 20
33.07703483083088
 10
13.88174118954816
 20
33.04302669632716
 10
13.79815160107577
 20
33.00082233729771
 10
13.66122683361004
 20
32.95212499995594
 10
13.47105935113335
 20
32.89695888048419
 10
13.28137329587144
 20
32.84938263292301
 10
13.13760187296032
 20
32.82128532029853
 10
13.0258484083579
 20
32.81264697115867
 10
12.72288724147666
 20
32.81678432630108
 10
12.44775312450499
 20
32.82834222808603
 10
12.21238092038567
 20
32.83635078036548
 10
12.15481829867824
 20
32.70778246931437
 10
12.11766218023782
 20
32.58199686325432
 10
12.10110628861222
 20
32.46927943306165
 10
12.04683245420588
 20
32.44214251585848
 10
11.95921980241389
 20
32.39833618996249
 10
11.91611134214649
 20
32.37231272332059
 10
11.89013942889755
 20
32.29912824937372
 10
11.88086374559436
 20
32.20553727215986
 10
11.88672349641939
 20
32.10559331935855
 10
11.89697429628125
 20
32.09790521946215
 10
11.91285755925735
 20
32.0859927722301
 10
11.91933551907003
 20
32.07958227240562
 10
11.90106974735165
 20
32.00390978957236
 10
11.87332266272433
 20
31.88895758183057
 10
11.86077145548249
 20
31.84028136866061
 10
11.81297569333235
 20
31.80045156686882
 10
11.74176497737878
 20
31.74110930357418
 10
11.71220730397406
 20
31.71709431672482
 10
11.68250210708433
 20
31.71709431672482
 10
11.63907783932353
 20
31.71709431672482
 10
11.62231551213118
 20
31.71597767748707
 10
11.63329492387106
 20
31.67754973639748
 10
11.64904851863158
 20
31.62241215473566
 10
11.65413644548288
 20
31.59993969313368
 10
11.62625182957482
 20
31.55811276927159
 10
11.58696818117368
 20
31.49918729666985
 10
11.57238709736137
 20
31.47494326604712
 10
11.57238709736137
 20
31.41265470098259
 10
11.57238709736137
 20
31.326468399562
 10
11.55400952079462
 20
31.24535157592425
 10
11.47280725297095
 20
31.04835341276339
 10
11.39809796345952
 20
30.90886448608237
 10
11.34395538090634
 20
30.82636553812736
 10
11.32967149593477
 20
30.75798907124522
 10
11.29961894934778
 20
30.67940935272958
 10
11.25270900895783
 20
30.58753320792474
 10
11.20629389009786
 20
30.49610433243052
 10
11.17564743285332
 20
30.42693709686393
 10
11.16381320045155
 20
30.3867021638018
 10
11.17579290985447
 20
30.32979854413787
 10
11.19125938213763
 20
30.25633280079285
 10
11.19465754275355
 20
30.22900118761354
 10
11.16309352690888
 20
30.16023434125427
 10
11.09071650453015
 20
30.00613120850562
 10
11.01277220158112
 20
29.84347788113172
 10
10.99126742589442
 20
29.83118943788219
 10
10.96441181024921
 20
29.81584337179922
 10
10.95012309893979
 20
29.79376962177486
 10
10.92329702204854
 20
29.72498942910866
 10
10.88719526185411
 20
29.63951300649668
 10
10.85329842099716
 20
29.56812024203504
 10
10.80610531696354
 20
29.52721955187258
 10
10.74905540248004
 20
29.47777629265355
 10
10.7106584274369
 20
29.40014872034542
 10
10.63648632677863
 20
29.23312636250685
 10
10.55303854281718
 20
29.10506187454169
 10
10.49246445276015
 20
29.03512539611254
 10
10.48281280559926
 20
28.95952082668555
 10
10.47151165138349
 20
28.87099511866202
 10
10.45781264300671
 20
28.82538288398794
 10
10.4089651597122
 20
28.75488769088369
 10
10.33229062650811
 20
28.67326167781562
 10
10.26193203933911
 20
28.61472382247871
 10
10.1863738845084
 20
28.59829813664592
 10
10.10063706419271
 20
28.57965969744686
 10
10.06731475182864
 20
28.5644279772973
 10
9.957822727282714
 20
28.47152565344016
 10
9.835496733212242
 20
28.36773390089553
 10
9.732367409693832
 20
28.32126728353404
 10
9.546820377862708
 20
28.26504262909444
 10
9.36127334603158
 20
28.20789040632451
 10
9.163555346446926
 20
28.15010855472312
 10
8.962643378784438
 20
28.10364672378895
 10
8.781210346058653
 20
28.07295355447024
 10
8.675062250971684
 20
28.06581662899626
 10
8.589769299880046
 20
28.0896986553019
 10
8.498776832541889
 20
28.11517654615659
 10
8.476081462858449
 20
28.12589802967014
 10
8.44854999344723
 20
28.16375380011058
 10
8.419623818883923
 20
28.20352729013513
 10
8.369384145840765
 20
28.24295077051349
 10
8.246911760471341
 20
28.31832403879375
 10
8.089191778549789
 20
28.40297299037718
 10
7.973492403896276
 20
28.48398579345178
 10
7.905956754349531
 20
28.58735294047802
 10
7.800390803259698
 20
28.73709850402028
 10
7.680488758173975
 20
28.90477507093897
 10
7.593570934415652
 20
29.04699665395998
 10
7.530769887245629
 20
29.17901498534755
 10
7.508552462960661
 20
29.24764968250338
 10
7.508552462960661
 20
29.2867280389764
 10
7.508552462960661
 20
29.32536384477618
 10
7.513174341910936
 20
29.33633208168809
 10
7.538223382156811
 20
29.36138112193396
 10
7.562615301706017
 20
29.38577304148316
 10
7.569209769329368
 20
29.40487616908081
 10
7.583623845112871
 20
29.48415358589008
 10
7.597447853332024
 20
29.56018563109544
 10
7.607536547564279
 20
29.58244370822894
 10
7.647442696663556
 20
29.63686118427342
 10
7.685136092396518
 20
29.68826126936384
 10
7.712680629897896
 20
29.70930843272811
 10
7.818570437968869
 20
29.77503314118596
 10
7.917070990858999
 20
29.83617141539361
 10
7.936256902577909
 20
29.85638991538835
 10
7.963812966177592
 20
29.9115020425877
 10
7.98905569671249
 20
29.96198750365747
 10
8.007379276610979
 20
29.97088641633218
 10
8.073909780408492
 20
29.98197483363177
 10
8.133922719745232
 20
29.99197699018791
 10
8.154258621893184
 20
30.00635516374646
 10
8.210019090170437
 20
30.0621156320237
 10
8.259543617142632
 20
30.1116401589959
 10
8.301817305071359
 20
30.12086416072978
 10
8.451330031837578
 20
30.13581543340644
 10
8.582067881556309
 20
30.14888921837832
 10
8.662980910083728
 20
30.11674165553731
 10
8.756938910737641
 20
30.04864212452356
 10
8.836055818106444
 20
29.96199122690342
 10
8.860407931372691
 20
29.91305159370489
 10
8.860407931372691
 20
29.86018185510514
 10
8.860407931372691
 20
29.81538531363583
 10
8.845863816726392
 20
29.79672337963831
 10
8.792740144537795
 20
29.7435997074497
 10
8.748440664561513
 20
29.6993002274734
 10
8.71764183158119
 20
29.68794923636384
 10
8.622343974272599
 20
29.66126583631743
 10
8.544144665703672
 20
29.63937002991812
 10
8.525597995465687
 20
29.64549313541104
 10
8.483484399363092
 20
29.67229269656724
 10
8.4494842322703
 20
29.69392916653538
 10
8.442334649437373
 20
29.7118286689489
 10
8.426957324052423
 20
29.76564930779625
 10
8.414744906512616
 20
29.80839276918559
 10
8.40062583628471
 20
29.81126749428464
 10
8.358172632950839
 20
29.81126749428464
 10
8.325012993755464
 20
29.81126749428464
 10
8.300222287203556
 20
29.78516730286276
 10
8.248311826472946
 20
29.73753767007386
 10
8.172284589154035
 20
29.67599451233019
 10
8.085122019091279
 20
29.61092298470729
 10
8.018750834822547
 20
29.56786446203546
 10
7.974641290481482
 20
29.54799514762161
 10
7.953373518344015
 20
29.46598470810531
 10
7.924301925314974
 20
29.37160629878369
 10
7.883171943991779
 20
29.29021384608657
 10
7.907119275291499
 20
29.09672691384244
 10
7.997190164057602
 20
28.87949908598116
 10
8.138277310991259
 20
28.67432964641409
 10
8.285070484212333
 20
28.55422721469157
 10
8.410285535651961
 20
28.48620108836582
 10
8.518804357145846
 20
28.45342255859222
 10
8.558689347773384
 20
28.4363278296936
 10
8.613758043195669
 20
28.39699304724914
 10
8.652492595586664
 20
28.36932550982701
 10
8.687339535010487
 20
28.36846150506199
 10
8.774088310907913
 20
28.36846150506199
 10
8.833989012627469
 20
28.36846150506199
 10
8.854509871892297
 20
28.37298350268992
 10
8.94523139312033
 20
28.39031368221393
 10
9.110158380773899
 20
28.42062981836241
 10
9.229159286097438
 20
28.49078391250771
 10
9.346106300405679
 20
28.5872777114748
 10
9.477894407999031
 20
28.70603315036951
 10
9.497061577046864
 20
28.73069199617257
 10
9.497061577046864
 20
28.74656175204288
 10
9.497061577046864
 20
28.75690632981068
 10
9.678441536599066
 20
28.94144116867932
 10
9.835457500831022
 20
29.15063451978011
 10
9.939602070234773
 20
29.35890030255061
 10
9.960514797002563
 20
29.43984380564669
 10
9.981922273287921
 20
29.52124293149728
 10
10.01075029621583
 20
29.61933828729366
 10
10.07075951681828
 20
29.73847913680666
 10
10.17247172178756
 20
29.89068042082053
 10
10.31499693329089
 20
30.07627416472587
 10
10.37763998515132
 20
30.2530745166921
 10
10.42261703944161
 20
30.45073332204501
 10
10.45831841042871
 20
30.6725089039862
 10
10.48919594231335
 20
30.70984546421829
 10
10.54908379620256
 20
30.75575948553339
 10
10.58422904426852
 20
30.78270417571733
 10
10.59026578317996
 20
30.81244477606631
 10
10.60225145822127
 20
30.87237315127286
 10
10.60912768458039
 20
30.90675428306838
 10
10.59493244531195
 20
30.9128961247541
 10
10.56695236310975
 20
30.92488758855504
 10
10.55126982537365
 20
30.93160867615623
 10
10.62339460787321
 20
31.12244591566329
 10
10.71180054485214
 20
31.286291852457
 10
10.81504757511617
 20
31.41860046601988
 10
10.8158441288005
 20
31.48775056112015
 10
10.8158441288005
 20
31.61570890574566
 10
10.81584556673579
 20
31.68402255041468
 10
10.8377243445339
 20
31.70152557265317
 10
10.87770746805629
 20
31.73351207147107
 10
10.8985264204465
 20
31.75018142313232
 10
10.8985264204465
 20
31.77482541100341
 10
10.8985264204465
 20
31.81879411160685
 10
10.90011909574069
 20
31.84301768259678
 10
10.94343453482056
 20
31.90160129678293
 10
10.98489483723979
 20
31.9713157309329
 10
11.02264057011559
 20
32.04787930620117
 10
11.05309978510616
 20
32.06662343850306
 10
11.10500259181015
 20
32.09856362724401
 10
11.13345152328434
 20
32.12231289481443
 10
11.18816470846626
 20
32.27537167904731
 10
11.24658816696946
 20
32.47388131146585
 10
11.30402059034556
 20
32.69742728281176
 10
11.3540935460126
 20
32.77558994531643
 10
11.43578205356479
 20
32.9031037132028
 10
11.46000310377179
 20
32.96645691723
 10
11.29235680608509
 20
33.02898436510833
 10
11.07554938689148
 20
33.1082080429324
 10
10.82604469196919
 20
33.19696631281207
 10
10.66604916471927
 20
33.24424560504454
 10
10.46153035761402
 20
33.31007626388339
 10
10.24501242446799
 20
33.38342589886983
 10
10.22432326893241
 20
33.40152890996348
 10
10.19258375719179
 20
33.4293009827365
 10
10.17848479839198
 20
33.4410200975438
 10
10.14163043512682
 20
33.4410200975438
 10
10.08618894358476
 20
33.4410200975438
 10
10.06251469025297
 20
33.4415110759806
 10
10.02234479883322
 20
33.46293501807114
 10
9.963064764704547
 20
33.49455103627312
 10
9.893953955951353
 20
33.50983917693159
 10
9.673823306337016
 20
33.52275172886803
 10
9.547377058084919
 20
33.53009887082257
 10
9.492453380519314
 20
33.53177558464282
 10
9.366681120766124
 20
33.52357761562269
 10
9.226995336058141
 20
33.50332125830838
 10
9.068528705078168
 20
33.47003564088459
 10
8.909190483443698
 20
33.42398754546469
 10
8.791592836673594
 20
33.37144647173253
 10
8.724767281857261
 20
33.32434103189269
 10
8.642046887702264
 20
33.30152161281546
 10
8.528602748321908
 20
33.27022667781398
 10
8.486890950441367
 20
33.25727784143709
 10
8.455055779447935
 20
33.2167603510818
 10
8.41215684162303
 20
33.16216170294101
 10
8.394713584510171
 20
33.14173003372409
 10
8.341883338114914
 20
33.10944488314922
 10
8.271914311100719
 20
33.06668603330721
 10
8.247892930355874
 20
33.04991566617093
 10
8.235992334001132
 20
33.00528842984068
 10
8.22049768975447
 20
32.94718351391575
 10
8.21827485857878
 20
32.92137525285773
 10
8.252241209667491
 20
32.8750568947228
 10
8.323310293968969
 20
32.79720121335709
 10
8.401904523310815
 20
32.7200414601671
 10
8.469072819779857
 20
32.69561662508744
 10
8.553648109397062
 20
32.66486197431755
 10
8.585168297714307
 20
32.65644296658968
 10
8.665532329024649
 20
32.66880666371435
 10
8.765073556176183
 20
32.68412069866077
 10
8.795997446146021
 20
32.68761961608527
 10
8.817893252545342
 20
32.67510772671423
 10
8.844576652591729
 20
32.65986006954483
 10
8.85322197120616
 20
32.65364435616027
 10
8.865878965485116
 20
32.63149461617209
 10
8.881057157538997
 20
32.60493278007781
 10
8.894629662603886
 20
32.59942747613829
 10
8.923100671821924
 20
32.60341134875123
 10
8.95249924937028
 20
32.60554008470354
 10
8.993971097785287
 20
32.60517971041279
 10
9.071896847262312
 20
32.59489971751452
 10
9.173011804997322
 20
32.57256133632211
 10
9.294568840148333
 20
32.53978787142398
 10
9.406681154778006
 20
32.51423970341949
 10
9.50116967113162
 20
32.50074992370915
 10
9.565520834239357
 20
32.49857682808928
 10
9.603474394517711
 20
32.50021175068588
 10
9.640500386465742
 20
32.50370180994313
 10
9.670171207505159
 20
32.50988765719183
 10
9.73518522512003
 20
32.53656007467484
 10
9.807259937567291
 20
32.56612918747371
 10
9.823656629048553
 20
32.57583166281302
 10
9.823656629048553
 20
32.59939154464561
 10
9.823656629048553
 20
32.62511053733866
 10
9.759751415022943
 20
32.65205378860401
 10
9.624389833754186
 20
32.71285288973738
 10
9.510362324082773
 20
32.78849308415587
 10
9.452336623469545
 20
32.8446903851445
 10
9.428349917094003
 20
32.89609047023495
 10
9.402955094939933
 20
32.9505079462794
 10
9.39784282707167
 20
32.9707108929737
 10
9.39784282707167
 20
33.03291892995992
 10
9.39784282707167
 20
33.09778227098562
 10
9.406017324372093
 20
33.12010032772034
 10
9.458285723406149
 20
33.1828224065612
 10
9.511962238218693
 20
33.24723422433627
 10
9.584240109868964
 20
33.27229406922558
 10
9.719828578355247
 20
33.29000461849654
 10
9.863765161814395
 20
33.29472921114302
 10
9.943679715952775
 20
33.28975318480966
 10
9.968455237306425
 20
33.27559574403617
 10
9.993136884274807
 20
33.26149194576851
 10
9.997289441505142
 20
33.25461650674546
 10
9.997289441505142
 20
33.22965728875309
 10
9.997289441505142
 20
33.2051674426869
 10
9.99999945603276
 20
33.19853143724279
 10
10.01436374848351
 20
33.18416714479204
 10
10.02824525838159
 20
33.17028563489393
 10
10.02751222696372
 20
33.16603093671214
 10
10.01304913968206
 20
33.1551836212509
 10
9.999283404976463
 20
33.14485932022171
 10
10.00327582318222
 20
33.14037065677968
 10
10.03239341273046
 20
33.12581186200558
 10
10.05968715707975
 20
33.11216498983092
 10
10.06343527482194
 20
33.10479742017191
 10
10.06343527482194
 20
33.07915744404772
 10
10.06343527482194
 20
33.05548883001356
 10
10.07494313946648
 20
33.04337143315834
 10
10.12653645656915
 20
33.00283382686342
 10
10.17343605440988
 20
32.96598414284574
 10
10.22218527478234
 20
32.89697061851305
 10
10.2867814002319
 20
32.76674402882824
 10
10.34210184237826
 20
32.60869038923388
 10
10.35480207616962
 20
32.52585648246571
 10
10.32870826129092
 20
32.4680773209486
 10
10.30571230112508
 20
32.41715769486709
 10
10.18204721691291
 20
32.36966204114973
 10
10.0035403619774
 20
32.30110873570101
 10
9.843584873648275
 20
32.23070029359167
 10
9.740231347039003
 20
32.20491983743622
 10
9.546228199668199
 20
32.20491983743622
 10
9.380541590073132
 20
32.20491983743622
 10
9.314173172759755
 20
32.24262000991652
 10
9.188541049229058
 20
32.29176444853977
 10
9.004472120888248
 20
32.33070563552954
 10
8.774963338262182
 20
32.36378779378535
 10
8.597173847323212
 20
32.39810448543043
 10
8.485241707836909
 20
32.43334874540585
 10
8.451416895044548
 20
32.44469848320961
 10
8.409393507112753
 20
32.44469848320961
 10
8.375188514408627
 20
32.44469848320961
 10
8.35084699246698
 20
32.45327825354946
 10
8.277953178572783
 20
32.48205212745506
 10
8.219583073137528
 20
32.50509295854795
 10
8.203615111723696
 20
32.53282628052659
 10
8.165095579592918
 20
32.61756925121432
 10
8.134756529604292
 20
32.68431516118932
 10
8.127880476653462
 20
32.68861124356533
 10
8.112414004370293
 20
32.68861124356533
 10
8.100434294967381
 20
32.68861124356533
 10
8.076140739620356
 20
32.70773835865387
 10
8.004351284383396
 20
32.76594602506222
 10
7.949680493825855
 20
32.81027369308186
 10
7.941488447815082
 20
32.85355592777179
 10
7.925913918685598
 20
32.97425852852524
 10
7.914255292483169
 20
33.064612881594
 10
7.939002570323644
 20
33.14233022895724
 10
7.971057062947302
 20
33.22124026856889
 10
8.002183987240634
 20
33.28159894157418
 10
8.024307212534882
 20
33.29783811262314
 10
8.067400363245205
 20
33.31350834924507
 10
8.098544645777419
 20
33.32483354289315
 10
8.128997282937085
 20
33.34889865433917
 10
8.235714352998108
 20
33.42020129901164
 10
8.420347162805953
 20
33.53788236020006
 10
8.559717076915482
 20
33.57670172613286
 10
8.694848434390078
 20
33.60449541027518
 10
8.848531158471054
 20
33.64713018770263
 10
9.031641529124954
 20
33.7046336631866
 10
9.172858802550884
 20
33.74647433535276
 10
9.263987386139572
 20
33.76976364091254
 10
9.32665236067142
 20
33.77174926412781
 10
9.457205339919664
 20
33.77174926412781
 10
9.544830903861424
 20
33.77174926412781
 10
9.561431883463619
 20
33.76953976621576
 10
9.598042471609073
 20
33.76136348494436
 10
9.655523347186708
 20
33.74715800952589
 10
9.718762386063644
 20
33.73114067692768
 10
9.763320699974581
 20
33.72013164201439
 10
9.788863863113974
 20
33.7142242329179
 10
9.847136095477814
 20
33.70969681035226
 10
9.970489337103433
 20
33.70672725706453
 10
10.15691722519076
 20
33.70561284043745
 10
10.39894846832598
 20
33.61270737371405
 10
10.70321757328457
 20
33.50764524571011
 10
11.07056132470487
 20
33.40072798104555
 10
11.22851153042035
 20
33.36714444812717
 10
11.41402853306097
 20
33.31395941508652
 10
11.65241693052979
 20
33.23294733213632
 10
11.7454984676867
 20
33.27303915801432
 10
11.85820469297397
 20
33.35407793357834
 10
12.00523094648305
 20
33.46665403237324
 10
12.12270525993497
 20
33.54758728569766
 10
12.25077975763031
 20
33.60935399408209
 10
12.39276778028045
 20
33.65442447252076
 10
12.61996220286909
 20
33.70494864563131
 10
12.80711079152951
 20
33.73614563803591
 10
12.94973610033459
 20
33.74693612717349
 10
13.28866035544092
 20
33.72857060068958
 10
13.58196880584869
 20
33.67125488565998
 10
13.82240586142828
 20
33.57498130075697
 10
13.87186173572415
 20
33.52271301034898
 10
13.95983097510898
 20
33.4267465673837
  0
LWPOLYLINE
  5
D9
330
1F
100
AcDbEntity
  8
Calque 1
370
     0
100
AcDbPolyline
 90
       93
 70
     1
 43
0.0
 10
19.2990472516797
 20
43.41801662282742
 10
19.2990472516797
 20
43.49553127124553
 10
19.2990472516797
 20
43.66606349776534
 10
19.2990472516797
 20
43.83659572428515
 10
19.2990472516797
 20
43.91411037270327
 10
19.33031149320834
 20
43.91411037270327
 10
19.41273540269294
 20
43.91411037270327
 10
19.66284933492208
 20
43.91411037270327
 10
19.91296326715122
 20
43.91411037270327
 10
19.99538717663583
 20
43.91411037270327
 10
20.02665141816447
 20
43.91411037270327
 10
20.02665141816447
 20
43.9599409085805
 10
20.02665141816447
 20
44.08076686680226
 10
20.02665141816447
 20
44.44741115382001
 10
20.02665141816447
 20
44.81405544083776
 10
20.02665141816447
 20
44.93488139905951
 10
20.02665141816447
 20
44.98071193493672
 10
20.05205361440649
 20
44.98071193493672
 10
20.11902304086273
 20
44.98071193493672
 10
20.3222406107989
 20
44.98071193493672
 10
20.52545818073507
 20
44.98071193493672
 10
20.59242760719131
 20
44.98071193493672
 10
20.61782980343334
 20
44.98071193493672
 10
20.61782980343334
 20
44.93488139905949
 10
20.61782980343334
 20
44.81405544083773
 10
20.61782980343334
 20
44.44741115381998
 10
20.61782980343334
 20
44.08076686680224
 10
20.61782980343334
 20
43.95994090858048
 10
20.61782980343334
 20
43.91411037270327
 10
20.66916710912526
 20
43.91411037270327
 10
20.80451091504031
 20
43.91411037270327
 10
21.21520936057565
 20
43.91411037270327
 10
21.625907806111
 20
43.91411037270327
 10
21.76125161202606
 20
43.91411037270327
 10
21.81258891771798
 20
43.91411037270327
 10
21.81258891771798
 20
43.83659572428515
 10
21.81258891771798
 20
43.66606349776534
 10
21.81258891771798
 20
43.49553127124553
 10
21.81258891771798
 20
43.41801662282742
 10
21.76125161202606
 20
43.41801662282742
 10
21.625907806111
 20
43.41801662282742
 10
21.21520936057566
 20
43.41801662282742
 10
20.80451091504031
 20
43.41801662282742
 10
20.66916710912526
 20
43.41801662282742
 10
20.61782980343334
 20
43.41801662282742
 10
20.61782980343334
 20
43.39458206730273
 10
20.61782980343334
 20
43.32835397560251
 10
20.61782980343334
 20
43.09197063291867
 10
20.61782980343334
 20
42.75777349326221
 10
20.61782980343334
 20
42.37466945511946
 10
20.61782980343334
 20
41.9915654169767
 10
20.61782980343334
 20
41.65736827732025
 10
20.61782980343334
 20
41.42098493463641
 10
20.61782980343334
 20
41.35475684293618
 10
20.61782980343334
 20
41.33132228741149
 10
20.64651022334805
 20
41.00892594553243
 10
20.73255148309216
 20
40.7786428441903
 10
20.87595358266568
 20
40.64047298338502
 10
21.07671652206862
 20
40.5944163631166
 10
21.440518605311
 20
40.66370584606369
 10
21.82085714688259
 20
40.87174654967921
 10
21.84217367519757
 20
40.79380126432545
 10
21.88907003749053
 20
40.62232163654712
 10
21.93596639978349
 20
40.4508420087688
 10
21.95728292809848
 20
40.37289672341498
 10
21.65420065278362
 20
40.23292357044169
 10
21.34440044127253
 20
40.13290275917384
 10
21.02788229356519
 20
40.07286658738166
 10
20.70464620966163
 20
40.0528473528353
 10
20.54186544798358
 20
40.06983597994696
 10
20.4007887878626
 20
40.12080186128187
 10
20.2814162292987
 20
40.20574499684008
 10
20.18374777229187
 20
40.32466538662155
 10
20.10778341684211
 20
40.47756303062629
 10
20.05352316294942
 20
40.66443792885434
 10
20.02096701061382
 20
40.88529008130564
 10
20.01011495983528
 20
41.1401194879802
 10
20.01011495983528
 20
41.1657013405688
 10
20.01011495983528
 20
41.23799788049313
 10
20.01011495983528
 20
41.49604091530005
 10
20.01011495983528
 20
41.86086037830293
 10
20.01011495983528
 20
42.2790680554038
 10
20.01011495983528
 20
42.69727573250466
 10
20.01011495983528
 20
43.06209519550754
 10
20.01011495983528
 20
43.32013823031445
 10
20.01011495983528
 20
43.39243477023879
 10
20.01011495983528
 20
43.41801662282742
 10
19.97956126925046
 20
43.41801662282742
 10
19.89901063043596
 20
43.41801662282742
 10
19.65458110575749
 20
43.41801662282742
 10
19.41015158107901
 20
43.41801662282742
 10
19.32960094226451
 20
43.41801662282742
 10
19.2990472516797
 20
43.41801662282742
  0
LWPOLYLINE
  5
DA
330
1F
100
AcDbEntity
  8
Calque 1
370
     0
100
AcDbPolyline
 90
      130
 70
     1
 43
0.0
 10
16.131626462541
 20
40.43146334666431
 10
16.15913102604876
 20
40.58402199225406
 10
16.2095864173842
 20
40.86388122952794
 10
16.2354980483986
 20
41.00446157573907
 10
16.25594577051811
 20
40.99292323747761
 10
16.29367947327927
 20
40.97049236346939
 10
16.34858565701556
 20
40.93721248642395
 10
16.40466881708924
 20
40.90340353805189
 10
16.45061354004475
 20
40.87684777987107
 10
16.48665395563759
 20
40.85734181043332
 10
16.52715580532268
 20
40.83663307646415
 10
16.58094545572228
 20
40.80976769185551
 10
16.64766299361834
 20
40.7768737583354
 10
16.71626605657887
 20
40.74523437523166
 10
16.78108041145357
 20
40.71894654229922
 10
16.84237514262353
 20
40.69776546425615
 10
16.90718949749822
 20
40.67736412124458
 10
16.97863409152314
 20
40.65597552833759
 10
17.05658563512729
 20
40.63394436945531
 10
17.1387290241446
 20
40.61485014177271
 10
17.22418753273702
 20
40.60001821068664
 10
17.31283936854667
 20
40.58940063025292
 10
17.40367255476791
 20
40.58231832934248
 10
17.49646566882585
 20
40.57855114800716
 10
17.65696177301601
 20
40.58060530179273
 10
17.89596790199349
 20
40.61625547729144
 10
18.08039295510937
 20
40.69332643253628
 10
18.21126728092108
 20
40.80897584990859
 10
18.29772409256736
 20
40.93910505660682
 10
18.34191312963102
 20
41.07846923926428
 10
18.34456825860595
 20
41.22174786580018
 10
18.31100267290798
 20
41.34944993138089
 10
18.24227314028833
 20
41.46104998759679
 10
18.14237505323591
 20
41.55580740383763
 10
18.03477107946884
 20
41.63026771621633
 10
17.92332010979923
 20
41.68388649113436
 10
17.83365067401034
 20
41.71171275662357
 10
17.72695537749944
 20
41.73707386294751
 10
17.57177918944398
 20
41.77047504498818
 10
17.38279694833931
 20
41.80965588104192
 10
17.22222483188854
 20
41.84563505704395
 10
17.09711720891433
 20
41.87747944104844
 10
16.91557092839207
 20
41.9433724880927
 10
16.70300645201862
 20
42.05956312385015
 10
16.50878077997606
 20
42.21150969216767
 10
16.34269556111309
 20
42.3976484929006
 10
16.23516938723016
 20
42.61398146153331
 10
16.18831354456025
 20
42.86025251002127
 10
16.18953713208302
 20
43.02720931514786
 10
16.20569789843731
 20
43.15311213076538
 10
16.23506996274668
 20
43.27431913414961
 10
16.2793808523829
 20
43.39267513896442
 10
16.34242634313067
 20
43.51278706551198
 10
16.4242732977544
 20
43.63474598725139
 10
16.53022664896761
 20
43.75220064720264
 10
16.67032155441054
 20
43.85234609869686
 10
16.84482448665225
 20
43.93487770058058
 10
17.05059210670125
 20
43.99761675753336
 10
17.28236793835867
 20
44.03614677067295
 10
17.54007274097854
 20
44.05043633804027
 10
17.93944949175703
 20
44.02587823972419
 10
18.35609974744675
 20
43.94179475231917
 10
18.77748588824377
 20
43.7980391125622
 10
18.77470281999504
 20
43.6516955772914
 10
18.7308907218521
 20
43.37671369451328
 10
18.70700759253952
 20
43.22681382339595
 10
18.69234657833268
 20
43.23597604997795
 10
18.65953073071644
 20
43.25232224996881
 10
18.608548841605
 20
43.27590174546935
 10
18.55855922843364
 20
43.29861246723388
 10
18.52589020429508
 20
43.31421936133745
 10
18.51034250248298
 20
43.32277526616763
 10
18.49295696062034
 20
43.33173039437054
 10
18.46006139503129
 20
43.34636858470216
 10
18.4118818196606
 20
43.36663409717977
 10
18.36488452140143
 20
43.38592548781815
 10
18.32920781004297
 20
43.39986168529674
 10
18.30445943708041
 20
43.40867931326264
 10
18.27679509264707
 20
43.41858161848693
 10
18.2391143512118
 20
43.43274622030782
 10
18.19185785444316
 20
43.45091626545243
 10
18.14648904105919
 20
43.46637247230262
 10
18.10827323568151
 20
43.47614561702409
 10
18.07662118114969
 20
43.48059621999953
 10
18.04053929770929
 20
43.48645077857386
 10
17.99594921452421
 20
43.4961268321309
 10
17.94342469476329
 20
43.5090933686749
 10
17.89218189353277
 20
43.5199859044217
 10
17.84525421223271
 20
43.52708973208263
 10
17.80198406132356
 20
43.5306553447543
 10
17.7553495164085
 20
43.53345382231774
 10
17.70356014270358
 20
43.53625229988113
 10
17.6468118693907
 20
43.53897151986314
 10
17.58711549944446
 20
43.54090892740709
 10
17.52505118694456
 20
43.54189915792957
 10
17.37570446299277
 20
43.53832054892134
 10
17.16178776170872
 20
43.50392400305611
 10
17.00008419373262
 20
43.43341815474201
 10
16.88877289265599
 20
43.32995084966356
 10
16.81641897281255
 20
43.21283994532279
 10
16.78106506611701
 20
43.08531009374596
 10
16.78493414826483
 20
42.92517581082674
 10
16.83902549055282
 20
42.77250401180495
 10
16.94485637763805
 20
42.65641146075418
 10
17.10069185943413
 20
42.57269216557344
 10
17.29870697092007
 20
42.50289686561589
 10
17.53798803513902
 20
42.44495949336925
 10
17.79917582709916
 20
42.39602654257339
 10
18.0121817536488
 20
42.34616393722993
 10
18.17059385387693
 20
42.2945126245113
 10
18.34474858904779
 20
42.2073263332619
 10
18.52571047098216
 20
42.07818724669252
 10
18.68600385741173
 20
41.91813011634955
 10
18.81816781747619
 20
41.72884243875564
 10
18.90256657518146
 20
41.51416065468055
 10
18.93811649949924
 20
41.27428031884611
 10
18.93542648113127
 20
41.11572666267091
 10
18.91861775958731
 20
40.98730883263647
 10
18.88869063629614
 20
40.86078535664495
 10
18.84352223495206
 20
40.73552217404556
 10
18.77961168621627
 20
40.6102903030833
 10
18.6968486717649
 20
40.48505843212097
 10
18.58941728897076
 20
40.36582294162829
 10
18.44775925165924
 20
40.26247050108255
 10
18.27169136605467
 20
40.17507070737133
 10
18.06508751391719
 20
40.10794661371
 10
17.83342629840693
 20
40.06722658488899
 10
17.57670678619625
 20
40.05287450715002
 10
17.09085885065127
 20
40.09415070265214
 10
16.60563882946827
 20
40.2203425286942
  0
LWPOLYLINE
  5
DB
330
1F
100
AcDbEntity
  8
Calque 1
370
     0
100
AcDbPolyline
 90
       23
 70
     1
 43
0.0
 10
13.0689365761539
 20
42.48370672722763
 10
13.13881166645734
 20
42.48370672722763
 10
13.32645376289017
 20
42.48370672722763
 10
13.59888810373615
 20
42.48370672722763
 10
13.92313992727906
 20
42.48370672722763
 10
14.59519697559076
 20
42.48370672722763
 10
14.87705267692709
 20
42.48370672722763
 10
15.07882681409544
 20
42.48370672722763
 10
15.16754462537958
 20
42.48370672722763
 10
15.1590383263231
 20
42.54435257199981
 10
15.1299864820514
 20
42.67899679265278
 10
15.04814393242992
 20
42.91938749799271
 10
14.93639364762713
 20
43.12021419184818
 10
14.80888205097933
 20
43.27275874720919
 10
14.53292990261081
 20
43.44394096635389
 10
14.29770524243199
 20
43.51266860267395
 10
14.18912821354881
 20
43.52434315317788
 10
14.11707996273267
 20
43.52518266390331
 10
13.93813416708242
 20
43.50497298605981
 10
13.62297252572242
 20
43.37038329943476
 10
13.36555929743391
 20
43.1145905108342
 10
13.17926575906902
 20
42.81011547828933
 10
13.0689365761539
 20
42.48370672722763
  0
LWPOLYLINE
  5
DC
330
1F
100
AcDbEntity
  8
Calque 1
370
     0
100
AcDbPolyline
 90
       70
 70
     1
 43
0.0
 10
12.43641704506202
 20
42.06306056847862
 10
12.4644631165844
 20
42.44167561476965
 10
12.54860133115153
 20
42.79124928044644
 10
12.68883168876341
 20
43.11180817805154
 10
12.88515418942005
 20
43.40337892012757
 10
13.12767663170027
 20
43.6566475373213
 10
13.39081009787823
 20
43.84802454048497
 10
13.67324652826188
 20
43.97633691445238
 10
13.97498592285121
 20
44.04155804668102
 10
14.133094231723
 20
44.05050108072368
 10
14.19869895122622
 20
44.04957176268789
 10
14.31449402709068
 20
44.04101033032844
 10
14.53859008683385
 20
43.99731750311466
 10
14.75481962092895
 20
43.91623596970293
 10
14.97192119481877
 20
43.78969936199223
 10
15.18678412951339
 20
43.6129780752627
 10
15.37151728185674
 20
43.35954150992697
 10
15.5196631164246
 20
43.02536051915564
 10
15.61613251871371
 20
42.62355607208198
 10
15.64324750608028
 20
42.39880901040871
 10
15.65152507131907
 20
42.28047427003795
 10
15.65275819009127
 20
42.25030108755802
 10
15.65275819009127
 20
42.11162632176743
 10
15.65275819009127
 20
42.03852060284518
 10
15.64522751078776
 20
42.0124176648454
 10
15.59299562792736
 20
42.0124176648454
 10
15.49640396318229
 20
42.0124176648454
 10
15.19548973482936
 20
42.0124176648454
 10
14.79318171931146
 20
42.0124176648454
 10
14.34017681021108
 20
42.0124176648454
 10
13.88717190111071
 20
42.0124176648454
 10
13.48486388559281
 20
42.0124176648454
 10
13.18394965723988
 20
42.0124176648454
 10
13.08735799249481
 20
42.0124176648454
 10
13.03512610963441
 20
42.0124176648454
 10
13.02762543381653
 20
42.0124176648454
 10
13.02920539847618
 20
41.97777840095591
 10
13.03436231783505
 20
41.90474837993252
 10
13.05165928772133
 20
41.76358504571737
 10
13.11418575216797
 20
41.50084520861343
 10
13.21395558284677
 20
41.26422114661131
 10
13.35096877975771
 20
41.05371285971094
 10
13.52121941009386
 20
40.87250874341177
 10
13.70823863898235
 20
40.73371664587796
 10
13.91024605184232
 20
40.63875363177593
 10
14.12724164867375
 20
40.58761970110558
 10
14.38097595907835
 20
40.58073119231059
 10
14.68290459841479
 20
40.62350050515848
 10
14.98437905035816
 20
40.71759299342386
 10
15.28539931490845
 20
40.86300865710668
 10
15.56598073674009
 20
41.04463034194035
 10
15.56853394407358
 20
41.01811626578487
 10
15.57433920410828
 20
40.95783087311693
 10
15.60932298805987
 20
40.59453773208107
 10
15.61934207808398
 20
40.49049333567682
 10
15.60456310418044
 20
40.47691095630932
 10
15.5287478735914
 20
40.42857311677758
 10
15.37609549077892
 20
40.34066893174284
 10
15.06670303861628
 20
40.19994653778844
 10
14.75186033773674
 20
40.10600544532076
 10
14.4315673881403
 20
40.05884565433982
 10
14.08318345293484
 20
40.06218208128586
 10
13.73791776650916
 20
40.13001514585858
 10
13.42421810390219
 20
40.26351909462923
 10
13.14208446511393
 20
40.46272054014034
 10
12.89242118770925
 20
40.72609563374856
 10
12.69291937530109
 20
41.02447646632742
 10
12.55041808072383
 20
41.34678197467045
 10
12.46491730397747
 20
41.69298554623503
 10
12.43641704506202
 20
42.06306056847862
  0
ENDSEC
  0
SECTION
  2
OBJECTS
  0
DICTIONARY
  5
C
330
0
100
AcDbDictionary
281
     1
  3
ACAD_CIP_PREVIOUS_PRODUCT_INFO
350
C6
  3
ACAD_COLOR
350
AB
  3
ACAD_DETAILVIEWSTYLE
350
C2
  3
ACAD_GROUP
350
D
  3
ACAD_LAYOUT
350
1A
  3
ACAD_MATERIAL
350
3B
  3
ACAD_MLEADERSTYLE
350
9E
  3
ACAD_MLINESTYLE
350
17
  3
ACAD_PLOTSETTINGS
350
19
  3
ACAD_PLOTSTYLENAME
350
E
  3
ACAD_SCALELIST
350
AD
  3
ACAD_SECTIONVIEWSTYLE
350
C0
  3
ACAD_TABLESTYLE
350
9D
  3
ACAD_VISUALSTYLE
350
2A
  3
ACDB_RECOMPOSE_DATA
350
C63
  3
AcDbVariableDictionary
350
C4E
  0
SUN
  5
3F
330
29
100
AcDbSun
 90
        1
290
     1
 63
     7
421
 16777215
 40
1.0
291
     1
 91
  2455826
 92
 54000000
292
     0
 70
     0
 71
   256
280
     1
  0
DICTIONARY
  5
C5B
330
2
100
AcDbDictionary
280
     1
281
     1
  3
ACAD_LAYERSTATES
360
C5C
  0
XRECORD
  5
C6
102
{ACAD_REACTORS
330
C
102
}
330
C
100
AcDbXrecord
280
     1
300
ACD
300
2021
300

  0
DICTIONARY
  5
AB
102
{ACAD_REACTORS
330
C
102
}
330
C
100
AcDbDictionary
281
     1
  0
DICTIONARY
  5
C2
102
{ACAD_REACTORS
330
C
102
}
330
C
100
AcDbDictionary
281
     1
  3
Imperial24
350
C3
  0
DICTIONARY
  5
D
102
{ACAD_REACTORS
330
C
102
}
330
C
100
AcDbDictionary
281
     1
  0
DICTIONARY
  5
1A
102
{ACAD_REACTORS
330
C
102
}
330
C
100
AcDbDictionary
281
     1
  3
Layout1
350
1E
  3
Layout2
350
26
  3
Model
350
22
  0
DICTIONARY
  5
3B
102
{ACAD_REACTORS
330
C
102
}
330
C
100
AcDbDictionary
281
     1
  3
ByBlock
350
3D
  3
ByLayer
350
3C
  3
Global
350
3E
  0
DICTIONARY
  5
9E
102
{ACAD_REACTORS
330
C
102
}
330
C
100
AcDbDictionary
281
     1
  3
Standard
350
BF
  0
DICTIONARY
  5
17
102
{ACAD_REACTORS
330
C
102
}
330
C
100
AcDbDictionary
281
     1
  3
Standard
350
18
  0
DICTIONARY
  5
19
102
{ACAD_REACTORS
330
C
102
}
330
C
100
AcDbDictionary
281
     1
  0
ACDBDICTIONARYWDFLT
  5
E
102
{ACAD_REACTORS
330
C
102
}
330
C
100
AcDbDictionary
281
     1
  3
Normal
350
F
100
AcDbDictionaryWithDefault
340
F
  0
DICTIONARY
  5
AD
102
{ACAD_REACTORS
330
C
102
}
330
C
100
AcDbDictionary
281
     1
  3
A0
350
AE
  3
A1
350
AF
  3
A2
350
B0
  3
A3
350
B1
  3
A4
350
B2
  3
A5
350
B3
  3
A6
350
B4
  3
A7
350
B5
  3
A8
350
B6
  3
A9
350
B7
  3
B0
350
B8
  3
B1
350
B9
  3
B2
350
BA
  3
B3
350
BB
  3
B4
350
BC
  3
B5
350
BD
  3
B6
350
BE
  0
DICTIONARY
  5
C0
102
{ACAD_REACTORS
330
C
102
}
330
C
100
AcDbDictionary
281
     1
  3
Imperial24
350
C1
  0
DICTIONARY
  5
9D
102
{ACAD_REACTORS
330
C
102
}
330
C
100
AcDbDictionary
281
     1
  3
Standard
350
AC
  0
DICTIONARY
  5
2A
102
{ACAD_REACTORS
330
C
102
}
330
C
100
AcDbDictionary
281
     1
  3
2dWireframe
350
2F
  3
3D Hidden
350
31
  3
3dWireframe
350
30
  3
Basic
350
32
  3
Brighten
350
36
  3
ColorChange
350
3A
  3
Conceptual
350
34
  3
Dim
350
35
  3
EdgeColorOff
350
AA
  3
Facepattern
350
39
  3
Flat
350
2B
  3
FlatWithEdges
350
2C
  3
Gouraud
350
2D
  3
GouraudWithEdges
350
2E
  3
Hidden
350
A2
  3
JitterOff
350
A8
  3
Linepattern
350
38
  3
OverhangOff
350
A9
  3
Realistic
350
33
  3
Shaded
350
A7
  3
Shaded with edges
350
A6
  3
Shades of Gray
350
A3
  3
Sketchy
350
A4
  3
Thicken
350
37
  3
Wireframe
350
A1
  3
X-Ray
350
A5
  0
XRECORD
  5
C63
102
{ACAD_REACTORS
330
C
102
}
330
C
100
AcDbXrecord
280
     1
 90
        1
330
AC
  0
DICTIONARY
  5
C4E
102
{ACAD_REACTORS
330
C
102
}
330
C
100
AcDbDictionary
281
     1
  3
CANNOSCALE
350
C53
  3
CMLEADERSTYLE
350
C50
  3
CTABLESTYLE
350
C4F
  3
CVIEWDETAILSTYLE
350
C51
  3
CVIEWSECTIONSTYLE
350
C52
  0
DICTIONARY
  5
C5C
102
{ACAD_REACTORS
330
C5B
102
}
330
C5B
100
AcDbDictionary
281
     1
  0
ACDBDETAILVIEWSTYLE
  5
C3
102
{ACAD_REACTORS
330
C2
102
}
330
C2
100
AcDbModelDocViewStyle
 70
     0
  3
Imperial24
290
     0
300
Imperial24
 90
        0
100
AcDbDetailViewStyle
 70
     0
 71
     0
 90
        3
 71
     1
340
11
 62
   256
 40
0.24
340
0
 62
   256
 40
0.24
300

 40
0.36
280
     3
 71
     2
340
16
 90
       25
 62
   256
 71
     3
340
11
 62
   256
 40
0.24
 90
        1
 40
0.75
 90
        1
300
%<\AcVar ViewType \f "%tc1">% %<\AcVar ViewDetailId>%\PSCALE %<\AcVar ViewScale \f "%sn">%
 71
     4
340
16
 90
       25
 62
   256
340
16
 90
       25
 62
   256
280
     0
  0
LAYOUT
  5
1E
102
{ACAD_REACTORS
330
1A
102
}
330
1A
100
AcDbPlotSettings
  1

  2
none_device
  4

  6

 40
0.0
 41
0.0
 42
0.0
 43
0.0
 44
0.0
 45
0.0
 46
0.0
 47
0.0
 48
0.0
 49
0.0
140
0.0
141
0.0
142
1.0
143
1.0
 70
   688
 72
     0
 73
     0
 74
     5
  7

 75
    16
147
1.0
 76
     0
 77
     2
 78
   300
148
0.0
149
0.0
100
AcDbLayout
  1
Layout1
 70
     1
 71
     1
 10
0.0
 20
0.0
 11
12.0
 21
9.0
 12
0.0
 22
0.0
 32
0.0
 14
1.000000000000000E+20
 24
1.000000000000000E+20
 34
1.000000000000000E+20
 15
-1.000000000000000E+20
 25
-1.000000000000000E+20
 35
-1.000000000000000E+20
146
0.0
 13
0.0
 23
0.0
 33
0.0
 16
1.0
 26
0.0
 36
0.0
 17
0.0
 27
1.0
 37
0.0
 76
     0
330
1B
  0
LAYOUT
  5
26
102
{ACAD_REACTORS
330
1A
102
}
330
1A
100
AcDbPlotSettings
  1

  2
none_device
  4

  6

 40
0.0
 41
0.0
 42
0.0
 43
0.0
 44
0.0
 45
0.0
 46
0.0
 47
0.0
 48
0.0
 49
0.0
140
0.0
141
0.0
142
1.0
143
1.0
 70
   688
 72
     0
 73
     0
 74
     5
  7

 75
    16
147
1.0
 76
     0
 77
     2
 78
   300
148
0.0
149
0.0
100
AcDbLayout
  1
Layout2
 70
     1
 71
     2
 10
0.0
 20
0.0
 11
0.0
 21
0.0
 12
0.0
 22
0.0
 32
0.0
 14
0.0
 24
0.0
 34
0.0
 15
0.0
 25
0.0
 35
0.0
146
0.0
 13
0.0
 23
0.0
 33
0.0
 16
1.0
 26
0.0
 36
0.0
 17
0.0
 27
1.0
 37
0.0
 76
     0
330
23
  0
LAYOUT
  5
22
102
{ACAD_REACTORS
330
1A
102
}
330
1A
100
AcDbPlotSettings
  1

  2
none_device
  4

  6

 40
0.0
 41
0.0
 42
0.0
 43
0.0
 44
0.0
 45
0.0
 46
0.0
 47
0.0
 48
0.0
 49
0.0
140
0.0
141
0.0
142
1.0
143
1.0
 70
  1712
 72
     0
 73
     0
 74
     0
  7

 75
     0
147
1.0
 76
     0
 77
     2
 78
   300
148
0.0
149
0.0
100
AcDbLayout
  1
Model
 70
     1
 71
     0
 10
0.0
 20
0.0
 11
12.0
 21
9.0
 12
0.0
 22
0.0
 32
0.0
 14
1.000000000000000E+20
 24
1.000000000000000E+20
 34
1.000000000000000E+20
 15
-1.000000000000000E+20
 25
-1.000000000000000E+20
 35
-1.000000000000000E+20
146
0.0
 13
0.0
 23
0.0
 33
0.0
 16
1.0
 26
0.0
 36
0.0
 17
0.0
 27
1.0
 37
0.0
 76
     0
330
1F
331
29
  0
MATERIAL
  5
3D
102
{ACAD_REACTORS
330
3B
102
}
330
3B
100
AcDbMaterial
  1
ByBlock
  0
MATERIAL
  5
3C
102
{ACAD_REACTORS
330
3B
102
}
330
3B
100
AcDbMaterial
  1
ByLayer
  0
MATERIAL
  5
3E
102
{ACAD_REACTORS
330
3B
102
}
330
3B
100
AcDbMaterial
  1
Global
  0
MLEADERSTYLE
  5
BF
102
{ACAD_REACTORS
330
9E
102
}
330
9E
100
AcDbMLeaderStyle
179
     2
170
     2
171
     1
172
     0
 90
        2
 40
0.0
 41
0.0
173
     1
 91
-1056964608
340
14
 92
       -2
290
     1
 42
0.09
291
     1
 43
0.36
  3
Standard
 44
0.18
300

342
11
174
     1
178
     6
175
     1
176
     0
 93
-1056964608
 45
0.18
292
     0
297
     0
 46
0.18
 94
-1056964608
 47
1.0
 49
1.0
140
1.0
293
     1
141
0.0
294
     1
177
     0
142
1.0
295
     0
296
     0
143
0.125
271
     0
272
     9
273
     9
298
     0
  0
MLINESTYLE
  5
18
102
{ACAD_REACTORS
330
17
102
}
330
17
100
AcDbMlineStyle
  2
STANDARD
 70
     0
  3

 62
   256
 51
90.0
 52
90.0
 71
     2
 49
0.5
 62
   256
  6
BYLAYER
 49
-0.5
 62
   256
  6
BYLAYER
  0
ACDBPLACEHOLDER
  5
F
102
{ACAD_REACTORS
330
E
102
}
330
E
  0
SCALE
  5
AE
102
{ACAD_REACTORS
330
AD
102
}
330
AD
100
AcDbScale
 70
     0
300
1:1
140
1.0
141
1.0
290
     1
  0
SCALE
  5
AF
102
{ACAD_REACTORS
330
AD
102
}
330
AD
100
AcDbScale
 70
     0
300
1/128" = 1'-0"
140
0.0078125
141
12.0
290
     0
  0
SCALE
  5
B0
102
{ACAD_REACTORS
330
AD
102
}
330
AD
100
AcDbScale
 70
     0
300
1/64" = 1'-0"
140
0.015625
141
12.0
290
     0
  0
SCALE
  5
B1
102
{ACAD_REACTORS
330
AD
102
}
330
AD
100
AcDbScale
 70
     0
300
1/32" = 1'-0"
140
0.03125
141
12.0
290
     0
  0
SCALE
  5
B2
102
{ACAD_REACTORS
330
AD
102
}
330
AD
100
AcDbScale
 70
     0
300
1/16" = 1'-0"
140
0.0625
141
12.0
290
     0
  0
SCALE
  5
B3
102
{ACAD_REACTORS
330
AD
102
}
330
AD
100
AcDbScale
 70
     0
300
3/32" = 1'-0"
140
0.09375
141
12.0
290
     0
  0
SCALE
  5
B4
102
{ACAD_REACTORS
330
AD
102
}
330
AD
100
AcDbScale
 70
     0
300
1/8" = 1'-0"
140
0.125
141
12.0
290
     0
  0
SCALE
  5
B5
102
{ACAD_REACTORS
330
AD
102
}
330
AD
100
AcDbScale
 70
     0
300
3/16" = 1'-0"
140
0.1875
141
12.0
290
     0
  0
SCALE
  5
B6
102
{ACAD_REACTORS
330
AD
102
}
330
AD
100
AcDbScale
 70
     0
300
1/4" = 1'-0"
140
0.25
141
12.0
290
     0
  0
SCALE
  5
B7
102
{ACAD_REACTORS
330
AD
102
}
330
AD
100
AcDbScale
 70
     0
300
3/8" = 1'-0"
140
0.375
141
12.0
290
     0
  0
SCALE
  5
B8
102
{ACAD_REACTORS
330
AD
102
}
330
AD
100
AcDbScale
 70
     0
300
1/2" = 1'-0"
140
0.5
141
12.0
290
     0
  0
SCALE
  5
B9
102
{ACAD_REACTORS
330
AD
102
}
330
AD
100
AcDbScale
 70
     0
300
3/4" = 1'-0"
140
0.75
141
12.0
290
     0
  0
SCALE
  5
BA
102
{ACAD_REACTORS
330
AD
102
}
330
AD
100
AcDbScale
 70
     0
300
1" = 1'-0"
140
1.0
141
12.0
290
     0
  0
SCALE
  5
BB
102
{ACAD_REACTORS
330
AD
102
}
330
AD
100
AcDbScale
 70
     0
300
1-1/2" = 1'-0"
140
1.5
141
12.0
290
     0
  0
SCALE
  5
BC
102
{ACAD_REACTORS
330
AD
102
}
330
AD
100
AcDbScale
 70
     0
300
3" = 1'-0"
140
3.0
141
12.0
290
     0
  0
SCALE
  5
BD
102
{ACAD_REACTORS
330
AD
102
}
330
AD
100
AcDbScale
 70
     0
300
6" = 1'-0"
140
6.0
141
12.0
290
     0
  0
SCALE
  5
BE
102
{ACAD_REACTORS
330
AD
102
}
330
AD
100
AcDbScale
 70
     0
300
1'-0" = 1'-0"
140
12.0
141
12.0
290
     0
  0
ACDBSECTIONVIEWSTYLE
  5
C1
102
{ACAD_REACTORS
330
C0
102
}
330
C0
100
AcDbModelDocViewStyle
 70
     0
  3
Imperial24
290
     0
300
Imperial24
 90
        0
100
AcDbSectionViewStyle
 70
     0
 71
     0
 90
       78
 71
     1
340
11
 62
   256
 40
0.24
340
0
340
0
 62
   256
 40
0.24
300
I, O, Q, S, X, Z
 40
0.48
 90
        3
 40
0.18
 90
        1
 71
     2
340
16
 90
       25
 62
   256
340
16
 90
       50
 62
   256
 40
0.24
 40
0.0
 40
0.24
 71
     3
340
11
 62
   256
 40
0.24
 90
        1
 40
0.75
 90
        1
300
%<\AcVar ViewType \f "%tc1">% %<\AcVar ViewSectionStartId>%-%<\AcVar ViewSectionEndId>%\PSCALE %<\AcVar ViewScale \f "%sn">%
 71
     4
 62
   256
 62
   257
300
ANSI31
 40
1.0
 90
        0
290
     0
290
     0
 90
        6
 40
0.0
 40
1.570796326794896
 40
0.2617993877991494
 40
1.308996938995747
 40
-0.2617993877991494
 40
1.832595714594046
  0
TABLESTYLE
  5
AC
102
{ACAD_XDICTIONARY
360
C61
102
}
102
{ACAD_REACTORS
330
9D
102
}
330
9D
100
AcDbTableStyle
280
     0
  3
Standard
 70
     0
 71
     0
 40
0.06
 41
0.06
280
     0
281
     0
  7
Standard
140
0.18
170
     2
 62
     0
 63
     7
283
     0
 90
      512
 91
        0
  1

274
    -2
284
     1
 64
     0
275
    -2
285
     1
 65
     0
276
    -2
286
     1
 66
     0
277
    -2
287
     1
 67
     0
278
    -2
288
     1
 68
     0
279
    -2
289
     1
 69
     0
  7
Standard
140
0.25
170
     5
 62
     0
 63
     7
283
     0
 90
      512
 91
        0
  1

274
    -2
284
     1
 64
     0
275
    -2
285
     1
 65
     0
276
    -2
286
     1
 66
     0
277
    -2
287
     1
 67
     0
278
    -2
288
     1
 68
     0
279
    -2
289
     1
 69
     0
  7
Standard
140
0.18
170
     5
 62
     0
 63
     7
283
     0
 90
      512
 91
        0
  1

274
    -2
284
     1
 64
     0
275
    -2
285
     1
 65
     0
276
    -2
286
     1
 66
     0
277
    -2
287
     1
 67
     0
278
    -2
288
     1
 68
     0
279
    -2
289
     1
 69
     0
  0
VISUALSTYLE
  5
2F
102
{ACAD_REACTORS
330
2A
102
}
330
2A
100
AcDbVisualStyle
  2
2dWireframe
 70
     4
177
     3
291
     0
 70
    58
 90
        0
176
     1
 90
        2
176
     1
 90
        0
176
     1
 90
        0
176
     1
 40
0.6
176
     1
 40
30.0
176
     1
 62
     7
420
 16777215
176
     1
 90
        1
176
     1
 90
        4
176
     1
 62
     7
176
     1
 62
   257
176
     1
 90
        1
176
     1
 90
        1
176
     1
 40
1.0
176
     1
 90
        0
176
     1
 62
   257
176
     1
 40
1.0
176
     1
 90
        1
176
     1
 90
        6
176
     1
 90
        2
176
     1
 62
     7
176
     1
 90
        5
176
     1
 90
        0
176
     1
 90
        0
176
     1
290
     0
176
     1
 90
        1
176
     1
 40
0.0
176
     1
 90
        0
176
     1
290
     1
176
     1
290
     1
176
     1
290
     0
176
     1
290
     0
176
     1
290
     0
176
     1
290
     0
176
     1
290
     0
176
     1
290
     0
176
     1
290
     0
176
     1
 90
       50
176
     1
 40
0.0
176
     1
 40
1.0
176
     1
 90
        0
176
     1
 62
    18
420
        0
176
     1
 90
       50
176
     1
 90
        3
176
     1
 62
     5
420
      255
176
     1
290
     0
176
     1
 90
       50
176
     1
 90
       50
176
     1
 90
       50
176
     1
290
     0
176
     1
 90
       50
176
     1
 62
   256
176
     0
 40
1.0
176
     0
 90
        2
176
     1
  1
strokes_ogs.tif
176
     1
290
     0
176
     1
 40
1.0
176
     1
 40
1.0
176
     1
  0
VISUALSTYLE
  5
31
102
{ACAD_REACTORS
330
2A
102
}
330
2A
100
AcDbVisualStyle
  2
3D Hidden
 70
     6
177
     3
291
     0
 70
    58
 90
        1
176
     1
 90
        2
176
     1
 90
        2
176
     1
 90
        0
176
     1
 40
0.6
176
     1
 40
30.0
176
     1
 62
     7
420
 16777215
176
     1
 90
        2
176
     1
 90
        2
176
     1
 62
     7
176
     1
 62
   257
176
     1
 90
        2
176
     1
 90
        1
176
     1
 40
40.0
176
     1
 90
        0
176
     1
 62
   257
176
     1
 40
1.0
176
     1
 90
        1
176
     1
 90
        6
176
     1
 90
        2
176
     1
 62
     7
176
     1
 90
        3
176
     1
 90
        0
176
     1
 90
        0
176
     1
290
     0
176
     1
 90
        1
176
     1
 40
0.0
176
     1
 90
        0
176
     1
290
     0
176
     1
290
     1
176
     1
290
     1
176
     1
290
     0
176
     1
290
     0
176
     1
290
     0
176
     1
290
     0
176
     1
290
     0
176
     1
290
     0
176
     1
 90
       50
176
     1
 40
0.0
176
     1
 40
1.0
176
     1
 90
        0
176
     1
 62
    18
420
        0
176
     1
 90
       50
176
     1
 90
        3
176
     1
 62
     5
420
      255
176
     1
290
     0
176
     1
 90
       50
176
     1
 90
       50
176
     1
 90
       50
176
     1
290
     0
176
     1
 90
       50
176
     1
 62
   256
176
     0
 40
1.0
176
     0
 90
        2
176
     1
  1
strokes_ogs.tif
176
     1
290
     0
176
     1
 40
1.0
176
     1
 40
1.0
176
     1
  0
VISUALSTYLE
  5
30
102
{ACAD_REACTORS
330
2A
102
}
330
2A
100
AcDbVisualStyle
  2
3dWireframe
 70
     5
177
     3
291
     0
 70
    58
 90
        0
176
     1
 90
        2
176
     1
 90
        0
176
     1
 90
        0
176
     1
 40
0.6
176
     1
 40
30.0
176
     1
 62
     7
420
 16777215
176
     1
 90
        1
176
     1
 90
        4
176
     1
 62
     7
176
     1
 62
   257
176
     1
 90
        1
176
     1
 90
        1
176
     1
 40
1.0
176
     1
 90
        0
176
     1
 62
   257
176
     1
 40
1.0
176
     1
 90
        1
176
     1
 90
        6
176
     1
 90
        2
176
     1
 62
     7
176
     1
 90
        5
176
     1
 90
        0
176
     1
 90
        0
176
     1
290
     0
176
     1
 90
        1
176
     1
 40
0.0
176
     1
 90
        0
176
     1
290
     0
176
     1
290
     1
176
     1
290
     1
176
     1
290
     0
176
     1
290
     0
176
     1
290
     0
176
     1
290
     0
176
     1
290
     0
176
     1
290
     0
176
     1
 90
       50
176
     1
 40
0.0
176
     1
 40
1.0
176
     1
 90
        0
176
     1
 62
    18
420
        0
176
     1
 90
       50
176
     1
 90
        3
176
     1
 62
     5
420
      255
176
     1
290
     0
176
     1
 90
       50
176
     1
 90
       50
176
     1
 90
       50
176
     1
290
     0
176
     1
 90
       50
176
     1
 62
   256
176
     0
 40
1.0
176
     0
 90
        2
176
     1
  1
strokes_ogs.tif
176
     1
290
     0
176
     1
 40
1.0
176
     1
 40
1.0
176
     1
  0
VISUALSTYLE
  5
32
102
{ACAD_REACTORS
330
2A
102
}
330
2A
100
AcDbVisualStyle
  2
Basic
 70
     7
177
     3
291
     1
 70
    58
 90
        1
176
     1
 90
        0
176
     1
 90
        1
176
     1
 90
        0
176
     1
 40
0.6
176
     1
 40
30.0
176
     1
 62
     7
420
 16777215
176
     1
 90
        0
176
     1
 90
        4
176
     1
 62
     7
176
     1
 62
   257
176
     1
 90
        1
176
     1
 90
        1
176
     1
 40
1.0
176
     1
 90
        8
176
     1
 62
     7
176
     1
 40
1.0
176
     1
 90
        1
176
     1
 90
        6
176
     1
 90
        2
176
     1
 62
     7
176
     1
 90
        5
176
     1
 90
        0
176
     1
 90
        0
176
     1
290
     0
176
     1
 90
        1
176
     1
 40
0.0
176
     1
 90
        0
176
     1
290
     0
176
     1
290
     1
176
     1
290
     1
176
     1
290
     0
176
     1
290
     0
176
     1
290
     0
176
     1
290
     0
176
     1
290
     0
176
     1
290
     0
176
     1
 90
       50
176
     1
 40
0.0
176
     1
 40
1.0
176
     1
 90
        0
176
     1
 62
    18
420
        0
176
     1
 90
       50
176
     1
 90
        3
176
     1
 62
     5
420
      255
176
     1
290
     0
176
     1
 90
       50
176
     1
 90
       50
176
     1
 90
       50
176
     1
290
     0
176
     1
 90
       50
176
     1
 62
   256
176
     0
 40
1.0
176
     0
 90
        2
176
     1
  1
strokes_ogs.tif
176
     1
290
     0
176
     1
 40
1.0
176
     1
 40
1.0
176
     1
  0
VISUALSTYLE
  5
36
102
{ACAD_REACTORS
330
2A
102
}
330
2A
100
AcDbVisualStyle
  2
Brighten
 70
    12
177
     3
291
     1
 70
    58
 90
        2
176
     1
 90
        2
176
     1
 90
        0
176
     1
 90
        0
176
     1
 40
0.6
176
     1
 40
30.0
176
     1
 62
     7
420
 16777215
176
     1
 90
        1
176
     1
 90
        4
176
     1
 62
     7
176
     1
 62
   257
176
     1
 90
        1
176
     1
 90
        1
176
     1
 40
1.0
176
     1
 90
        8
176
     1
 62
     7
176
     1
 40
1.0
176
     1
 90
        1
176
     1
 90
        6
176
     1
 90
        2
176
     1
 62
     7
176
     1
 90
        5
176
     1
 90
        0
176
     1
 90
        0
176
     1
290
     0
176
     1
 90
        1
176
     1
 40
50.0
176
     1
 90
        0
176
     1
290
     0
176
     1
290
     1
176
     1
290
     1
176
     1
290
     0
176
     1
290
     0
176
     1
290
     0
176
     1
290
     0
176
     1
290
     0
176
     1
290
     0
176
     1
 90
       50
176
     1
 40
0.0
176
     1
 40
1.0
176
     1
 90
        0
176
     1
 62
    18
420
        0
176
     1
 90
       50
176
     1
 90
        3
176
     1
 62
     5
420
      255
176
     1
290
     0
176
     1
 90
       50
176
     1
 90
       50
176
     1
 90
       50
176
     1
290
     0
176
     1
 90
       50
176
     1
 62
   256
176
     0
 40
1.0
176
     0
 90
        2
176
     1
  1
strokes_ogs.tif
176
     1
290
     0
176
     1
 40
1.0
176
     1
 40
1.0
176
     1
  0
VISUALSTYLE
  5
3A
102
{ACAD_REACTORS
330
2A
102
}
330
2A
100
AcDbVisualStyle
  2
ColorChange
 70
    16
177
     3
291
     1
 70
    58
 90
        2
176
     1
 90
        2
176
     1
 90
        3
176
     1
 90
        0
176
     1
 40
0.6
176
     1
 40
30.0
176
     1
 62
     8
420
  8421504
176
     1
 90
        1
176
     1
 90
        4
176
     1
 62
     7
176
     1
 62
   257
176
     1
 90
        1
176
     1
 90
        1
176
     1
 40
1.0
176
     1
 90
        8
176
     1
 62
     8
420
  8421504
176
     1
 40
1.0
176
     1
 90
        1
176
     1
 90
        6
176
     1
 90
        2
176
     1
 62
     7
176
     1
 90
        5
176
     1
 90
        0
176
     1
 90
        0
176
     1
290
     0
176
     1
 90
        1
176
     1
 40
0.0
176
     1
 90
        0
176
     1
290
     0
176
     1
290
     1
176
     1
290
     1
176
     1
290
     0
176
     1
290
     0
176
     1
290
     0
176
     1
290
     0
176
     1
290
     0
176
     1
290
     0
176
     1
 90
       50
176
     1
 40
0.0
176
     1
 40
1.0
176
     1
 90
        0
176
     1
 62
    18
420
        0
176
     1
 90
       50
176
     1
 90
        3
176
     1
 62
     5
420
      255
176
     1
290
     0
176
     1
 90
       50
176
     1
 90
       50
176
     1
 90
       50
176
     1
290
     0
176
     1
 90
       50
176
     1
 62
   256
176
     0
 40
1.0
176
     0
 90
        2
176
     1
  1
strokes_ogs.tif
176
     1
290
     0
176
     1
 40
1.0
176
     1
 40
1.0
176
     1
  0
VISUALSTYLE
  5
34
102
{ACAD_REACTORS
330
2A
102
}
330
2A
100
AcDbVisualStyle
  2
Conceptual
 70
     9
177
     3
291
     0
 70
    58
 90
        3
176
     1
 90
        2
176
     1
 90
        0
176
     1
 90
        0
176
     1
 40
0.6
176
     1
 40
30.0
176
     1
 62
     7
420
 16777215
176
     1
 90
        2
176
     1
 90
        2
176
     1
 62
     7
176
     1
 62
   257
176
     1
 90
        1
176
     1
 90
        1
176
     1
 40
40.0
176
     1
 90
        8
176
     1
 62
     7
176
     1
 40
1.0
176
     1
 90
        1
176
     1
 90
        6
176
     1
 90
        2
176
     1
 62
     7
176
     1
 90
        3
176
     1
 90
        0
176
     1
 90
        0
176
     1
290
     0
176
     1
 90
        1
176
     1
 40
0.0
176
     1
 90
        0
176
     1
290
     0
176
     1
290
     1
176
     1
290
     1
176
     1
290
     0
176
     1
290
     0
176
     1
290
     0
176
     1
290
     0
176
     1
290
     0
176
     1
290
     0
176
     1
 90
       50
176
     1
 40
0.0
176
     1
 40
1.0
176
     1
 90
        0
176
     1
 62
    18
420
        0
176
     1
 90
       50
176
     1
 90
        3
176
     1
 62
     5
420
      255
176
     1
290
     0
176
     1
 90
       50
176
     1
 90
       50
176
     1
 90
       50
176
     1
290
     0
176
     1
 90
       50
176
     1
 62
   256
176
     0
 40
1.0
176
     0
 90
        2
176
     1
  1
strokes_ogs.tif
176
     1
290
     0
176
     1
 40
1.0
176
     1
 40
1.0
176
     1
  0
VISUALSTYLE
  5
35
102
{ACAD_REACTORS
330
2A
102
}
330
2A
100
AcDbVisualStyle
  2
Dim
 70
    11
177
     3
291
     1
 70
    58
 90
        2
176
     1
 90
        2
176
     1
 90
        0
176
     1
 90
        0
176
     1
 40
0.6
176
     1
 40
30.0
176
     1
 62
     7
420
 16777215
176
     1
 90
        1
176
     1
 90
        4
176
     1
 62
     7
176
     1
 62
   257
176
     1
 90
        1
176
     1
 90
        1
176
     1
 40
1.0
176
     1
 90
        8
176
     1
 62
     7
176
     1
 40
1.0
176
     1
 90
        1
176
     1
 90
        6
176
     1
 90
        2
176
     1
 62
     7
176
     1
 90
        5
176
     1
 90
        0
176
     1
 90
        0
176
     1
290
     0
176
     1
 90
        1
176
     1
 40
-50.0
176
     1
 90
        0
176
     1
290
     0
176
     1
290
     1
176
     1
290
     1
176
     1
290
     0
176
     1
290
     0
176
     1
290
     0
176
     1
290
     0
176
     1
290
     0
176
     1
290
     0
176
     1
 90
       50
176
     1
 40
0.0
176
     1
 40
1.0
176
     1
 90
        0
176
     1
 62
    18
420
        0
176
     1
 90
       50
176
     1
 90
        3
176
     1
 62
     5
420
      255
176
     1
290
     0
176
     1
 90
       50
176
     1
 90
       50
176
     1
 90
       50
176
     1
290
     0
176
     1
 90
       50
176
     1
 62
   256
176
     0
 40
1.0
176
     0
 90
        2
176
     1
  1
strokes_ogs.tif
176
     1
290
     0
176
     1
 40
1.0
176
     1
 40
1.0
176
     1
  0
VISUALSTYLE
  5
AA
102
{ACAD_REACTORS
330
2A
102
}
330
2A
100
AcDbVisualStyle
  2
EdgeColorOff
 70
    22
177
     3
291
     1
 70
    58
 90
        2
176
     0
 90
        2
176
     0
 90
        0
176
     0
 90
        0
176
     0
 40
0.6
176
     0
 40
30.0
176
     0
 62
     7
420
 16777215
176
     0
 90
        1
176
     0
 90
        4
176
     0
 62
     7
176
     0
 62
   257
176
     0
 90
        1
176
     0
 90
        1
176
     0
 40
1.0
176
     0
 90
        8
176
     2
 62
     7
176
     0
 40
1.0
176
     0
 90
        1
176
     0
 90
        6
176
     0
 90
        2
176
     0
 62
     7
176
     0
 90
        5
176
     0
 90
        0
176
     0
 90
        0
176
     0
290
     0
176
     0
 90
        1
176
     0
 40
0.0
176
     0
 90
        0
176
     0
290
     0
176
     1
290
     1
176
     1
290
     1
176
     1
290
     0
176
     1
290
     0
176
     1
290
     0
176
     1
290
     0
176
     1
290
     0
176
     1
290
     0
176
     1
 90
       50
176
     0
 40
0.0
176
     0
 40
1.0
176
     0
 90
        0
176
     0
 62
    18
420
        0
176
     0
 90
       50
176
     0
 90
        3
176
     0
 62
     5
420
      255
176
     0
290
     0
176
     1
 90
       50
176
     0
 90
       50
176
     0
 90
       50
176
     0
290
     0
176
     1
 90
       50
176
     0
 62
   256
176
     0
 40
1.0
176
     0
 90
        2
176
     0
  1
strokes_ogs.tif
176
     0
290
     0
176
     1
 40
1.0
176
     0
 40
1.0
176
     0
  0
VISUALSTYLE
  5
39
102
{ACAD_REACTORS
330
2A
102
}
330
2A
100
AcDbVisualStyle
  2
Facepattern
 70
    15
177
     3
291
     1
 70
    58
 90
        2
176
     1
 90
        2
176
     1
 90
        0
176
     1
 90
        0
176
     1
 40
0.6
176
     1
 40
30.0
176
     1
 62
     7
420
 16777215
176
     1
 90
        1
176
     1
 90
        4
176
     1
 62
     7
176
     1
 62
   257
176
     1
 90
        1
176
     1
 90
        1
176
     1
 40
1.0
176
     1
 90
        8
176
     1
 62
     7
176
     1
 40
1.0
176
     1
 90
        1
176
     1
 90
        6
176
     1
 90
        2
176
     1
 62
     7
176
     1
 90
        5
176
     1
 90
        0
176
     1
 90
        0
176
     1
290
     0
176
     1
 90
        1
176
     1
 40
0.0
176
     1
 90
        0
176
     1
290
     0
176
     1
290
     1
176
     1
290
     1
176
     1
290
     0
176
     1
290
     0
176
     1
290
     0
176
     1
290
     0
176
     1
290
     0
176
     1
290
     0
176
     1
 90
       50
176
     1
 40
0.0
176
     1
 40
1.0
176
     1
 90
        0
176
     1
 62
    18
420
        0
176
     1
 90
       50
176
     1
 90
        3
176
     1
 62
     5
420
      255
176
     1
290
     0
176
     1
 90
       50
176
     1
 90
       50
176
     1
 90
       50
176
     1
290
     0
176
     1
 90
       50
176
     1
 62
   256
176
     0
 40
1.0
176
     0
 90
        2
176
     1
  1
strokes_ogs.tif
176
     1
290
     0
176
     1
 40
1.0
176
     1
 40
1.0
176
     1
  0
VISUALSTYLE
  5
2B
102
{ACAD_REACTORS
330
2A
102
}
330
2A
100
AcDbVisualStyle
  2
Flat
 70
     0
177
     3
291
     1
 70
    58
 90
        2
176
     1
 90
        1
176
     1
 90
        1
176
     1
 90
        2
176
     1
 40
0.6
176
     1
 40
30.0
176
     1
 62
     7
420
 16777215
176
     1
 90
        0
176
     1
 90
        4
176
     1
 62
     7
176
     1
 62
   257
176
     1
 90
        1
176
     1
 90
        1
176
     1
 40
1.0
176
     1
 90
        8
176
     1
 62
     7
176
     1
 40
1.0
176
     1
 90
        1
176
     1
 90
        6
176
     1
 90
        2
176
     1
 62
     7
176
     1
 90
        5
176
     1
 90
        0
176
     1
 90
        0
176
     1
290
     0
176
     1
 90
       13
176
     1
 40
0.0
176
     1
 90
        0
176
     1
290
     0
176
     1
290
     1
176
     1
290
     1
176
     1
290
     0
176
     1
290
     0
176
     1
290
     0
176
     1
290
     0
176
     1
290
     0
176
     1
290
     0
176
     1
 90
       50
176
     1
 40
0.0
176
     1
 40
1.0
176
     1
 90
        0
176
     1
 62
    18
420
        0
176
     1
 90
       50
176
     1
 90
        3
176
     1
 62
     5
420
      255
176
     1
290
     0
176
     1
 90
       50
176
     1
 90
       50
176
     1
 90
       50
176
     1
290
     0
176
     1
 90
       50
176
     1
 62
   256
176
     0
 40
1.0
176
     0
 90
        2
176
     1
  1
strokes_ogs.tif
176
     1
290
     0
176
     1
 40
1.0
176
     1
 40
1.0
176
     1
  0
VISUALSTYLE
  5
2C
102
{ACAD_REACTORS
330
2A
102
}
330
2A
100
AcDbVisualStyle
  2
FlatWithEdges
 70
     1
177
     3
291
     1
 70
    58
 90
        2
176
     1
 90
        1
176
     1
 90
        1
176
     1
 90
        2
176
     1
 40
0.6
176
     1
 40
30.0
176
     1
 62
     7
420
 16777215
176
     1
 90
        1
176
     1
 90
        4
176
     1
 62
     7
176
     1
 62
   257
176
     1
 90
        1
176
     1
 90
        1
176
     1
 40
1.0
176
     1
 90
        0
176
     1
 62
   257
176
     1
 40
1.0
176
     1
 90
        1
176
     1
 90
        6
176
     1
 90
        2
176
     1
 62
     7
176
     1
 90
        5
176
     1
 90
        0
176
     1
 90
        0
176
     1
290
     0
176
     1
 90
       13
176
     1
 40
0.0
176
     1
 90
        0
176
     1
290
     0
176
     1
290
     1
176
     1
290
     1
176
     1
290
     0
176
     1
290
     0
176
     1
290
     0
176
     1
290
     0
176
     1
290
     0
176
     1
290
     0
176
     1
 90
       50
176
     1
 40
0.0
176
     1
 40
1.0
176
     1
 90
        0
176
     1
 62
    18
420
        0
176
     1
 90
       50
176
     1
 90
        3
176
     1
 62
     5
420
      255
176
     1
290
     0
176
     1
 90
       50
176
     1
 90
       50
176
     1
 90
       50
176
     1
290
     0
176
     1
 90
       50
176
     1
 62
   256
176
     0
 40
1.0
176
     0
 90
        2
176
     1
  1
strokes_ogs.tif
176
     1
290
     0
176
     1
 40
1.0
176
     1
 40
1.0
176
     1
  0
VISUALSTYLE
  5
2D
102
{ACAD_REACTORS
330
2A
102
}
330
2A
100
AcDbVisualStyle
  2
Gouraud
 70
     2
177
     3
291
     1
 70
    58
 90
        2
176
     1
 90
        2
176
     1
 90
        1
176
     1
 90
        2
176
     1
 40
0.6
176
     1
 40
30.0
176
     1
 62
     7
420
 16777215
176
     1
 90
        0
176
     1
 90
        4
176
     1
 62
     7
176
     1
 62
   257
176
     1
 90
        1
176
     1
 90
        1
176
     1
 40
1.0
176
     1
 90
        0
176
     1
 62
     7
176
     1
 40
1.0
176
     1
 90
        1
176
     1
 90
        6
176
     1
 90
        2
176
     1
 62
     7
176
     1
 90
        5
176
     1
 90
        0
176
     1
 90
        0
176
     1
290
     0
176
     1
 90
       13
176
     1
 40
0.0
176
     1
 90
        0
176
     1
290
     0
176
     1
290
     1
176
     1
290
     1
176
     1
290
     0
176
     1
290
     0
176
     1
290
     0
176
     1
290
     0
176
     1
290
     0
176
     1
290
     0
176
     1
 90
       50
176
     1
 40
0.0
176
     1
 40
1.0
176
     1
 90
        0
176
     1
 62
    18
420
        0
176
     1
 90
       50
176
     1
 90
        3
176
     1
 62
     5
420
      255
176
     1
290
     0
176
     1
 90
       50
176
     1
 90
       50
176
     1
 90
       50
176
     1
290
     0
176
     1
 90
       50
176
     1
 62
   256
176
     0
 40
1.0
176
     0
 90
        2
176
     1
  1
strokes_ogs.tif
176
     1
290
     0
176
     1
 40
1.0
176
     1
 40
1.0
176
     1
  0
VISUALSTYLE
  5
2E
102
{ACAD_REACTORS
330
2A
102
}
330
2A
100
AcDbVisualStyle
  2
GouraudWithEdges
 70
     3
177
     3
291
     1
 70
    58
 90
        2
176
     1
 90
        2
176
     1
 90
        1
176
     1
 90
        2
176
     1
 40
0.6
176
     1
 40
30.0
176
     1
 62
     7
420
 16777215
176
     1
 90
        1
176
     1
 90
        4
176
     1
 62
     7
176
     1
 62
   257
176
     1
 90
        1
176
     1
 90
        1
176
     1
 40
1.0
176
     1
 90
        0
176
     1
 62
   257
176
     1
 40
1.0
176
     1
 90
        1
176
     1
 90
        6
176
     1
 90
        2
176
     1
 62
     7
176
     1
 90
        5
176
     1
 90
        0
176
     1
 90
        0
176
     1
290
     0
176
     1
 90
       13
176
     1
 40
0.0
176
     1
 90
        0
176
     1
290
     0
176
     1
290
     1
176
     1
290
     1
176
     1
290
     0
176
     1
290
     0
176
     1
290
     0
176
     1
290
     0
176
     1
290
     0
176
     1
290
     0
176
     1
 90
       50
176
     1
 40
0.0
176
     1
 40
1.0
176
     1
 90
        0
176
     1
 62
    18
420
        0
176
     1
 90
       50
176
     1
 90
        3
176
     1
 62
     5
420
      255
176
     1
290
     0
176
     1
 90
       50
176
     1
 90
       50
176
     1
 90
       50
176
     1
290
     0
176
     1
 90
       50
176
     1
 62
   256
176
     0
 40
1.0
176
     0
 90
        2
176
     1
  1
strokes_ogs.tif
176
     1
290
     0
176
     1
 40
1.0
176
     1
 40
1.0
176
     1
  0
VISUALSTYLE
  5
A2
102
{ACAD_REACTORS
330
2A
102
}
330
2A
100
AcDbVisualStyle
  2
Hidden
 70
     6
177
     3
291
     0
 70
    58
 90
        1
176
     1
 90
        2
176
     1
 90
        2
176
     1
 90
        0
176
     1
 40
0.6
176
     1
 40
30.0
176
     1
 62
     7
420
 16777215
176
     1
 90
        2
176
     1
 90
        2
176
     1
 62
     7
176
     1
 62
   257
176
     1
 90
        2
176
     1
 90
        1
176
     1
 40
40.0
176
     1
 90
        0
176
     1
 62
   257
176
     1
 40
1.0
176
     1
 90
        1
176
     1
 90
        6
176
     1
 90
        2
176
     1
 62
     7
176
     1
 90
        3
176
     1
 90
        0
176
     1
 90
        0
176
     1
290
     0
176
     1
 90
        1
176
     1
 40
0.0
176
     1
 90
        0
176
     1
290
     0
176
     1
290
     1
176
     1
290
     1
176
     1
290
     0
176
     1
290
     0
176
     1
290
     0
176
     1
290
     0
176
     1
290
     0
176
     1
290
     0
176
     1
 90
       50
176
     1
 40
0.0
176
     1
 40
1.0
176
     1
 90
        0
176
     1
 62
    18
420
        0
176
     1
 90
       50
176
     1
 90
        3
176
     1
 62
     5
420
      255
176
     1
290
     0
176
     1
 90
       50
176
     1
 90
       50
176
     1
 90
       50
176
     1
290
     0
176
     1
 90
       50
176
     1
 62
   256
176
     0
 40
1.0
176
     0
 90
        2
176
     1
  1
strokes_ogs.tif
176
     1
290
     0
176
     1
 40
1.0
176
     1
 40
1.0
176
     1
  0
VISUALSTYLE
  5
A8
102
{ACAD_REACTORS
330
2A
102
}
330
2A
100
AcDbVisualStyle
  2
JitterOff
 70
    20
177
     3
291
     1
 70
    58
 90
        2
176
     0
 90
        2
176
     0
 90
        0
176
     0
 90
        0
176
     0
 40
0.6
176
     0
 40
30.0
176
     0
 62
     7
420
 16777215
176
     0
 90
        1
176
     0
 90
        4
176
     0
 62
     7
176
     0
 62
   257
176
     0
 90
        1
176
     0
 90
        1
176
     0
 40
1.0
176
     0
 90
       10
176
     2
 62
     7
176
     0
 40
1.0
176
     0
 90
        1
176
     0
 90
        6
176
     0
 90
        2
176
     0
 62
     7
176
     0
 90
        5
176
     0
 90
        0
176
     0
 90
        0
176
     0
290
     0
176
     0
 90
        1
176
     0
 40
0.0
176
     0
 90
        0
176
     0
290
     0
176
     1
290
     1
176
     1
290
     1
176
     1
290
     0
176
     1
290
     0
176
     1
290
     0
176
     1
290
     0
176
     1
290
     0
176
     1
290
     0
176
     1
 90
       50
176
     0
 40
0.0
176
     0
 40
1.0
176
     0
 90
        0
176
     0
 62
    18
420
        0
176
     0
 90
       50
176
     0
 90
        3
176
     0
 62
     5
420
      255
176
     0
290
     0
176
     1
 90
       50
176
     0
 90
       50
176
     0
 90
       50
176
     0
290
     0
176
     1
 90
       50
176
     0
 62
   256
176
     0
 40
1.0
176
     0
 90
        2
176
     0
  1
strokes_ogs.tif
176
     0
290
     0
176
     1
 40
1.0
176
     0
 40
1.0
176
     0
  0
VISUALSTYLE
  5
38
102
{ACAD_REACTORS
330
2A
102
}
330
2A
100
AcDbVisualStyle
  2
Linepattern
 70
    14
177
     3
291
     1
 70
    58
 90
        2
176
     1
 90
        2
176
     1
 90
        0
176
     1
 90
        0
176
     1
 40
0.6
176
     1
 40
30.0
176
     1
 62
     7
420
 16777215
176
     1
 90
        1
176
     1
 90
        4
176
     1
 62
     7
176
     1
 62
   257
176
     1
 90
        7
176
     1
 90
        7
176
     1
 40
1.0
176
     1
 90
        8
176
     1
 62
     7
176
     1
 40
1.0
176
     1
 90
        1
176
     1
 90
        6
176
     1
 90
        2
176
     1
 62
     7
176
     1
 90
        5
176
     1
 90
        0
176
     1
 90
        0
176
     1
290
     0
176
     1
 90
        1
176
     1
 40
0.0
176
     1
 90
        0
176
     1
290
     0
176
     1
290
     1
176
     1
290
     1
176
     1
290
     0
176
     1
290
     0
176
     1
290
     0
176
     1
290
     0
176
     1
290
     0
176
     1
290
     0
176
     1
 90
       50
176
     1
 40
0.0
176
     1
 40
1.0
176
     1
 90
        0
176
     1
 62
    18
420
        0
176
     1
 90
       50
176
     1
 90
        3
176
     1
 62
     5
420
      255
176
     1
290
     0
176
     1
 90
       50
176
     1
 90
       50
176
     1
 90
       50
176
     1
290
     0
176
     1
 90
       50
176
     1
 62
   256
176
     0
 40
1.0
176
     0
 90
        2
176
     1
  1
strokes_ogs.tif
176
     1
290
     0
176
     1
 40
1.0
176
     1
 40
1.0
176
     1
  0
VISUALSTYLE
  5
A9
102
{ACAD_REACTORS
330
2A
102
}
330
2A
100
AcDbVisualStyle
  2
OverhangOff
 70
    21
177
     3
291
     1
 70
    58
 90
        2
176
     0
 90
        2
176
     0
 90
        0
176
     0
 90
        0
176
     0
 40
0.6
176
     0
 40
30.0
176
     0
 62
     7
420
 16777215
176
     0
 90
        1
176
     0
 90
        4
176
     0
 62
     7
176
     0
 62
   257
176
     0
 90
        1
176
     0
 90
        1
176
     0
 40
1.0
176
     0
 90
        9
176
     2
 62
     7
176
     0
 40
1.0
176
     0
 90
        1
176
     0
 90
        6
176
     0
 90
        2
176
     0
 62
     7
176
     0
 90
        5
176
     0
 90
        0
176
     0
 90
        0
176
     0
290
     0
176
     0
 90
        1
176
     0
 40
0.0
176
     0
 90
        0
176
     0
290
     0
176
     1
290
     1
176
     1
290
     1
176
     1
290
     0
176
     1
290
     0
176
     1
290
     0
176
     1
290
     0
176
     1
290
     0
176
     1
290
     0
176
     1
 90
       50
176
     0
 40
0.0
176
     0
 40
1.0
176
     0
 90
        0
176
     0
 62
    18
420
        0
176
     0
 90
       50
176
     0
 90
        3
176
     0
 62
     5
420
      255
176
     0
290
     0
176
     1
 90
       50
176
     0
 90
       50
176
     0
 90
       50
176
     0
290
     0
176
     1
 90
       50
176
     0
 62
   256
176
     0
 40
1.0
176
     0
 90
        2
176
     0
  1
strokes_ogs.tif
176
     0
290
     0
176
     1
 40
1.0
176
     0
 40
1.0
176
     0
  0
VISUALSTYLE
  5
33
102
{ACAD_REACTORS
330
2A
102
}
330
2A
100
AcDbVisualStyle
  2
Realistic
 70
     8
177
     3
291
     0
 70
    58
 90
        2
176
     1
 90
        2
176
     1
 90
        0
176
     1
 90
        0
176
     1
 40
0.6
176
     1
 40
30.0
176
     1
 62
     7
420
 16777215
176
     1
 90
        1
176
     1
 90
        0
176
     1
 62
     7
176
     1
 62
   257
176
     1
 90
        1
176
     1
 90
        1
176
     1
 40
1.0
176
     1
 90
        8
176
     1
 62
     8
420
  7895160
176
     1
 40
1.0
176
     1
 90
        1
176
     1
 90
        6
176
     1
 90
        2
176
     1
 62
     7
176
     1
 90
        5
176
     1
 90
        0
176
     1
 90
        0
176
     1
290
     0
176
     1
 90
       13
176
     1
 40
0.0
176
     1
 90
        0
176
     1
290
     0
176
     1
290
     1
176
     1
290
     1
176
     1
290
     0
176
     1
290
     0
176
     1
290
     0
176
     1
290
     0
176
     1
290
     0
176
     1
290
     0
176
     1
 90
       50
176
     1
 40
0.0
176
     1
 40
1.0
176
     1
 90
        0
176
     1
 62
    18
420
        0
176
     1
 90
       50
176
     1
 90
        3
176
     1
 62
     5
420
      255
176
     1
290
     0
176
     1
 90
       50
176
     1
 90
       50
176
     1
 90
       50
176
     1
290
     0
176
     1
 90
       50
176
     1
 62
   256
176
     0
 40
1.0
176
     0
 90
        2
176
     1
  1
strokes_ogs.tif
176
     1
290
     0
176
     1
 40
1.0
176
     1
 40
1.0
176
     1
  0
VISUALSTYLE
  5
A7
102
{ACAD_REACTORS
330
2A
102
}
330
2A
100
AcDbVisualStyle
  2
Shaded
 70
    27
177
     3
291
     0
 70
    58
 90
        2
176
     1
 90
        2
176
     1
 90
        1
176
     1
 90
        2
176
     1
 40
0.6
176
     1
 40
30.0
176
     1
 62
     7
420
 16777215
176
     1
 90
        0
176
     1
 90
        4
176
     1
 62
     7
176
     1
 62
   257
176
     1
 90
        1
176
     1
 90
        1
176
     1
 40
1.0
176
     1
 90
        8
176
     1
 62
   257
176
     1
 40
1.0
176
     1
 90
        1
176
     1
 90
        6
176
     1
 90
        2
176
     1
 62
     8
420
  7895160
176
     1
 90
        3
176
     1
 90
        0
176
     1
 90
        0
176
     1
290
     0
176
     1
 90
        5
176
     1
 40
0.0
176
     1
 90
        0
176
     1
290
     0
176
     1
290
     1
176
     1
290
     1
176
     1
290
     0
176
     1
290
     0
176
     1
290
     0
176
     1
290
     0
176
     1
290
     0
176
     1
290
     0
176
     1
 90
       50
176
     1
 40
0.0
176
     1
 40
1.0
176
     1
 90
        0
176
     1
 62
    18
420
        0
176
     1
 90
       50
176
     1
 90
        3
176
     1
 62
     5
420
      255
176
     1
290
     0
176
     1
 90
       50
176
     1
 90
       50
176
     1
 90
       50
176
     1
290
     0
176
     1
 90
       50
176
     1
 62
   256
176
     0
 40
1.0
176
     0
 90
        2
176
     1
  1
strokes_ogs.tif
176
     1
290
     0
176
     1
 40
1.0
176
     1
 40
1.0
176
     1
  0
VISUALSTYLE
  5
A6
102
{ACAD_REACTORS
330
2A
102
}
330
2A
100
AcDbVisualStyle
  2
Shaded with edges
 70
    26
177
     3
291
     0
 70
    58
 90
        2
176
     1
 90
        2
176
     1
 90
        1
176
     1
 90
        2
176
     1
 40
0.6
176
     1
 40
30.0
176
     1
 62
     7
420
 16777215
176
     1
 90
        1
176
     1
 90
        2
176
     1
 62
     7
176
     1
 62
   257
176
     1
 90
        2
176
     1
 90
        1
176
     1
 40
1.0
176
     1
 90
        8
176
     1
 62
   257
176
     1
 40
1.0
176
     1
 90
        1
176
     1
 90
        6
176
     1
 90
        2
176
     1
 62
     7
176
     1
 90
        3
176
     1
 90
        0
176
     1
 90
        0
176
     1
290
     0
176
     1
 90
        5
176
     1
 40
0.0
176
     1
 90
        0
176
     1
290
     0
176
     1
290
     1
176
     1
290
     1
176
     1
290
     0
176
     1
290
     0
176
     1
290
     0
176
     1
290
     0
176
     1
290
     0
176
     1
290
     0
176
     1
 90
       50
176
     1
 40
0.0
176
     1
 40
1.0
176
     1
 90
        0
176
     1
 62
    18
420
        0
176
     1
 90
       50
176
     1
 90
        3
176
     1
 62
     5
420
      255
176
     1
290
     0
176
     1
 90
       50
176
     1
 90
       50
176
     1
 90
       50
176
     1
290
     0
176
     1
 90
       50
176
     1
 62
   256
176
     0
 40
1.0
176
     0
 90
        2
176
     1
  1
strokes_ogs.tif
176
     1
290
     0
176
     1
 40
1.0
176
     1
 40
1.0
176
     1
  0
VISUALSTYLE
  5
A3
102
{ACAD_REACTORS
330
2A
102
}
330
2A
100
AcDbVisualStyle
  2
Shades of Gray
 70
    23
177
     3
291
     0
 70
    58
 90
        2
176
     1
 90
        2
176
     1
 90
        3
176
     1
 90
        0
176
     1
 40
0.6
176
     1
 40
30.0
176
     1
 62
     7
420
 16777215
176
     1
 90
        2
176
     1
 90
        2
176
     1
 62
     7
176
     1
 62
     7
176
     1
 90
        1
176
     1
 90
        1
176
     1
 40
40.0
176
     1
 90
        8
176
     1
 62
     7
176
     1
 40
1.0
176
     1
 90
        1
176
     1
 90
        6
176
     1
 90
        2
176
     1
 62
     7
176
     1
 90
        3
176
     1
 90
        0
176
     1
 90
        0
176
     1
290
     0
176
     1
 90
        1
176
     1
 40
0.0
176
     1
 90
        0
176
     1
290
     0
176
     1
290
     1
176
     1
290
     1
176
     1
290
     0
176
     1
290
     0
176
     1
290
     0
176
     1
290
     0
176
     1
290
     0
176
     1
290
     0
176
     1
 90
       50
176
     1
 40
0.0
176
     1
 40
1.0
176
     1
 90
        0
176
     1
 62
    18
420
        0
176
     1
 90
       50
176
     1
 90
        3
176
     1
 62
     5
420
      255
176
     1
290
     0
176
     1
 90
       50
176
     1
 90
       50
176
     1
 90
       50
176
     1
290
     0
176
     1
 90
       50
176
     1
 62
   256
176
     0
 40
1.0
176
     0
 90
        2
176
     1
  1
strokes_ogs.tif
176
     1
290
     0
176
     1
 40
1.0
176
     1
 40
1.0
176
     1
  0
VISUALSTYLE
  5
A4
102
{ACAD_REACTORS
330
2A
102
}
330
2A
100
AcDbVisualStyle
  2
Sketchy
 70
    24
177
     3
291
     0
 70
    58
 90
        1
176
     1
 90
        2
176
     1
 90
        2
176
     1
 90
        0
176
     1
 40
0.6
176
     1
 40
30.0
176
     1
 62
     7
420
 16777215
176
     1
 90
        2
176
     1
 90
        2
176
     1
 62
     7
176
     1
 62
     7
176
     1
 90
        1
176
     1
 90
        1
176
     1
 40
40.0
176
     1
 90
       11
176
     1
 62
     7
176
     1
 40
1.0
176
     1
 90
        1
176
     1
 90
        6
176
     1
 90
        2
176
     1
 62
     7
176
     1
 90
        6
176
     1
 90
        0
176
     1
 90
        0
176
     1
290
     0
176
     1
 90
        1
176
     1
 40
0.0
176
     1
 90
        0
176
     1
290
     0
176
     1
290
     1
176
     1
290
     1
176
     1
290
     0
176
     1
290
     0
176
     1
290
     0
176
     1
290
     0
176
     1
290
     0
176
     1
290
     0
176
     1
 90
       50
176
     1
 40
0.0
176
     1
 40
1.0
176
     1
 90
        0
176
     1
 62
    18
420
        0
176
     1
 90
       50
176
     1
 90
        3
176
     1
 62
     5
420
      255
176
     1
290
     0
176
     1
 90
       50
176
     1
 90
       50
176
     1
 90
       50
176
     1
290
     0
176
     1
 90
       50
176
     1
 62
   256
176
     0
 40
1.0
176
     0
 90
        2
176
     1
  1
strokes_ogs.tif
176
     1
290
     0
176
     1
 40
1.0
176
     1
 40
1.0
176
     1
  0
VISUALSTYLE
  5
37
102
{ACAD_REACTORS
330
2A
102
}
330
2A
100
AcDbVisualStyle
  2
Thicken
 70
    13
177
     3
291
     1
 70
    58
 90
        2
176
     1
 90
        2
176
     1
 90
        0
176
     1
 90
        0
176
     1
 40
0.6
176
     1
 40
30.0
176
     1
 62
     7
420
 16777215
176
     1
 90
        1
176
     1
 90
        4
176
     1
 62
     7
176
     1
 62
   257
176
     1
 90
        1
176
     1
 90
        1
176
     1
 40
1.0
176
     1
 90
       12
176
     1
 62
     7
176
     1
 40
1.0
176
     1
 90
        1
176
     1
 90
        6
176
     1
 90
        2
176
     1
 62
     7
176
     1
 90
        5
176
     1
 90
        0
176
     1
 90
        0
176
     1
290
     0
176
     1
 90
        1
176
     1
 40
0.0
176
     1
 90
        0
176
     1
290
     0
176
     1
290
     1
176
     1
290
     1
176
     1
290
     0
176
     1
290
     0
176
     1
290
     0
176
     1
290
     0
176
     1
290
     0
176
     1
290
     0
176
     1
 90
       50
176
     1
 40
0.0
176
     1
 40
1.0
176
     1
 90
        0
176
     1
 62
    18
420
        0
176
     1
 90
       50
176
     1
 90
        3
176
     1
 62
     5
420
      255
176
     1
290
     0
176
     1
 90
       50
176
     1
 90
       50
176
     1
 90
       50
176
     1
290
     0
176
     1
 90
       50
176
     1
 62
   256
176
     0
 40
1.0
176
     0
 90
        2
176
     1
  1
strokes_ogs.tif
176
     1
290
     0
176
     1
 40
1.0
176
     1
 40
1.0
176
     1
  0
VISUALSTYLE
  5
A1
102
{ACAD_REACTORS
330
2A
102
}
330
2A
100
AcDbVisualStyle
  2
Wireframe
 70
     5
177
     3
291
     0
 70
    58
 90
        0
176
     1
 90
        2
176
     1
 90
        0
176
     1
 90
        0
176
     1
 40
0.6
176
     1
 40
30.0
176
     1
 62
     7
420
 16777215
176
     1
 90
        1
176
     1
 90
        4
176
     1
 62
     7
176
     1
 62
   257
176
     1
 90
        1
176
     1
 90
        1
176
     1
 40
1.0
176
     1
 90
        0
176
     1
 62
   257
176
     1
 40
1.0
176
     1
 90
        1
176
     1
 90
        6
176
     1
 90
        2
176
     1
 62
     7
176
     1
 90
        3
176
     1
 90
        0
176
     1
 90
        0
176
     1
290
     0
176
     1
 90
        1
176
     1
 40
0.0
176
     1
 90
        0
176
     1
290
     0
176
     1
290
     1
176
     1
290
     1
176
     1
290
     0
176
     1
290
     0
176
     1
290
     0
176
     1
290
     0
176
     1
290
     0
176
     1
290
     0
176
     1
 90
       50
176
     1
 40
0.0
176
     1
 40
1.0
176
     1
 90
        0
176
     1
 62
    18
420
        0
176
     1
 90
       50
176
     1
 90
        3
176
     1
 62
     5
420
      255
176
     1
290
     0
176
     1
 90
       50
176
     1
 90
       50
176
     1
 90
       50
176
     1
290
     0
176
     1
 90
       50
176
     1
 62
   256
176
     0
 40
1.0
176
     0
 90
        2
176
     1
  1
strokes_ogs.tif
176
     1
290
     0
176
     1
 40
1.0
176
     1
 40
1.0
176
     1
  0
VISUALSTYLE
  5
A5
102
{ACAD_REACTORS
330
2A
102
}
330
2A
100
AcDbVisualStyle
  2
X-Ray
 70
    25
177
     3
291
     0
 70
    58
 90
        2
176
     1
 90
        2
176
     1
 90
        1
176
     1
 90
        1
176
     1
 40
0.5
176
     1
 40
30.0
176
     1
 62
     7
420
 16777215
176
     1
 90
        1
176
     1
 90
        0
176
     1
 62
     7
176
     1
 62
   257
176
     1
 90
        1
176
     1
 90
        1
176
     1
 40
1.0
176
     1
 90
        8
176
     1
 62
     7
176
     1
 40
1.0
176
     1
 90
        1
176
     1
 90
        6
176
     1
 90
        2
176
     1
 62
     7
176
     1
 90
        3
176
     1
 90
        0
176
     1
 90
        0
176
     1
290
     0
176
     1
 90
       13
176
     1
 40
0.0
176
     1
 90
        0
176
     1
290
     0
176
     1
290
     1
176
     1
290
     1
176
     1
290
     0
176
     1
290
     0
176
     1
290
     0
176
     1
290
     0
176
     1
290
     0
176
     1
290
     0
176
     1
 90
       50
176
     1
 40
0.0
176
     1
 40
1.0
176
     1
 90
        0
176
     1
 62
    18
420
        0
176
     1
 90
       50
176
     1
 90
        3
176
     1
 62
     5
420
      255
176
     1
290
     0
176
     1
 90
       50
176
     1
 90
       50
176
     1
 90
       50
176
     1
290
     0
176
     1
 90
       50
176
     1
 62
   256
176
     0
 40
1.0
176
     0
 90
        2
176
     1
  1
strokes_ogs.tif
176
     1
290
     0
176
     1
 40
1.0
176
     1
 40
1.0
176
     1
  0
DICTIONARYVAR
  5
C53
102
{ACAD_REACTORS
330
C4E
102
}
330
C4E
100
DictionaryVariables
280
     0
  1
1:1
  0
DICTIONARYVAR
  5
C50
102
{ACAD_REACTORS
330
C4E
102
}
330
C4E
100
DictionaryVariables
280
     0
  1
STANDARD
  0
DICTIONARYVAR
  5
C4F
102
{ACAD_REACTORS
330
C4E
102
}
330
C4E
100
DictionaryVariables
280
     0
  1
STANDARD
  0
DICTIONARYVAR
  5
C51
102
{ACAD_REACTORS
330
C4E
102
}
330
C4E
100
DictionaryVariables
280
     0
  1
Imperial24
  0
DICTIONARYVAR
  5
C52
102
{ACAD_REACTORS
330
C4E
102
}
330
C4E
100
DictionaryVariables
280
     0
  1
Imperial24
  0
DICTIONARY
  5
C61
330
AC
100
AcDbDictionary
280
     1
281
     1
  3
ACAD_ROUNDTRIP_2008_TABLESTYLE_CELLSTYLEMAP
360
C62
  0
CELLSTYLEMAP
  5
C62
102
{ACAD_REACTORS
330
C61
102
}
330
C61
100
AcDbCellStyleMap
 90
        3
300
CELLSTYLE
  1
TABLEFORMAT_BEGIN
 90
        5
170
     1
 91
        0
 92
    32768
 62
   257
 93
        1
300
CONTENTFORMAT
  1
CONTENTFORMAT_BEGIN
 90
        0
 91
        0
 92
      512
 93
        0
300

 40
0.0
140
1.0
 94
        5
 62
     0
340
11
144
0.25
309
CONTENTFORMAT_END
171
     0
 94
        0
309
TABLEFORMAT_END
  1
CELLSTYLE_BEGIN
 90
        1
 91
        1
300
_TITLE
309
CELLSTYLE_END
300
CELLSTYLE
  1
TABLEFORMAT_BEGIN
 90
        5
170
     1
 91
        0
 92
        0
 62
   257
 93
        1
300
CONTENTFORMAT
  1
CONTENTFORMAT_BEGIN
 90
        0
 91
        0
 92
      512
 93
        0
300

 40
0.0
140
1.0
 94
        5
 62
     0
340
11
144
0.18
309
CONTENTFORMAT_END
171
     0
 94
        0
309
TABLEFORMAT_END
  1
CELLSTYLE_BEGIN
 90
        2
 91
        1
300
_HEADER
309
CELLSTYLE_END
300
CELLSTYLE
  1
TABLEFORMAT_BEGIN
 90
        5
170
     1
 91
        0
 92
        0
 62
   257
 93
        1
300
CONTENTFORMAT
  1
CONTENTFORMAT_BEGIN
 90
        0
 91
        0
 92
      512
 93
        0
300

 40
0.0
140
1.0
 94
        2
 62
     0
340
11
144
0.18
309
CONTENTFORMAT_END
171
     0
 94
        0
309
TABLEFORMAT_END
  1
CELLSTYLE_BEGIN
 90
        3
 91
        2
300
_DATA
309
CELLSTYLE_END
  0
ENDSEC
  0
SECTION
  2
ACDSDATA
 70
     2
 71
     8
  0
ACDSSCHEMA
 90
        0
  1
AcDb_Thumbnail_Schema
  2
AcDbDs::ID
280
    10
 91
        8
  2
Thumbnail_Data
280
    15
 91
        0
101
ACDSRECORD
 95
        0
 90
        1
  2
AcDbDs::TreatedAsObjectData
280
     1
291
     1
101
ACDSRECORD
 95
        0
 90
        2
  2
AcDbDs::Legacy
280
     1
291
     1
101
ACDSRECORD
  1
AcDbDs::ID
 90
        3
  2
AcDs:Indexable
280
     1
291
     1
101
ACDSRECORD
  1
AcDbDs::ID
 90
        4
  2
AcDbDs::HandleAttribute
280
     7
282
     1
  0
ACDSSCHEMA
 90
        1
  1
AcDbDs::TreatedAsObjectDataSchema
  2
AcDbDs::TreatedAsObjectData
280
     1
 91
        0
  0
ACDSSCHEMA
 90
        2
  1
AcDbDs::LegacySchema
  2
AcDbDs::Legacy
280
     1
 91
        0
  0
ACDSSCHEMA
 90
        3
  1
AcDbDs::IndexedPropertySchema
  2
AcDs:Indexable
280
     1
 91
        0
  0
ACDSSCHEMA
 90
        4
  1
AcDbDs::HandleAttributeSchema
  2
AcDbDs::HandleAttribute
280
     7
 91
        1
284
     1
  0
ACDSRECORD
 90
        0
  2
AcDbDs::ID
280
    10
320
22
  2
Thumbnail_Data
280
    15
 94
      996
310
89504E470D0A1A0A0000000D49484452000001000000006F08030000003479EE6F00000300504C5445212830FFFFFF2128300000000000000000000000000000000000000000000000000000330000660000990000CC0000FF0033000033330033660033990033CC0033FF0066000066330066660066990066CC0066FF0099
310
000099330099660099990099CC0099FF00CC0000CC3300CC6600CC9900CCCC00CCFF00FF0000FF3300FF6600FF9900FFCC00FFFF3300003300333300663300993300CC3300FF3333003333333333663333993333CC3333FF3366003366333366663366993366CC3366FF3399003399333399663399993399CC3399FF33CC00
310
33CC3333CC6633CC9933CCCC33CCFF33FF0033FF3333FF6633FF9933FFCC33FFFF6600006600336600666600996600CC6600FF6633006633336633666633996633CC6633FF6666006666336666666666996666CC6666FF6699006699336699666699996699CC6699FF66CC0066CC3366CC6666CC9966CCCC66CCFF66FF0066
310
FF3366FF6666FF9966FFCC66FFFF9900009900339900669900999900CC9900FF9933009933339933669933999933CC9933FF9966009966339966669966999966CC9966FF9999009999339999669999999999CC9999FF99CC0099CC3399CC6699CC9999CCCC99CCFF99FF0099FF3399FF6699FF9999FFCC99FFFFCC0000CC00
310
33CC0066CC0099CC00CCCC00FFCC3300CC3333CC3366CC3399CC33CCCC33FFCC6600CC6633CC6666CC6699CC66CCCC66FFCC9900CC9933CC9966CC9999CC99CCCC99FFCCCC00CCCC33CCCC66CCCC99CCCCCCCCCCFFCCFF00CCFF33CCFF66CCFF99CCFFCCCCFFFFFF0000FF0033FF0066FF0099FF00CCFF00FFFF3300FF3333
310
FF3366FF3399FF33CCFF33FFFF6600FF6633FF6666FF6699FF66CCFF66FFFF9900FF9933FF9966FF9999FF99CCFF99FFFFCC00FFCC33FFCC66FFCC99FFCCCCFFCCFFFFFF00FFFF33FFFF66FFFF99FFFFCCFFFFFF0000000D0D0D1A1A1A2828283535354343435050505D5D5D6B6B6B787878868686939393A1A1A1AEAEAEBB
310
BBBBC9C9C9D6D6D6E4E4E4F1F1F1FFFFFF0000000000000000000000000000000000000000000000000000000000002E4550F10000009F4944415478DAEDD7310EC2400C04C0FCFFBFDB83C8718A440C2DB2678A34AEBC7262E7380000000000000000A090A7B2B02A699EC019C26797D9C5741F81DC76B99A4FFB0928FADF
310
0164C42B703B0133120087C08F4AFF2DF8653BBC7641F709387741914DF72D509F01973B4000A3BF91F6040C5883D73FA07109AC4F5DF6636400EF836FEC04646DBCC101646A0000000000000000000000000000F05F1E992EB8B6C4BCE2EA0000000049454E44AE426082
  0
ENDSEC
  0
EOF
